ISO-10303-21;
HEADER;
FILE_DESCRIPTION(('FreeCAD Model'),'2;1');
FILE_NAME('Open CASCADE Shape Model','2025-12-30T09:59:26',(''),(''),
  'Open CASCADE STEP processor 7.8','FreeCAD','Unknown');
FILE_SCHEMA(('AUTOMOTIVE_DESIGN { 1 0 10303 214 1 1 1 1 }'));
ENDSEC;
DATA;
#1 = APPLICATION_PROTOCOL_DEFINITION('international standard',
  'automotive_design',2000,#2);
#2 = APPLICATION_CONTEXT(
  'core data for automotive mechanical design processes');
#3 = SHAPE_DEFINITION_REPRESENTATION(#4,#10);
#4 = PRODUCT_DEFINITION_SHAPE('','',#5);
#5 = PRODUCT_DEFINITION('design','',#6,#9);
#6 = PRODUCT_DEFINITION_FORMATION('','',#7);
#7 = PRODUCT('Unnamed','Unnamed','',(#8));
#8 = PRODUCT_CONTEXT('',#2,'mechanical');
#9 = PRODUCT_DEFINITION_CONTEXT('part definition',#2,'design');
#10 = SHAPE_REPRESENTATION('',(#11,#15,#19,#23),#27);
#11 = AXIS2_PLACEMENT_3D('',#12,#13,#14);
#12 = CARTESIAN_POINT('',(0.,0.,0.));
#13 = DIRECTION('',(0.,0.,1.));
#14 = DIRECTION('',(1.,0.,-0.));
#15 = AXIS2_PLACEMENT_3D('',#16,#17,#18);
#16 = CARTESIAN_POINT('',(0.,0.,1.E-02));
#17 = DIRECTION('',(0.,0.,1.));
#18 = DIRECTION('',(1.,0.,0.));
#19 = AXIS2_PLACEMENT_3D('',#20,#21,#22);
#20 = CARTESIAN_POINT('',(0.,0.,1.E-02));
#21 = DIRECTION('',(0.,0.,1.));
#22 = DIRECTION('',(1.,0.,0.));
#23 = AXIS2_PLACEMENT_3D('',#24,#25,#26);
#24 = CARTESIAN_POINT('',(-1.5,-1.5,0.));
#25 = DIRECTION('',(0.,0.,1.));
#26 = DIRECTION('',(1.,0.,0.));
#27 = ( GEOMETRIC_REPRESENTATION_CONTEXT(3) 
GLOBAL_UNCERTAINTY_ASSIGNED_CONTEXT((#31)) GLOBAL_UNIT_ASSIGNED_CONTEXT(
(#28,#29,#30)) REPRESENTATION_CONTEXT('Context #1',
  '3D Context with UNIT and UNCERTAINTY') );
#28 = ( LENGTH_UNIT() NAMED_UNIT(*) SI_UNIT(.MILLI.,.METRE.) );
#29 = ( NAMED_UNIT(*) PLANE_ANGLE_UNIT() SI_UNIT($,.RADIAN.) );
#30 = ( NAMED_UNIT(*) SI_UNIT($,.STERADIAN.) SOLID_ANGLE_UNIT() );
#31 = UNCERTAINTY_MEASURE_WITH_UNIT(LENGTH_MEASURE(1.E-07),#28,
  'distance_accuracy_value','confusion accuracy');
#32 = PRODUCT_RELATED_PRODUCT_CATEGORY('part',$,(#7));
#33 = SHAPE_DEFINITION_REPRESENTATION(#34,#40);
#34 = PRODUCT_DEFINITION_SHAPE('','',#35);
#35 = PRODUCT_DEFINITION('design','',#36,#39);
#36 = PRODUCT_DEFINITION_FORMATION('','',#37);
#37 = PRODUCT('F.SilkS_outline_','F.SilkS_outline_','',(#38));
#38 = PRODUCT_CONTEXT('',#2,'mechanical');
#39 = PRODUCT_DEFINITION_CONTEXT('part definition',#2,'design');
#40 = SHAPE_REPRESENTATION('',(#11,#41,#72,#103,#134,#165,#174),#183);
#41 = GEOMETRIC_CURVE_SET('',(#42,#50,#57,#65));
#42 = TRIMMED_CURVE('',#43,(#48,PARAMETER_VALUE(1.570796326795)),(#49,
    PARAMETER_VALUE(4.712388980385)),.T.,.PARAMETER.);
#43 = CIRCLE('',#44,7.62E-02);
#44 = AXIS2_PLACEMENT_3D('',#45,#46,#47);
#45 = CARTESIAN_POINT('',(-1.6256,-1.6256,0.));
#46 = DIRECTION('',(0.,0.,1.));
#47 = DIRECTION('',(1.,0.,0.));
#48 = CARTESIAN_POINT('',(-1.6256,-1.5494,0.));
#49 = CARTESIAN_POINT('',(-1.6256,-1.7018,0.));
#50 = TRIMMED_CURVE('',#51,(#55,PARAMETER_VALUE(0.)),(#56,
    PARAMETER_VALUE(0.89895)),.T.,.PARAMETER.);
#51 = LINE('',#52,#53);
#52 = CARTESIAN_POINT('',(-1.6256,-1.7018,0.));
#53 = VECTOR('',#54,1.);
#54 = DIRECTION('',(1.,0.,0.));
#55 = CARTESIAN_POINT('',(-1.6256,-1.7018,0.));
#56 = CARTESIAN_POINT('',(-0.72665,-1.7018,0.));
#57 = TRIMMED_CURVE('',#58,(#63,PARAMETER_VALUE(4.712388980385)),(#64,
    PARAMETER_VALUE(7.853981633974)),.T.,.PARAMETER.);
#58 = CIRCLE('',#59,7.62E-02);
#59 = AXIS2_PLACEMENT_3D('',#60,#61,#62);
#60 = CARTESIAN_POINT('',(-0.72665,-1.6256,0.));
#61 = DIRECTION('',(0.,0.,1.));
#62 = DIRECTION('',(1.,0.,0.));
#63 = CARTESIAN_POINT('',(-0.72665,-1.7018,0.));
#64 = CARTESIAN_POINT('',(-0.72665,-1.5494,0.));
#65 = TRIMMED_CURVE('',#66,(#70,PARAMETER_VALUE(0.)),(#71,
    PARAMETER_VALUE(0.89895)),.T.,.PARAMETER.);
#66 = LINE('',#67,#68);
#67 = CARTESIAN_POINT('',(-0.72665,-1.5494,0.));
#68 = VECTOR('',#69,1.);
#69 = DIRECTION('',(-1.,0.,0.));
#70 = CARTESIAN_POINT('',(-0.72665,-1.5494,0.));
#71 = CARTESIAN_POINT('',(-1.6256,-1.5494,0.));
#72 = GEOMETRIC_CURVE_SET('',(#73,#81,#88,#96));
#73 = TRIMMED_CURVE('',#74,(#79,PARAMETER_VALUE(1.570796326795)),(#80,
    PARAMETER_VALUE(4.712388980385)),.T.,.PARAMETER.);
#74 = CIRCLE('',#75,7.62E-02);
#75 = AXIS2_PLACEMENT_3D('',#76,#77,#78);
#76 = CARTESIAN_POINT('',(-0.72665,1.6256,0.));
#77 = DIRECTION('',(0.,0.,1.));
#78 = DIRECTION('',(-1.,-1.224646799147E-16,0.));
#79 = CARTESIAN_POINT('',(-0.72665,1.5494,0.));
#80 = CARTESIAN_POINT('',(-0.72665,1.7018,0.));
#81 = TRIMMED_CURVE('',#82,(#86,PARAMETER_VALUE(0.)),(#87,
    PARAMETER_VALUE(0.89895)),.T.,.PARAMETER.);
#82 = LINE('',#83,#84);
#83 = CARTESIAN_POINT('',(-0.72665,1.7018,0.));
#84 = VECTOR('',#85,1.);
#85 = DIRECTION('',(-1.,-1.224646799147E-16,0.));
#86 = CARTESIAN_POINT('',(-0.72665,1.7018,0.));
#87 = CARTESIAN_POINT('',(-1.6256,1.7018,0.));
#88 = TRIMMED_CURVE('',#89,(#94,PARAMETER_VALUE(4.712388980385)),(#95,
    PARAMETER_VALUE(7.853981633974)),.T.,.PARAMETER.);
#89 = CIRCLE('',#90,7.62E-02);
#90 = AXIS2_PLACEMENT_3D('',#91,#92,#93);
#91 = CARTESIAN_POINT('',(-1.6256,1.6256,0.));
#92 = DIRECTION('',(0.,0.,1.));
#93 = DIRECTION('',(-1.,-1.224646799147E-16,0.));
#94 = CARTESIAN_POINT('',(-1.6256,1.7018,0.));
#95 = CARTESIAN_POINT('',(-1.6256,1.5494,0.));
#96 = TRIMMED_CURVE('',#97,(#101,PARAMETER_VALUE(0.)),(#102,
    PARAMETER_VALUE(0.89895)),.T.,.PARAMETER.);
#97 = LINE('',#98,#99);
#98 = CARTESIAN_POINT('',(-1.6256,1.5494,0.));
#99 = VECTOR('',#100,1.);
#100 = DIRECTION('',(1.,1.224646799147E-16,0.));
#101 = CARTESIAN_POINT('',(-1.6256,1.5494,0.));
#102 = CARTESIAN_POINT('',(-0.72665,1.5494,0.));
#103 = GEOMETRIC_CURVE_SET('',(#104,#112,#119,#127));
#104 = TRIMMED_CURVE('',#105,(#110,PARAMETER_VALUE(1.570796326795)),(
    #111,PARAMETER_VALUE(4.712388980385)),.T.,.PARAMETER.);
#105 = CIRCLE('',#106,7.62E-02);
#106 = AXIS2_PLACEMENT_3D('',#107,#108,#109);
#107 = CARTESIAN_POINT('',(0.72665,-1.6256,0.));
#108 = DIRECTION('',(0.,0.,1.));
#109 = DIRECTION('',(1.,0.,0.));
#110 = CARTESIAN_POINT('',(0.72665,-1.5494,0.));
#111 = CARTESIAN_POINT('',(0.72665,-1.7018,0.));
#112 = TRIMMED_CURVE('',#113,(#117,PARAMETER_VALUE(0.)),(#118,
    PARAMETER_VALUE(0.89895)),.T.,.PARAMETER.);
#113 = LINE('',#114,#115);
#114 = CARTESIAN_POINT('',(0.72665,-1.7018,0.));
#115 = VECTOR('',#116,1.);
#116 = DIRECTION('',(1.,0.,0.));
#117 = CARTESIAN_POINT('',(0.72665,-1.7018,0.));
#118 = CARTESIAN_POINT('',(1.6256,-1.7018,0.));
#119 = TRIMMED_CURVE('',#120,(#125,PARAMETER_VALUE(4.712388980385)),(
    #126,PARAMETER_VALUE(7.853981633974)),.T.,.PARAMETER.);
#120 = CIRCLE('',#121,7.62E-02);
#121 = AXIS2_PLACEMENT_3D('',#122,#123,#124);
#122 = CARTESIAN_POINT('',(1.6256,-1.6256,0.));
#123 = DIRECTION('',(0.,0.,1.));
#124 = DIRECTION('',(1.,0.,0.));
#125 = CARTESIAN_POINT('',(1.6256,-1.7018,0.));
#126 = CARTESIAN_POINT('',(1.6256,-1.5494,0.));
#127 = TRIMMED_CURVE('',#128,(#132,PARAMETER_VALUE(0.)),(#133,
    PARAMETER_VALUE(0.89895)),.T.,.PARAMETER.);
#128 = LINE('',#129,#130);
#129 = CARTESIAN_POINT('',(1.6256,-1.5494,0.));
#130 = VECTOR('',#131,1.);
#131 = DIRECTION('',(-1.,0.,0.));
#132 = CARTESIAN_POINT('',(1.6256,-1.5494,0.));
#133 = CARTESIAN_POINT('',(0.72665,-1.5494,0.));
#134 = GEOMETRIC_CURVE_SET('',(#135,#143,#150,#158));
#135 = TRIMMED_CURVE('',#136,(#141,PARAMETER_VALUE(1.570796326795)),(
    #142,PARAMETER_VALUE(4.712388980385)),.T.,.PARAMETER.);
#136 = CIRCLE('',#137,7.62E-02);
#137 = AXIS2_PLACEMENT_3D('',#138,#139,#140);
#138 = CARTESIAN_POINT('',(1.6256,1.6256,0.));
#139 = DIRECTION('',(0.,0.,1.));
#140 = DIRECTION('',(-1.,-1.224646799147E-16,0.));
#141 = CARTESIAN_POINT('',(1.6256,1.5494,0.));
#142 = CARTESIAN_POINT('',(1.6256,1.7018,0.));
#143 = TRIMMED_CURVE('',#144,(#148,PARAMETER_VALUE(0.)),(#149,
    PARAMETER_VALUE(0.89895)),.T.,.PARAMETER.);
#144 = LINE('',#145,#146);
#145 = CARTESIAN_POINT('',(1.6256,1.7018,0.));
#146 = VECTOR('',#147,1.);
#147 = DIRECTION('',(-1.,-1.224646799147E-16,0.));
#148 = CARTESIAN_POINT('',(1.6256,1.7018,0.));
#149 = CARTESIAN_POINT('',(0.72665,1.7018,0.));
#150 = TRIMMED_CURVE('',#151,(#156,PARAMETER_VALUE(4.712388980385)),(
    #157,PARAMETER_VALUE(7.853981633974)),.T.,.PARAMETER.);
#151 = CIRCLE('',#152,7.62E-02);
#152 = AXIS2_PLACEMENT_3D('',#153,#154,#155);
#153 = CARTESIAN_POINT('',(0.72665,1.6256,0.));
#154 = DIRECTION('',(0.,0.,1.));
#155 = DIRECTION('',(-1.,-1.224646799147E-16,0.));
#156 = CARTESIAN_POINT('',(0.72665,1.7018,0.));
#157 = CARTESIAN_POINT('',(0.72665,1.5494,0.));
#158 = TRIMMED_CURVE('',#159,(#163,PARAMETER_VALUE(0.)),(#164,
    PARAMETER_VALUE(0.89895)),.T.,.PARAMETER.);
#159 = LINE('',#160,#161);
#160 = CARTESIAN_POINT('',(0.72665,1.5494,0.));
#161 = VECTOR('',#162,1.);
#162 = DIRECTION('',(1.,1.224646799147E-16,0.));
#163 = CARTESIAN_POINT('',(0.72665,1.5494,0.));
#164 = CARTESIAN_POINT('',(1.6256,1.5494,0.));
#165 = GEOMETRIC_CURVE_SET('',(#166));
#166 = TRIMMED_CURVE('',#167,(#172,PARAMETER_VALUE(0.)),(#173,
    PARAMETER_VALUE(6.28318530718)),.T.,.PARAMETER.);
#167 = CIRCLE('',#168,0.2032);
#168 = AXIS2_PLACEMENT_3D('',#169,#170,#171);
#169 = CARTESIAN_POINT('',(-2.2963,0.9144,0.));
#170 = DIRECTION('',(0.,0.,1.));
#171 = DIRECTION('',(1.,0.,-0.));
#172 = CARTESIAN_POINT('',(-2.0931,0.9144,0.));
#173 = CARTESIAN_POINT('',(-2.0931,0.9144,0.));
#174 = GEOMETRIC_CURVE_SET('',(#175));
#175 = TRIMMED_CURVE('',#176,(#181,PARAMETER_VALUE(0.)),(#182,
    PARAMETER_VALUE(6.28318530718)),.T.,.PARAMETER.);
#176 = CIRCLE('',#177,5.08E-02);
#177 = AXIS2_PLACEMENT_3D('',#178,#179,#180);
#178 = CARTESIAN_POINT('',(-2.2963,0.9144,0.));
#179 = DIRECTION('',(0.,0.,1.));
#180 = DIRECTION('',(1.,0.,-0.));
#181 = CARTESIAN_POINT('',(-2.2455,0.9144,0.));
#182 = CARTESIAN_POINT('',(-2.2455,0.9144,0.));
#183 = ( GEOMETRIC_REPRESENTATION_CONTEXT(3) 
GLOBAL_UNCERTAINTY_ASSIGNED_CONTEXT((#187)) GLOBAL_UNIT_ASSIGNED_CONTEXT
((#184,#185,#186)) REPRESENTATION_CONTEXT('Context #1',
  '3D Context with UNIT and UNCERTAINTY') );
#184 = ( LENGTH_UNIT() NAMED_UNIT(*) SI_UNIT(.MILLI.,.METRE.) );
#185 = ( NAMED_UNIT(*) PLANE_ANGLE_UNIT() SI_UNIT($,.RADIAN.) );
#186 = ( NAMED_UNIT(*) SI_UNIT($,.STERADIAN.) SOLID_ANGLE_UNIT() );
#187 = UNCERTAINTY_MEASURE_WITH_UNIT(LENGTH_MEASURE(1.E-07),#184,
  'distance_accuracy_value','confusion accuracy');
#188 = CONTEXT_DEPENDENT_SHAPE_REPRESENTATION(#189,#191);
#189 = ( REPRESENTATION_RELATIONSHIP('','',#40,#10) 
REPRESENTATION_RELATIONSHIP_WITH_TRANSFORMATION(#190) 
SHAPE_REPRESENTATION_RELATIONSHIP() );
#190 = ITEM_DEFINED_TRANSFORMATION('','',#11,#15);
#191 = PRODUCT_DEFINITION_SHAPE('Placement','Placement of an item',#192
  );
#192 = NEXT_ASSEMBLY_USAGE_OCCURRENCE('1','F.SilkS_outline_','',#5,#35,$
  );
#193 = PRODUCT_RELATED_PRODUCT_CATEGORY('part',$,(#37));
#194 = SHAPE_DEFINITION_REPRESENTATION(#195,#201);
#195 = PRODUCT_DEFINITION_SHAPE('','',#196);
#196 = PRODUCT_DEFINITION('design','',#197,#200);
#197 = PRODUCT_DEFINITION_FORMATION('','',#198);
#198 = PRODUCT('F.Fab_','F.Fab_','',(#199));
#199 = PRODUCT_CONTEXT('',#2,'mechanical');
#200 = PRODUCT_DEFINITION_CONTEXT('part definition',#2,'design');
#201 = SHAPE_REPRESENTATION('',(#11,#202,#231,#240),#249);
#202 = GEOMETRIC_CURVE_SET('',(#203,#210,#217,#224));
#203 = TRIMMED_CURVE('',#204,(#208,PARAMETER_VALUE(0.)),(#209,
    PARAMETER_VALUE(2.9972)),.T.,.PARAMETER.);
#204 = LINE('',#205,#206);
#205 = CARTESIAN_POINT('',(-1.4986,1.4986,0.));
#206 = VECTOR('',#207,1.);
#207 = DIRECTION('',(0.,-1.,0.));
#208 = CARTESIAN_POINT('',(-1.4986,1.4986,0.));
#209 = CARTESIAN_POINT('',(-1.4986,-1.4986,0.));
#210 = TRIMMED_CURVE('',#211,(#215,PARAMETER_VALUE(0.)),(#216,
    PARAMETER_VALUE(2.9972)),.T.,.PARAMETER.);
#211 = LINE('',#212,#213);
#212 = CARTESIAN_POINT('',(-1.4986,-1.4986,0.));
#213 = VECTOR('',#214,1.);
#214 = DIRECTION('',(1.,0.,0.));
#215 = CARTESIAN_POINT('',(-1.4986,-1.4986,0.));
#216 = CARTESIAN_POINT('',(1.4986,-1.4986,0.));
#217 = TRIMMED_CURVE('',#218,(#222,PARAMETER_VALUE(0.)),(#223,
    PARAMETER_VALUE(2.9972)),.T.,.PARAMETER.);
#218 = LINE('',#219,#220);
#219 = CARTESIAN_POINT('',(1.4986,-1.4986,0.));
#220 = VECTOR('',#221,1.);
#221 = DIRECTION('',(0.,1.,0.));
#222 = CARTESIAN_POINT('',(1.4986,-1.4986,0.));
#223 = CARTESIAN_POINT('',(1.4986,1.4986,0.));
#224 = TRIMMED_CURVE('',#225,(#229,PARAMETER_VALUE(0.)),(#230,
    PARAMETER_VALUE(2.9972)),.T.,.PARAMETER.);
#225 = LINE('',#226,#227);
#226 = CARTESIAN_POINT('',(1.4986,1.4986,0.));
#227 = VECTOR('',#228,1.);
#228 = DIRECTION('',(-1.,0.,0.));
#229 = CARTESIAN_POINT('',(1.4986,1.4986,0.));
#230 = CARTESIAN_POINT('',(-1.4986,1.4986,0.));
#231 = GEOMETRIC_CURVE_SET('',(#232));
#232 = TRIMMED_CURVE('',#233,(#238,PARAMETER_VALUE(3.14159265359)),(#239
    ,PARAMETER_VALUE(6.28318530718)),.T.,.PARAMETER.);
#233 = CIRCLE('',#234,0.3048);
#234 = AXIS2_PLACEMENT_3D('',#235,#236,#237);
#235 = CARTESIAN_POINT('',(0.,1.4986,0.));
#236 = DIRECTION('',(0.,-0.,1.));
#237 = DIRECTION('',(1.,-7.284927983105E-16,-0.));
#238 = CARTESIAN_POINT('',(-0.3048,1.4986,0.));
#239 = CARTESIAN_POINT('',(0.3048,1.4986,0.));
#240 = GEOMETRIC_CURVE_SET('',(#241));
#241 = TRIMMED_CURVE('',#242,(#247,PARAMETER_VALUE(0.)),(#248,
    PARAMETER_VALUE(6.28318530718)),.T.,.PARAMETER.);
#242 = CIRCLE('',#243,7.62E-02);
#243 = AXIS2_PLACEMENT_3D('',#244,#245,#246);
#244 = CARTESIAN_POINT('',(-0.7088,0.9144,0.));
#245 = DIRECTION('',(0.,0.,1.));
#246 = DIRECTION('',(1.,0.,-0.));
#247 = CARTESIAN_POINT('',(-0.6326,0.9144,0.));
#248 = CARTESIAN_POINT('',(-0.6326,0.9144,0.));
#249 = ( GEOMETRIC_REPRESENTATION_CONTEXT(3) 
GLOBAL_UNCERTAINTY_ASSIGNED_CONTEXT((#253)) GLOBAL_UNIT_ASSIGNED_CONTEXT
((#250,#251,#252)) REPRESENTATION_CONTEXT('Context #1',
  '3D Context with UNIT and UNCERTAINTY') );
#250 = ( LENGTH_UNIT() NAMED_UNIT(*) SI_UNIT(.MILLI.,.METRE.) );
#251 = ( NAMED_UNIT(*) PLANE_ANGLE_UNIT() SI_UNIT($,.RADIAN.) );
#252 = ( NAMED_UNIT(*) SI_UNIT($,.STERADIAN.) SOLID_ANGLE_UNIT() );
#253 = UNCERTAINTY_MEASURE_WITH_UNIT(LENGTH_MEASURE(1.E-07),#250,
  'distance_accuracy_value','confusion accuracy');
#254 = CONTEXT_DEPENDENT_SHAPE_REPRESENTATION(#255,#257);
#255 = ( REPRESENTATION_RELATIONSHIP('','',#201,#10) 
REPRESENTATION_RELATIONSHIP_WITH_TRANSFORMATION(#256) 
SHAPE_REPRESENTATION_RELATIONSHIP() );
#256 = ITEM_DEFINED_TRANSFORMATION('','',#11,#19);
#257 = PRODUCT_DEFINITION_SHAPE('Placement','Placement of an item',#258
  );
#258 = NEXT_ASSEMBLY_USAGE_OCCURRENCE('2','F.Fab_','',#5,#196,$);
#259 = PRODUCT_RELATED_PRODUCT_CATEGORY('part',$,(#198));
#260 = SHAPE_DEFINITION_REPRESENTATION(#261,#267);
#261 = PRODUCT_DEFINITION_SHAPE('','',#262);
#262 = PRODUCT_DEFINITION('design','',#263,#266);
#263 = PRODUCT_DEFINITION_FORMATION('','',#264);
#264 = PRODUCT('Cube','Cube','',(#265));
#265 = PRODUCT_CONTEXT('',#2,'mechanical');
#266 = PRODUCT_DEFINITION_CONTEXT('part definition',#2,'design');
#267 = ADVANCED_BREP_SHAPE_REPRESENTATION('',(#11,#268),#418);
#268 = MANIFOLD_SOLID_BREP('',#269);
#269 = CLOSED_SHELL('',(#270,#310,#350,#372,#394,#406));
#270 = ADVANCED_FACE('',(#271),#305,.F.);
#271 = FACE_BOUND('',#272,.F.);
#272 = EDGE_LOOP('',(#273,#283,#291,#299));
#273 = ORIENTED_EDGE('',*,*,#274,.F.);
#274 = EDGE_CURVE('',#275,#277,#279,.T.);
#275 = VERTEX_POINT('',#276);
#276 = CARTESIAN_POINT('',(0.,0.,0.));
#277 = VERTEX_POINT('',#278);
#278 = CARTESIAN_POINT('',(0.,0.,0.65));
#279 = LINE('',#280,#281);
#280 = CARTESIAN_POINT('',(0.,0.,0.));
#281 = VECTOR('',#282,1.);
#282 = DIRECTION('',(0.,0.,1.));
#283 = ORIENTED_EDGE('',*,*,#284,.T.);
#284 = EDGE_CURVE('',#275,#285,#287,.T.);
#285 = VERTEX_POINT('',#286);
#286 = CARTESIAN_POINT('',(0.,3.,0.));
#287 = LINE('',#288,#289);
#288 = CARTESIAN_POINT('',(0.,0.,0.));
#289 = VECTOR('',#290,1.);
#290 = DIRECTION('',(-0.,1.,0.));
#291 = ORIENTED_EDGE('',*,*,#292,.T.);
#292 = EDGE_CURVE('',#285,#293,#295,.T.);
#293 = VERTEX_POINT('',#294);
#294 = CARTESIAN_POINT('',(0.,3.,0.65));
#295 = LINE('',#296,#297);
#296 = CARTESIAN_POINT('',(0.,3.,0.));
#297 = VECTOR('',#298,1.);
#298 = DIRECTION('',(0.,0.,1.));
#299 = ORIENTED_EDGE('',*,*,#300,.F.);
#300 = EDGE_CURVE('',#277,#293,#301,.T.);
#301 = LINE('',#302,#303);
#302 = CARTESIAN_POINT('',(0.,0.,0.65));
#303 = VECTOR('',#304,1.);
#304 = DIRECTION('',(-0.,1.,0.));
#305 = PLANE('',#306);
#306 = AXIS2_PLACEMENT_3D('',#307,#308,#309);
#307 = CARTESIAN_POINT('',(0.,0.,0.));
#308 = DIRECTION('',(1.,0.,-0.));
#309 = DIRECTION('',(0.,0.,1.));
#310 = ADVANCED_FACE('',(#311),#345,.T.);
#311 = FACE_BOUND('',#312,.T.);
#312 = EDGE_LOOP('',(#313,#323,#331,#339));
#313 = ORIENTED_EDGE('',*,*,#314,.F.);
#314 = EDGE_CURVE('',#315,#317,#319,.T.);
#315 = VERTEX_POINT('',#316);
#316 = CARTESIAN_POINT('',(3.,0.,0.));
#317 = VERTEX_POINT('',#318);
#318 = CARTESIAN_POINT('',(3.,0.,0.65));
#319 = LINE('',#320,#321);
#320 = CARTESIAN_POINT('',(3.,0.,0.));
#321 = VECTOR('',#322,1.);
#322 = DIRECTION('',(0.,0.,1.));
#323 = ORIENTED_EDGE('',*,*,#324,.T.);
#324 = EDGE_CURVE('',#315,#325,#327,.T.);
#325 = VERTEX_POINT('',#326);
#326 = CARTESIAN_POINT('',(3.,3.,0.));
#327 = LINE('',#328,#329);
#328 = CARTESIAN_POINT('',(3.,0.,0.));
#329 = VECTOR('',#330,1.);
#330 = DIRECTION('',(-0.,1.,0.));
#331 = ORIENTED_EDGE('',*,*,#332,.T.);
#332 = EDGE_CURVE('',#325,#333,#335,.T.);
#333 = VERTEX_POINT('',#334);
#334 = CARTESIAN_POINT('',(3.,3.,0.65));
#335 = LINE('',#336,#337);
#336 = CARTESIAN_POINT('',(3.,3.,0.));
#337 = VECTOR('',#338,1.);
#338 = DIRECTION('',(0.,0.,1.));
#339 = ORIENTED_EDGE('',*,*,#340,.F.);
#340 = EDGE_CURVE('',#317,#333,#341,.T.);
#341 = LINE('',#342,#343);
#342 = CARTESIAN_POINT('',(3.,0.,0.65));
#343 = VECTOR('',#344,1.);
#344 = DIRECTION('',(-0.,1.,0.));
#345 = PLANE('',#346);
#346 = AXIS2_PLACEMENT_3D('',#347,#348,#349);
#347 = CARTESIAN_POINT('',(3.,0.,0.));
#348 = DIRECTION('',(1.,0.,-0.));
#349 = DIRECTION('',(0.,0.,1.));
#350 = ADVANCED_FACE('',(#351),#367,.F.);
#351 = FACE_BOUND('',#352,.F.);
#352 = EDGE_LOOP('',(#353,#359,#360,#366));
#353 = ORIENTED_EDGE('',*,*,#354,.F.);
#354 = EDGE_CURVE('',#275,#315,#355,.T.);
#355 = LINE('',#356,#357);
#356 = CARTESIAN_POINT('',(0.,0.,0.));
#357 = VECTOR('',#358,1.);
#358 = DIRECTION('',(1.,0.,-0.));
#359 = ORIENTED_EDGE('',*,*,#274,.T.);
#360 = ORIENTED_EDGE('',*,*,#361,.T.);
#361 = EDGE_CURVE('',#277,#317,#362,.T.);
#362 = LINE('',#363,#364);
#363 = CARTESIAN_POINT('',(0.,0.,0.65));
#364 = VECTOR('',#365,1.);
#365 = DIRECTION('',(1.,0.,-0.));
#366 = ORIENTED_EDGE('',*,*,#314,.F.);
#367 = PLANE('',#368);
#368 = AXIS2_PLACEMENT_3D('',#369,#370,#371);
#369 = CARTESIAN_POINT('',(0.,0.,0.));
#370 = DIRECTION('',(-0.,1.,0.));
#371 = DIRECTION('',(0.,0.,1.));
#372 = ADVANCED_FACE('',(#373),#389,.T.);
#373 = FACE_BOUND('',#374,.T.);
#374 = EDGE_LOOP('',(#375,#381,#382,#388));
#375 = ORIENTED_EDGE('',*,*,#376,.F.);
#376 = EDGE_CURVE('',#285,#325,#377,.T.);
#377 = LINE('',#378,#379);
#378 = CARTESIAN_POINT('',(0.,3.,0.));
#379 = VECTOR('',#380,1.);
#380 = DIRECTION('',(1.,0.,-0.));
#381 = ORIENTED_EDGE('',*,*,#292,.T.);
#382 = ORIENTED_EDGE('',*,*,#383,.T.);
#383 = EDGE_CURVE('',#293,#333,#384,.T.);
#384 = LINE('',#385,#386);
#385 = CARTESIAN_POINT('',(0.,3.,0.65));
#386 = VECTOR('',#387,1.);
#387 = DIRECTION('',(1.,0.,-0.));
#388 = ORIENTED_EDGE('',*,*,#332,.F.);
#389 = PLANE('',#390);
#390 = AXIS2_PLACEMENT_3D('',#391,#392,#393);
#391 = CARTESIAN_POINT('',(0.,3.,0.));
#392 = DIRECTION('',(-0.,1.,0.));
#393 = DIRECTION('',(0.,0.,1.));
#394 = ADVANCED_FACE('',(#395),#401,.F.);
#395 = FACE_BOUND('',#396,.F.);
#396 = EDGE_LOOP('',(#397,#398,#399,#400));
#397 = ORIENTED_EDGE('',*,*,#284,.F.);
#398 = ORIENTED_EDGE('',*,*,#354,.T.);
#399 = ORIENTED_EDGE('',*,*,#324,.T.);
#400 = ORIENTED_EDGE('',*,*,#376,.F.);
#401 = PLANE('',#402);
#402 = AXIS2_PLACEMENT_3D('',#403,#404,#405);
#403 = CARTESIAN_POINT('',(0.,0.,0.));
#404 = DIRECTION('',(0.,0.,1.));
#405 = DIRECTION('',(1.,0.,-0.));
#406 = ADVANCED_FACE('',(#407),#413,.T.);
#407 = FACE_BOUND('',#408,.T.);
#408 = EDGE_LOOP('',(#409,#410,#411,#412));
#409 = ORIENTED_EDGE('',*,*,#300,.F.);
#410 = ORIENTED_EDGE('',*,*,#361,.T.);
#411 = ORIENTED_EDGE('',*,*,#340,.T.);
#412 = ORIENTED_EDGE('',*,*,#383,.F.);
#413 = PLANE('',#414);
#414 = AXIS2_PLACEMENT_3D('',#415,#416,#417);
#415 = CARTESIAN_POINT('',(0.,0.,0.65));
#416 = DIRECTION('',(0.,0.,1.));
#417 = DIRECTION('',(1.,0.,-0.));
#418 = ( GEOMETRIC_REPRESENTATION_CONTEXT(3) 
GLOBAL_UNCERTAINTY_ASSIGNED_CONTEXT((#422)) GLOBAL_UNIT_ASSIGNED_CONTEXT
((#419,#420,#421)) REPRESENTATION_CONTEXT('Context #1',
  '3D Context with UNIT and UNCERTAINTY') );
#419 = ( LENGTH_UNIT() NAMED_UNIT(*) SI_UNIT(.MILLI.,.METRE.) );
#420 = ( NAMED_UNIT(*) PLANE_ANGLE_UNIT() SI_UNIT($,.RADIAN.) );
#421 = ( NAMED_UNIT(*) SI_UNIT($,.STERADIAN.) SOLID_ANGLE_UNIT() );
#422 = UNCERTAINTY_MEASURE_WITH_UNIT(LENGTH_MEASURE(1.E-07),#419,
  'distance_accuracy_value','confusion accuracy');
#423 = CONTEXT_DEPENDENT_SHAPE_REPRESENTATION(#424,#426);
#424 = ( REPRESENTATION_RELATIONSHIP('','',#267,#10) 
REPRESENTATION_RELATIONSHIP_WITH_TRANSFORMATION(#425) 
SHAPE_REPRESENTATION_RELATIONSHIP() );
#425 = ITEM_DEFINED_TRANSFORMATION('','',#11,#23);
#426 = PRODUCT_DEFINITION_SHAPE('Placement','Placement of an item',#427
  );
#427 = NEXT_ASSEMBLY_USAGE_OCCURRENCE('3','Cube','',#5,#262,$);
#428 = PRODUCT_RELATED_PRODUCT_CATEGORY('part',$,(#264));
#429 = MECHANICAL_DESIGN_GEOMETRIC_PRESENTATION_REPRESENTATION('',(#430)
  ,#418);
#430 = STYLED_ITEM('color',(#431),#268);
#431 = PRESENTATION_STYLE_ASSIGNMENT((#432,#440));
#432 = SURFACE_STYLE_USAGE(.BOTH.,#433);
#433 = SURFACE_SIDE_STYLE('',(#434,#438));
#434 = SURFACE_STYLE_FILL_AREA(#435);
#435 = FILL_AREA_STYLE('',(#436));
#436 = FILL_AREA_STYLE_COLOUR('',#437);
#437 = DRAUGHTING_PRE_DEFINED_COLOUR('red');
#438 = SURFACE_STYLE_RENDERING_WITH_PROPERTIES(.NORMAL_SHADING.,#437,(
    #439));
#439 = SURFACE_STYLE_TRANSPARENT(0.300000011921);
#440 = CURVE_STYLE('',#441,POSITIVE_LENGTH_MEASURE(0.1),#442);
#441 = DRAUGHTING_PRE_DEFINED_CURVE_FONT('continuous');
#442 = COLOUR_RGB('',9.803921802644E-02,9.803921802644E-02,
  9.803921802644E-02);
#443 = MECHANICAL_DESIGN_GEOMETRIC_PRESENTATION_REPRESENTATION('',(#444,
    #455,#464),#249);
#444 = STYLED_ITEM('color',(#445),#202);
#445 = PRESENTATION_STYLE_ASSIGNMENT((#446,#452));
#446 = SURFACE_STYLE_USAGE(.BOTH.,#447);
#447 = SURFACE_SIDE_STYLE('',(#448));
#448 = SURFACE_STYLE_FILL_AREA(#449);
#449 = FILL_AREA_STYLE('',(#450));
#450 = FILL_AREA_STYLE_COLOUR('',#451);
#451 = COLOUR_RGB('',0.678430976034,0.709803998361,0.741176010593);
#452 = CURVE_STYLE('',#453,POSITIVE_LENGTH_MEASURE(0.1),#454);
#453 = DRAUGHTING_PRE_DEFINED_CURVE_FONT('continuous');
#454 = DRAUGHTING_PRE_DEFINED_COLOUR('green');
#455 = STYLED_ITEM('color',(#456),#231);
#456 = PRESENTATION_STYLE_ASSIGNMENT((#457,#462));
#457 = SURFACE_STYLE_USAGE(.BOTH.,#458);
#458 = SURFACE_SIDE_STYLE('',(#459));
#459 = SURFACE_STYLE_FILL_AREA(#460);
#460 = FILL_AREA_STYLE('',(#461));
#461 = FILL_AREA_STYLE_COLOUR('',#451);
#462 = CURVE_STYLE('',#463,POSITIVE_LENGTH_MEASURE(0.1),#454);
#463 = DRAUGHTING_PRE_DEFINED_CURVE_FONT('continuous');
#464 = STYLED_ITEM('color',(#465),#240);
#465 = PRESENTATION_STYLE_ASSIGNMENT((#466,#471));
#466 = SURFACE_STYLE_USAGE(.BOTH.,#467);
#467 = SURFACE_SIDE_STYLE('',(#468));
#468 = SURFACE_STYLE_FILL_AREA(#469);
#469 = FILL_AREA_STYLE('',(#470));
#470 = FILL_AREA_STYLE_COLOUR('',#451);
#471 = CURVE_STYLE('',#472,POSITIVE_LENGTH_MEASURE(0.1),#454);
#472 = DRAUGHTING_PRE_DEFINED_CURVE_FONT('continuous');
#473 = MECHANICAL_DESIGN_GEOMETRIC_PRESENTATION_REPRESENTATION('',(#474,
    #483,#492,#501,#510,#519),#183);
#474 = STYLED_ITEM('color',(#475),#41);
#475 = PRESENTATION_STYLE_ASSIGNMENT((#476,#481));
#476 = SURFACE_STYLE_USAGE(.BOTH.,#477);
#477 = SURFACE_SIDE_STYLE('',(#478));
#478 = SURFACE_STYLE_FILL_AREA(#479);
#479 = FILL_AREA_STYLE('',(#480));
#480 = FILL_AREA_STYLE_COLOUR('',#451);
#481 = CURVE_STYLE('',#482,POSITIVE_LENGTH_MEASURE(0.1),#442);
#482 = DRAUGHTING_PRE_DEFINED_CURVE_FONT('continuous');
#483 = STYLED_ITEM('color',(#484),#72);
#484 = PRESENTATION_STYLE_ASSIGNMENT((#485,#490));
#485 = SURFACE_STYLE_USAGE(.BOTH.,#486);
#486 = SURFACE_SIDE_STYLE('',(#487));
#487 = SURFACE_STYLE_FILL_AREA(#488);
#488 = FILL_AREA_STYLE('',(#489));
#489 = FILL_AREA_STYLE_COLOUR('',#451);
#490 = CURVE_STYLE('',#491,POSITIVE_LENGTH_MEASURE(0.1),#442);
#491 = DRAUGHTING_PRE_DEFINED_CURVE_FONT('continuous');
#492 = STYLED_ITEM('color',(#493),#103);
#493 = PRESENTATION_STYLE_ASSIGNMENT((#494,#499));
#494 = SURFACE_STYLE_USAGE(.BOTH.,#495);
#495 = SURFACE_SIDE_STYLE('',(#496));
#496 = SURFACE_STYLE_FILL_AREA(#497);
#497 = FILL_AREA_STYLE('',(#498));
#498 = FILL_AREA_STYLE_COLOUR('',#451);
#499 = CURVE_STYLE('',#500,POSITIVE_LENGTH_MEASURE(0.1),#442);
#500 = DRAUGHTING_PRE_DEFINED_CURVE_FONT('continuous');
#501 = STYLED_ITEM('color',(#502),#134);
#502 = PRESENTATION_STYLE_ASSIGNMENT((#503,#508));
#503 = SURFACE_STYLE_USAGE(.BOTH.,#504);
#504 = SURFACE_SIDE_STYLE('',(#505));
#505 = SURFACE_STYLE_FILL_AREA(#506);
#506 = FILL_AREA_STYLE('',(#507));
#507 = FILL_AREA_STYLE_COLOUR('',#451);
#508 = CURVE_STYLE('',#509,POSITIVE_LENGTH_MEASURE(0.1),#442);
#509 = DRAUGHTING_PRE_DEFINED_CURVE_FONT('continuous');
#510 = STYLED_ITEM('color',(#511),#165);
#511 = PRESENTATION_STYLE_ASSIGNMENT((#512,#517));
#512 = SURFACE_STYLE_USAGE(.BOTH.,#513);
#513 = SURFACE_SIDE_STYLE('',(#514));
#514 = SURFACE_STYLE_FILL_AREA(#515);
#515 = FILL_AREA_STYLE('',(#516));
#516 = FILL_AREA_STYLE_COLOUR('',#451);
#517 = CURVE_STYLE('',#518,POSITIVE_LENGTH_MEASURE(0.1),#442);
#518 = DRAUGHTING_PRE_DEFINED_CURVE_FONT('continuous');
#519 = STYLED_ITEM('color',(#520),#174);
#520 = PRESENTATION_STYLE_ASSIGNMENT((#521,#526));
#521 = SURFACE_STYLE_USAGE(.BOTH.,#522);
#522 = SURFACE_SIDE_STYLE('',(#523));
#523 = SURFACE_STYLE_FILL_AREA(#524);
#524 = FILL_AREA_STYLE('',(#525));
#525 = FILL_AREA_STYLE_COLOUR('',#451);
#526 = CURVE_STYLE('',#527,POSITIVE_LENGTH_MEASURE(0.1),#442);
#527 = DRAUGHTING_PRE_DEFINED_CURVE_FONT('continuous');
ENDSEC;
END-ISO-10303-21;
