ISO-10303-21;
HEADER;
FILE_DESCRIPTION(('FreeCAD Model'),'2;1');
FILE_NAME('Open CASCADE Shape Model','2025-12-26T08:26:45',(''),(''),
  'Open CASCADE STEP processor 7.8','FreeCAD','Unknown');
FILE_SCHEMA(('AUTOMOTIVE_DESIGN { 1 0 10303 214 1 1 1 1 }'));
ENDSEC;
DATA;
#1 = APPLICATION_PROTOCOL_DEFINITION('international standard',
  'automotive_design',2000,#2);
#2 = APPLICATION_CONTEXT(
  'core data for automotive mechanical design processes');
#3 = SHAPE_DEFINITION_REPRESENTATION(#4,#10);
#4 = PRODUCT_DEFINITION_SHAPE('','',#5);
#5 = PRODUCT_DEFINITION('design','',#6,#9);
#6 = PRODUCT_DEFINITION_FORMATION('','',#7);
#7 = PRODUCT('RA_01_SX1278_LORA','RA_01_SX1278_LORA','',(#8));
#8 = PRODUCT_CONTEXT('',#2,'mechanical');
#9 = PRODUCT_DEFINITION_CONTEXT('part definition',#2,'design');
#10 = SHAPE_REPRESENTATION('',(#11,#15,#19,#23),#27);
#11 = AXIS2_PLACEMENT_3D('',#12,#13,#14);
#12 = CARTESIAN_POINT('',(0.,0.,0.));
#13 = DIRECTION('',(0.,0.,1.));
#14 = DIRECTION('',(1.,0.,-0.));
#15 = AXIS2_PLACEMENT_3D('',#16,#17,#18);
#16 = CARTESIAN_POINT('',(0.,0.,0.));
#17 = DIRECTION('',(0.,0.,1.));
#18 = DIRECTION('',(1.,0.,0.));
#19 = AXIS2_PLACEMENT_3D('',#20,#21,#22);
#20 = CARTESIAN_POINT('',(18.,13.,0.));
#21 = DIRECTION('',(1.,0.,-2.22044604925E-16));
#22 = DIRECTION('',(-2.22044604925E-16,0.,-1.));
#23 = AXIS2_PLACEMENT_3D('',#24,#25,#26);
#24 = CARTESIAN_POINT('',(23.,13.,0.));
#25 = DIRECTION('',(1.,0.,-2.22044604925E-16));
#26 = DIRECTION('',(-2.22044604925E-16,0.,-1.));
#27 = ( GEOMETRIC_REPRESENTATION_CONTEXT(3) 
GLOBAL_UNCERTAINTY_ASSIGNED_CONTEXT((#31)) GLOBAL_UNIT_ASSIGNED_CONTEXT(
(#28,#29,#30)) REPRESENTATION_CONTEXT('Context #1',
  '3D Context with UNIT and UNCERTAINTY') );
#28 = ( LENGTH_UNIT() NAMED_UNIT(*) SI_UNIT(.MILLI.,.METRE.) );
#29 = ( NAMED_UNIT(*) PLANE_ANGLE_UNIT() SI_UNIT($,.RADIAN.) );
#30 = ( NAMED_UNIT(*) SI_UNIT($,.STERADIAN.) SOLID_ANGLE_UNIT() );
#31 = UNCERTAINTY_MEASURE_WITH_UNIT(LENGTH_MEASURE(1.E-07),#28,
  'distance_accuracy_value','confusion accuracy');
#32 = PRODUCT_RELATED_PRODUCT_CATEGORY('part',$,(#7));
#33 = SHAPE_DEFINITION_REPRESENTATION(#34,#40);
#34 = PRODUCT_DEFINITION_SHAPE('','',#35);
#35 = PRODUCT_DEFINITION('design','',#36,#39);
#36 = PRODUCT_DEFINITION_FORMATION('','',#37);
#37 = PRODUCT('Daughterboard_3D_Model','Daughterboard_3D_Model','',(#38)
  );
#38 = PRODUCT_CONTEXT('',#2,'mechanical');
#39 = PRODUCT_DEFINITION_CONTEXT('part definition',#2,'design');
#40 = ADVANCED_BREP_SHAPE_REPRESENTATION('',(#11,#41),#703);
#41 = MANIFOLD_SOLID_BREP('',#42);
#42 = CLOSED_SHELL('',(#43,#83,#114,#226,#250,#355,#367,#392,#417,#442,
    #467,#492,#517,#542,#567,#584,#601,#618,#635,#652,#669,#686));
#43 = ADVANCED_FACE('',(#44),#78,.F.);
#44 = FACE_BOUND('',#45,.F.);
#45 = EDGE_LOOP('',(#46,#56,#64,#72));
#46 = ORIENTED_EDGE('',*,*,#47,.F.);
#47 = EDGE_CURVE('',#48,#50,#52,.T.);
#48 = VERTEX_POINT('',#49);
#49 = CARTESIAN_POINT('',(-4.909468,-1.125,1.E-02));
#50 = VERTEX_POINT('',#51);
#51 = CARTESIAN_POINT('',(-4.909468,-1.125,1.61));
#52 = LINE('',#53,#54);
#53 = CARTESIAN_POINT('',(-4.909468,-1.125,1.E-02));
#54 = VECTOR('',#55,1.);
#55 = DIRECTION('',(0.,0.,1.));
#56 = ORIENTED_EDGE('',*,*,#57,.T.);
#57 = EDGE_CURVE('',#48,#58,#60,.T.);
#58 = VERTEX_POINT('',#59);
#59 = CARTESIAN_POINT('',(-4.909468,16.755,1.E-02));
#60 = LINE('',#61,#62);
#61 = CARTESIAN_POINT('',(-4.909468,-1.125,1.E-02));
#62 = VECTOR('',#63,1.);
#63 = DIRECTION('',(0.,1.,0.));
#64 = ORIENTED_EDGE('',*,*,#65,.T.);
#65 = EDGE_CURVE('',#58,#66,#68,.T.);
#66 = VERTEX_POINT('',#67);
#67 = CARTESIAN_POINT('',(-4.909468,16.755,1.61));
#68 = LINE('',#69,#70);
#69 = CARTESIAN_POINT('',(-4.909468,16.755,1.E-02));
#70 = VECTOR('',#71,1.);
#71 = DIRECTION('',(0.,0.,1.));
#72 = ORIENTED_EDGE('',*,*,#73,.F.);
#73 = EDGE_CURVE('',#50,#66,#74,.T.);
#74 = LINE('',#75,#76);
#75 = CARTESIAN_POINT('',(-4.909468,-1.125,1.61));
#76 = VECTOR('',#77,1.);
#77 = DIRECTION('',(0.,1.,0.));
#78 = PLANE('',#79);
#79 = AXIS2_PLACEMENT_3D('',#80,#81,#82);
#80 = CARTESIAN_POINT('',(-4.909468,-1.125,1.E-02));
#81 = DIRECTION('',(1.,0.,0.));
#82 = DIRECTION('',(0.,0.,1.));
#83 = ADVANCED_FACE('',(#84),#109,.F.);
#84 = FACE_BOUND('',#85,.F.);
#85 = EDGE_LOOP('',(#86,#94,#95,#103));
#86 = ORIENTED_EDGE('',*,*,#87,.F.);
#87 = EDGE_CURVE('',#48,#88,#90,.T.);
#88 = VERTEX_POINT('',#89);
#89 = CARTESIAN_POINT('',(18.050532,-1.125,1.E-02));
#90 = LINE('',#91,#92);
#91 = CARTESIAN_POINT('',(-4.909468,-1.125,1.E-02));
#92 = VECTOR('',#93,1.);
#93 = DIRECTION('',(1.,0.,0.));
#94 = ORIENTED_EDGE('',*,*,#47,.T.);
#95 = ORIENTED_EDGE('',*,*,#96,.T.);
#96 = EDGE_CURVE('',#50,#97,#99,.T.);
#97 = VERTEX_POINT('',#98);
#98 = CARTESIAN_POINT('',(18.050532,-1.125,1.61));
#99 = LINE('',#100,#101);
#100 = CARTESIAN_POINT('',(-4.909468,-1.125,1.61));
#101 = VECTOR('',#102,1.);
#102 = DIRECTION('',(1.,0.,0.));
#103 = ORIENTED_EDGE('',*,*,#104,.F.);
#104 = EDGE_CURVE('',#88,#97,#105,.T.);
#105 = LINE('',#106,#107);
#106 = CARTESIAN_POINT('',(18.050532,-1.125,1.E-02));
#107 = VECTOR('',#108,1.);
#108 = DIRECTION('',(0.,0.,1.));
#109 = PLANE('',#110);
#110 = AXIS2_PLACEMENT_3D('',#111,#112,#113);
#111 = CARTESIAN_POINT('',(-4.909468,-1.125,1.E-02));
#112 = DIRECTION('',(0.,1.,0.));
#113 = DIRECTION('',(0.,0.,1.));
#114 = ADVANCED_FACE('',(#115,#133,#144,#155,#166,#177,#188,#199,#210),
  #221,.T.);
#115 = FACE_BOUND('',#116,.T.);
#116 = EDGE_LOOP('',(#117,#118,#119,#127));
#117 = ORIENTED_EDGE('',*,*,#73,.F.);
#118 = ORIENTED_EDGE('',*,*,#96,.T.);
#119 = ORIENTED_EDGE('',*,*,#120,.T.);
#120 = EDGE_CURVE('',#97,#121,#123,.T.);
#121 = VERTEX_POINT('',#122);
#122 = CARTESIAN_POINT('',(18.050532,16.755,1.61));
#123 = LINE('',#124,#125);
#124 = CARTESIAN_POINT('',(18.050532,-1.125,1.61));
#125 = VECTOR('',#126,1.);
#126 = DIRECTION('',(0.,1.,0.));
#127 = ORIENTED_EDGE('',*,*,#128,.F.);
#128 = EDGE_CURVE('',#66,#121,#129,.T.);
#129 = LINE('',#130,#131);
#130 = CARTESIAN_POINT('',(-4.909468,16.755,1.61));
#131 = VECTOR('',#132,1.);
#132 = DIRECTION('',(1.,0.,0.));
#133 = FACE_BOUND('',#134,.T.);
#134 = EDGE_LOOP('',(#135));
#135 = ORIENTED_EDGE('',*,*,#136,.T.);
#136 = EDGE_CURVE('',#137,#137,#139,.T.);
#137 = VERTEX_POINT('',#138);
#138 = CARTESIAN_POINT('',(-4.099418,4.005,1.61));
#139 = CIRCLE('',#140,0.50995);
#140 = AXIS2_PLACEMENT_3D('',#141,#142,#143);
#141 = CARTESIAN_POINT('',(-3.589468,4.005,1.61));
#142 = DIRECTION('',(0.,0.,-1.));
#143 = DIRECTION('',(-1.,0.,0.));
#144 = FACE_BOUND('',#145,.T.);
#145 = EDGE_LOOP('',(#146));
#146 = ORIENTED_EDGE('',*,*,#147,.T.);
#147 = EDGE_CURVE('',#148,#148,#150,.T.);
#148 = VERTEX_POINT('',#149);
#149 = CARTESIAN_POINT('',(-4.099418,6.545,1.61));
#150 = CIRCLE('',#151,0.50995);
#151 = AXIS2_PLACEMENT_3D('',#152,#153,#154);
#152 = CARTESIAN_POINT('',(-3.589468,6.545,1.61));
#153 = DIRECTION('',(0.,0.,-1.));
#154 = DIRECTION('',(-1.,0.,0.));
#155 = FACE_BOUND('',#156,.T.);
#156 = EDGE_LOOP('',(#157));
#157 = ORIENTED_EDGE('',*,*,#158,.T.);
#158 = EDGE_CURVE('',#159,#159,#161,.T.);
#159 = VERTEX_POINT('',#160);
#160 = CARTESIAN_POINT('',(-1.559418,4.005,1.61));
#161 = CIRCLE('',#162,0.50995);
#162 = AXIS2_PLACEMENT_3D('',#163,#164,#165);
#163 = CARTESIAN_POINT('',(-1.049468,4.005,1.61));
#164 = DIRECTION('',(0.,0.,-1.));
#165 = DIRECTION('',(-1.,0.,0.));
#166 = FACE_BOUND('',#167,.T.);
#167 = EDGE_LOOP('',(#168));
#168 = ORIENTED_EDGE('',*,*,#169,.T.);
#169 = EDGE_CURVE('',#170,#170,#172,.T.);
#170 = VERTEX_POINT('',#171);
#171 = CARTESIAN_POINT('',(-1.559418,6.545,1.61));
#172 = CIRCLE('',#173,0.50995);
#173 = AXIS2_PLACEMENT_3D('',#174,#175,#176);
#174 = CARTESIAN_POINT('',(-1.049468,6.545,1.61));
#175 = DIRECTION('',(0.,0.,-1.));
#176 = DIRECTION('',(-1.,0.,0.));
#177 = FACE_BOUND('',#178,.T.);
#178 = EDGE_LOOP('',(#179));
#179 = ORIENTED_EDGE('',*,*,#180,.T.);
#180 = EDGE_CURVE('',#181,#181,#183,.T.);
#181 = VERTEX_POINT('',#182);
#182 = CARTESIAN_POINT('',(-4.099418,9.085,1.61));
#183 = CIRCLE('',#184,0.50995);
#184 = AXIS2_PLACEMENT_3D('',#185,#186,#187);
#185 = CARTESIAN_POINT('',(-3.589468,9.085,1.61));
#186 = DIRECTION('',(0.,0.,-1.));
#187 = DIRECTION('',(-1.,0.,0.));
#188 = FACE_BOUND('',#189,.T.);
#189 = EDGE_LOOP('',(#190));
#190 = ORIENTED_EDGE('',*,*,#191,.T.);
#191 = EDGE_CURVE('',#192,#192,#194,.T.);
#192 = VERTEX_POINT('',#193);
#193 = CARTESIAN_POINT('',(-4.099418,11.625,1.61));
#194 = CIRCLE('',#195,0.50995);
#195 = AXIS2_PLACEMENT_3D('',#196,#197,#198);
#196 = CARTESIAN_POINT('',(-3.589468,11.625,1.61));
#197 = DIRECTION('',(0.,0.,-1.));
#198 = DIRECTION('',(-1.,0.,0.));
#199 = FACE_BOUND('',#200,.T.);
#200 = EDGE_LOOP('',(#201));
#201 = ORIENTED_EDGE('',*,*,#202,.T.);
#202 = EDGE_CURVE('',#203,#203,#205,.T.);
#203 = VERTEX_POINT('',#204);
#204 = CARTESIAN_POINT('',(-1.559418,9.085,1.61));
#205 = CIRCLE('',#206,0.50995);
#206 = AXIS2_PLACEMENT_3D('',#207,#208,#209);
#207 = CARTESIAN_POINT('',(-1.049468,9.085,1.61));
#208 = DIRECTION('',(0.,0.,-1.));
#209 = DIRECTION('',(-1.,0.,0.));
#210 = FACE_BOUND('',#211,.T.);
#211 = EDGE_LOOP('',(#212));
#212 = ORIENTED_EDGE('',*,*,#213,.T.);
#213 = EDGE_CURVE('',#214,#214,#216,.T.);
#214 = VERTEX_POINT('',#215);
#215 = CARTESIAN_POINT('',(-1.559418,11.625,1.61));
#216 = CIRCLE('',#217,0.50995);
#217 = AXIS2_PLACEMENT_3D('',#218,#219,#220);
#218 = CARTESIAN_POINT('',(-1.049468,11.625,1.61));
#219 = DIRECTION('',(0.,0.,-1.));
#220 = DIRECTION('',(-1.,0.,0.));
#221 = PLANE('',#222);
#222 = AXIS2_PLACEMENT_3D('',#223,#224,#225);
#223 = CARTESIAN_POINT('',(-4.909468,-1.125,1.61));
#224 = DIRECTION('',(0.,0.,1.));
#225 = DIRECTION('',(1.,0.,0.));
#226 = ADVANCED_FACE('',(#227),#245,.T.);
#227 = FACE_BOUND('',#228,.T.);
#228 = EDGE_LOOP('',(#229,#237,#238,#239));
#229 = ORIENTED_EDGE('',*,*,#230,.F.);
#230 = EDGE_CURVE('',#58,#231,#233,.T.);
#231 = VERTEX_POINT('',#232);
#232 = CARTESIAN_POINT('',(18.050532,16.755,1.E-02));
#233 = LINE('',#234,#235);
#234 = CARTESIAN_POINT('',(-4.909468,16.755,1.E-02));
#235 = VECTOR('',#236,1.);
#236 = DIRECTION('',(1.,0.,0.));
#237 = ORIENTED_EDGE('',*,*,#65,.T.);
#238 = ORIENTED_EDGE('',*,*,#128,.T.);
#239 = ORIENTED_EDGE('',*,*,#240,.F.);
#240 = EDGE_CURVE('',#231,#121,#241,.T.);
#241 = LINE('',#242,#243);
#242 = CARTESIAN_POINT('',(18.050532,16.755,1.E-02));
#243 = VECTOR('',#244,1.);
#244 = DIRECTION('',(0.,0.,1.));
#245 = PLANE('',#246);
#246 = AXIS2_PLACEMENT_3D('',#247,#248,#249);
#247 = CARTESIAN_POINT('',(-4.909468,16.755,1.E-02));
#248 = DIRECTION('',(0.,1.,0.));
#249 = DIRECTION('',(0.,0.,1.));
#250 = ADVANCED_FACE('',(#251,#262,#273,#284,#295,#306,#317,#328,#339),
  #350,.F.);
#251 = FACE_BOUND('',#252,.F.);
#252 = EDGE_LOOP('',(#253,#254,#255,#261));
#253 = ORIENTED_EDGE('',*,*,#57,.F.);
#254 = ORIENTED_EDGE('',*,*,#87,.T.);
#255 = ORIENTED_EDGE('',*,*,#256,.T.);
#256 = EDGE_CURVE('',#88,#231,#257,.T.);
#257 = LINE('',#258,#259);
#258 = CARTESIAN_POINT('',(18.050532,-1.125,1.E-02));
#259 = VECTOR('',#260,1.);
#260 = DIRECTION('',(0.,1.,0.));
#261 = ORIENTED_EDGE('',*,*,#230,.F.);
#262 = FACE_BOUND('',#263,.F.);
#263 = EDGE_LOOP('',(#264));
#264 = ORIENTED_EDGE('',*,*,#265,.T.);
#265 = EDGE_CURVE('',#266,#266,#268,.T.);
#266 = VERTEX_POINT('',#267);
#267 = CARTESIAN_POINT('',(-4.099418,4.005,1.E-02));
#268 = CIRCLE('',#269,0.50995);
#269 = AXIS2_PLACEMENT_3D('',#270,#271,#272);
#270 = CARTESIAN_POINT('',(-3.589468,4.005,1.E-02));
#271 = DIRECTION('',(0.,0.,-1.));
#272 = DIRECTION('',(-1.,0.,0.));
#273 = FACE_BOUND('',#274,.F.);
#274 = EDGE_LOOP('',(#275));
#275 = ORIENTED_EDGE('',*,*,#276,.T.);
#276 = EDGE_CURVE('',#277,#277,#279,.T.);
#277 = VERTEX_POINT('',#278);
#278 = CARTESIAN_POINT('',(-4.099418,6.545,1.E-02));
#279 = CIRCLE('',#280,0.50995);
#280 = AXIS2_PLACEMENT_3D('',#281,#282,#283);
#281 = CARTESIAN_POINT('',(-3.589468,6.545,1.E-02));
#282 = DIRECTION('',(0.,0.,-1.));
#283 = DIRECTION('',(-1.,0.,0.));
#284 = FACE_BOUND('',#285,.F.);
#285 = EDGE_LOOP('',(#286));
#286 = ORIENTED_EDGE('',*,*,#287,.T.);
#287 = EDGE_CURVE('',#288,#288,#290,.T.);
#288 = VERTEX_POINT('',#289);
#289 = CARTESIAN_POINT('',(-1.559418,4.005,1.E-02));
#290 = CIRCLE('',#291,0.50995);
#291 = AXIS2_PLACEMENT_3D('',#292,#293,#294);
#292 = CARTESIAN_POINT('',(-1.049468,4.005,1.E-02));
#293 = DIRECTION('',(0.,0.,-1.));
#294 = DIRECTION('',(-1.,0.,0.));
#295 = FACE_BOUND('',#296,.F.);
#296 = EDGE_LOOP('',(#297));
#297 = ORIENTED_EDGE('',*,*,#298,.T.);
#298 = EDGE_CURVE('',#299,#299,#301,.T.);
#299 = VERTEX_POINT('',#300);
#300 = CARTESIAN_POINT('',(-1.559418,6.545,1.E-02));
#301 = CIRCLE('',#302,0.50995);
#302 = AXIS2_PLACEMENT_3D('',#303,#304,#305);
#303 = CARTESIAN_POINT('',(-1.049468,6.545,1.E-02));
#304 = DIRECTION('',(0.,0.,-1.));
#305 = DIRECTION('',(-1.,0.,0.));
#306 = FACE_BOUND('',#307,.F.);
#307 = EDGE_LOOP('',(#308));
#308 = ORIENTED_EDGE('',*,*,#309,.T.);
#309 = EDGE_CURVE('',#310,#310,#312,.T.);
#310 = VERTEX_POINT('',#311);
#311 = CARTESIAN_POINT('',(-4.099418,9.085,1.E-02));
#312 = CIRCLE('',#313,0.50995);
#313 = AXIS2_PLACEMENT_3D('',#314,#315,#316);
#314 = CARTESIAN_POINT('',(-3.589468,9.085,1.E-02));
#315 = DIRECTION('',(0.,0.,-1.));
#316 = DIRECTION('',(-1.,0.,0.));
#317 = FACE_BOUND('',#318,.F.);
#318 = EDGE_LOOP('',(#319));
#319 = ORIENTED_EDGE('',*,*,#320,.T.);
#320 = EDGE_CURVE('',#321,#321,#323,.T.);
#321 = VERTEX_POINT('',#322);
#322 = CARTESIAN_POINT('',(-4.099418,11.625,1.E-02));
#323 = CIRCLE('',#324,0.50995);
#324 = AXIS2_PLACEMENT_3D('',#325,#326,#327);
#325 = CARTESIAN_POINT('',(-3.589468,11.625,1.E-02));
#326 = DIRECTION('',(0.,0.,-1.));
#327 = DIRECTION('',(-1.,0.,0.));
#328 = FACE_BOUND('',#329,.F.);
#329 = EDGE_LOOP('',(#330));
#330 = ORIENTED_EDGE('',*,*,#331,.T.);
#331 = EDGE_CURVE('',#332,#332,#334,.T.);
#332 = VERTEX_POINT('',#333);
#333 = CARTESIAN_POINT('',(-1.559418,9.085,1.E-02));
#334 = CIRCLE('',#335,0.50995);
#335 = AXIS2_PLACEMENT_3D('',#336,#337,#338);
#336 = CARTESIAN_POINT('',(-1.049468,9.085,1.E-02));
#337 = DIRECTION('',(0.,0.,-1.));
#338 = DIRECTION('',(-1.,0.,0.));
#339 = FACE_BOUND('',#340,.F.);
#340 = EDGE_LOOP('',(#341));
#341 = ORIENTED_EDGE('',*,*,#342,.T.);
#342 = EDGE_CURVE('',#343,#343,#345,.T.);
#343 = VERTEX_POINT('',#344);
#344 = CARTESIAN_POINT('',(-1.559418,11.625,1.E-02));
#345 = CIRCLE('',#346,0.50995);
#346 = AXIS2_PLACEMENT_3D('',#347,#348,#349);
#347 = CARTESIAN_POINT('',(-1.049468,11.625,1.E-02));
#348 = DIRECTION('',(0.,0.,-1.));
#349 = DIRECTION('',(-1.,0.,0.));
#350 = PLANE('',#351);
#351 = AXIS2_PLACEMENT_3D('',#352,#353,#354);
#352 = CARTESIAN_POINT('',(-4.909468,-1.125,1.E-02));
#353 = DIRECTION('',(0.,0.,1.));
#354 = DIRECTION('',(1.,0.,0.));
#355 = ADVANCED_FACE('',(#356),#362,.T.);
#356 = FACE_BOUND('',#357,.T.);
#357 = EDGE_LOOP('',(#358,#359,#360,#361));
#358 = ORIENTED_EDGE('',*,*,#104,.F.);
#359 = ORIENTED_EDGE('',*,*,#256,.T.);
#360 = ORIENTED_EDGE('',*,*,#240,.T.);
#361 = ORIENTED_EDGE('',*,*,#120,.F.);
#362 = PLANE('',#363);
#363 = AXIS2_PLACEMENT_3D('',#364,#365,#366);
#364 = CARTESIAN_POINT('',(18.050532,-1.125,1.E-02));
#365 = DIRECTION('',(1.,0.,0.));
#366 = DIRECTION('',(0.,0.,1.));
#367 = ADVANCED_FACE('',(#368),#387,.F.);
#368 = FACE_BOUND('',#369,.T.);
#369 = EDGE_LOOP('',(#370,#379,#385,#386));
#370 = ORIENTED_EDGE('',*,*,#371,.F.);
#371 = EDGE_CURVE('',#372,#372,#374,.T.);
#372 = VERTEX_POINT('',#373);
#373 = CARTESIAN_POINT('',(-4.099418,4.005,0.8));
#374 = CIRCLE('',#375,0.50995);
#375 = AXIS2_PLACEMENT_3D('',#376,#377,#378);
#376 = CARTESIAN_POINT('',(-3.589468,4.005,0.8));
#377 = DIRECTION('',(0.,0.,1.));
#378 = DIRECTION('',(-1.,0.,0.));
#379 = ORIENTED_EDGE('',*,*,#380,.T.);
#380 = EDGE_CURVE('',#372,#137,#381,.T.);
#381 = LINE('',#382,#383);
#382 = CARTESIAN_POINT('',(-4.099418,4.005,-0.8));
#383 = VECTOR('',#384,1.);
#384 = DIRECTION('',(0.,0.,1.));
#385 = ORIENTED_EDGE('',*,*,#136,.F.);
#386 = ORIENTED_EDGE('',*,*,#380,.F.);
#387 = CYLINDRICAL_SURFACE('',#388,0.50995);
#388 = AXIS2_PLACEMENT_3D('',#389,#390,#391);
#389 = CARTESIAN_POINT('',(-3.589468,4.005,-0.8));
#390 = DIRECTION('',(-0.,-0.,-1.));
#391 = DIRECTION('',(-1.,0.,0.));
#392 = ADVANCED_FACE('',(#393),#412,.F.);
#393 = FACE_BOUND('',#394,.T.);
#394 = EDGE_LOOP('',(#395,#404,#410,#411));
#395 = ORIENTED_EDGE('',*,*,#396,.F.);
#396 = EDGE_CURVE('',#397,#397,#399,.T.);
#397 = VERTEX_POINT('',#398);
#398 = CARTESIAN_POINT('',(-4.099418,6.545,0.8));
#399 = CIRCLE('',#400,0.50995);
#400 = AXIS2_PLACEMENT_3D('',#401,#402,#403);
#401 = CARTESIAN_POINT('',(-3.589468,6.545,0.8));
#402 = DIRECTION('',(0.,0.,1.));
#403 = DIRECTION('',(-1.,0.,0.));
#404 = ORIENTED_EDGE('',*,*,#405,.T.);
#405 = EDGE_CURVE('',#397,#148,#406,.T.);
#406 = LINE('',#407,#408);
#407 = CARTESIAN_POINT('',(-4.099418,6.545,-0.8));
#408 = VECTOR('',#409,1.);
#409 = DIRECTION('',(0.,0.,1.));
#410 = ORIENTED_EDGE('',*,*,#147,.F.);
#411 = ORIENTED_EDGE('',*,*,#405,.F.);
#412 = CYLINDRICAL_SURFACE('',#413,0.50995);
#413 = AXIS2_PLACEMENT_3D('',#414,#415,#416);
#414 = CARTESIAN_POINT('',(-3.589468,6.545,-0.8));
#415 = DIRECTION('',(-0.,-0.,-1.));
#416 = DIRECTION('',(-1.,0.,0.));
#417 = ADVANCED_FACE('',(#418),#437,.F.);
#418 = FACE_BOUND('',#419,.T.);
#419 = EDGE_LOOP('',(#420,#429,#435,#436));
#420 = ORIENTED_EDGE('',*,*,#421,.F.);
#421 = EDGE_CURVE('',#422,#422,#424,.T.);
#422 = VERTEX_POINT('',#423);
#423 = CARTESIAN_POINT('',(-1.559418,4.005,0.8));
#424 = CIRCLE('',#425,0.50995);
#425 = AXIS2_PLACEMENT_3D('',#426,#427,#428);
#426 = CARTESIAN_POINT('',(-1.049468,4.005,0.8));
#427 = DIRECTION('',(0.,0.,1.));
#428 = DIRECTION('',(-1.,0.,0.));
#429 = ORIENTED_EDGE('',*,*,#430,.T.);
#430 = EDGE_CURVE('',#422,#159,#431,.T.);
#431 = LINE('',#432,#433);
#432 = CARTESIAN_POINT('',(-1.559418,4.005,-0.8));
#433 = VECTOR('',#434,1.);
#434 = DIRECTION('',(0.,0.,1.));
#435 = ORIENTED_EDGE('',*,*,#158,.F.);
#436 = ORIENTED_EDGE('',*,*,#430,.F.);
#437 = CYLINDRICAL_SURFACE('',#438,0.50995);
#438 = AXIS2_PLACEMENT_3D('',#439,#440,#441);
#439 = CARTESIAN_POINT('',(-1.049468,4.005,-0.8));
#440 = DIRECTION('',(-0.,-0.,-1.));
#441 = DIRECTION('',(-1.,0.,0.));
#442 = ADVANCED_FACE('',(#443),#462,.F.);
#443 = FACE_BOUND('',#444,.T.);
#444 = EDGE_LOOP('',(#445,#454,#460,#461));
#445 = ORIENTED_EDGE('',*,*,#446,.F.);
#446 = EDGE_CURVE('',#447,#447,#449,.T.);
#447 = VERTEX_POINT('',#448);
#448 = CARTESIAN_POINT('',(-1.559418,6.545,0.8));
#449 = CIRCLE('',#450,0.50995);
#450 = AXIS2_PLACEMENT_3D('',#451,#452,#453);
#451 = CARTESIAN_POINT('',(-1.049468,6.545,0.8));
#452 = DIRECTION('',(0.,0.,1.));
#453 = DIRECTION('',(-1.,0.,0.));
#454 = ORIENTED_EDGE('',*,*,#455,.T.);
#455 = EDGE_CURVE('',#447,#170,#456,.T.);
#456 = LINE('',#457,#458);
#457 = CARTESIAN_POINT('',(-1.559418,6.545,-0.8));
#458 = VECTOR('',#459,1.);
#459 = DIRECTION('',(0.,0.,1.));
#460 = ORIENTED_EDGE('',*,*,#169,.F.);
#461 = ORIENTED_EDGE('',*,*,#455,.F.);
#462 = CYLINDRICAL_SURFACE('',#463,0.50995);
#463 = AXIS2_PLACEMENT_3D('',#464,#465,#466);
#464 = CARTESIAN_POINT('',(-1.049468,6.545,-0.8));
#465 = DIRECTION('',(-0.,-0.,-1.));
#466 = DIRECTION('',(-1.,0.,0.));
#467 = ADVANCED_FACE('',(#468),#487,.F.);
#468 = FACE_BOUND('',#469,.T.);
#469 = EDGE_LOOP('',(#470,#479,#485,#486));
#470 = ORIENTED_EDGE('',*,*,#471,.F.);
#471 = EDGE_CURVE('',#472,#472,#474,.T.);
#472 = VERTEX_POINT('',#473);
#473 = CARTESIAN_POINT('',(-4.099418,9.085,0.8));
#474 = CIRCLE('',#475,0.50995);
#475 = AXIS2_PLACEMENT_3D('',#476,#477,#478);
#476 = CARTESIAN_POINT('',(-3.589468,9.085,0.8));
#477 = DIRECTION('',(0.,0.,1.));
#478 = DIRECTION('',(-1.,0.,0.));
#479 = ORIENTED_EDGE('',*,*,#480,.T.);
#480 = EDGE_CURVE('',#472,#181,#481,.T.);
#481 = LINE('',#482,#483);
#482 = CARTESIAN_POINT('',(-4.099418,9.085,-0.8));
#483 = VECTOR('',#484,1.);
#484 = DIRECTION('',(0.,0.,1.));
#485 = ORIENTED_EDGE('',*,*,#180,.F.);
#486 = ORIENTED_EDGE('',*,*,#480,.F.);
#487 = CYLINDRICAL_SURFACE('',#488,0.50995);
#488 = AXIS2_PLACEMENT_3D('',#489,#490,#491);
#489 = CARTESIAN_POINT('',(-3.589468,9.085,-0.8));
#490 = DIRECTION('',(-0.,-0.,-1.));
#491 = DIRECTION('',(-1.,0.,0.));
#492 = ADVANCED_FACE('',(#493),#512,.F.);
#493 = FACE_BOUND('',#494,.T.);
#494 = EDGE_LOOP('',(#495,#504,#510,#511));
#495 = ORIENTED_EDGE('',*,*,#496,.F.);
#496 = EDGE_CURVE('',#497,#497,#499,.T.);
#497 = VERTEX_POINT('',#498);
#498 = CARTESIAN_POINT('',(-4.099418,11.625,0.8));
#499 = CIRCLE('',#500,0.50995);
#500 = AXIS2_PLACEMENT_3D('',#501,#502,#503);
#501 = CARTESIAN_POINT('',(-3.589468,11.625,0.8));
#502 = DIRECTION('',(0.,0.,1.));
#503 = DIRECTION('',(-1.,0.,0.));
#504 = ORIENTED_EDGE('',*,*,#505,.T.);
#505 = EDGE_CURVE('',#497,#192,#506,.T.);
#506 = LINE('',#507,#508);
#507 = CARTESIAN_POINT('',(-4.099418,11.625,-0.8));
#508 = VECTOR('',#509,1.);
#509 = DIRECTION('',(0.,0.,1.));
#510 = ORIENTED_EDGE('',*,*,#191,.F.);
#511 = ORIENTED_EDGE('',*,*,#505,.F.);
#512 = CYLINDRICAL_SURFACE('',#513,0.50995);
#513 = AXIS2_PLACEMENT_3D('',#514,#515,#516);
#514 = CARTESIAN_POINT('',(-3.589468,11.625,-0.8));
#515 = DIRECTION('',(-0.,-0.,-1.));
#516 = DIRECTION('',(-1.,0.,0.));
#517 = ADVANCED_FACE('',(#518),#537,.F.);
#518 = FACE_BOUND('',#519,.T.);
#519 = EDGE_LOOP('',(#520,#529,#535,#536));
#520 = ORIENTED_EDGE('',*,*,#521,.F.);
#521 = EDGE_CURVE('',#522,#522,#524,.T.);
#522 = VERTEX_POINT('',#523);
#523 = CARTESIAN_POINT('',(-1.559418,9.085,0.8));
#524 = CIRCLE('',#525,0.50995);
#525 = AXIS2_PLACEMENT_3D('',#526,#527,#528);
#526 = CARTESIAN_POINT('',(-1.049468,9.085,0.8));
#527 = DIRECTION('',(0.,0.,1.));
#528 = DIRECTION('',(-1.,0.,0.));
#529 = ORIENTED_EDGE('',*,*,#530,.T.);
#530 = EDGE_CURVE('',#522,#203,#531,.T.);
#531 = LINE('',#532,#533);
#532 = CARTESIAN_POINT('',(-1.559418,9.085,-0.8));
#533 = VECTOR('',#534,1.);
#534 = DIRECTION('',(0.,0.,1.));
#535 = ORIENTED_EDGE('',*,*,#202,.F.);
#536 = ORIENTED_EDGE('',*,*,#530,.F.);
#537 = CYLINDRICAL_SURFACE('',#538,0.50995);
#538 = AXIS2_PLACEMENT_3D('',#539,#540,#541);
#539 = CARTESIAN_POINT('',(-1.049468,9.085,-0.8));
#540 = DIRECTION('',(-0.,-0.,-1.));
#541 = DIRECTION('',(-1.,0.,0.));
#542 = ADVANCED_FACE('',(#543),#562,.F.);
#543 = FACE_BOUND('',#544,.T.);
#544 = EDGE_LOOP('',(#545,#554,#560,#561));
#545 = ORIENTED_EDGE('',*,*,#546,.F.);
#546 = EDGE_CURVE('',#547,#547,#549,.T.);
#547 = VERTEX_POINT('',#548);
#548 = CARTESIAN_POINT('',(-1.559418,11.625,0.8));
#549 = CIRCLE('',#550,0.50995);
#550 = AXIS2_PLACEMENT_3D('',#551,#552,#553);
#551 = CARTESIAN_POINT('',(-1.049468,11.625,0.8));
#552 = DIRECTION('',(0.,0.,1.));
#553 = DIRECTION('',(-1.,0.,0.));
#554 = ORIENTED_EDGE('',*,*,#555,.T.);
#555 = EDGE_CURVE('',#547,#214,#556,.T.);
#556 = LINE('',#557,#558);
#557 = CARTESIAN_POINT('',(-1.559418,11.625,-0.8));
#558 = VECTOR('',#559,1.);
#559 = DIRECTION('',(0.,0.,1.));
#560 = ORIENTED_EDGE('',*,*,#213,.F.);
#561 = ORIENTED_EDGE('',*,*,#555,.F.);
#562 = CYLINDRICAL_SURFACE('',#563,0.50995);
#563 = AXIS2_PLACEMENT_3D('',#564,#565,#566);
#564 = CARTESIAN_POINT('',(-1.049468,11.625,-0.8));
#565 = DIRECTION('',(-0.,-0.,-1.));
#566 = DIRECTION('',(-1.,0.,0.));
#567 = ADVANCED_FACE('',(#568),#579,.F.);
#568 = FACE_BOUND('',#569,.T.);
#569 = EDGE_LOOP('',(#570,#571,#577,#578));
#570 = ORIENTED_EDGE('',*,*,#265,.T.);
#571 = ORIENTED_EDGE('',*,*,#572,.T.);
#572 = EDGE_CURVE('',#266,#372,#573,.T.);
#573 = LINE('',#574,#575);
#574 = CARTESIAN_POINT('',(-4.099418,4.005,-0.8));
#575 = VECTOR('',#576,1.);
#576 = DIRECTION('',(0.,0.,1.));
#577 = ORIENTED_EDGE('',*,*,#371,.T.);
#578 = ORIENTED_EDGE('',*,*,#572,.F.);
#579 = CYLINDRICAL_SURFACE('',#580,0.50995);
#580 = AXIS2_PLACEMENT_3D('',#581,#582,#583);
#581 = CARTESIAN_POINT('',(-3.589468,4.005,-0.8));
#582 = DIRECTION('',(-0.,-0.,-1.));
#583 = DIRECTION('',(-1.,0.,0.));
#584 = ADVANCED_FACE('',(#585),#596,.F.);
#585 = FACE_BOUND('',#586,.T.);
#586 = EDGE_LOOP('',(#587,#588,#594,#595));
#587 = ORIENTED_EDGE('',*,*,#276,.T.);
#588 = ORIENTED_EDGE('',*,*,#589,.T.);
#589 = EDGE_CURVE('',#277,#397,#590,.T.);
#590 = LINE('',#591,#592);
#591 = CARTESIAN_POINT('',(-4.099418,6.545,-0.8));
#592 = VECTOR('',#593,1.);
#593 = DIRECTION('',(0.,0.,1.));
#594 = ORIENTED_EDGE('',*,*,#396,.T.);
#595 = ORIENTED_EDGE('',*,*,#589,.F.);
#596 = CYLINDRICAL_SURFACE('',#597,0.50995);
#597 = AXIS2_PLACEMENT_3D('',#598,#599,#600);
#598 = CARTESIAN_POINT('',(-3.589468,6.545,-0.8));
#599 = DIRECTION('',(-0.,-0.,-1.));
#600 = DIRECTION('',(-1.,0.,0.));
#601 = ADVANCED_FACE('',(#602),#613,.F.);
#602 = FACE_BOUND('',#603,.T.);
#603 = EDGE_LOOP('',(#604,#605,#611,#612));
#604 = ORIENTED_EDGE('',*,*,#287,.T.);
#605 = ORIENTED_EDGE('',*,*,#606,.T.);
#606 = EDGE_CURVE('',#288,#422,#607,.T.);
#607 = LINE('',#608,#609);
#608 = CARTESIAN_POINT('',(-1.559418,4.005,-0.8));
#609 = VECTOR('',#610,1.);
#610 = DIRECTION('',(0.,0.,1.));
#611 = ORIENTED_EDGE('',*,*,#421,.T.);
#612 = ORIENTED_EDGE('',*,*,#606,.F.);
#613 = CYLINDRICAL_SURFACE('',#614,0.50995);
#614 = AXIS2_PLACEMENT_3D('',#615,#616,#617);
#615 = CARTESIAN_POINT('',(-1.049468,4.005,-0.8));
#616 = DIRECTION('',(-0.,-0.,-1.));
#617 = DIRECTION('',(-1.,0.,0.));
#618 = ADVANCED_FACE('',(#619),#630,.F.);
#619 = FACE_BOUND('',#620,.T.);
#620 = EDGE_LOOP('',(#621,#622,#628,#629));
#621 = ORIENTED_EDGE('',*,*,#298,.T.);
#622 = ORIENTED_EDGE('',*,*,#623,.T.);
#623 = EDGE_CURVE('',#299,#447,#624,.T.);
#624 = LINE('',#625,#626);
#625 = CARTESIAN_POINT('',(-1.559418,6.545,-0.8));
#626 = VECTOR('',#627,1.);
#627 = DIRECTION('',(0.,0.,1.));
#628 = ORIENTED_EDGE('',*,*,#446,.T.);
#629 = ORIENTED_EDGE('',*,*,#623,.F.);
#630 = CYLINDRICAL_SURFACE('',#631,0.50995);
#631 = AXIS2_PLACEMENT_3D('',#632,#633,#634);
#632 = CARTESIAN_POINT('',(-1.049468,6.545,-0.8));
#633 = DIRECTION('',(-0.,-0.,-1.));
#634 = DIRECTION('',(-1.,0.,0.));
#635 = ADVANCED_FACE('',(#636),#647,.F.);
#636 = FACE_BOUND('',#637,.T.);
#637 = EDGE_LOOP('',(#638,#639,#645,#646));
#638 = ORIENTED_EDGE('',*,*,#309,.T.);
#639 = ORIENTED_EDGE('',*,*,#640,.T.);
#640 = EDGE_CURVE('',#310,#472,#641,.T.);
#641 = LINE('',#642,#643);
#642 = CARTESIAN_POINT('',(-4.099418,9.085,-0.8));
#643 = VECTOR('',#644,1.);
#644 = DIRECTION('',(0.,0.,1.));
#645 = ORIENTED_EDGE('',*,*,#471,.T.);
#646 = ORIENTED_EDGE('',*,*,#640,.F.);
#647 = CYLINDRICAL_SURFACE('',#648,0.50995);
#648 = AXIS2_PLACEMENT_3D('',#649,#650,#651);
#649 = CARTESIAN_POINT('',(-3.589468,9.085,-0.8));
#650 = DIRECTION('',(-0.,-0.,-1.));
#651 = DIRECTION('',(-1.,0.,0.));
#652 = ADVANCED_FACE('',(#653),#664,.F.);
#653 = FACE_BOUND('',#654,.T.);
#654 = EDGE_LOOP('',(#655,#656,#662,#663));
#655 = ORIENTED_EDGE('',*,*,#320,.T.);
#656 = ORIENTED_EDGE('',*,*,#657,.T.);
#657 = EDGE_CURVE('',#321,#497,#658,.T.);
#658 = LINE('',#659,#660);
#659 = CARTESIAN_POINT('',(-4.099418,11.625,-0.8));
#660 = VECTOR('',#661,1.);
#661 = DIRECTION('',(0.,0.,1.));
#662 = ORIENTED_EDGE('',*,*,#496,.T.);
#663 = ORIENTED_EDGE('',*,*,#657,.F.);
#664 = CYLINDRICAL_SURFACE('',#665,0.50995);
#665 = AXIS2_PLACEMENT_3D('',#666,#667,#668);
#666 = CARTESIAN_POINT('',(-3.589468,11.625,-0.8));
#667 = DIRECTION('',(-0.,-0.,-1.));
#668 = DIRECTION('',(-1.,0.,0.));
#669 = ADVANCED_FACE('',(#670),#681,.F.);
#670 = FACE_BOUND('',#671,.T.);
#671 = EDGE_LOOP('',(#672,#673,#679,#680));
#672 = ORIENTED_EDGE('',*,*,#331,.T.);
#673 = ORIENTED_EDGE('',*,*,#674,.T.);
#674 = EDGE_CURVE('',#332,#522,#675,.T.);
#675 = LINE('',#676,#677);
#676 = CARTESIAN_POINT('',(-1.559418,9.085,-0.8));
#677 = VECTOR('',#678,1.);
#678 = DIRECTION('',(0.,0.,1.));
#679 = ORIENTED_EDGE('',*,*,#521,.T.);
#680 = ORIENTED_EDGE('',*,*,#674,.F.);
#681 = CYLINDRICAL_SURFACE('',#682,0.50995);
#682 = AXIS2_PLACEMENT_3D('',#683,#684,#685);
#683 = CARTESIAN_POINT('',(-1.049468,9.085,-0.8));
#684 = DIRECTION('',(-0.,-0.,-1.));
#685 = DIRECTION('',(-1.,0.,0.));
#686 = ADVANCED_FACE('',(#687),#698,.F.);
#687 = FACE_BOUND('',#688,.T.);
#688 = EDGE_LOOP('',(#689,#690,#696,#697));
#689 = ORIENTED_EDGE('',*,*,#342,.T.);
#690 = ORIENTED_EDGE('',*,*,#691,.T.);
#691 = EDGE_CURVE('',#343,#547,#692,.T.);
#692 = LINE('',#693,#694);
#693 = CARTESIAN_POINT('',(-1.559418,11.625,-0.8));
#694 = VECTOR('',#695,1.);
#695 = DIRECTION('',(0.,0.,1.));
#696 = ORIENTED_EDGE('',*,*,#546,.T.);
#697 = ORIENTED_EDGE('',*,*,#691,.F.);
#698 = CYLINDRICAL_SURFACE('',#699,0.50995);
#699 = AXIS2_PLACEMENT_3D('',#700,#701,#702);
#700 = CARTESIAN_POINT('',(-1.049468,11.625,-0.8));
#701 = DIRECTION('',(-0.,-0.,-1.));
#702 = DIRECTION('',(-1.,0.,0.));
#703 = ( GEOMETRIC_REPRESENTATION_CONTEXT(3) 
GLOBAL_UNCERTAINTY_ASSIGNED_CONTEXT((#707)) GLOBAL_UNIT_ASSIGNED_CONTEXT
((#704,#705,#706)) REPRESENTATION_CONTEXT('Context #1',
  '3D Context with UNIT and UNCERTAINTY') );
#704 = ( LENGTH_UNIT() NAMED_UNIT(*) SI_UNIT(.MILLI.,.METRE.) );
#705 = ( NAMED_UNIT(*) PLANE_ANGLE_UNIT() SI_UNIT($,.RADIAN.) );
#706 = ( NAMED_UNIT(*) SI_UNIT($,.STERADIAN.) SOLID_ANGLE_UNIT() );
#707 = UNCERTAINTY_MEASURE_WITH_UNIT(LENGTH_MEASURE(1.E-07),#704,
  'distance_accuracy_value','confusion accuracy');
#708 = CONTEXT_DEPENDENT_SHAPE_REPRESENTATION(#709,#711);
#709 = ( REPRESENTATION_RELATIONSHIP('','',#40,#10) 
REPRESENTATION_RELATIONSHIP_WITH_TRANSFORMATION(#710) 
SHAPE_REPRESENTATION_RELATIONSHIP() );
#710 = ITEM_DEFINED_TRANSFORMATION('','',#11,#15);
#711 = PRODUCT_DEFINITION_SHAPE('Placement','Placement of an item',#712
  );
#712 = NEXT_ASSEMBLY_USAGE_OCCURRENCE('1','Daughterboard_3D_Model','',#5
  ,#35,$);
#713 = PRODUCT_RELATED_PRODUCT_CATEGORY('part',$,(#37));
#714 = SHAPE_DEFINITION_REPRESENTATION(#715,#721);
#715 = PRODUCT_DEFINITION_SHAPE('','',#716);
#716 = PRODUCT_DEFINITION('design','',#717,#720);
#717 = PRODUCT_DEFINITION_FORMATION('','',#718);
#718 = PRODUCT('shaft','shaft','',(#719));
#719 = PRODUCT_CONTEXT('',#2,'mechanical');
#720 = PRODUCT_DEFINITION_CONTEXT('part definition',#2,'design');
#721 = ADVANCED_BREP_SHAPE_REPRESENTATION('',(#11,#722),#775);
#722 = MANIFOLD_SOLID_BREP('',#723);
#723 = CLOSED_SHELL('',(#724,#757,#766));
#724 = ADVANCED_FACE('',(#725),#752,.T.);
#725 = FACE_BOUND('',#726,.F.);
#726 = EDGE_LOOP('',(#727,#737,#744,#745));
#727 = ORIENTED_EDGE('',*,*,#728,.T.);
#728 = EDGE_CURVE('',#729,#731,#733,.T.);
#729 = VERTEX_POINT('',#730);
#730 = CARTESIAN_POINT('',(0.3,-0.,0.));
#731 = VERTEX_POINT('',#732);
#732 = CARTESIAN_POINT('',(0.3,0.,5.));
#733 = LINE('',#734,#735);
#734 = CARTESIAN_POINT('',(0.3,-7.E-17,0.));
#735 = VECTOR('',#736,1.);
#736 = DIRECTION('',(0.,0.,1.));
#737 = ORIENTED_EDGE('',*,*,#738,.T.);
#738 = EDGE_CURVE('',#731,#731,#739,.T.);
#739 = CIRCLE('',#740,0.3);
#740 = AXIS2_PLACEMENT_3D('',#741,#742,#743);
#741 = CARTESIAN_POINT('',(0.,0.,5.));
#742 = DIRECTION('',(0.,0.,1.));
#743 = DIRECTION('',(1.,0.,0.));
#744 = ORIENTED_EDGE('',*,*,#728,.F.);
#745 = ORIENTED_EDGE('',*,*,#746,.F.);
#746 = EDGE_CURVE('',#729,#729,#747,.T.);
#747 = CIRCLE('',#748,0.3);
#748 = AXIS2_PLACEMENT_3D('',#749,#750,#751);
#749 = CARTESIAN_POINT('',(0.,0.,0.));
#750 = DIRECTION('',(0.,0.,1.));
#751 = DIRECTION('',(1.,0.,-0.));
#752 = CYLINDRICAL_SURFACE('',#753,0.3);
#753 = AXIS2_PLACEMENT_3D('',#754,#755,#756);
#754 = CARTESIAN_POINT('',(0.,0.,0.));
#755 = DIRECTION('',(-0.,-0.,-1.));
#756 = DIRECTION('',(1.,0.,-0.));
#757 = ADVANCED_FACE('',(#758),#761,.F.);
#758 = FACE_BOUND('',#759,.T.);
#759 = EDGE_LOOP('',(#760));
#760 = ORIENTED_EDGE('',*,*,#746,.F.);
#761 = PLANE('',#762);
#762 = AXIS2_PLACEMENT_3D('',#763,#764,#765);
#763 = CARTESIAN_POINT('',(0.,0.,0.));
#764 = DIRECTION('',(0.,0.,1.));
#765 = DIRECTION('',(1.,0.,-0.));
#766 = ADVANCED_FACE('',(#767),#770,.T.);
#767 = FACE_BOUND('',#768,.F.);
#768 = EDGE_LOOP('',(#769));
#769 = ORIENTED_EDGE('',*,*,#738,.F.);
#770 = PLANE('',#771);
#771 = AXIS2_PLACEMENT_3D('',#772,#773,#774);
#772 = CARTESIAN_POINT('',(0.,0.,5.));
#773 = DIRECTION('',(0.,0.,1.));
#774 = DIRECTION('',(1.,0.,0.));
#775 = ( GEOMETRIC_REPRESENTATION_CONTEXT(3) 
GLOBAL_UNCERTAINTY_ASSIGNED_CONTEXT((#779)) GLOBAL_UNIT_ASSIGNED_CONTEXT
((#776,#777,#778)) REPRESENTATION_CONTEXT('Context #1',
  '3D Context with UNIT and UNCERTAINTY') );
#776 = ( LENGTH_UNIT() NAMED_UNIT(*) SI_UNIT(.MILLI.,.METRE.) );
#777 = ( NAMED_UNIT(*) PLANE_ANGLE_UNIT() SI_UNIT($,.RADIAN.) );
#778 = ( NAMED_UNIT(*) SI_UNIT($,.STERADIAN.) SOLID_ANGLE_UNIT() );
#779 = UNCERTAINTY_MEASURE_WITH_UNIT(LENGTH_MEASURE(1.E-07),#776,
  'distance_accuracy_value','confusion accuracy');
#780 = CONTEXT_DEPENDENT_SHAPE_REPRESENTATION(#781,#783);
#781 = ( REPRESENTATION_RELATIONSHIP('','',#721,#10) 
REPRESENTATION_RELATIONSHIP_WITH_TRANSFORMATION(#782) 
SHAPE_REPRESENTATION_RELATIONSHIP() );
#782 = ITEM_DEFINED_TRANSFORMATION('','',#11,#19);
#783 = PRODUCT_DEFINITION_SHAPE('Placement','Placement of an item',#784
  );
#784 = NEXT_ASSEMBLY_USAGE_OCCURRENCE('2','shaft','',#5,#716,$);
#785 = PRODUCT_RELATED_PRODUCT_CATEGORY('part',$,(#718));
#786 = SHAPE_DEFINITION_REPRESENTATION(#787,#793);
#787 = PRODUCT_DEFINITION_SHAPE('','',#788);
#788 = PRODUCT_DEFINITION('design','',#789,#792);
#789 = PRODUCT_DEFINITION_FORMATION('','',#790);
#790 = PRODUCT('antenna','antenna','',(#791));
#791 = PRODUCT_CONTEXT('',#2,'mechanical');
#792 = PRODUCT_DEFINITION_CONTEXT('part definition',#2,'design');
#793 = ADVANCED_BREP_SHAPE_REPRESENTATION('',(#11,#794),#847);
#794 = MANIFOLD_SOLID_BREP('',#795);
#795 = CLOSED_SHELL('',(#796,#829,#838));
#796 = ADVANCED_FACE('',(#797),#824,.T.);
#797 = FACE_BOUND('',#798,.F.);
#798 = EDGE_LOOP('',(#799,#809,#816,#817));
#799 = ORIENTED_EDGE('',*,*,#800,.T.);
#800 = EDGE_CURVE('',#801,#803,#805,.T.);
#801 = VERTEX_POINT('',#802);
#802 = CARTESIAN_POINT('',(3.3,-1.E-15,0.));
#803 = VERTEX_POINT('',#804);
#804 = CARTESIAN_POINT('',(3.3,-1.E-15,10.));
#805 = LINE('',#806,#807);
#806 = CARTESIAN_POINT('',(3.3,-8.1E-16,0.));
#807 = VECTOR('',#808,1.);
#808 = DIRECTION('',(0.,0.,1.));
#809 = ORIENTED_EDGE('',*,*,#810,.T.);
#810 = EDGE_CURVE('',#803,#803,#811,.T.);
#811 = CIRCLE('',#812,3.3);
#812 = AXIS2_PLACEMENT_3D('',#813,#814,#815);
#813 = CARTESIAN_POINT('',(0.,0.,10.));
#814 = DIRECTION('',(0.,0.,1.));
#815 = DIRECTION('',(1.,0.,0.));
#816 = ORIENTED_EDGE('',*,*,#800,.F.);
#817 = ORIENTED_EDGE('',*,*,#818,.F.);
#818 = EDGE_CURVE('',#801,#801,#819,.T.);
#819 = CIRCLE('',#820,3.3);
#820 = AXIS2_PLACEMENT_3D('',#821,#822,#823);
#821 = CARTESIAN_POINT('',(0.,0.,0.));
#822 = DIRECTION('',(0.,0.,1.));
#823 = DIRECTION('',(1.,0.,-0.));
#824 = CYLINDRICAL_SURFACE('',#825,3.3);
#825 = AXIS2_PLACEMENT_3D('',#826,#827,#828);
#826 = CARTESIAN_POINT('',(0.,0.,0.));
#827 = DIRECTION('',(-0.,-0.,-1.));
#828 = DIRECTION('',(1.,0.,-0.));
#829 = ADVANCED_FACE('',(#830),#833,.F.);
#830 = FACE_BOUND('',#831,.T.);
#831 = EDGE_LOOP('',(#832));
#832 = ORIENTED_EDGE('',*,*,#818,.F.);
#833 = PLANE('',#834);
#834 = AXIS2_PLACEMENT_3D('',#835,#836,#837);
#835 = CARTESIAN_POINT('',(0.,0.,0.));
#836 = DIRECTION('',(0.,0.,1.));
#837 = DIRECTION('',(1.,0.,-0.));
#838 = ADVANCED_FACE('',(#839),#842,.T.);
#839 = FACE_BOUND('',#840,.F.);
#840 = EDGE_LOOP('',(#841));
#841 = ORIENTED_EDGE('',*,*,#810,.F.);
#842 = PLANE('',#843);
#843 = AXIS2_PLACEMENT_3D('',#844,#845,#846);
#844 = CARTESIAN_POINT('',(0.,0.,10.));
#845 = DIRECTION('',(0.,0.,1.));
#846 = DIRECTION('',(1.,0.,0.));
#847 = ( GEOMETRIC_REPRESENTATION_CONTEXT(3) 
GLOBAL_UNCERTAINTY_ASSIGNED_CONTEXT((#851)) GLOBAL_UNIT_ASSIGNED_CONTEXT
((#848,#849,#850)) REPRESENTATION_CONTEXT('Context #1',
  '3D Context with UNIT and UNCERTAINTY') );
#848 = ( LENGTH_UNIT() NAMED_UNIT(*) SI_UNIT(.MILLI.,.METRE.) );
#849 = ( NAMED_UNIT(*) PLANE_ANGLE_UNIT() SI_UNIT($,.RADIAN.) );
#850 = ( NAMED_UNIT(*) SI_UNIT($,.STERADIAN.) SOLID_ANGLE_UNIT() );
#851 = UNCERTAINTY_MEASURE_WITH_UNIT(LENGTH_MEASURE(1.E-07),#848,
  'distance_accuracy_value','confusion accuracy');
#852 = CONTEXT_DEPENDENT_SHAPE_REPRESENTATION(#853,#855);
#853 = ( REPRESENTATION_RELATIONSHIP('','',#793,#10) 
REPRESENTATION_RELATIONSHIP_WITH_TRANSFORMATION(#854) 
SHAPE_REPRESENTATION_RELATIONSHIP() );
#854 = ITEM_DEFINED_TRANSFORMATION('','',#11,#23);
#855 = PRODUCT_DEFINITION_SHAPE('Placement','Placement of an item',#856
  );
#856 = NEXT_ASSEMBLY_USAGE_OCCURRENCE('3','antenna','',#5,#788,$);
#857 = PRODUCT_RELATED_PRODUCT_CATEGORY('part',$,(#790));
#858 = MECHANICAL_DESIGN_GEOMETRIC_PRESENTATION_REPRESENTATION('',(#859)
  ,#703);
#859 = STYLED_ITEM('color',(#860),#41);
#860 = PRESENTATION_STYLE_ASSIGNMENT((#861,#867));
#861 = SURFACE_STYLE_USAGE(.BOTH.,#862);
#862 = SURFACE_SIDE_STYLE('',(#863));
#863 = SURFACE_STYLE_FILL_AREA(#864);
#864 = FILL_AREA_STYLE('',(#865));
#865 = FILL_AREA_STYLE_COLOUR('',#866);
#866 = COLOUR_RGB('',0.,0.399999997426,0.);
#867 = CURVE_STYLE('',#868,POSITIVE_LENGTH_MEASURE(0.1),#869);
#868 = DRAUGHTING_PRE_DEFINED_CURVE_FONT('continuous');
#869 = COLOUR_RGB('',9.803921802644E-02,9.803921802644E-02,
  9.803921802644E-02);
#870 = MECHANICAL_DESIGN_GEOMETRIC_PRESENTATION_REPRESENTATION('',(#871)
  ,#847);
#871 = STYLED_ITEM('color',(#872),#794);
#872 = PRESENTATION_STYLE_ASSIGNMENT((#873,#879));
#873 = SURFACE_STYLE_USAGE(.BOTH.,#874);
#874 = SURFACE_SIDE_STYLE('',(#875));
#875 = SURFACE_STYLE_FILL_AREA(#876);
#876 = FILL_AREA_STYLE('',(#877));
#877 = FILL_AREA_STYLE_COLOUR('',#878);
#878 = COLOUR_RGB('',0.678431390124,0.709803936702,0.741176476869);
#879 = CURVE_STYLE('',#880,POSITIVE_LENGTH_MEASURE(0.1),#869);
#880 = DRAUGHTING_PRE_DEFINED_CURVE_FONT('continuous');
#881 = MECHANICAL_DESIGN_GEOMETRIC_PRESENTATION_REPRESENTATION('',(#882)
  ,#775);
#882 = STYLED_ITEM('color',(#883),#722);
#883 = PRESENTATION_STYLE_ASSIGNMENT((#884,#889));
#884 = SURFACE_STYLE_USAGE(.BOTH.,#885);
#885 = SURFACE_SIDE_STYLE('',(#886));
#886 = SURFACE_STYLE_FILL_AREA(#887);
#887 = FILL_AREA_STYLE('',(#888));
#888 = FILL_AREA_STYLE_COLOUR('',#878);
#889 = CURVE_STYLE('',#890,POSITIVE_LENGTH_MEASURE(0.1),#869);
#890 = DRAUGHTING_PRE_DEFINED_CURVE_FONT('continuous');
ENDSEC;
END-ISO-10303-21;
