#VRML V2.0 utf8
#kicad StepUp wrl exported

Shape {
    appearance Appearance {material DEF PIN-01 Material {
        ambientIntensity 0.271
        diffuseColor 0.824 0.820 0.781
        specularColor 0.328 0.258 0.172
        emissiveColor 0.0 0.0 0.0
        shininess 0.70
        transparency 0.0
        }
    }
}
Shape {
    appearance Appearance {material DEF MET-01 Material {
        ambientIntensity 0.249999
        diffuseColor 0.298 0.298 0.298
        specularColor 0.398 0.398 0.398
        emissiveColor 0.0 0.0 0.0
        shininess 0.056122
        transparency 0.0
        }
    }
}
Shape {
    appearance Appearance {material DEF PIN-02 Material {
        ambientIntensity 0.379
        diffuseColor 0.859 0.738 0.496
        specularColor 0.137 0.145 0.184
        emissiveColor 0.0 0.0 0.0
        shininess 0.40
        transparency 0.0
        }
    }
}
Shape {
    appearance Appearance {material DEF IC-BODY-EPOXY-04 Material {
        ambientIntensity 0.293
        diffuseColor 0.148 0.145 0.145
        specularColor 0.180 0.168 0.160
        emissiveColor 0.0 0.0 0.0
        shininess 0.35
        transparency 0.0
        }
    }
}
Shape {
    appearance Appearance {material DEF RES-SMD-01 Material {
        diffuseColor 0.082 0.086 0.094
        emissiveColor 0.000 0.000 0.000
        specularColor 0.066 0.063 0.063
        ambientIntensity 0.638
        transparency 0.0
        shininess 0.3
        }
    }
}
Shape {
    appearance Appearance {material DEF IC-BODY-EPOXY-01 Material {
        ambientIntensity 0.117
        diffuseColor 0.250 0.262 0.281
        specularColor 0.316 0.281 0.176
        emissiveColor 0.0 0.0 0.0
        shininess 0.25
        transparency 0.0
        }
    }
}
Shape {
    appearance Appearance {material DEF CAP-CERAMIC-05 Material {
        ambientIntensity 0.179
        diffuseColor 0.273 0.273 0.273
        specularColor 0.203 0.188 0.176
        emissiveColor 0.0 0.0 0.0
        shininess 0.15
        transparency 0.0
        }
    }
}
Shape {
    appearance Appearance {material DEF CAP-CERAMIC-06 Material {
        ambientIntensity 0.453
        diffuseColor 0.379 0.270 0.215
        specularColor 0.223 0.223 0.223
        emissiveColor 0.0 0.0 0.0
        shininess 0.15
        transparency 0.0
        }
    }
}
Shape {
    appearance Appearance {material DEF RES-THT-01 Material {
        ambientIntensity 0.149
        diffuseColor 0.883 0.711 0.492
        specularColor 0.043 0.121 0.281
        emissiveColor 0.0 0.0 0.0
        shininess 0.40
        transparency 0.0
        }
    }
}
Shape {
    appearance Appearance {material DEF PLASTIC-BLUE-01 Material {
        ambientIntensity 0.565
        diffuseColor 0.137 0.402 0.727
        specularColor 0.359 0.379 0.270
        emissiveColor 0.0 0.0 0.0
        shininess 0.25
        transparency 0.0
        }
    }
}
Shape {
    appearance Appearance {material DEF PLASTIC-GREEN-01 Material {
        ambientIntensity 0.315
        diffuseColor 0.340 0.680 0.445
        specularColor 0.176 0.105 0.195
        emissiveColor 0.0 0.0 0.0
        shininess 0.25
        transparency 0.0
        }
    }
}
Shape {
    appearance Appearance {material DEF PLASTIC-ORANGE-01 Material {
        ambientIntensity 0.284
        diffuseColor 0.809 0.426 0.148
        specularColor 0.039 0.102 0.145
        emissiveColor 0.0 0.0 0.0
        shininess 0.25
        transparency 0.0
        }
    }
}
Shape {
    appearance Appearance {material DEF RED-BODY Material {
        ambientIntensity 0.683
        diffuseColor 0.700 0.100 0.050
        emissiveColor 0.000 0.000 0.000
        specularColor 0.300 0.400 0.150
        shininess 0.25
        transparency 0.0
        }
    }
}
Shape {
    appearance Appearance {material DEF CAP-CERAMIC-02 Material {
        ambientIntensity 0.683
        diffuseColor 0.578 0.336 0.352
        specularColor 0.105 0.273 0.270
        emissiveColor 0.0 0.0 0.0
        shininess 0.25
        transparency 0.0
        }
    }
}
Shape {
    appearance Appearance {material DEF PLASTIC-YELLOW-01 Material {
        ambientIntensity 0.522
        diffuseColor 0.832 0.680 0.066
        specularColor 0.160 0.203 0.320
        emissiveColor 0.0 0.0 0.0
        shininess 0.25
        transparency 0.0
        }
    }
}
Shape {
    appearance Appearance {material DEF PLASTIC-WHITE-01 Material {
        ambientIntensity 0.494
        diffuseColor 0.895 0.891 0.813
        specularColor 0.047 0.055 0.109
        emissiveColor 0.0 0.0 0.0
        shininess 0.25
        transparency 0.0
        }
    }
}
Shape {
    appearance Appearance {material DEF IC-LABEL-01 Material {
        ambientIntensity 0.082
        diffuseColor 0.691 0.664 0.598
        specularColor 0.000 0.000 0.000
        emissiveColor 0.0 0.0 0.0
        shininess 0.01
        transparency 0.0
        }
    }
}
Shape {
    appearance Appearance {material DEF LED-RED Material {
        ambientIntensity 0.789
        diffuseColor 0.700 0.100 0.050
        emissiveColor 0.000 0.000 0.000
        specularColor 0.300 0.400 0.150
        shininess 0.125
        transparency 0.15
        }
    }
}
Shape {
    appearance Appearance {material DEF LED-GREEN Material {
        ambientIntensity 0.789
        diffuseColor 0.400 0.700 0.150
        emissiveColor 0.000 0.000 0.000
        specularColor 0.600 0.300 0.100
        shininess 0.05
        transparency 0.15
        }
    }
}
Shape {
    appearance Appearance {material DEF LED-BLUE Material {
        ambientIntensity 0.789
        diffuseColor 0.100 0.250 0.700
        emissiveColor 0.000 0.000 0.000
        specularColor 0.500 0.600 0.300
        shininess 0.125
        transparency 0.15
        }
    }
}
Shape {
    appearance Appearance {material DEF LED-YELLOW Material {
        ambientIntensity 0.522
        diffuseColor 0.98 0.840 0.066
        specularColor 0.160 0.203 0.320
        emissiveColor 0.0 0.0 0.0
        shininess 0.125
        transparency 0.15
        }
    }
}
Shape {
    appearance Appearance {material DEF LED-WHITE Material {
        ambientIntensity 0.494
        diffuseColor 0.895 0.891 0.813
        specularColor 0.047 0.055 0.109
        emissiveColor 0.0 0.0 0.0
        shininess 0.125
        transparency 0.15
        }
    }
}
Shape {
    appearance Appearance {material DEF LED-GREY Material {
        ambientIntensity 0.494
        diffuseColor 0.27 0.25 0.27
        specularColor 0.5 0.5 0.6
        emissiveColor 0.0 0.0 0.0
        shininess 0.35
        transparency 0.15
        }
    }
}
Shape {
    appearance Appearance {material DEF LED-BLACK Material {
        ambientIntensity 0.494
        diffuseColor 0.1 0.05 0.1
        specularColor 0.6 0.5 0.6
        emissiveColor 0.0 0.0 0.0
        shininess 0.5
        transparency 0.15
        }
    }
}
Shape {
    appearance Appearance {material DEF GLASS-19 Material {
        ambientIntensity 0.2018212
        diffuseColor 0.400769 0.441922 0.459091
        specularColor 0.573887 0.649271 0.810811
        emissiveColor 0.000000 0.000000 0.000000
        shininess 0.127273
        transparency 0.37
        }
    }
}
Shape {
    appearance Appearance {material DEF GLASS-29 Material {
        ambientIntensity 0.379
        diffuseColor 0.859 0.738 0.496
        specularColor 0.137 0.145 0.184
        emissiveColor 0.0 0.0 0.0
        shininess 0.40
        transparency 0.39
        }
    }
}
Shape {
    appearance Appearance {material DEF GLASS-13 Material {
        ambientIntensity 0.250000
        diffuseColor 0.000000 0.631244 0.748016
        specularColor 0.915152 0.915152 0.915152
        emissiveColor 0.000000 0.000000 0.000000
        shininess 0.642424
        transparency 0.39
        }
    }
}
Shape {
    appearance Appearance {material DEF GLASS-GREEN Material {
        ambientIntensity 0.250000
        diffuseColor 0.000000 0.75 0.44
        specularColor 0.915152 0.915152 0.915152
        emissiveColor 0.000000 0.000000 0.000000
        shininess 0.642424
        transparency 0.39
        }
    }
}
Shape {
    appearance Appearance {material DEF GLASS-ORANGE Material {
        ambientIntensity 0.250000
        diffuseColor 0.75 0.44 0.000000
        specularColor 0.915152 0.915152 0.915152
        emissiveColor 0.000000 0.000000 0.000000
        shininess 0.642424
        transparency 0.39
        }
    }
}
Shape {
    appearance Appearance {material DEF BOARD-GREEN-02 Material {
        ambientIntensity 1
        diffuseColor 0.07 0.3 0.12
        specularColor 0.07 0.3 0.12
        emissiveColor 0.0 0.0 0.0
        shininess 0.40
        transparency 0.0
        }
    }
}
Shape {
    appearance Appearance {material DEF BOARD-BLUE-01 Material {
        ambientIntensity 1
        diffuseColor 0.07 0.12 0.3
        specularColor 0.07 0.12 0.3
        emissiveColor 0.0 0.0 0.0
        shininess 0.40
        transparency 0.0
        }
    }
}
Shape {
    appearance Appearance {material DEF BOARD-BLACK-03 Material {
        ambientIntensity 1
        diffuseColor 0.16 0.16 0.16
        specularColor 0.16 0.16 0.16
        emissiveColor 0.0 0.0 0.0
        shininess 0.40
        transparency 0.0
        }
    }
}
Shape {
    appearance Appearance {material DEF MET-ALUMINUM Material {
        ambientIntensity 0.256000
        diffuseColor 0.372322 0.371574 0.373173
        specularColor 0.556122 0.554201 0.556122
        emissiveColor 0.0 0.0 0.0
        shininess 0.127551
        transparency 0.0
        }
    }
}
Shape {
    appearance Appearance {material DEF MET-BRONZE Material {
        ambientIntensity 0.022727
        diffuseColor 0.714 0.4284 0.18144
        specularColor 0.393548 0.271906 0.166721
        emissiveColor 0.000000 0.000000 0.000000
        shininess 0.2
        transparency 0.0
        }
    }
}
Shape {
    appearance Appearance {material DEF MET-SILVER Material {
        ambientIntensity 0.022727
        diffuseColor 0.50754 0.50754 0.50754
        specularColor 0.508273 0.508273 0.508273
        emissiveColor 0.000000 0.000000 0.000000
        shininess 0.4
        transparency 0.0
        }
    }
}
Shape {
    appearance Appearance {material DEF MET-COPPER Material {
        ambientIntensity 0.022727
        diffuseColor 0.7038 0.27048 0.0828
        specularColor 0.780612 0.37 0.000000
        emissiveColor 0.000000 0.000000 0.000000
        shininess 0.2
        transparency 0.0
        }
    }
}
Shape { geometry IndexedFaceSet 
{ creaseAngle 1.00 coordIndex [0,1,2,-1,2,1,3,-1,3,4,5,-1,1,4,3,-1,5,6,7,-1,7,6,8,-1,4,6,5,-1,6,9,8,-1,8,10,11,-1,9,10,8,-1,11,12,13,-1,10,12,11,-1,13,14,15,-1,12,14,13,-1,15,16,17,-1,14,16,15,-1,17,18,19,-1,16,18,17,-1,19,20,21,-1,21,20,22,-1,18,20,19,-1,20,23,22,-1,22,24,25,-1,23,24,22,-1,25,26,27,-1,27,26,28,-1,24,26,25,-1,26,29,28,-1,29,30,28,-1,28,30,31,-1,30,32,31,-1,31,32,33,-1,33,32,34,-1,32,35,34,-1,34,36,37,-1,35,36,34,-1,36,38,37,-1,37,38,39,-1,39,40,41,-1,38,40,39,-1,41,0,2,-1,40,0,41,-1]
coord Coordinate { point [5.9055 5.1181 1.06299,5.9055 5.15291 1.06824,9.0551 5.1181 1.06299,9.0551 5.15291 1.06824,5.9055 5.18463 1.08351,9.0551 5.18463 1.08351,5.9055 5.21044 1.10746,9.0551 5.21044 1.10746,9.0551 5.22805 1.13795,5.9055 5.22805 1.13795,5.9055 5.23588 1.17227,9.0551 5.23588 1.17227,5.9055 5.23325 1.20738,9.0551 5.23325 1.20738,5.9055 5.22039 1.24015,9.0551 5.22039 1.24015,5.9055 5.19844 1.26768,9.0551 5.19844 1.26768,5.9055 5.16935 1.28751,9.0551 5.16935 1.28751,5.9055 5.1357 1.29789,9.0551 5.1357 1.29789,9.0551 5.1005 1.29789,5.9055 5.1005 1.29789,5.9055 5.06685 1.28751,9.0551 5.06685 1.28751,5.9055 5.03776 1.26768,9.0551 5.03776 1.26768,9.0551 5.01581 1.24015,5.9055 5.01581 1.24016,5.9055 5.00295 1.20738,9.0551 5.00295 1.20738,5.9055 5.00032 1.17227,9.0551 5.00032 1.17227,9.0551 5.00815 1.13795,5.9055 5.00815 1.13795,5.9055 5.02576 1.10746,9.0551 5.02576 1.10746,5.9055 5.05157 1.08351,9.0551 5.05157 1.08351,5.9055 5.08329 1.06824,9.0551 5.08329 1.06824]
}}
appearance Appearance{material Material{diffuseColor 0.74 0.47 0.24
transparency 0}}}
Shape { geometry IndexedFaceSet 
{ creaseAngle 1.00 coordIndex [0,1,2,-1,2,1,3,-1,4,1,5,-1,5,1,6,-1,6,1,7,-1,7,1,8,-1,8,1,9,-1,9,1,10,-1,10,1,11,-1,11,1,12,-1,12,1,13,-1,13,1,14,-1,14,1,15,-1,15,1,16,-1,16,1,17,-1,17,1,18,-1,18,1,19,-1,19,1,20,-1,20,1,0,-1]
coord Coordinate { point [5.9055 5.1181 1.06299,5.9055 5.21044 1.10746,5.9055 5.15291 1.06824,5.9055 5.18463 1.08351,5.9055 5.22805 1.13795,5.9055 5.23588 1.17227,5.9055 5.23325 1.20738,5.9055 5.22039 1.24015,5.9055 5.19844 1.26768,5.9055 5.16935 1.28751,5.9055 5.1357 1.29789,5.9055 5.1005 1.29789,5.9055 5.06685 1.28751,5.9055 5.03776 1.26768,5.9055 5.01581 1.24016,5.9055 5.00295 1.20738,5.9055 5.00032 1.17227,5.9055 5.00815 1.13795,5.9055 5.02576 1.10746,5.9055 5.05157 1.08351,5.9055 5.08329 1.06824]
}}
appearance Appearance{material Material{diffuseColor 0.74 0.47 0.24
transparency 0}}}
Shape { geometry IndexedFaceSet 
{ creaseAngle 1.00 coordIndex [0,1,2,-1,2,1,3,-1,3,1,4,-1,4,1,5,-1,5,1,6,-1,6,1,7,-1,7,8,9,-1,9,8,10,-1,10,8,11,-1,11,8,12,-1,12,8,13,-1,1,8,7,-1,13,8,14,-1,0,15,1,-1,16,15,17,-1,17,15,18,-1,18,15,19,-1,19,15,20,-1,20,15,21,-1,21,15,0,-1,8,22,14,-1,14,22,23,-1,23,22,24,-1,24,22,25,-1,25,22,26,-1,26,22,27,-1,27,22,28,-1,16,29,15,-1,30,29,31,-1,31,29,32,-1,32,29,33,-1,33,29,34,-1,34,29,35,-1,35,29,16,-1,22,36,28,-1,28,36,37,-1,37,36,38,-1,38,36,39,-1,39,36,40,-1,40,36,41,-1,41,36,42,-1,30,43,29,-1,44,43,45,-1,45,43,46,-1,46,43,47,-1,47,43,48,-1,48,43,49,-1,49,43,30,-1,50,51,52,-1,52,51,53,-1,53,51,54,-1,54,51,55,-1,55,51,56,-1,36,51,42,-1,42,51,50,-1,44,57,43,-1,58,57,59,-1,59,57,60,-1,60,57,61,-1,61,57,62,-1,62,57,63,-1,63,57,44,-1,56,64,65,-1,65,64,66,-1,66,64,67,-1,67,64,68,-1,68,64,69,-1,51,64,56,-1,70,71,72,-1,58,71,57,-1,72,71,73,-1,73,71,58,-1,70,74,71,-1,75,76,64,-1,64,76,69,-1,74,77,71,-1,75,78,76,-1,77,79,71,-1,71,79,80,-1,75,81,78,-1,79,82,80,-1,75,83,81,-1,82,84,80,-1,75,85,83,-1,84,86,80,-1,75,87,85,-1,86,88,80,-1,75,89,87,-1,90,89,75,-1,88,91,80,-1,90,92,89,-1,80,93,94,-1,91,93,80,-1,90,95,92,-1,93,96,94,-1,90,97,95,-1,96,98,94,-1,90,99,97,-1,98,100,94,-1,90,101,99,-1,100,102,94,-1,103,104,90,-1,90,104,101,-1,102,105,94,-1,103,106,104,-1,94,107,108,-1,105,107,94,-1,103,109,106,-1,107,110,108,-1,103,111,109,-1,110,112,108,-1,103,113,111,-1,112,114,108,-1,103,115,113,-1,114,116,108,-1,117,118,103,-1,103,118,115,-1,116,119,108,-1,117,120,118,-1,108,121,122,-1,119,121,108,-1,117,123,120,-1,121,124,122,-1,117,125,123,-1,124,126,122,-1,117,127,125,-1,126,128,122,-1,117,129,127,-1,128,130,122,-1,117,131,129,-1,132,131,117,-1,130,133,122,-1,132,134,131,-1,133,135,122,-1,122,135,136,-1,132,137,134,-1,135,138,136,-1,132,139,137,-1,138,140,136,-1,132,141,139,-1,140,142,136,-1,132,143,141,-1,142,144,136,-1,132,145,143,-1,136,145,132,-1,136,146,145,-1,144,146,136,-1]
coord Coordinate { point [9.0551 4.38623 2.25456,9.0551 5.03776 1.26768,9.0551 4.33363 2.21674,9.0551 4.28298 2.17635,9.0551 4.23441 2.13349,9.0551 4.18804 2.08826,9.0551 4.14398 2.04077,9.0551 4.10234 1.99114,9.0551 5.01581 1.24015,9.0551 4.06322 1.93951,9.0551 4.02673 1.88598,9.0551 3.99295 1.8307,9.0551 3.96197 1.77381,9.0551 3.93386 1.71545,9.0551 3.9087 1.65575,9.0551 5.06685 1.28751,9.0551 4.73515 2.42259,9.0551 4.67374 2.40196,9.0551 4.61344 2.37829,9.0551 4.55439 2.35165,9.0551 4.49675 2.32209,9.0551 4.44065 2.2897,9.0551 5.00295 1.20738,9.0551 3.88654 1.59488,9.0551 3.86745 1.53298,9.0551 3.85146 1.4702,9.0551 3.83863 1.40671,9.0551 3.82897 1.34265,9.0551 3.82252 1.27819,9.0551 5.1005 1.29789,9.0551 5.1181 2.48031,9.0551 5.05334 2.47869,9.0551 4.98874 2.47385,9.0551 4.92446 2.4658,9.0551 4.86067 2.45455,9.0551 4.79751 2.44013,9.0551 5.00032 1.17227,9.0551 3.81929 1.21349,9.0551 3.81929 1.14871,9.0551 3.82252 1.08401,9.0551 3.82897 1.01955,9.0551 3.83863 0.955495,9.0551 3.85146 0.891999,9.0551 5.1357 1.29789,9.0551 5.50105 2.42259,9.0551 5.43869 2.44013,9.0551 5.37553 2.45455,9.0551 5.31174 2.4658,9.0551 5.24746 2.47385,9.0551 5.18286 2.47869,9.0551 3.86745 0.829221,9.0551 5.00815 1.13795,9.0551 3.88654 0.767319,9.0551 3.9087 0.706445,9.0551 3.93386 0.646752,9.0551 3.96197 0.588387,9.0551 3.99295 0.531495,9.0551 5.16935 1.28751,9.0551 5.84997 2.25456,9.0551 5.79555 2.2897,9.0551 5.73945 2.32209,9.0551 5.68181 2.35165,9.0551 5.62276 2.37829,9.0551 5.56246 2.40196,9.0551 5.02576 1.10746,9.0551 4.02673 0.476218,9.0551 4.06322 0.422694,9.0551 4.10234 0.371056,9.0551 4.14398 0.321431,9.0551 4.18804 0.273944,9.0551 6.00179 2.13349,9.0551 5.19844 1.26768,9.0551 5.95322 2.17635,9.0551 5.90257 2.21674,9.0551 6.04816 2.08826,9.0551 5.05157 1.08351,9.0551 4.23441 0.228712,9.0551 6.09222 2.04077,9.0551 4.28298 0.185847,9.0551 6.13386 1.99114,9.0551 5.22039 1.24015,9.0551 4.33363 0.145457,9.0551 6.17298 1.93951,9.0551 4.38623 0.107642,9.0551 6.20947 1.88598,9.0551 4.44065 0.072496,9.0551 6.24325 1.8307,9.0551 4.49675 0.0401057,9.0551 6.27423 1.77381,9.0551 4.55439 0.0105522,9.0551 5.08329 1.06824,9.0551 6.30234 1.71545,9.0551 4.61344 -0.0160911,9.0551 6.3275 1.65575,9.0551 5.23325 1.20738,9.0551 4.67374 -0.039758,9.0551 6.34966 1.59488,9.0551 4.73515 -0.0603897,9.0551 6.36875 1.53298,9.0551 4.79751 -0.0779349,9.0551 6.38474 1.4702,9.0551 4.86067 -0.0923499,9.0551 6.39757 1.40671,9.0551 5.1181 1.06299,9.0551 4.92446 -0.103599,9.0551 6.40723 1.34265,9.0551 4.98874 -0.111654,9.0551 6.41368 1.27819,9.0551 5.23588 1.17227,9.0551 5.05334 -0.116495,9.0551 6.41691 1.21349,9.0551 5.1181 -0.11811,9.0551 6.41691 1.14871,9.0551 5.18286 -0.116495,9.0551 6.41368 1.08401,9.0551 5.24746 -0.111654,9.0551 6.40723 1.01955,9.0551 5.15291 1.06824,9.0551 5.31174 -0.103599,9.0551 6.39757 0.955495,9.0551 5.37553 -0.0923499,9.0551 6.38474 0.891999,9.0551 5.22805 1.13795,9.0551 5.43869 -0.0779349,9.0551 6.36875 0.829221,9.0551 5.50105 -0.0603897,9.0551 6.34966 0.767319,9.0551 5.56246 -0.039758,9.0551 6.3275 0.706445,9.0551 5.62276 -0.0160911,9.0551 6.30234 0.646752,9.0551 5.68181 0.0105522,9.0551 5.18463 1.08351,9.0551 6.27423 0.588387,9.0551 5.73945 0.0401057,9.0551 6.24325 0.531495,9.0551 5.21044 1.10746,9.0551 5.79555 0.072496,9.0551 6.20947 0.476218,9.0551 5.84997 0.107642,9.0551 6.17298 0.422694,9.0551 5.90257 0.145457,9.0551 6.13386 0.371056,9.0551 5.95322 0.185847,9.0551 6.09222 0.321431,9.0551 6.00179 0.228712,9.0551 6.04816 0.273944]
}}
appearance Appearance{material Material{diffuseColor 0.74 0.47 0.24
transparency 0}}}
Shape { geometry IndexedFaceSet 
{ creaseAngle 1.00 coordIndex [0,1,2,-1,2,1,3,-1,3,4,5,-1,5,4,6,-1,1,4,3,-1,4,7,6,-1,6,8,9,-1,9,8,10,-1,7,8,6,-1,8,11,10,-1,10,12,13,-1,11,12,10,-1,13,14,15,-1,15,14,16,-1,12,14,13,-1,14,17,16,-1,16,18,19,-1,17,18,16,-1,19,20,21,-1,18,20,19,-1,20,22,21,-1,21,22,23,-1,23,22,24,-1,22,25,24,-1,25,26,24,-1,24,26,27,-1,26,28,27,-1,27,28,29,-1,29,30,31,-1,31,30,32,-1,28,30,29,-1,30,33,32,-1,32,34,35,-1,33,34,32,-1,35,36,37,-1,37,36,38,-1,34,36,35,-1,36,39,38,-1,38,40,41,-1,39,40,38,-1,41,42,43,-1,40,42,41,-1,43,44,45,-1,42,44,43,-1,45,46,47,-1,44,46,45,-1,47,48,49,-1,46,48,47,-1,49,50,51,-1,48,50,49,-1,51,52,53,-1,50,52,51,-1,53,54,55,-1,52,54,53,-1,55,56,57,-1,57,56,58,-1,54,56,55,-1,56,59,58,-1,58,60,61,-1,59,60,58,-1,61,62,63,-1,60,62,61,-1,63,64,65,-1,62,64,63,-1,65,66,67,-1,64,66,65,-1,67,68,69,-1,66,68,67,-1,69,70,71,-1,68,70,69,-1,71,72,73,-1,70,72,71,-1,73,74,75,-1,75,74,76,-1,72,74,73,-1,74,77,76,-1,76,77,78,-1,77,79,78,-1,79,80,78,-1,78,80,81,-1,80,82,81,-1,81,82,83,-1,82,84,83,-1,83,84,85,-1,84,86,85,-1,85,86,87,-1,86,88,87,-1,87,88,89,-1,88,90,89,-1,89,90,91,-1,90,92,91,-1,91,92,93,-1,93,92,94,-1,92,95,94,-1,94,96,97,-1,95,96,94,-1,97,98,99,-1,96,98,97,-1,99,100,101,-1,101,100,102,-1,98,100,99,-1,100,103,102,-1,102,104,105,-1,105,104,106,-1,103,104,102,-1,104,107,106,-1,106,108,109,-1,109,108,110,-1,107,108,106,-1,108,111,110,-1,110,112,113,-1,111,112,110,-1,113,114,115,-1,115,114,116,-1,112,114,113,-1,114,117,116,-1,116,118,119,-1,117,118,116,-1,119,120,121,-1,118,120,119,-1,121,122,123,-1,120,122,121,-1,122,124,123,-1,123,124,125,-1,125,124,126,-1,124,127,126,-1,126,127,128,-1,127,129,128,-1,129,130,128,-1,128,130,131,-1,131,130,132,-1,130,133,132,-1,132,133,134,-1,133,135,134,-1,134,135,136,-1,135,137,136,-1,137,138,136,-1,136,138,139,-1,139,138,140,-1,138,141,140,-1,141,142,140,-1,140,142,143,-1,142,144,143,-1,143,144,145,-1,145,144,146,-1,144,147,146,-1,147,148,146,-1,146,148,149,-1,148,150,149,-1,149,150,151,-1,150,152,151,-1,151,152,153,-1,153,152,154,-1,152,155,154,-1,155,156,154,-1,154,156,157,-1,156,158,157,-1,157,158,159,-1,159,158,160,-1,158,161,160,-1,161,162,160,-1,160,162,163,-1,162,164,163,-1,163,164,165,-1,165,166,167,-1,164,166,165,-1,167,166,168,-1,166,169,168,-1,168,170,171,-1,169,170,168,-1,171,172,173,-1,170,172,171,-1,173,174,175,-1,172,174,173,-1,174,176,175,-1,175,176,177,-1,176,178,177,-1,177,178,179,-1,178,180,179,-1,179,180,181,-1,180,182,181,-1,181,182,183,-1,183,182,184,-1,182,185,184,-1,185,186,184,-1,184,186,187,-1,186,188,187,-1,187,188,189,-1,188,190,189,-1,189,190,191,-1,190,192,191,-1,191,192,193,-1,192,194,193,-1,193,194,195,-1,194,196,195,-1,195,196,197,-1,196,198,197,-1,197,198,199,-1,199,200,201,-1,198,200,199,-1,201,202,203,-1,200,202,201,-1,203,204,205,-1,202,204,203,-1,205,206,207,-1,204,206,205,-1,207,208,209,-1,209,208,210,-1,206,208,207,-1,208,211,210,-1,210,212,213,-1,211,212,210,-1,213,214,215,-1,212,214,213,-1,215,216,217,-1,214,216,215,-1,217,218,219,-1,216,218,217,-1,219,220,221,-1,218,220,219,-1,221,222,223,-1,220,222,221,-1,222,224,223,-1,223,224,225,-1,224,226,225,-1,225,226,227,-1,226,228,227,-1,227,228,229,-1,228,230,229,-1,229,230,231,-1,230,232,231,-1,231,232,233,-1,233,234,235,-1,232,234,233,-1,235,236,237,-1,234,236,235,-1,237,238,239,-1,239,238,240,-1,236,238,237,-1,238,241,240,-1,240,242,243,-1,241,242,240,-1,243,244,245,-1,242,244,243,-1,245,246,247,-1,244,246,245,-1,247,248,249,-1,246,248,247,-1,249,250,251,-1,251,250,2,-1,248,250,249,-1,250,0,2,-1]
coord Coordinate { point [9.0551 5.1181 -0.11811,9.0551 5.18286 -0.116495,12.9921 5.1181 -0.11811,12.9921 5.18286 -0.116495,9.0551 5.24746 -0.111654,12.9921 5.24746 -0.111654,12.9921 5.31174 -0.103599,9.0551 5.31174 -0.103599,9.0551 5.37553 -0.0923499,12.9921 5.37553 -0.0923499,12.9921 5.43869 -0.0779349,9.0551 5.43869 -0.0779349,9.0551 5.50105 -0.0603897,12.9921 5.50105 -0.0603897,9.0551 5.56246 -0.039758,12.9921 5.56246 -0.039758,12.9921 5.62276 -0.0160911,9.0551 5.62276 -0.0160911,9.0551 5.68181 0.0105522,12.9921 5.68181 0.0105522,9.0551 5.73945 0.0401057,12.9921 5.73945 0.0401057,9.0551 5.79555 0.072496,12.9921 5.79555 0.072496,12.9921 5.84997 0.107642,9.0551 5.84997 0.107642,9.0551 5.90257 0.145457,12.9921 5.90257 0.145457,9.0551 5.95322 0.185847,12.9921 5.95322 0.185847,9.0551 6.00179 0.228712,12.9921 6.00179 0.228712,12.9921 6.04816 0.273944,9.0551 6.04816 0.273944,9.0551 6.09222 0.321431,12.9921 6.09222 0.321431,9.0551 6.13386 0.371056,12.9921 6.13386 0.371056,12.9921 6.17298 0.422694,9.0551 6.17298 0.422694,9.0551 6.20947 0.476218,12.9921 6.20947 0.476218,9.0551 6.24325 0.531495,12.9921 6.24325 0.531495,9.0551 6.27423 0.588387,12.9921 6.27423 0.588387,9.0551 6.30234 0.646752,12.9921 6.30234 0.646752,9.0551 6.3275 0.706445,12.9921 6.3275 0.706445,9.0551 6.34966 0.767319,12.9921 6.34966 0.767319,9.0551 6.36875 0.829221,12.9921 6.36875 0.829221,9.0551 6.38474 0.891999,12.9921 6.38474 0.891999,9.0551 6.39757 0.955495,12.9921 6.39757 0.955495,12.9921 6.40723 1.01955,9.0551 6.40723 1.01955,9.0551 6.41368 1.08401,12.9921 6.41368 1.08401,9.0551 6.41691 1.14871,12.9921 6.41691 1.14871,9.0551 6.41691 1.21349,12.9921 6.41691 1.21349,9.0551 6.41368 1.27819,12.9921 6.41368 1.27819,9.0551 6.40723 1.34265,12.9921 6.40723 1.34265,9.0551 6.39757 1.40671,12.9921 6.39757 1.40671,9.0551 6.38474 1.4702,12.9921 6.38474 1.4702,9.0551 6.36875 1.53298,12.9921 6.36875 1.53298,12.9921 6.34966 1.59488,9.0551 6.34966 1.59488,12.9921 6.3275 1.65575,9.0551 6.3275 1.65575,9.0551 6.30234 1.71545,12.9921 6.30234 1.71545,9.0551 6.27423 1.77381,12.9921 6.27423 1.77381,9.0551 6.24325 1.8307,12.9921 6.24325 1.8307,9.0551 6.20947 1.88598,12.9921 6.20947 1.88598,9.0551 6.17298 1.93951,12.9921 6.17298 1.93951,9.0551 6.13386 1.99114,12.9921 6.13386 1.99114,9.0551 6.09222 2.04077,12.9921 6.09222 2.04077,12.9921 6.04816 2.08826,9.0551 6.04816 2.08826,9.0551 6.00179 2.13349,12.9921 6.00179 2.13349,9.0551 5.95322 2.17635,12.9921 5.95322 2.17635,9.0551 5.90257 2.21674,12.9921 5.90257 2.21674,12.9921 5.84997 2.25456,9.0551 5.84997 2.25456,9.0551 5.79555 2.2897,12.9921 5.79555 2.2897,12.9921 5.73945 2.32209,9.0551 5.73945 2.32209,9.0551 5.68181 2.35165,12.9921 5.68181 2.35165,12.9921 5.62276 2.37829,9.0551 5.62276 2.37829,9.0551 5.56246 2.40196,12.9921 5.56246 2.40196,9.0551 5.50105 2.42259,12.9921 5.50105 2.42259,12.9921 5.43869 2.44013,9.0551 5.43869 2.44013,9.0551 5.37553 2.45455,12.9921 5.37553 2.45455,9.0551 5.31174 2.4658,12.9921 5.31174 2.4658,9.0551 5.24746 2.47385,12.9921 5.24746 2.47385,9.0551 5.18286 2.47869,12.9921 5.18286 2.47869,12.9921 5.1181 2.48031,9.0551 5.1181 2.48031,12.9921 5.05334 2.47869,9.0551 5.05334 2.47869,9.0551 4.98874 2.47385,12.9921 4.98874 2.47385,12.9921 4.92446 2.4658,9.0551 4.92446 2.4658,12.9921 4.86067 2.45455,9.0551 4.86067 2.45455,12.9921 4.79751 2.44013,9.0551 4.79751 2.44013,9.0551 4.73515 2.42259,12.9921 4.73515 2.42259,12.9921 4.67374 2.40196,9.0551 4.67374 2.40196,9.0551 4.61344 2.37829,12.9921 4.61344 2.37829,9.0551 4.55439 2.35165,12.9921 4.55439 2.35165,12.9921 4.49675 2.32209,9.0551 4.49675 2.32209,9.0551 4.44065 2.2897,12.9921 4.44065 2.2897,9.0551 4.38623 2.25456,12.9921 4.38623 2.25456,9.0551 4.33363 2.21674,12.9921 4.33363 2.21674,12.9921 4.28298 2.17635,9.0551 4.28298 2.17635,9.0551 4.23441 2.13349,12.9921 4.23441 2.13349,9.0551 4.18804 2.08826,12.9921 4.18804 2.08826,12.9921 4.14398 2.04077,9.0551 4.14398 2.04077,9.0551 4.10234 1.99114,12.9921 4.10234 1.99114,9.0551 4.06322 1.93951,12.9921 4.06322 1.93951,9.0551 4.02673 1.88598,12.9921 4.02673 1.88598,12.9921 3.99295 1.8307,9.0551 3.99295 1.8307,9.0551 3.96197 1.77381,12.9921 3.96197 1.77381,9.0551 3.93386 1.71545,12.9921 3.93386 1.71545,9.0551 3.9087 1.65575,12.9921 3.9087 1.65575,9.0551 3.88654 1.59488,12.9921 3.88654 1.59488,9.0551 3.86745 1.53298,12.9921 3.86745 1.53298,9.0551 3.85146 1.4702,12.9921 3.85146 1.4702,9.0551 3.83863 1.40671,12.9921 3.83863 1.40671,12.9921 3.82897 1.34265,9.0551 3.82897 1.34265,9.0551 3.82252 1.27819,12.9921 3.82252 1.27819,9.0551 3.81929 1.21349,12.9921 3.81929 1.21349,9.0551 3.81929 1.14871,12.9921 3.81929 1.14871,9.0551 3.82252 1.08401,12.9921 3.82252 1.08401,9.0551 3.82897 1.01955,12.9921 3.82897 1.01955,9.0551 3.83863 0.955495,12.9921 3.83863 0.955495,9.0551 3.85146 0.891999,12.9921 3.85146 0.891999,9.0551 3.86745 0.829221,12.9921 3.86745 0.829221,9.0551 3.88654 0.767319,12.9921 3.88654 0.767319,9.0551 3.9087 0.706445,12.9921 3.9087 0.706445,9.0551 3.93386 0.646752,12.9921 3.93386 0.646752,9.0551 3.96197 0.588387,12.9921 3.96197 0.588387,12.9921 3.99295 0.531495,9.0551 3.99295 0.531495,9.0551 4.02673 0.476218,12.9921 4.02673 0.476218,9.0551 4.06322 0.422694,12.9921 4.06322 0.422694,9.0551 4.10234 0.371056,12.9921 4.10234 0.371056,9.0551 4.14398 0.321431,12.9921 4.14398 0.321431,9.0551 4.18804 0.273944,12.9921 4.18804 0.273944,9.0551 4.23441 0.228712,12.9921 4.23441 0.228712,9.0551 4.28298 0.185847,12.9921 4.28298 0.185847,9.0551 4.33363 0.145457,12.9921 4.33363 0.145457,9.0551 4.38623 0.107642,12.9921 4.38623 0.107642,9.0551 4.44065 0.072496,12.9921 4.44065 0.072496,9.0551 4.49675 0.0401057,12.9921 4.49675 0.0401057,9.0551 4.55439 0.0105522,12.9921 4.55439 0.0105522,9.0551 4.61344 -0.0160911,12.9921 4.61344 -0.0160911,9.0551 4.67374 -0.039758,12.9921 4.67374 -0.039758,12.9921 4.73515 -0.0603897,9.0551 4.73515 -0.0603897,9.0551 4.79751 -0.0779349,12.9921 4.79751 -0.0779349,9.0551 4.86067 -0.0923499,12.9921 4.86067 -0.0923499,9.0551 4.92446 -0.103599,12.9921 4.92446 -0.103599,9.0551 4.98874 -0.111654,12.9921 4.98874 -0.111654,9.0551 5.05334 -0.116495,12.9921 5.05334 -0.116495]
}}
appearance Appearance{material Material{diffuseColor 0.74 0.47 0.24
transparency 0}}}
Shape { geometry IndexedFaceSet 
{ creaseAngle 1.00 coordIndex [0,1,2,-1,0,2,3,-1,4,0,3,-1,4,3,5,-1,4,5,6,-1,7,6,8,-1,7,8,9,-1,10,11,4,-1,12,13,14,-1,15,13,12,-1,16,17,18,-1,16,18,19,-1,16,19,10,-1,20,21,22,-1,23,21,20,-1,24,25,26,-1,24,26,27,-1,24,27,16,-1,28,13,15,-1,28,21,23,-1,28,7,13,-1,28,15,21,-1,28,23,29,-1,28,29,30,-1,31,32,33,-1,34,28,35,-1,34,35,36,-1,37,38,31,-1,37,33,39,-1,37,39,40,-1,37,40,24,-1,37,24,16,-1,37,31,33,-1,41,34,42,-1,43,34,41,-1,43,28,34,-1,44,45,37,-1,46,43,47,-1,48,49,44,-1,50,48,44,-1,51,46,52,-1,51,52,53,-1,51,43,46,-1,54,44,37,-1,54,50,44,-1,54,55,50,-1,56,57,54,-1,58,51,59,-1,58,59,60,-1,58,43,51,-1,61,56,54,-1,62,54,37,-1,62,61,54,-1,63,58,64,-1,63,43,58,-1,65,66,67,-1,65,67,62,-1,68,63,69,-1,68,69,70,-1,71,65,62,-1,72,63,68,-1,73,71,62,-1,74,72,75,-1,74,75,76,-1,74,63,72,-1,77,78,79,-1,77,79,73,-1,77,73,62,-1,80,63,74,-1,81,82,77,-1,81,77,62,-1,83,81,62,-1,84,85,86,-1,87,37,16,-1,87,88,83,-1,87,10,4,-1,87,62,37,-1,87,16,10,-1,87,83,62,-1,89,84,90,-1,89,85,84,-1,91,85,89,-1,92,80,85,-1,92,85,91,-1,93,87,4,-1,93,94,95,-1,93,95,87,-1,93,4,6,-1,93,6,7,-1,93,7,28,-1,93,28,43,-1,96,97,93,-1,98,92,99,-1,98,99,100,-1,101,98,102,-1,103,104,105,-1,103,105,96,-1,106,103,96,-1,107,101,108,-1,107,108,109,-1,107,98,101,-1,110,92,98,-1,110,98,107,-1,110,80,92,-1,111,112,113,-1,114,113,106,-1,114,111,113,-1,115,110,116,-1,117,93,43,-1,117,96,93,-1,117,114,106,-1,117,106,96,-1,117,43,63,-1,118,115,119,-1,118,110,115,-1,120,121,117,-1,122,118,123,-1,124,125,120,-1,124,117,63,-1,124,80,110,-1,124,120,117,-1,124,110,118,-1,124,118,122,-1,124,63,80,-1]
coord Coordinate { point [12.9921 4.33363 2.21674,12.9921 4.28298 2.17635,12.9921 4.23441 2.13349,12.9921 4.18804 2.08826,12.9921 4.38623 2.25456,12.9921 4.14398 2.04077,12.9921 4.10234 1.99114,12.9921 3.99295 1.8307,12.9921 4.06322 1.93951,12.9921 4.02673 1.88598,12.9921 4.49675 2.32209,12.9921 4.44065 2.2897,12.9921 3.9087 1.65575,12.9921 3.96197 1.77381,12.9921 3.93386 1.71545,12.9921 3.88654 1.59488,12.9921 4.73515 2.42259,12.9921 4.67374 2.40196,12.9921 4.61344 2.37829,12.9921 4.55439 2.35165,12.9921 3.83863 1.40671,12.9921 3.86745 1.53298,12.9921 3.85146 1.4702,12.9921 3.82897 1.34265,12.9921 4.98874 2.47385,12.9921 4.92446 2.4658,12.9921 4.86067 2.45455,12.9921 4.79751 2.44013,12.9921 3.81929 1.14871,12.9921 3.82252 1.27819,12.9921 3.81929 1.21349,12.9921 5.31174 2.4658,12.9921 5.24746 2.47385,12.9921 5.18286 2.47869,12.9921 3.83863 0.955495,12.9921 3.82252 1.08401,12.9921 3.82897 1.01955,12.9921 5.43869 2.44013,12.9921 5.37553 2.45455,12.9921 5.1181 2.48031,12.9921 5.05334 2.47869,12.9921 3.86745 0.829221,12.9921 3.85146 0.891999,12.9921 3.88654 0.767319,12.9921 5.56246 2.40196,12.9921 5.50105 2.42259,12.9921 3.93386 0.646752,12.9921 3.9087 0.706445,12.9921 5.68181 2.35165,12.9921 5.62276 2.37829,12.9921 5.73945 2.32209,12.9921 4.02673 0.476218,12.9921 3.96197 0.588387,12.9921 3.99295 0.531495,12.9921 5.84997 2.25456,12.9921 5.79555 2.2897,12.9921 5.95322 2.17635,12.9921 5.90257 2.21674,12.9921 4.14398 0.321431,12.9921 4.06322 0.422694,12.9921 4.10234 0.371056,12.9921 6.00179 2.13349,12.9921 6.04816 2.08826,12.9921 4.23441 0.228712,12.9921 4.18804 0.273944,12.9921 6.17298 1.93951,12.9921 6.13386 1.99114,12.9921 6.09222 2.04077,12.9921 4.38623 0.107642,12.9921 4.28298 0.185847,12.9921 4.33363 0.145457,12.9921 6.20947 1.88598,12.9921 4.44065 0.072496,12.9921 6.24325 1.8307,12.9921 4.61344 -0.0160911,12.9921 4.49675 0.0401057,12.9921 4.55439 0.0105522,12.9921 6.3275 1.65575,12.9921 6.30234 1.71545,12.9921 6.27423 1.77381,12.9921 4.67374 -0.039758,12.9921 6.36875 1.53298,12.9921 6.34966 1.59488,12.9921 6.38474 1.4702,12.9921 4.86067 -0.0923499,12.9921 4.73515 -0.0603897,12.9921 4.79751 -0.0779349,12.9921 6.40723 1.34265,12.9921 6.39757 1.40671,12.9921 4.98874 -0.111654,12.9921 4.92446 -0.103599,12.9921 5.05334 -0.116495,12.9921 5.1181 -0.11811,12.9921 6.41691 1.14871,12.9921 6.41691 1.21349,12.9921 6.41368 1.27819,12.9921 6.40723 1.01955,12.9921 6.41368 1.08401,12.9921 5.31174 -0.103599,12.9921 5.18286 -0.116495,12.9921 5.24746 -0.111654,12.9921 5.43869 -0.0779349,12.9921 5.37553 -0.0923499,12.9921 6.36875 0.829221,12.9921 6.38474 0.891999,12.9921 6.39757 0.955495,12.9921 6.34966 0.767319,12.9921 5.62276 -0.0160911,12.9921 5.50105 -0.0603897,12.9921 5.56246 -0.039758,12.9921 5.68181 0.0105522,12.9921 6.27423 0.588387,12.9921 6.30234 0.646752,12.9921 6.3275 0.706445,12.9921 6.24325 0.531495,12.9921 5.79555 0.072496,12.9921 5.73945 0.0401057,12.9921 6.20947 0.476218,12.9921 5.90257 0.145457,12.9921 5.84997 0.107642,12.9921 6.13386 0.371056,12.9921 6.17298 0.422694,12.9921 6.00179 0.228712,12.9921 5.95322 0.185847,12.9921 6.04816 0.273944,12.9921 6.09222 0.321431]
}}
appearance Appearance{material Material{diffuseColor 0.74 0.47 0.24
transparency 0}}}
Shape { geometry IndexedFaceSet 
{ creaseAngle 1.00 coordIndex [0,1,2,-1,2,1,3,-1]
coord Coordinate { point [-1.93286 -0.442912 0.003937,-1.93286 -0.442912 0.633857,-1.93286 6.59644 0.003937,-1.93286 6.59644 0.633857]
}}
appearance Appearance{material Material{diffuseColor 0 0.4 0
transparency 0}}}
Shape { geometry IndexedFaceSet 
{ creaseAngle 1.00 coordIndex [0,1,2,-1,2,1,3,-1]
coord Coordinate { point [7.10649 -0.442912 0.003937,7.10649 -0.442912 0.633857,-1.93286 -0.442912 0.003937,-1.93286 -0.442912 0.633857]
}}
appearance Appearance{material Material{diffuseColor 0 0.4 0
transparency 0}}}
Shape { geometry IndexedFaceSet 
{ creaseAngle 1.00 coordIndex [0,1,2,-1,3,2,1,-1,4,0,2,-1,5,2,3,-1,6,4,2,-1,7,2,5,-1,8,6,2,-1,9,2,7,-1,10,8,2,-1,11,10,2,-1,12,11,2,-1,13,14,15,-1,13,15,16,-1,17,18,19,-1,17,19,20,-1,21,22,18,-1,21,18,17,-1,23,15,14,-1,23,24,15,-1,25,19,26,-1,25,20,19,-1,27,16,28,-1,27,13,16,-1,29,30,22,-1,29,22,21,-1,31,32,24,-1,31,24,23,-1,33,25,26,-1,33,26,34,-1,35,12,2,-1,35,28,12,-1,35,27,28,-1,36,37,30,-1,36,30,29,-1,38,39,32,-1,38,32,31,-1,40,34,41,-1,40,33,34,-1,42,35,2,-1,43,2,9,-1,43,9,37,-1,43,37,36,-1,44,45,39,-1,44,39,38,-1,46,41,47,-1,46,40,41,-1,48,42,2,-1,49,50,45,-1,49,45,44,-1,51,47,52,-1,51,46,47,-1,53,48,2,-1,54,52,55,-1,54,51,52,-1,56,57,50,-1,56,50,49,-1,58,53,2,-1,59,60,57,-1,59,57,56,-1,61,54,55,-1,61,55,62,-1,63,58,2,-1,64,65,60,-1,64,60,59,-1,66,62,67,-1,66,61,62,-1,68,67,65,-1,68,65,64,-1,69,67,68,-1,69,66,67,-1,69,70,66,-1,71,69,68,-1,72,73,74,-1,75,73,72,-1,76,77,78,-1,76,78,70,-1,76,70,69,-1,79,71,68,-1,79,68,80,-1,79,80,81,-1,82,74,83,-1,82,83,84,-1,82,72,74,-1,85,73,75,-1,85,86,73,-1,87,86,85,-1,87,88,86,-1,89,77,76,-1,90,79,81,-1,91,82,84,-1,92,77,89,-1,92,93,77,-1,94,88,87,-1,94,95,88,-1,96,90,81,-1,96,81,97,-1,98,91,84,-1,98,84,99,-1,100,93,92,-1,100,101,93,-1,102,96,97,-1,102,97,103,-1,102,103,104,-1,105,95,94,-1,105,43,95,-1,106,99,107,-1,106,107,108,-1,106,98,99,-1,109,101,100,-1,109,110,101,-1,111,102,104,-1,112,106,108,-1,113,110,109,-1,113,114,110,-1,115,111,104,-1,115,104,116,-1,117,112,108,-1,117,108,118,-1,119,114,113,-1,119,120,121,-1,119,121,114,-1,122,115,116,-1,122,116,123,-1,124,118,125,-1,124,117,118,-1,126,120,119,-1,127,122,123,-1,127,123,128,-1,129,125,130,-1,129,130,120,-1,129,124,125,-1,131,120,126,-1,132,127,128,-1,132,128,133,-1,134,129,120,-1,135,132,133,-1,135,133,136,-1,137,135,136,-1,137,136,138,-1,137,138,139,-1,140,137,139,-1,141,142,143,-1,144,141,143,-1,145,120,131,-1,146,120,145,-1,146,134,120,-1,147,143,148,-1,147,144,143,-1,149,142,141,-1,149,150,142,-1,151,134,146,-1,151,152,134,-1,153,131,154,-1,153,145,131,-1,155,156,157,-1,155,157,150,-1,155,150,149,-1,158,152,151,-1,158,159,152,-1,160,147,148,-1,160,148,161,-1,162,153,154,-1,162,154,163,-1,162,163,164,-1,165,156,155,-1,166,167,159,-1,166,159,158,-1,168,161,169,-1,168,160,161,-1,170,162,164,-1,171,156,165,-1,171,105,156,-1,172,169,173,-1,172,168,169,-1,174,175,167,-1,174,167,166,-1,176,164,177,-1,176,177,178,-1,176,170,164,-1,179,173,180,-1,179,172,173,-1,181,182,175,-1,181,175,174,-1,183,176,178,-1,183,178,184,-1,185,186,182,-1,185,182,181,-1,187,179,180,-1,187,180,188,-1,189,183,184,-1,190,187,188,-1,190,188,191,-1,192,186,185,-1,192,193,186,-1,194,189,184,-1,194,184,195,-1,196,191,197,-1,196,190,191,-1,198,193,192,-1,198,199,193,-1,200,194,195,-1,200,195,201,-1,202,199,198,-1,202,197,199,-1,203,200,201,-1,203,201,204,-1,203,204,205,-1,206,205,207,-1,206,203,205,-1,208,206,207,-1,209,207,210,-1,209,208,207,-1,211,212,196,-1,211,197,202,-1,211,196,197,-1,211,202,213,-1,214,215,216,-1,214,216,212,-1,214,212,211,-1,217,202,218,-1,217,213,202,-1,219,215,214,-1,220,218,221,-1,220,221,222,-1,220,217,218,-1,223,224,215,-1,223,215,219,-1,225,220,222,-1,226,224,223,-1,226,227,224,-1,228,225,222,-1,228,222,229,-1,228,229,230,-1,231,232,227,-1,231,227,226,-1,231,233,232,-1,234,228,230,-1,235,233,231,-1,236,234,230,-1,236,230,237,-1,238,233,235,-1,238,239,233,-1,240,237,241,-1,240,236,237,-1,242,239,238,-1,242,243,239,-1,244,240,241,-1,244,241,245,-1,244,245,246,-1,247,243,242,-1,247,248,243,-1,249,246,250,-1,249,244,246,-1,251,248,247,-1,251,252,248,-1,253,249,250,-1,253,250,254,-1,255,252,251,-1,255,256,252,-1,257,253,254,-1,257,254,258,-1,259,257,258,-1,260,256,255,-1,260,255,261,-1,260,261,262,-1,260,262,263,-1,260,263,264,-1,260,264,265,-1,260,105,171,-1,260,171,266,-1,260,266,267,-1,260,267,268,-1,260,268,269,-1,260,269,270,-1,260,270,271,-1,260,271,272,-1,260,272,273,-1,260,273,274,-1,260,274,275,-1,260,275,256,-1,276,140,139,-1,276,63,2,-1,276,210,277,-1,276,277,140,-1,276,139,278,-1,276,278,279,-1,276,279,280,-1,276,280,281,-1,276,281,282,-1,276,282,283,-1,276,283,63,-1,284,209,210,-1,284,258,285,-1,284,285,209,-1,284,259,258,-1,284,210,276,-1,284,260,265,-1,284,265,286,-1,284,286,287,-1,284,287,288,-1,284,288,289,-1,284,289,290,-1,284,290,291,-1,284,291,259,-1,260,2,43,-1,260,43,105,-1]
coord Coordinate { point [-1.54222 1.42297 0.633857,-1.56697 1.44772 0.633857,-1.93286 -0.442912 0.633857,-1.58704 1.47638 0.633857,-1.51356 1.4029 0.633857,-1.60183 1.5081 0.633857,-1.48184 1.38811 0.633857,-1.61089 1.54191 0.633857,-1.44804 1.37905 0.633857,-1.61394 1.57677 0.633857,-1.41317 1.376 0.633857,-1.37831 1.37905 0.633857,-1.34451 1.38811 0.633857,-0.542226 1.42297 0.633857,-0.566972 1.44772 0.633857,-1.25938 1.44772 0.633857,-1.28412 1.42297 0.633857,-1.56697 2.44772 0.633857,-1.56697 1.70582 0.633857,-1.54222 1.73057 0.633857,-1.54222 2.42297 0.633857,-1.58704 2.47638 0.633857,-1.58704 1.67715 0.633857,-0.587045 1.47638 0.633857,-1.2393 1.47638 0.633857,-1.51356 2.4029 0.633857,-1.51356 1.75064 0.633857,-0.513559 1.4029 0.633857,-1.31279 1.4029 0.633857,-1.60183 2.5081 0.633857,-1.60183 1.64543 0.633857,-0.601835 1.5081 0.633857,-1.22451 1.5081 0.633857,-1.48184 2.38811 0.633857,-1.48184 1.76543 0.633857,-0.481842 1.38811 0.633857,-1.61089 2.5419 0.633857,-1.61089 1.61163 0.633857,-0.610893 1.54191 0.633857,-1.21546 1.54191 0.633857,-1.44804 2.37905 0.633857,-1.44804 1.77449 0.633857,-0.448038 1.37905 0.633857,-1.61394 2.57677 0.633857,-0.613943 1.57677 0.633857,-1.21241 1.57677 0.633857,-1.41317 2.376 0.633857,-1.41317 1.77754 0.633857,-0.413176 1.376 0.633857,-0.610893 1.61163 0.633857,-1.21546 1.61163 0.633857,-1.37831 2.37905 0.633857,-1.37831 1.77449 0.633857,-0.378313 1.37905 0.633857,-1.34451 2.38811 0.633857,-1.34451 1.76543 0.633857,-0.601835 1.64543 0.633857,-1.22451 1.64543 0.633857,-0.344509 1.38811 0.633857,-0.587045 1.67715 0.633857,-1.2393 1.67715 0.633857,-1.31279 2.4029 0.633857,-1.31279 1.75064 0.633857,-0.312792 1.4029 0.633857,-0.566972 1.70582 0.633857,-1.25938 1.70582 0.633857,-1.28412 2.42297 0.633857,-1.28412 1.73057 0.633857,-0.542226 1.73057 0.633857,-0.566972 2.44772 0.633857,-1.25938 2.44772 0.633857,-0.542226 2.42297 0.633857,-1.54222 3.42297 0.633857,-1.56697 2.70582 0.633857,-1.54222 2.73056 0.633857,-1.56697 3.44771 0.633857,-0.587045 2.47638 0.633857,-1.22451 2.5081 0.633857,-1.2393 2.47638 0.633857,-0.513559 2.4029 0.633857,-0.513559 1.75064 0.633857,-0.481842 1.76543 0.633857,-1.51356 3.40289 0.633857,-1.51356 2.75064 0.633857,-1.48184 2.76543 0.633857,-1.58704 3.47638 0.633857,-1.58704 2.67715 0.633857,-1.60183 3.5081 0.633857,-1.60183 2.64543 0.633857,-0.601835 2.5081 0.633857,-0.481842 2.38811 0.633857,-1.48184 3.3881 0.633857,-0.610893 2.5419 0.633857,-1.21546 2.5419 0.633857,-1.61089 3.5419 0.633857,-1.61089 2.61163 0.633857,-0.448038 2.37905 0.633857,-0.448038 1.77449 0.633857,-1.44804 3.37905 0.633857,-1.44804 2.77448 0.633857,-0.613943 2.57677 0.633857,-1.21241 2.57677 0.633857,-0.413176 2.376 0.633857,-0.413176 1.77754 0.633857,-0.378313 1.77449 0.633857,-1.61394 3.57676 0.633857,-1.41317 3.376 0.633857,-1.41317 2.77753 0.633857,-1.37831 2.77448 0.633857,-0.610893 2.61163 0.633857,-1.21546 2.61163 0.633857,-0.378313 2.37905 0.633857,-1.37831 3.37905 0.633857,-0.601835 2.64543 0.633857,-1.22451 2.64543 0.633857,-0.344509 2.38811 0.633857,-0.344509 1.76543 0.633857,-1.34451 3.3881 0.633857,-1.34451 2.76543 0.633857,-0.587045 2.67715 0.633857,-1.25938 2.70582 0.633857,-1.2393 2.67715 0.633857,-0.312792 2.4029 0.633857,-0.312792 1.75064 0.633857,-1.31279 3.40289 0.633857,-1.31279 2.75064 0.633857,-0.566972 2.70582 0.633857,-0.284125 2.42297 0.633857,-0.284125 1.73057 0.633857,-1.28412 3.42297 0.633857,-1.28412 2.73056 0.633857,-0.542226 2.73056 0.633857,-0.259379 2.44772 0.633857,-0.259379 1.70582 0.633857,-1.25938 3.44771 0.633857,-0.239306 2.47638 0.633857,-0.239306 1.67715 0.633857,-0.224516 2.5081 0.633857,-0.224516 1.64543 0.633857,-0.215458 1.61163 0.633857,-0.215458 2.5419 0.633857,-1.56697 4.44771 0.633857,-1.56697 3.70582 0.633857,-1.54222 3.73056 0.633857,-1.54222 4.42297 0.633857,-0.542226 3.42297 0.633857,-0.566972 3.44771 0.633857,-1.51356 4.40289 0.633857,-1.51356 3.75063 0.633857,-1.58704 4.47638 0.633857,-1.58704 3.67715 0.633857,-0.587045 3.47638 0.633857,-1.2393 3.47638 0.633857,-0.513559 3.40289 0.633857,-0.513559 2.75064 0.633857,-1.60183 4.5081 0.633857,-1.61089 3.61163 0.633857,-1.60183 3.64543 0.633857,-0.601835 3.5081 0.633857,-1.22451 3.5081 0.633857,-1.48184 4.3881 0.633857,-1.48184 3.76542 0.633857,-0.481842 3.3881 0.633857,-0.481842 2.76543 0.633857,-0.448038 2.77448 0.633857,-1.61089 4.5419 0.633857,-0.610893 3.5419 0.633857,-1.21546 3.5419 0.633857,-1.44804 4.37905 0.633857,-1.44804 3.77448 0.633857,-0.448038 3.37905 0.633857,-1.61394 4.57676 0.633857,-1.41317 4.376 0.633857,-1.41317 3.77753 0.633857,-0.613943 3.57676 0.633857,-1.21241 3.57676 0.633857,-0.413176 3.376 0.633857,-0.413176 2.77753 0.633857,-0.378313 2.77448 0.633857,-1.37831 4.37905 0.633857,-1.37831 3.77448 0.633857,-0.610893 3.61163 0.633857,-1.21546 3.61163 0.633857,-0.378313 3.37905 0.633857,-0.344509 2.76543 0.633857,-0.601835 3.64543 0.633857,-1.22451 3.64543 0.633857,-1.34451 4.3881 0.633857,-1.34451 3.76542 0.633857,-0.344509 3.3881 0.633857,-1.31279 4.40289 0.633857,-1.31279 3.75063 0.633857,-0.587045 3.67715 0.633857,-1.2393 3.67715 0.633857,-0.312792 3.40289 0.633857,-0.312792 2.75064 0.633857,-1.28412 4.42297 0.633857,-1.28412 3.73056 0.633857,-0.566972 3.70582 0.633857,-1.25938 3.70582 0.633857,-0.284125 3.42297 0.633857,-0.284125 2.73056 0.633857,-0.542226 3.73056 0.633857,-0.259379 3.44771 0.633857,-0.259379 2.70582 0.633857,-0.239306 2.67715 0.633857,-0.239306 3.47638 0.633857,-0.224516 2.64543 0.633857,-0.224516 3.5081 0.633857,-0.215458 3.5419 0.633857,-0.215458 2.61163 0.633857,-0.566972 4.44771 0.633857,-1.25938 4.44771 0.633857,-0.542226 4.42297 0.633857,-0.587045 4.47638 0.633857,-1.22451 4.5081 0.633857,-1.2393 4.47638 0.633857,-0.513559 4.40289 0.633857,-0.513559 3.75063 0.633857,-0.601835 4.5081 0.633857,-0.481842 4.3881 0.633857,-0.481842 3.76542 0.633857,-0.448038 3.77448 0.633857,-0.610893 4.5419 0.633857,-1.21546 4.5419 0.633857,-0.448038 4.37905 0.633857,-0.613943 4.57676 0.633857,-1.21241 4.57676 0.633857,-0.413176 4.376 0.633857,-0.413176 3.77753 0.633857,-0.378313 3.77448 0.633857,-0.610893 4.61163 0.633857,-1.21546 4.61163 0.633857,-1.22451 4.64543 0.633857,-0.378313 4.37905 0.633857,-0.601835 4.64543 0.633857,-0.344509 4.3881 0.633857,-0.344509 3.76542 0.633857,-0.587045 4.67715 0.633857,-1.2393 4.67715 0.633857,-0.312792 4.40289 0.633857,-0.312792 3.75063 0.633857,-0.566972 4.70581 0.633857,-1.25938 4.70581 0.633857,-0.284125 4.42297 0.633857,-0.284125 3.73056 0.633857,-0.259379 3.70582 0.633857,-0.542226 4.73056 0.633857,-1.28412 4.73056 0.633857,-0.259379 4.44771 0.633857,-0.239306 3.67715 0.633857,-0.513559 4.75063 0.633857,-1.31279 4.75063 0.633857,-0.239306 4.47638 0.633857,-0.224516 3.64543 0.633857,-0.481842 4.76542 0.633857,-1.34451 4.76542 0.633857,-0.224516 4.5081 0.633857,-0.215458 3.61163 0.633857,-0.215458 4.5419 0.633857,-1.93286 6.59644 0.633857,-0.448038 4.77448 0.633857,-0.413176 4.77753 0.633857,-0.378313 4.77448 0.633857,-0.344509 4.76542 0.633857,-0.312792 4.75063 0.633857,-1.61089 4.61163 0.633857,-1.60183 4.64543 0.633857,-1.58704 4.67715 0.633857,-1.56697 4.70581 0.633857,-1.54222 4.73056 0.633857,-1.51356 4.75063 0.633857,-1.48184 4.76542 0.633857,-1.44804 4.77448 0.633857,-1.41317 4.77753 0.633857,-1.37831 4.77448 0.633857,7.10649 -0.442912 0.633857,-0.212408 2.57677 0.633857,-0.212408 1.57677 0.633857,-0.215458 1.54191 0.633857,-0.224516 1.5081 0.633857,-0.239306 1.47638 0.633857,-0.259379 1.44772 0.633857,-0.284125 1.42297 0.633857,7.10649 6.59644 0.633857,-0.212408 3.57676 0.633857,-0.284125 4.73056 0.633857,-0.259379 4.70581 0.633857,-0.239306 4.67715 0.633857,-0.224516 4.64543 0.633857,-0.215458 4.61163 0.633857,-0.212408 4.57676 0.633857]
}}
appearance Appearance{material Material{diffuseColor 0 0.4 0
transparency 0}}}
Shape { geometry IndexedFaceSet 
{ creaseAngle 1.00 coordIndex [0,1,2,-1,0,2,3,-1]
coord Coordinate { point [7.10649 6.59644 0.633857,7.10649 6.59644 0.003937,-1.93286 6.59644 0.003937,-1.93286 6.59644 0.633857]
}}
appearance Appearance{material Material{diffuseColor 0 0.4 0
transparency 0}}}
Shape { geometry IndexedFaceSet 
{ creaseAngle 1.00 coordIndex [0,1,2,-1,2,3,0,-1,1,4,2,-1,2,5,3,-1,4,6,2,-1,2,7,5,-1,6,8,2,-1,2,9,7,-1,8,10,2,-1,10,11,2,-1,11,12,2,-1,13,14,15,-1,15,14,16,-1,17,18,19,-1,19,18,20,-1,21,22,17,-1,17,22,18,-1,15,23,13,-1,24,23,15,-1,19,25,26,-1,20,25,19,-1,16,27,28,-1,14,27,16,-1,29,30,21,-1,21,30,22,-1,31,32,24,-1,24,32,23,-1,25,33,26,-1,26,33,34,-1,12,35,2,-1,28,35,12,-1,27,35,28,-1,36,37,29,-1,29,37,30,-1,38,39,31,-1,31,39,32,-1,34,40,41,-1,33,40,34,-1,35,42,2,-1,2,43,9,-1,9,43,36,-1,36,43,37,-1,44,45,38,-1,38,45,39,-1,41,46,47,-1,40,46,41,-1,42,48,2,-1,49,50,44,-1,44,50,45,-1,47,51,52,-1,46,51,47,-1,48,53,2,-1,52,54,55,-1,51,54,52,-1,56,57,49,-1,49,57,50,-1,53,58,2,-1,59,60,56,-1,56,60,57,-1,54,61,55,-1,55,61,62,-1,58,63,2,-1,64,65,59,-1,59,65,60,-1,62,66,67,-1,61,66,62,-1,67,68,64,-1,64,68,65,-1,67,69,68,-1,66,69,67,-1,70,69,66,-1,69,71,68,-1,72,73,74,-1,72,75,73,-1,76,77,78,-1,78,77,70,-1,70,77,69,-1,71,79,68,-1,68,79,80,-1,80,79,81,-1,74,82,83,-1,83,82,84,-1,73,82,74,-1,72,85,75,-1,86,85,72,-1,86,87,85,-1,88,87,86,-1,76,89,77,-1,79,90,81,-1,82,91,84,-1,76,92,89,-1,93,92,76,-1,88,94,87,-1,95,94,88,-1,90,96,81,-1,81,96,97,-1,91,98,84,-1,84,98,99,-1,93,100,92,-1,101,100,93,-1,96,102,97,-1,97,102,103,-1,103,102,104,-1,95,105,94,-1,43,105,95,-1,99,106,107,-1,107,106,108,-1,98,106,99,-1,101,109,100,-1,110,109,101,-1,102,111,104,-1,106,112,108,-1,110,113,109,-1,114,113,110,-1,111,115,104,-1,104,115,116,-1,112,117,108,-1,108,117,118,-1,114,119,113,-1,120,119,121,-1,121,119,114,-1,115,122,116,-1,116,122,123,-1,118,124,125,-1,117,124,118,-1,120,126,119,-1,122,127,123,-1,123,127,128,-1,125,129,130,-1,130,129,120,-1,124,129,125,-1,120,131,126,-1,127,132,128,-1,128,132,133,-1,129,134,120,-1,132,135,133,-1,133,135,136,-1,135,137,136,-1,136,137,138,-1,138,137,139,-1,137,140,139,-1,141,142,143,-1,142,144,143,-1,120,145,131,-1,120,146,145,-1,134,146,120,-1,143,147,148,-1,144,147,143,-1,141,149,142,-1,150,149,141,-1,134,151,146,-1,152,151,134,-1,131,153,154,-1,145,153,131,-1,155,156,157,-1,157,156,150,-1,150,156,149,-1,152,158,151,-1,159,158,152,-1,147,160,148,-1,148,160,161,-1,153,162,154,-1,154,162,163,-1,163,162,164,-1,155,165,156,-1,166,167,159,-1,159,167,158,-1,161,168,169,-1,160,168,161,-1,162,170,164,-1,155,171,165,-1,105,171,155,-1,169,172,173,-1,168,172,169,-1,174,175,166,-1,166,175,167,-1,164,176,177,-1,177,176,178,-1,170,176,164,-1,173,179,180,-1,172,179,173,-1,181,182,174,-1,174,182,175,-1,176,183,178,-1,178,183,184,-1,185,186,181,-1,181,186,182,-1,179,187,180,-1,180,187,188,-1,183,189,184,-1,187,190,188,-1,188,190,191,-1,185,192,186,-1,193,192,185,-1,189,194,184,-1,184,194,195,-1,191,196,197,-1,190,196,191,-1,193,198,192,-1,199,198,193,-1,194,200,195,-1,195,200,201,-1,199,202,198,-1,197,202,199,-1,200,203,201,-1,201,203,204,-1,204,203,205,-1,205,206,207,-1,203,206,205,-1,206,208,207,-1,207,209,210,-1,208,209,207,-1,211,212,196,-1,197,212,202,-1,196,212,197,-1,202,212,213,-1,214,215,216,-1,216,215,211,-1,211,215,212,-1,202,217,218,-1,213,217,202,-1,214,219,215,-1,218,220,221,-1,221,220,222,-1,217,220,218,-1,223,224,214,-1,214,224,219,-1,220,225,222,-1,223,226,224,-1,227,226,223,-1,225,228,222,-1,222,228,229,-1,229,228,230,-1,231,232,227,-1,227,232,226,-1,233,232,231,-1,228,234,230,-1,233,235,232,-1,234,236,230,-1,230,236,237,-1,233,238,235,-1,239,238,233,-1,237,240,241,-1,236,240,237,-1,239,242,238,-1,243,242,239,-1,240,244,241,-1,241,244,245,-1,245,244,246,-1,243,247,242,-1,248,247,243,-1,246,249,250,-1,244,249,246,-1,248,251,247,-1,252,251,248,-1,249,253,250,-1,250,253,254,-1,252,255,251,-1,256,255,252,-1,253,257,254,-1,254,257,258,-1,257,259,258,-1,256,260,255,-1,255,260,261,-1,261,260,262,-1,262,260,263,-1,263,260,264,-1,264,260,265,-1,105,260,171,-1,171,260,266,-1,266,260,267,-1,267,260,268,-1,268,260,269,-1,269,260,270,-1,270,260,271,-1,271,260,272,-1,272,260,273,-1,273,260,274,-1,274,260,275,-1,275,260,256,-1,140,276,139,-1,63,276,2,-1,210,276,277,-1,277,276,140,-1,139,276,278,-1,278,276,279,-1,279,276,280,-1,280,276,281,-1,281,276,282,-1,282,276,283,-1,283,276,63,-1,209,284,210,-1,258,284,285,-1,285,284,209,-1,259,284,258,-1,210,284,276,-1,260,284,265,-1,265,284,286,-1,286,284,287,-1,287,284,288,-1,288,284,289,-1,289,284,290,-1,290,284,291,-1,291,284,259,-1,2,260,43,-1,43,260,105,-1]
coord Coordinate { point [-1.56697 1.44772 0.003937,-1.54222 1.42297 0.003937,-1.93286 -0.442912 0.003937,-1.58704 1.47638 0.003937,-1.51356 1.4029 0.003937,-1.60183 1.5081 0.003937,-1.48184 1.38811 0.003937,-1.61089 1.54191 0.003937,-1.44804 1.37905 0.003937,-1.61394 1.57677 0.003937,-1.41317 1.376 0.003937,-1.37831 1.37905 0.003937,-1.34451 1.38811 0.003937,-0.566972 1.44772 0.003937,-0.542226 1.42297 0.003937,-1.25938 1.44772 0.003937,-1.28412 1.42297 0.003937,-1.56697 1.70582 0.003937,-1.56697 2.44772 0.003937,-1.54222 1.73057 0.003937,-1.54222 2.42297 0.003937,-1.58704 1.67715 0.003937,-1.58704 2.47638 0.003937,-0.587045 1.47638 0.003937,-1.2393 1.47638 0.003937,-1.51356 2.4029 0.003937,-1.51356 1.75064 0.003937,-0.513559 1.4029 0.003937,-1.31279 1.4029 0.003937,-1.60183 1.64543 0.003937,-1.60183 2.5081 0.003937,-1.22451 1.5081 0.003937,-0.601835 1.5081 0.003937,-1.48184 2.38811 0.003937,-1.48184 1.76543 0.003937,-0.481842 1.38811 0.003937,-1.61089 1.61163 0.003937,-1.61089 2.5419 0.003937,-1.21546 1.54191 0.003937,-0.610893 1.54191 0.003937,-1.44804 2.37905 0.003937,-1.44804 1.77449 0.003937,-0.448038 1.37905 0.003937,-1.61394 2.57677 0.003937,-1.21241 1.57677 0.003937,-0.613943 1.57677 0.003937,-1.41317 2.376 0.003937,-1.41317 1.77754 0.003937,-0.413176 1.376 0.003937,-1.21546 1.61163 0.003937,-0.610893 1.61163 0.003937,-1.37831 2.37905 0.003937,-1.37831 1.77449 0.003937,-0.378313 1.37905 0.003937,-1.34451 2.38811 0.003937,-1.34451 1.76543 0.003937,-1.22451 1.64543 0.003937,-0.601835 1.64543 0.003937,-0.344509 1.38811 0.003937,-1.2393 1.67715 0.003937,-0.587045 1.67715 0.003937,-1.31279 2.4029 0.003937,-1.31279 1.75064 0.003937,-0.312792 1.4029 0.003937,-1.25938 1.70582 0.003937,-0.566972 1.70582 0.003937,-1.28412 2.42297 0.003937,-1.28412 1.73057 0.003937,-0.542226 1.73057 0.003937,-0.566972 2.44772 0.003937,-1.25938 2.44772 0.003937,-0.542226 2.42297 0.003937,-1.56697 2.70582 0.003937,-1.54222 3.42297 0.003937,-1.54222 2.73056 0.003937,-1.56697 3.44771 0.003937,-1.22451 2.5081 0.003937,-0.587045 2.47638 0.003937,-1.2393 2.47638 0.003937,-0.513559 2.4029 0.003937,-0.513559 1.75064 0.003937,-0.481842 1.76543 0.003937,-1.51356 3.40289 0.003937,-1.51356 2.75064 0.003937,-1.48184 2.76543 0.003937,-1.58704 3.47638 0.003937,-1.58704 2.67715 0.003937,-1.60183 3.5081 0.003937,-1.60183 2.64543 0.003937,-0.601835 2.5081 0.003937,-0.481842 2.38811 0.003937,-1.48184 3.3881 0.003937,-0.610893 2.5419 0.003937,-1.21546 2.5419 0.003937,-1.61089 3.5419 0.003937,-1.61089 2.61163 0.003937,-0.448038 2.37905 0.003937,-0.448038 1.77449 0.003937,-1.44804 3.37905 0.003937,-1.44804 2.77448 0.003937,-0.613943 2.57677 0.003937,-1.21241 2.57677 0.003937,-0.413176 2.376 0.003937,-0.413176 1.77754 0.003937,-0.378313 1.77449 0.003937,-1.61394 3.57676 0.003937,-1.41317 3.376 0.003937,-1.41317 2.77753 0.003937,-1.37831 2.77448 0.003937,-0.610893 2.61163 0.003937,-1.21546 2.61163 0.003937,-0.378313 2.37905 0.003937,-1.37831 3.37905 0.003937,-0.601835 2.64543 0.003937,-1.22451 2.64543 0.003937,-0.344509 2.38811 0.003937,-0.344509 1.76543 0.003937,-1.34451 3.3881 0.003937,-1.34451 2.76543 0.003937,-0.587045 2.67715 0.003937,-1.25938 2.70582 0.003937,-1.2393 2.67715 0.003937,-0.312792 2.4029 0.003937,-0.312792 1.75064 0.003937,-1.31279 3.40289 0.003937,-1.31279 2.75064 0.003937,-0.566972 2.70582 0.003937,-0.284125 2.42297 0.003937,-0.284125 1.73057 0.003937,-1.28412 3.42297 0.003937,-1.28412 2.73056 0.003937,-0.542226 2.73056 0.003937,-0.259379 2.44772 0.003937,-0.259379 1.70582 0.003937,-1.25938 3.44771 0.003937,-0.239306 2.47638 0.003937,-0.239306 1.67715 0.003937,-0.224516 2.5081 0.003937,-0.224516 1.64543 0.003937,-0.215458 1.61163 0.003937,-0.215458 2.5419 0.003937,-1.56697 3.70582 0.003937,-1.56697 4.44771 0.003937,-1.54222 3.73056 0.003937,-1.54222 4.42297 0.003937,-0.542226 3.42297 0.003937,-0.566972 3.44771 0.003937,-1.51356 4.40289 0.003937,-1.51356 3.75063 0.003937,-1.58704 4.47638 0.003937,-1.58704 3.67715 0.003937,-0.587045 3.47638 0.003937,-1.2393 3.47638 0.003937,-0.513559 3.40289 0.003937,-0.513559 2.75064 0.003937,-1.61089 3.61163 0.003937,-1.60183 4.5081 0.003937,-1.60183 3.64543 0.003937,-0.601835 3.5081 0.003937,-1.22451 3.5081 0.003937,-1.48184 4.3881 0.003937,-1.48184 3.76542 0.003937,-0.481842 3.3881 0.003937,-0.481842 2.76543 0.003937,-0.448038 2.77448 0.003937,-1.61089 4.5419 0.003937,-1.21546 3.5419 0.003937,-0.610893 3.5419 0.003937,-1.44804 4.37905 0.003937,-1.44804 3.77448 0.003937,-0.448038 3.37905 0.003937,-1.61394 4.57676 0.003937,-1.41317 4.376 0.003937,-1.41317 3.77753 0.003937,-1.21241 3.57676 0.003937,-0.613943 3.57676 0.003937,-0.413176 3.376 0.003937,-0.413176 2.77753 0.003937,-0.378313 2.77448 0.003937,-1.37831 4.37905 0.003937,-1.37831 3.77448 0.003937,-1.21546 3.61163 0.003937,-0.610893 3.61163 0.003937,-0.378313 3.37905 0.003937,-0.344509 2.76543 0.003937,-1.22451 3.64543 0.003937,-0.601835 3.64543 0.003937,-1.34451 4.3881 0.003937,-1.34451 3.76542 0.003937,-0.344509 3.3881 0.003937,-1.31279 4.40289 0.003937,-1.31279 3.75063 0.003937,-0.587045 3.67715 0.003937,-1.2393 3.67715 0.003937,-0.312792 3.40289 0.003937,-0.312792 2.75064 0.003937,-1.28412 4.42297 0.003937,-1.28412 3.73056 0.003937,-0.566972 3.70582 0.003937,-1.25938 3.70582 0.003937,-0.284125 3.42297 0.003937,-0.284125 2.73056 0.003937,-0.542226 3.73056 0.003937,-0.259379 3.44771 0.003937,-0.259379 2.70582 0.003937,-0.239306 2.67715 0.003937,-0.239306 3.47638 0.003937,-0.224516 2.64543 0.003937,-0.224516 3.5081 0.003937,-0.215458 3.5419 0.003937,-0.215458 2.61163 0.003937,-1.25938 4.44771 0.003937,-0.566972 4.44771 0.003937,-0.542226 4.42297 0.003937,-1.22451 4.5081 0.003937,-0.587045 4.47638 0.003937,-1.2393 4.47638 0.003937,-0.513559 4.40289 0.003937,-0.513559 3.75063 0.003937,-0.601835 4.5081 0.003937,-0.481842 4.3881 0.003937,-0.481842 3.76542 0.003937,-0.448038 3.77448 0.003937,-1.21546 4.5419 0.003937,-0.610893 4.5419 0.003937,-0.448038 4.37905 0.003937,-0.613943 4.57676 0.003937,-1.21241 4.57676 0.003937,-0.413176 4.376 0.003937,-0.413176 3.77753 0.003937,-0.378313 3.77448 0.003937,-1.21546 4.61163 0.003937,-0.610893 4.61163 0.003937,-1.22451 4.64543 0.003937,-0.378313 4.37905 0.003937,-0.601835 4.64543 0.003937,-0.344509 4.3881 0.003937,-0.344509 3.76542 0.003937,-0.587045 4.67715 0.003937,-1.2393 4.67715 0.003937,-0.312792 4.40289 0.003937,-0.312792 3.75063 0.003937,-0.566972 4.70581 0.003937,-1.25938 4.70581 0.003937,-0.284125 4.42297 0.003937,-0.284125 3.73056 0.003937,-0.259379 3.70582 0.003937,-0.542226 4.73056 0.003937,-1.28412 4.73056 0.003937,-0.259379 4.44771 0.003937,-0.239306 3.67715 0.003937,-0.513559 4.75063 0.003937,-1.31279 4.75063 0.003937,-0.239306 4.47638 0.003937,-0.224516 3.64543 0.003937,-0.481842 4.76542 0.003937,-1.34451 4.76542 0.003937,-0.224516 4.5081 0.003937,-0.215458 3.61163 0.003937,-0.215458 4.5419 0.003937,-1.93286 6.59644 0.003937,-0.448038 4.77448 0.003937,-0.413176 4.77753 0.003937,-0.378313 4.77448 0.003937,-0.344509 4.76542 0.003937,-0.312792 4.75063 0.003937,-1.61089 4.61163 0.003937,-1.60183 4.64543 0.003937,-1.58704 4.67715 0.003937,-1.56697 4.70581 0.003937,-1.54222 4.73056 0.003937,-1.51356 4.75063 0.003937,-1.48184 4.76542 0.003937,-1.44804 4.77448 0.003937,-1.41317 4.77753 0.003937,-1.37831 4.77448 0.003937,7.10649 -0.442912 0.003937,-0.212408 2.57677 0.003937,-0.212408 1.57677 0.003937,-0.215458 1.54191 0.003937,-0.224516 1.5081 0.003937,-0.239306 1.47638 0.003937,-0.259379 1.44772 0.003937,-0.284125 1.42297 0.003937,7.10649 6.59644 0.003937,-0.212408 3.57676 0.003937,-0.284125 4.73056 0.003937,-0.259379 4.70581 0.003937,-0.239306 4.67715 0.003937,-0.224516 4.64543 0.003937,-0.215458 4.61163 0.003937,-0.212408 4.57676 0.003937]
}}
appearance Appearance{material Material{diffuseColor 0 0.4 0
transparency 0}}}
Shape { geometry IndexedFaceSet 
{ creaseAngle 1.00 coordIndex [0,1,2,-1,0,2,3,-1]
coord Coordinate { point [7.10649 -0.442912 0.633857,7.10649 -0.442912 0.003937,7.10649 6.59644 0.003937,7.10649 6.59644 0.633857]
}}
appearance Appearance{material Material{diffuseColor 0 0.4 0
transparency 0}}}
Shape { geometry IndexedFaceSet 
{ creaseAngle 1.00 coordIndex [0,1,2,-1,0,2,3,-1,4,3,5,-1,4,0,3,-1,6,5,7,-1,6,4,5,-1,8,7,9,-1,8,6,7,-1,10,9,11,-1,10,8,9,-1,12,10,11,-1,12,11,13,-1,14,12,13,-1,14,13,15,-1,16,14,15,-1,16,15,17,-1,18,16,17,-1,18,19,20,-1,18,17,19,-1,21,18,20,-1,22,21,20,-1,22,23,24,-1,22,20,23,-1,25,22,24,-1,26,25,24,-1,26,24,27,-1,28,26,27,-1,28,27,29,-1,30,28,29,-1,30,31,32,-1,30,29,31,-1,33,30,32,-1,34,33,32,-1,34,32,35,-1,36,34,35,-1,36,35,37,-1,38,39,40,-1,38,37,39,-1,38,36,37,-1,41,38,40,-1,42,43,44,-1,42,40,43,-1,42,41,40,-1,45,42,44,-1,46,44,47,-1,46,45,44,-1,48,49,50,-1,48,47,49,-1,48,46,47,-1,51,48,50,-1,52,50,53,-1,52,51,50,-1,54,53,55,-1,54,52,53,-1,56,55,57,-1,56,54,55,-1,58,57,59,-1,58,56,57,-1,60,59,61,-1,60,58,59,-1,62,60,61,-1,62,61,63,-1,64,62,63,-1,64,63,65,-1,66,64,65,-1,66,65,67,-1,68,66,67,-1,68,67,69,-1,70,68,69,-1,70,69,71,-1,1,70,71,-1,1,71,2,-1]
coord Coordinate { point [-1.61089 1.54191 0.003937,-1.61394 1.57677 0.003937,-1.61394 1.57677 0.633857,-1.61089 1.54191 0.633857,-1.60183 1.5081 0.003937,-1.60183 1.5081 0.633857,-1.58704 1.47638 0.003937,-1.58704 1.47638 0.633857,-1.56697 1.44772 0.003937,-1.56697 1.44772 0.633857,-1.54222 1.42297 0.003937,-1.54222 1.42297 0.633857,-1.51356 1.4029 0.003937,-1.51356 1.4029 0.633857,-1.48184 1.38811 0.003937,-1.48184 1.38811 0.633857,-1.44804 1.37905 0.003937,-1.44804 1.37905 0.633857,-1.41317 1.376 0.003937,-1.41317 1.376 0.633857,-1.37831 1.37905 0.633857,-1.37831 1.37905 0.003937,-1.34451 1.38811 0.003937,-1.34451 1.38811 0.633857,-1.31279 1.4029 0.633857,-1.31279 1.4029 0.003937,-1.28412 1.42297 0.003937,-1.28412 1.42297 0.633857,-1.25938 1.44772 0.003937,-1.25938 1.44772 0.633857,-1.2393 1.47638 0.003937,-1.2393 1.47638 0.633857,-1.22451 1.5081 0.633857,-1.22451 1.5081 0.003937,-1.21546 1.54191 0.003937,-1.21546 1.54191 0.633857,-1.21241 1.57677 0.003937,-1.21241 1.57677 0.633857,-1.21546 1.61163 0.003937,-1.21546 1.61163 0.633857,-1.22451 1.64543 0.633857,-1.22451 1.64543 0.003937,-1.2393 1.67715 0.003937,-1.2393 1.67715 0.633857,-1.25938 1.70582 0.633857,-1.25938 1.70582 0.003937,-1.28412 1.73057 0.003937,-1.28412 1.73057 0.633857,-1.31279 1.75064 0.003937,-1.31279 1.75064 0.633857,-1.34451 1.76543 0.633857,-1.34451 1.76543 0.003937,-1.37831 1.77449 0.003937,-1.37831 1.77449 0.633857,-1.41317 1.77754 0.003937,-1.41317 1.77754 0.633857,-1.44804 1.77449 0.003937,-1.44804 1.77449 0.633857,-1.48184 1.76543 0.003937,-1.48184 1.76543 0.633857,-1.51356 1.75064 0.003937,-1.51356 1.75064 0.633857,-1.54222 1.73057 0.003937,-1.54222 1.73057 0.633857,-1.56697 1.70582 0.003937,-1.56697 1.70582 0.633857,-1.58704 1.67715 0.003937,-1.58704 1.67715 0.633857,-1.60183 1.64543 0.003937,-1.60183 1.64543 0.633857,-1.61089 1.61163 0.003937,-1.61089 1.61163 0.633857]
}}
appearance Appearance{material Material{diffuseColor 0 0.4 0
transparency 0}}}
Shape { geometry IndexedFaceSet 
{ creaseAngle 1.00 coordIndex [0,1,2,-1,0,2,3,-1,4,3,5,-1,4,0,3,-1,6,5,7,-1,6,4,5,-1,8,7,9,-1,8,6,7,-1,10,9,11,-1,10,8,9,-1,12,10,11,-1,12,11,13,-1,14,12,13,-1,14,13,15,-1,16,14,15,-1,16,15,17,-1,18,16,17,-1,18,19,20,-1,18,17,19,-1,21,18,20,-1,22,21,20,-1,22,23,24,-1,22,20,23,-1,25,22,24,-1,26,25,24,-1,26,24,27,-1,28,26,27,-1,28,27,29,-1,30,28,29,-1,30,31,32,-1,30,29,31,-1,33,30,32,-1,34,33,32,-1,34,32,35,-1,36,34,35,-1,36,35,37,-1,38,39,40,-1,38,37,39,-1,38,36,37,-1,41,38,40,-1,42,43,44,-1,42,40,43,-1,42,41,40,-1,45,42,44,-1,46,44,47,-1,46,45,44,-1,48,49,50,-1,48,47,49,-1,48,46,47,-1,51,48,50,-1,52,50,53,-1,52,51,50,-1,54,53,55,-1,54,52,53,-1,56,55,57,-1,56,54,55,-1,58,57,59,-1,58,56,57,-1,60,59,61,-1,60,58,59,-1,62,60,61,-1,62,61,63,-1,64,62,63,-1,64,63,65,-1,66,64,65,-1,66,65,67,-1,68,66,67,-1,68,67,69,-1,70,68,69,-1,70,69,71,-1,1,70,71,-1,1,71,2,-1]
coord Coordinate { point [-1.61089 2.5419 0.003937,-1.61394 2.57677 0.003937,-1.61394 2.57677 0.633857,-1.61089 2.5419 0.633857,-1.60183 2.5081 0.003937,-1.60183 2.5081 0.633857,-1.58704 2.47638 0.003937,-1.58704 2.47638 0.633857,-1.56697 2.44772 0.003937,-1.56697 2.44772 0.633857,-1.54222 2.42297 0.003937,-1.54222 2.42297 0.633857,-1.51356 2.4029 0.003937,-1.51356 2.4029 0.633857,-1.48184 2.38811 0.003937,-1.48184 2.38811 0.633857,-1.44804 2.37905 0.003937,-1.44804 2.37905 0.633857,-1.41317 2.376 0.003937,-1.41317 2.376 0.633857,-1.37831 2.37905 0.633857,-1.37831 2.37905 0.003937,-1.34451 2.38811 0.003937,-1.34451 2.38811 0.633857,-1.31279 2.4029 0.633857,-1.31279 2.4029 0.003937,-1.28412 2.42297 0.003937,-1.28412 2.42297 0.633857,-1.25938 2.44772 0.003937,-1.25938 2.44772 0.633857,-1.2393 2.47638 0.003937,-1.2393 2.47638 0.633857,-1.22451 2.5081 0.633857,-1.22451 2.5081 0.003937,-1.21546 2.5419 0.003937,-1.21546 2.5419 0.633857,-1.21241 2.57677 0.003937,-1.21241 2.57677 0.633857,-1.21546 2.61163 0.003937,-1.21546 2.61163 0.633857,-1.22451 2.64543 0.633857,-1.22451 2.64543 0.003937,-1.2393 2.67715 0.003937,-1.2393 2.67715 0.633857,-1.25938 2.70582 0.633857,-1.25938 2.70582 0.003937,-1.28412 2.73056 0.003937,-1.28412 2.73056 0.633857,-1.31279 2.75064 0.003937,-1.31279 2.75064 0.633857,-1.34451 2.76543 0.633857,-1.34451 2.76543 0.003937,-1.37831 2.77448 0.003937,-1.37831 2.77448 0.633857,-1.41317 2.77753 0.003937,-1.41317 2.77753 0.633857,-1.44804 2.77448 0.003937,-1.44804 2.77448 0.633857,-1.48184 2.76543 0.003937,-1.48184 2.76543 0.633857,-1.51356 2.75064 0.003937,-1.51356 2.75064 0.633857,-1.54222 2.73056 0.003937,-1.54222 2.73056 0.633857,-1.56697 2.70582 0.003937,-1.56697 2.70582 0.633857,-1.58704 2.67715 0.003937,-1.58704 2.67715 0.633857,-1.60183 2.64543 0.003937,-1.60183 2.64543 0.633857,-1.61089 2.61163 0.003937,-1.61089 2.61163 0.633857]
}}
appearance Appearance{material Material{diffuseColor 0 0.4 0
transparency 0}}}
Shape { geometry IndexedFaceSet 
{ creaseAngle 1.00 coordIndex [0,1,2,-1,0,2,3,-1,4,3,5,-1,4,0,3,-1,6,5,7,-1,6,4,5,-1,8,7,9,-1,8,6,7,-1,10,9,11,-1,10,8,9,-1,12,10,11,-1,12,11,13,-1,14,12,13,-1,14,13,15,-1,16,14,15,-1,16,15,17,-1,18,16,17,-1,18,19,20,-1,18,17,19,-1,21,18,20,-1,22,21,20,-1,22,23,24,-1,22,20,23,-1,25,22,24,-1,26,25,24,-1,26,24,27,-1,28,26,27,-1,28,27,29,-1,30,28,29,-1,30,31,32,-1,30,29,31,-1,33,30,32,-1,34,33,32,-1,34,32,35,-1,36,34,35,-1,36,35,37,-1,38,39,40,-1,38,37,39,-1,38,36,37,-1,41,38,40,-1,42,43,44,-1,42,40,43,-1,42,41,40,-1,45,42,44,-1,46,44,47,-1,46,45,44,-1,48,49,50,-1,48,47,49,-1,48,46,47,-1,51,48,50,-1,52,50,53,-1,52,51,50,-1,54,53,55,-1,54,52,53,-1,56,55,57,-1,56,54,55,-1,58,57,59,-1,58,56,57,-1,60,59,61,-1,60,58,59,-1,62,60,61,-1,62,61,63,-1,64,62,63,-1,64,63,65,-1,66,64,65,-1,66,65,67,-1,68,66,67,-1,68,67,69,-1,70,68,69,-1,70,69,71,-1,1,70,71,-1,1,71,2,-1]
coord Coordinate { point [-0.610893 1.54191 0.003937,-0.613943 1.57677 0.003937,-0.613943 1.57677 0.633857,-0.610893 1.54191 0.633857,-0.601835 1.5081 0.003937,-0.601835 1.5081 0.633857,-0.587045 1.47638 0.003937,-0.587045 1.47638 0.633857,-0.566972 1.44772 0.003937,-0.566972 1.44772 0.633857,-0.542226 1.42297 0.003937,-0.542226 1.42297 0.633857,-0.513559 1.4029 0.003937,-0.513559 1.4029 0.633857,-0.481842 1.38811 0.003937,-0.481842 1.38811 0.633857,-0.448038 1.37905 0.003937,-0.448038 1.37905 0.633857,-0.413176 1.376 0.003937,-0.413176 1.376 0.633857,-0.378313 1.37905 0.633857,-0.378313 1.37905 0.003937,-0.344509 1.38811 0.003937,-0.344509 1.38811 0.633857,-0.312792 1.4029 0.633857,-0.312792 1.4029 0.003937,-0.284125 1.42297 0.003937,-0.284125 1.42297 0.633857,-0.259379 1.44772 0.003937,-0.259379 1.44772 0.633857,-0.239306 1.47638 0.003937,-0.239306 1.47638 0.633857,-0.224516 1.5081 0.633857,-0.224516 1.5081 0.003937,-0.215458 1.54191 0.003937,-0.215458 1.54191 0.633857,-0.212408 1.57677 0.003937,-0.212408 1.57677 0.633857,-0.215458 1.61163 0.003937,-0.215458 1.61163 0.633857,-0.224516 1.64543 0.633857,-0.224516 1.64543 0.003937,-0.239306 1.67715 0.003937,-0.239306 1.67715 0.633857,-0.259379 1.70582 0.633857,-0.259379 1.70582 0.003937,-0.284125 1.73057 0.003937,-0.284125 1.73057 0.633857,-0.312792 1.75064 0.003937,-0.312792 1.75064 0.633857,-0.344509 1.76543 0.633857,-0.344509 1.76543 0.003937,-0.378313 1.77449 0.003937,-0.378313 1.77449 0.633857,-0.413176 1.77754 0.003937,-0.413176 1.77754 0.633857,-0.448038 1.77449 0.003937,-0.448038 1.77449 0.633857,-0.481842 1.76543 0.003937,-0.481842 1.76543 0.633857,-0.513559 1.75064 0.003937,-0.513559 1.75064 0.633857,-0.542226 1.73057 0.003937,-0.542226 1.73057 0.633857,-0.566972 1.70582 0.003937,-0.566972 1.70582 0.633857,-0.587045 1.67715 0.003937,-0.587045 1.67715 0.633857,-0.601835 1.64543 0.003937,-0.601835 1.64543 0.633857,-0.610893 1.61163 0.003937,-0.610893 1.61163 0.633857]
}}
appearance Appearance{material Material{diffuseColor 0 0.4 0
transparency 0}}}
Shape { geometry IndexedFaceSet 
{ creaseAngle 1.00 coordIndex [0,1,2,-1,0,2,3,-1,4,3,5,-1,4,0,3,-1,6,5,7,-1,6,4,5,-1,8,7,9,-1,8,6,7,-1,10,9,11,-1,10,8,9,-1,12,10,11,-1,12,11,13,-1,14,12,13,-1,14,13,15,-1,16,14,15,-1,16,15,17,-1,18,16,17,-1,18,19,20,-1,18,17,19,-1,21,18,20,-1,22,21,20,-1,22,23,24,-1,22,20,23,-1,25,22,24,-1,26,25,24,-1,26,24,27,-1,28,26,27,-1,28,27,29,-1,30,28,29,-1,30,31,32,-1,30,29,31,-1,33,30,32,-1,34,33,32,-1,34,32,35,-1,36,34,35,-1,36,35,37,-1,38,39,40,-1,38,37,39,-1,38,36,37,-1,41,38,40,-1,42,43,44,-1,42,40,43,-1,42,41,40,-1,45,42,44,-1,46,44,47,-1,46,45,44,-1,48,49,50,-1,48,47,49,-1,48,46,47,-1,51,48,50,-1,52,50,53,-1,52,51,50,-1,54,53,55,-1,54,52,53,-1,56,55,57,-1,56,54,55,-1,58,57,59,-1,58,56,57,-1,60,59,61,-1,60,58,59,-1,62,60,61,-1,62,61,63,-1,64,62,63,-1,64,63,65,-1,66,64,65,-1,66,65,67,-1,68,66,67,-1,68,67,69,-1,70,68,69,-1,70,69,71,-1,1,70,71,-1,1,71,2,-1]
coord Coordinate { point [-0.610893 2.5419 0.003937,-0.613943 2.57677 0.003937,-0.613943 2.57677 0.633857,-0.610893 2.5419 0.633857,-0.601835 2.5081 0.003937,-0.601835 2.5081 0.633857,-0.587045 2.47638 0.003937,-0.587045 2.47638 0.633857,-0.566972 2.44772 0.003937,-0.566972 2.44772 0.633857,-0.542226 2.42297 0.003937,-0.542226 2.42297 0.633857,-0.513559 2.4029 0.003937,-0.513559 2.4029 0.633857,-0.481842 2.38811 0.003937,-0.481842 2.38811 0.633857,-0.448038 2.37905 0.003937,-0.448038 2.37905 0.633857,-0.413176 2.376 0.003937,-0.413176 2.376 0.633857,-0.378313 2.37905 0.633857,-0.378313 2.37905 0.003937,-0.344509 2.38811 0.003937,-0.344509 2.38811 0.633857,-0.312792 2.4029 0.633857,-0.312792 2.4029 0.003937,-0.284125 2.42297 0.003937,-0.284125 2.42297 0.633857,-0.259379 2.44772 0.003937,-0.259379 2.44772 0.633857,-0.239306 2.47638 0.003937,-0.239306 2.47638 0.633857,-0.224516 2.5081 0.633857,-0.224516 2.5081 0.003937,-0.215458 2.5419 0.003937,-0.215458 2.5419 0.633857,-0.212408 2.57677 0.003937,-0.212408 2.57677 0.633857,-0.215458 2.61163 0.003937,-0.215458 2.61163 0.633857,-0.224516 2.64543 0.633857,-0.224516 2.64543 0.003937,-0.239306 2.67715 0.003937,-0.239306 2.67715 0.633857,-0.259379 2.70582 0.633857,-0.259379 2.70582 0.003937,-0.284125 2.73056 0.003937,-0.284125 2.73056 0.633857,-0.312792 2.75064 0.003937,-0.312792 2.75064 0.633857,-0.344509 2.76543 0.633857,-0.344509 2.76543 0.003937,-0.378313 2.77448 0.003937,-0.378313 2.77448 0.633857,-0.413176 2.77753 0.003937,-0.413176 2.77753 0.633857,-0.448038 2.77448 0.003937,-0.448038 2.77448 0.633857,-0.481842 2.76543 0.003937,-0.481842 2.76543 0.633857,-0.513559 2.75064 0.003937,-0.513559 2.75064 0.633857,-0.542226 2.73056 0.003937,-0.542226 2.73056 0.633857,-0.566972 2.70582 0.003937,-0.566972 2.70582 0.633857,-0.587045 2.67715 0.003937,-0.587045 2.67715 0.633857,-0.601835 2.64543 0.003937,-0.601835 2.64543 0.633857,-0.610893 2.61163 0.003937,-0.610893 2.61163 0.633857]
}}
appearance Appearance{material Material{diffuseColor 0 0.4 0
transparency 0}}}
Shape { geometry IndexedFaceSet 
{ creaseAngle 1.00 coordIndex [0,1,2,-1,0,2,3,-1,4,3,5,-1,4,0,3,-1,6,5,7,-1,6,4,5,-1,8,7,9,-1,8,6,7,-1,10,9,11,-1,10,8,9,-1,12,10,11,-1,12,11,13,-1,14,12,13,-1,14,13,15,-1,16,14,15,-1,16,15,17,-1,18,16,17,-1,18,19,20,-1,18,17,19,-1,21,18,20,-1,22,21,20,-1,22,23,24,-1,22,20,23,-1,25,22,24,-1,26,25,24,-1,26,24,27,-1,28,26,27,-1,28,27,29,-1,30,28,29,-1,30,31,32,-1,30,29,31,-1,33,30,32,-1,34,33,32,-1,34,32,35,-1,36,34,35,-1,36,35,37,-1,38,39,40,-1,38,37,39,-1,38,36,37,-1,41,38,40,-1,42,43,44,-1,42,40,43,-1,42,41,40,-1,45,42,44,-1,46,44,47,-1,46,45,44,-1,48,49,50,-1,48,47,49,-1,48,46,47,-1,51,48,50,-1,52,50,53,-1,52,51,50,-1,54,53,55,-1,54,52,53,-1,56,55,57,-1,56,54,55,-1,58,57,59,-1,58,56,57,-1,60,59,61,-1,60,58,59,-1,62,60,61,-1,62,61,63,-1,64,62,63,-1,64,63,65,-1,66,64,65,-1,66,65,67,-1,68,66,67,-1,68,67,69,-1,70,68,69,-1,70,69,71,-1,1,70,71,-1,1,71,2,-1]
coord Coordinate { point [-1.61089 3.5419 0.003937,-1.61394 3.57676 0.003937,-1.61394 3.57676 0.633857,-1.61089 3.5419 0.633857,-1.60183 3.5081 0.003937,-1.60183 3.5081 0.633857,-1.58704 3.47638 0.003937,-1.58704 3.47638 0.633857,-1.56697 3.44771 0.003937,-1.56697 3.44771 0.633857,-1.54222 3.42297 0.003937,-1.54222 3.42297 0.633857,-1.51356 3.40289 0.003937,-1.51356 3.40289 0.633857,-1.48184 3.3881 0.003937,-1.48184 3.3881 0.633857,-1.44804 3.37905 0.003937,-1.44804 3.37905 0.633857,-1.41317 3.376 0.003937,-1.41317 3.376 0.633857,-1.37831 3.37905 0.633857,-1.37831 3.37905 0.003937,-1.34451 3.3881 0.003937,-1.34451 3.3881 0.633857,-1.31279 3.40289 0.633857,-1.31279 3.40289 0.003937,-1.28412 3.42297 0.003937,-1.28412 3.42297 0.633857,-1.25938 3.44771 0.003937,-1.25938 3.44771 0.633857,-1.2393 3.47638 0.003937,-1.2393 3.47638 0.633857,-1.22451 3.5081 0.633857,-1.22451 3.5081 0.003937,-1.21546 3.5419 0.003937,-1.21546 3.5419 0.633857,-1.21241 3.57676 0.003937,-1.21241 3.57676 0.633857,-1.21546 3.61163 0.003937,-1.21546 3.61163 0.633857,-1.22451 3.64543 0.633857,-1.22451 3.64543 0.003937,-1.2393 3.67715 0.003937,-1.2393 3.67715 0.633857,-1.25938 3.70582 0.633857,-1.25938 3.70582 0.003937,-1.28412 3.73056 0.003937,-1.28412 3.73056 0.633857,-1.31279 3.75063 0.003937,-1.31279 3.75063 0.633857,-1.34451 3.76542 0.633857,-1.34451 3.76542 0.003937,-1.37831 3.77448 0.003937,-1.37831 3.77448 0.633857,-1.41317 3.77753 0.003937,-1.41317 3.77753 0.633857,-1.44804 3.77448 0.003937,-1.44804 3.77448 0.633857,-1.48184 3.76542 0.003937,-1.48184 3.76542 0.633857,-1.51356 3.75063 0.003937,-1.51356 3.75063 0.633857,-1.54222 3.73056 0.003937,-1.54222 3.73056 0.633857,-1.56697 3.70582 0.003937,-1.56697 3.70582 0.633857,-1.58704 3.67715 0.003937,-1.58704 3.67715 0.633857,-1.60183 3.64543 0.003937,-1.60183 3.64543 0.633857,-1.61089 3.61163 0.003937,-1.61089 3.61163 0.633857]
}}
appearance Appearance{material Material{diffuseColor 0 0.4 0
transparency 0}}}
Shape { geometry IndexedFaceSet 
{ creaseAngle 1.00 coordIndex [0,1,2,-1,0,2,3,-1,4,3,5,-1,4,0,3,-1,6,5,7,-1,6,4,5,-1,8,7,9,-1,8,6,7,-1,10,9,11,-1,10,8,9,-1,12,10,11,-1,12,11,13,-1,14,12,13,-1,14,13,15,-1,16,14,15,-1,16,15,17,-1,18,16,17,-1,18,19,20,-1,18,17,19,-1,21,18,20,-1,22,21,20,-1,22,23,24,-1,22,20,23,-1,25,22,24,-1,26,25,24,-1,26,24,27,-1,28,26,27,-1,28,27,29,-1,30,28,29,-1,30,31,32,-1,30,29,31,-1,33,30,32,-1,34,33,32,-1,34,32,35,-1,36,34,35,-1,36,35,37,-1,38,39,40,-1,38,37,39,-1,38,36,37,-1,41,38,40,-1,42,43,44,-1,42,40,43,-1,42,41,40,-1,45,42,44,-1,46,44,47,-1,46,45,44,-1,48,49,50,-1,48,47,49,-1,48,46,47,-1,51,48,50,-1,52,50,53,-1,52,51,50,-1,54,53,55,-1,54,52,53,-1,56,55,57,-1,56,54,55,-1,58,57,59,-1,58,56,57,-1,60,59,61,-1,60,58,59,-1,62,60,61,-1,62,61,63,-1,64,62,63,-1,64,63,65,-1,66,64,65,-1,66,65,67,-1,68,66,67,-1,68,67,69,-1,70,68,69,-1,70,69,71,-1,1,70,71,-1,1,71,2,-1]
coord Coordinate { point [-1.61089 4.5419 0.003937,-1.61394 4.57676 0.003937,-1.61394 4.57676 0.633857,-1.61089 4.5419 0.633857,-1.60183 4.5081 0.003937,-1.60183 4.5081 0.633857,-1.58704 4.47638 0.003937,-1.58704 4.47638 0.633857,-1.56697 4.44771 0.003937,-1.56697 4.44771 0.633857,-1.54222 4.42297 0.003937,-1.54222 4.42297 0.633857,-1.51356 4.40289 0.003937,-1.51356 4.40289 0.633857,-1.48184 4.3881 0.003937,-1.48184 4.3881 0.633857,-1.44804 4.37905 0.003937,-1.44804 4.37905 0.633857,-1.41317 4.376 0.003937,-1.41317 4.376 0.633857,-1.37831 4.37905 0.633857,-1.37831 4.37905 0.003937,-1.34451 4.3881 0.003937,-1.34451 4.3881 0.633857,-1.31279 4.40289 0.633857,-1.31279 4.40289 0.003937,-1.28412 4.42297 0.003937,-1.28412 4.42297 0.633857,-1.25938 4.44771 0.003937,-1.25938 4.44771 0.633857,-1.2393 4.47638 0.003937,-1.2393 4.47638 0.633857,-1.22451 4.5081 0.633857,-1.22451 4.5081 0.003937,-1.21546 4.5419 0.003937,-1.21546 4.5419 0.633857,-1.21241 4.57676 0.003937,-1.21241 4.57676 0.633857,-1.21546 4.61163 0.003937,-1.21546 4.61163 0.633857,-1.22451 4.64543 0.633857,-1.22451 4.64543 0.003937,-1.2393 4.67715 0.003937,-1.2393 4.67715 0.633857,-1.25938 4.70581 0.633857,-1.25938 4.70581 0.003937,-1.28412 4.73056 0.003937,-1.28412 4.73056 0.633857,-1.31279 4.75063 0.003937,-1.31279 4.75063 0.633857,-1.34451 4.76542 0.633857,-1.34451 4.76542 0.003937,-1.37831 4.77448 0.003937,-1.37831 4.77448 0.633857,-1.41317 4.77753 0.003937,-1.41317 4.77753 0.633857,-1.44804 4.77448 0.003937,-1.44804 4.77448 0.633857,-1.48184 4.76542 0.003937,-1.48184 4.76542 0.633857,-1.51356 4.75063 0.003937,-1.51356 4.75063 0.633857,-1.54222 4.73056 0.003937,-1.54222 4.73056 0.633857,-1.56697 4.70581 0.003937,-1.56697 4.70581 0.633857,-1.58704 4.67715 0.003937,-1.58704 4.67715 0.633857,-1.60183 4.64543 0.003937,-1.60183 4.64543 0.633857,-1.61089 4.61163 0.003937,-1.61089 4.61163 0.633857]
}}
appearance Appearance{material Material{diffuseColor 0 0.4 0
transparency 0}}}
Shape { geometry IndexedFaceSet 
{ creaseAngle 1.00 coordIndex [0,1,2,-1,0,2,3,-1,4,3,5,-1,4,0,3,-1,6,5,7,-1,6,4,5,-1,8,7,9,-1,8,6,7,-1,10,9,11,-1,10,8,9,-1,12,10,11,-1,12,11,13,-1,14,12,13,-1,14,13,15,-1,16,14,15,-1,16,15,17,-1,18,16,17,-1,18,19,20,-1,18,17,19,-1,21,18,20,-1,22,21,20,-1,22,23,24,-1,22,20,23,-1,25,22,24,-1,26,25,24,-1,26,24,27,-1,28,26,27,-1,28,27,29,-1,30,28,29,-1,30,31,32,-1,30,29,31,-1,33,30,32,-1,34,33,32,-1,34,32,35,-1,36,34,35,-1,36,35,37,-1,38,39,40,-1,38,37,39,-1,38,36,37,-1,41,38,40,-1,42,43,44,-1,42,40,43,-1,42,41,40,-1,45,42,44,-1,46,44,47,-1,46,45,44,-1,48,49,50,-1,48,47,49,-1,48,46,47,-1,51,48,50,-1,52,50,53,-1,52,51,50,-1,54,53,55,-1,54,52,53,-1,56,55,57,-1,56,54,55,-1,58,57,59,-1,58,56,57,-1,60,59,61,-1,60,58,59,-1,62,60,61,-1,62,61,63,-1,64,62,63,-1,64,63,65,-1,66,64,65,-1,66,65,67,-1,68,66,67,-1,68,67,69,-1,70,68,69,-1,70,69,71,-1,1,70,71,-1,1,71,2,-1]
coord Coordinate { point [-0.610893 3.5419 0.003937,-0.613943 3.57676 0.003937,-0.613943 3.57676 0.633857,-0.610893 3.5419 0.633857,-0.601835 3.5081 0.003937,-0.601835 3.5081 0.633857,-0.587045 3.47638 0.003937,-0.587045 3.47638 0.633857,-0.566972 3.44771 0.003937,-0.566972 3.44771 0.633857,-0.542226 3.42297 0.003937,-0.542226 3.42297 0.633857,-0.513559 3.40289 0.003937,-0.513559 3.40289 0.633857,-0.481842 3.3881 0.003937,-0.481842 3.3881 0.633857,-0.448038 3.37905 0.003937,-0.448038 3.37905 0.633857,-0.413176 3.376 0.003937,-0.413176 3.376 0.633857,-0.378313 3.37905 0.633857,-0.378313 3.37905 0.003937,-0.344509 3.3881 0.003937,-0.344509 3.3881 0.633857,-0.312792 3.40289 0.633857,-0.312792 3.40289 0.003937,-0.284125 3.42297 0.003937,-0.284125 3.42297 0.633857,-0.259379 3.44771 0.003937,-0.259379 3.44771 0.633857,-0.239306 3.47638 0.003937,-0.239306 3.47638 0.633857,-0.224516 3.5081 0.633857,-0.224516 3.5081 0.003937,-0.215458 3.5419 0.003937,-0.215458 3.5419 0.633857,-0.212408 3.57676 0.003937,-0.212408 3.57676 0.633857,-0.215458 3.61163 0.003937,-0.215458 3.61163 0.633857,-0.224516 3.64543 0.633857,-0.224516 3.64543 0.003937,-0.239306 3.67715 0.003937,-0.239306 3.67715 0.633857,-0.259379 3.70582 0.633857,-0.259379 3.70582 0.003937,-0.284125 3.73056 0.003937,-0.284125 3.73056 0.633857,-0.312792 3.75063 0.003937,-0.312792 3.75063 0.633857,-0.344509 3.76542 0.633857,-0.344509 3.76542 0.003937,-0.378313 3.77448 0.003937,-0.378313 3.77448 0.633857,-0.413176 3.77753 0.003937,-0.413176 3.77753 0.633857,-0.448038 3.77448 0.003937,-0.448038 3.77448 0.633857,-0.481842 3.76542 0.003937,-0.481842 3.76542 0.633857,-0.513559 3.75063 0.003937,-0.513559 3.75063 0.633857,-0.542226 3.73056 0.003937,-0.542226 3.73056 0.633857,-0.566972 3.70582 0.003937,-0.566972 3.70582 0.633857,-0.587045 3.67715 0.003937,-0.587045 3.67715 0.633857,-0.601835 3.64543 0.003937,-0.601835 3.64543 0.633857,-0.610893 3.61163 0.003937,-0.610893 3.61163 0.633857]
}}
appearance Appearance{material Material{diffuseColor 0 0.4 0
transparency 0}}}
Shape { geometry IndexedFaceSet 
{ creaseAngle 1.00 coordIndex [0,1,2,-1,0,2,3,-1,4,3,5,-1,4,0,3,-1,6,5,7,-1,6,4,5,-1,8,7,9,-1,8,6,7,-1,10,9,11,-1,10,8,9,-1,12,10,11,-1,12,11,13,-1,14,12,13,-1,14,13,15,-1,16,14,15,-1,16,15,17,-1,18,16,17,-1,18,19,20,-1,18,17,19,-1,21,18,20,-1,22,21,20,-1,22,23,24,-1,22,20,23,-1,25,22,24,-1,26,25,24,-1,26,24,27,-1,28,26,27,-1,28,27,29,-1,30,28,29,-1,30,31,32,-1,30,29,31,-1,33,30,32,-1,34,33,32,-1,34,32,35,-1,36,34,35,-1,36,35,37,-1,38,39,40,-1,38,37,39,-1,38,36,37,-1,41,38,40,-1,42,43,44,-1,42,40,43,-1,42,41,40,-1,45,42,44,-1,46,44,47,-1,46,45,44,-1,48,49,50,-1,48,47,49,-1,48,46,47,-1,51,48,50,-1,52,50,53,-1,52,51,50,-1,54,53,55,-1,54,52,53,-1,56,55,57,-1,56,54,55,-1,58,57,59,-1,58,56,57,-1,60,59,61,-1,60,58,59,-1,62,60,61,-1,62,61,63,-1,64,62,63,-1,64,63,65,-1,66,64,65,-1,66,65,67,-1,68,66,67,-1,68,67,69,-1,70,68,69,-1,70,69,71,-1,1,70,71,-1,1,71,2,-1]
coord Coordinate { point [-0.610893 4.5419 0.003937,-0.613943 4.57676 0.003937,-0.613943 4.57676 0.633857,-0.610893 4.5419 0.633857,-0.601835 4.5081 0.003937,-0.601835 4.5081 0.633857,-0.587045 4.47638 0.003937,-0.587045 4.47638 0.633857,-0.566972 4.44771 0.003937,-0.566972 4.44771 0.633857,-0.542226 4.42297 0.003937,-0.542226 4.42297 0.633857,-0.513559 4.40289 0.003937,-0.513559 4.40289 0.633857,-0.481842 4.3881 0.003937,-0.481842 4.3881 0.633857,-0.448038 4.37905 0.003937,-0.448038 4.37905 0.633857,-0.413176 4.376 0.003937,-0.413176 4.376 0.633857,-0.378313 4.37905 0.633857,-0.378313 4.37905 0.003937,-0.344509 4.3881 0.003937,-0.344509 4.3881 0.633857,-0.312792 4.40289 0.633857,-0.312792 4.40289 0.003937,-0.284125 4.42297 0.003937,-0.284125 4.42297 0.633857,-0.259379 4.44771 0.003937,-0.259379 4.44771 0.633857,-0.239306 4.47638 0.003937,-0.239306 4.47638 0.633857,-0.224516 4.5081 0.633857,-0.224516 4.5081 0.003937,-0.215458 4.5419 0.003937,-0.215458 4.5419 0.633857,-0.212408 4.57676 0.003937,-0.212408 4.57676 0.633857,-0.215458 4.61163 0.003937,-0.215458 4.61163 0.633857,-0.224516 4.64543 0.633857,-0.224516 4.64543 0.003937,-0.239306 4.67715 0.003937,-0.239306 4.67715 0.633857,-0.259379 4.70581 0.633857,-0.259379 4.70581 0.003937,-0.284125 4.73056 0.003937,-0.284125 4.73056 0.633857,-0.312792 4.75063 0.003937,-0.312792 4.75063 0.633857,-0.344509 4.76542 0.633857,-0.344509 4.76542 0.003937,-0.378313 4.77448 0.003937,-0.378313 4.77448 0.633857,-0.413176 4.77753 0.003937,-0.413176 4.77753 0.633857,-0.448038 4.77448 0.003937,-0.448038 4.77448 0.633857,-0.481842 4.76542 0.003937,-0.481842 4.76542 0.633857,-0.513559 4.75063 0.003937,-0.513559 4.75063 0.633857,-0.542226 4.73056 0.003937,-0.542226 4.73056 0.633857,-0.566972 4.70581 0.003937,-0.566972 4.70581 0.633857,-0.587045 4.67715 0.003937,-0.587045 4.67715 0.633857,-0.601835 4.64543 0.003937,-0.601835 4.64543 0.633857,-0.610893 4.61163 0.003937,-0.610893 4.61163 0.633857]
}}
appearance Appearance{material Material{diffuseColor 0 0.4 0
transparency 0}}}
Shape { geometry IndexedFaceSet 
{ creaseAngle 1.00 coordIndex [0,1,2,-1,2,1,3,-1]
coord Coordinate { point [0 0 0.7874,0 0 1.41732,0 5.9055 0.7874,0 5.9055 1.41732]
}}
appearance Appearance{material Material{diffuseColor 0.68 0.71 0.74
transparency 0}}}
Shape { geometry IndexedFaceSet 
{ creaseAngle 1.00 coordIndex [0,1,2,-1,2,1,3,-1]
coord Coordinate { point [6.6929 0 0.7874,6.6929 0 1.41732,0 0 0.7874,0 0 1.41732]
}}
appearance Appearance{material Material{diffuseColor 0.68 0.71 0.74
transparency 0}}}
Shape { geometry IndexedFaceSet 
{ creaseAngle 1.00 coordIndex [0,1,2,-1,0,2,3,-1,4,1,0,-1,5,0,3,-1]
coord Coordinate { point [4.7244 4.3307 1.41732,0 5.9055 1.41732,0 0 1.41732,6.6929 0 1.41732,4.7244 5.9055 1.41732,6.6929 4.3307 1.41732]
}}
appearance Appearance{material Material{diffuseColor 0.68 0.71 0.74
transparency 0}}}
Shape { geometry IndexedFaceSet 
{ creaseAngle 1.00 coordIndex [0,1,2,-1,0,2,3,-1]
coord Coordinate { point [4.7244 5.9055 1.41732,4.7244 5.9055 0.7874,0 5.9055 0.7874,0 5.9055 1.41732]
}}
appearance Appearance{material Material{diffuseColor 0.68 0.71 0.74
transparency 0}}}
Shape { geometry IndexedFaceSet 
{ creaseAngle 1.00 coordIndex [0,1,2,-1,2,1,3,-1,0,4,1,-1,1,5,3,-1]
coord Coordinate { point [0 5.9055 0.7874,4.7244 4.3307 0.7874,0 0 0.7874,6.6929 0 0.7874,4.7244 5.9055 0.7874,6.6929 4.3307 0.7874]
}}
appearance Appearance{material Material{diffuseColor 0.68 0.71 0.74
transparency 0}}}
Shape { geometry IndexedFaceSet 
{ creaseAngle 1.00 coordIndex [0,1,2,-1,0,2,3,-1]
coord Coordinate { point [6.6929 0 1.41732,6.6929 0 0.7874,6.6929 4.3307 0.7874,6.6929 4.3307 1.41732]
}}
appearance Appearance{material Material{diffuseColor 0.68 0.71 0.74
transparency 0}}}
Shape { geometry IndexedFaceSet 
{ creaseAngle 1.00 coordIndex [0,1,2,-1,0,2,3,-1]
coord Coordinate { point [4.7244 4.3307 1.41732,4.7244 4.3307 0.7874,4.7244 5.9055 0.7874,4.7244 5.9055 1.41732]
}}
appearance Appearance{material Material{diffuseColor 0.68 0.71 0.74
transparency 0}}}
Shape { geometry IndexedFaceSet 
{ creaseAngle 1.00 coordIndex [0,1,2,-1,0,2,3,-1]
coord Coordinate { point [6.6929 4.3307 1.41732,6.6929 4.3307 0.7874,4.7244 4.3307 0.7874,4.7244 4.3307 1.41732]
}}
appearance Appearance{material Material{diffuseColor 0.68 0.71 0.74
transparency 0}}}
