ISO-10303-21;
HEADER;
FILE_DESCRIPTION (( 'STEP AP214' ),
    '1' );
FILE_NAME ('TS4148C RCG.STEP',
    '2022-01-21T08:22:31',
    ( '' ),
    ( '' ),
    'SwSTEP 2.0',
    'SolidWorks 2017',
    '' );
FILE_SCHEMA (( 'AUTOMOTIVE_DESIGN' ));
ENDSEC;

DATA;
#1 = EDGE_CURVE ( 'NONE', #772, #178, #743, .T. ) ;
#2 = DIRECTION ( 'NONE',  ( 0.0000000000000000000, 0.0000000000000000000, 1.000000000000000000 ) ) ;
#3 = EDGE_LOOP ( 'NONE', ( #879, #828, #784, #868 ) ) ;
#4 = ORIENTED_EDGE ( 'NONE', *, *, #1044, .F. ) ;
#5 = DIRECTION ( 'NONE',  ( 0.0000000000000000000, -1.000000000000000000, 0.0000000000000000000 ) ) ;
#6 = CARTESIAN_POINT ( 'NONE',  ( -0.7749999999999999100, 2.969768487932331500E-016, 0.4000000000000000200 ) ) ;
#7 = VECTOR ( 'NONE', #1066, 1000.000000000000000 ) ;
#8 = VERTEX_POINT ( 'NONE', #36 ) ;
#9 = LINE ( 'NONE', #629, #1119 ) ;
#10 =( LENGTH_UNIT ( ) NAMED_UNIT ( * ) SI_UNIT ( .MILLI., .METRE. ) );
#11 = VERTEX_POINT ( 'NONE', #808 ) ;
#12 = LINE ( 'NONE', #390, #841 ) ;
#13 = VECTOR ( 'NONE', #1396, 1000.000000000000000 ) ;
#14 = DIRECTION ( 'NONE',  ( 0.0000000000000000000, 0.0000000000000000000, 1.000000000000000000 ) ) ;
#15 = EDGE_CURVE ( 'NONE', #147, #738, #989, .T. ) ;
#16 = DIRECTION ( 'NONE',  ( -1.000000000000000000, 0.0000000000000000000, 0.0000000000000000000 ) ) ;
#17 = VERTEX_POINT ( 'NONE', #271 ) ;
#18 = EDGE_CURVE ( 'NONE', #503, #1189, #177, .T. ) ;
#19 = ORIENTED_EDGE ( 'NONE', *, *, #509, .T. ) ;
#20 = EDGE_CURVE ( 'NONE', #605, #325, #37, .T. ) ;
#21 = DIRECTION ( 'NONE',  ( 0.0000000000000000000, -0.0000000000000000000, 1.000000000000000000 ) ) ;
#22 = ORIENTED_EDGE ( 'NONE', *, *, #467, .T. ) ;
#23 = DIRECTION ( 'NONE',  ( -1.000000000000000000, 0.0000000000000000000, 0.0000000000000000000 ) ) ;
#24 = LINE ( 'NONE', #431, #920 ) ;
#25 =( GEOMETRIC_REPRESENTATION_CONTEXT ( 3 ) GLOBAL_UNCERTAINTY_ASSIGNED_CONTEXT ( ( #1388 ) ) GLOBAL_UNIT_ASSIGNED_CONTEXT ( ( #734, #189, #849 ) ) REPRESENTATION_CONTEXT ( 'NONE', 'WORKASPACE' ) );
#26 = ORIENTED_EDGE ( 'NONE', *, *, #992, .T. ) ;
#27 = CARTESIAN_POINT ( 'NONE',  ( 0.4250000000000000400, 0.7500000000000003300, 0.4000000000000000200 ) ) ;
#28 = VECTOR ( 'NONE', #468, 1000.000000000000000 ) ;
#29 = DIRECTION ( 'NONE',  ( 0.0000000000000000000, 0.0000000000000000000, 1.000000000000000000 ) ) ;
#30 = CLOSED_SHELL ( 'NONE', ( #449, #1215, #1101, #34, #832, #1002 ) ) ;
#31 = DIRECTION ( 'NONE',  ( 1.084202172485504000E-015, 1.000000000000000000, 0.0000000000000000000 ) ) ;
#32 = PRESENTATION_STYLE_ASSIGNMENT (( #1217 ) ) ;
#33 = CARTESIAN_POINT ( 'NONE',  ( 0.4250000000000000400, 4.867504519799575400E-016, 0.4000000000000000200 ) ) ;
#34 = ADVANCED_FACE ( 'NONE', ( #1267 ), #591, .F. ) ;
#35 = EDGE_LOOP ( 'NONE', ( #484, #719, #974, #577 ) ) ;
#36 = CARTESIAN_POINT ( 'NONE',  ( 0.4249999999999999300, 0.7000000000000007300, -0.4000000000000000200 ) ) ;
#37 = LINE ( 'NONE', #1239, #212 ) ;
#38 = VERTEX_POINT ( 'NONE', #589 ) ;
#39 = VECTOR ( 'NONE', #72, 1000.000000000000000 ) ;
#40 = EDGE_LOOP ( 'NONE', ( #556, #1347, #774, #48 ) ) ;
#41 = PRESENTATION_STYLE_ASSIGNMENT (( #895 ) ) ;
#42 = AXIS2_PLACEMENT_3D ( 'NONE', #1148, #1360, #405 ) ;
#43 = EDGE_CURVE ( 'NONE', #707, #74, #873, .T. ) ;
#44 = ADVANCED_FACE ( 'NONE', ( #687, #530 ), #1037, .F. ) ;
#45 = PLANE ( 'NONE',  #1274 ) ;
#46 = ORIENTED_EDGE ( 'NONE', *, *, #893, .F. ) ;
#47 = ORIENTED_EDGE ( 'NONE', *, *, #365, .F. ) ;
#48 = ORIENTED_EDGE ( 'NONE', *, *, #701, .T. ) ;
#49 = ORIENTED_EDGE ( 'NONE', *, *, #967, .F. ) ;
#50 = LINE ( 'NONE', #649, #549 ) ;
#51 = VERTEX_POINT ( 'NONE', #1356 ) ;
#52 = CARTESIAN_POINT ( 'NONE',  ( -0.7249999999999998700, 0.5375000000000005300, -0.4000000000000000200 ) ) ;
#53 = VERTEX_POINT ( 'NONE', #595 ) ;
#54 = VECTOR ( 'NONE', #343, 1000.000000000000000 ) ;
#55 = ORIENTED_EDGE ( 'NONE', *, *, #666, .T. ) ;
#56 = CARTESIAN_POINT ( 'NONE',  ( 0.4249999999999999300, 0.7000000000000007300, 0.0000000000000000000 ) ) ;
#57 = AXIS2_PLACEMENT_3D ( 'NONE', #1142, #480, #1139 ) ;
#58 = ORIENTED_EDGE ( 'NONE', *, *, #297, .T. ) ;
#59 = CARTESIAN_POINT ( 'NONE',  ( -0.2749999999999999700, 0.7400000000000003200, -0.3990000000000000200 ) ) ;
#60 = FILL_AREA_STYLE_COLOUR ( '', #1167 ) ;
#61 = AXIS2_PLACEMENT_3D ( 'NONE', #1286, #293, #1389 ) ;
#62 = VERTEX_POINT ( 'NONE', #836 ) ;
#63 = ORIENTED_EDGE ( 'NONE', *, *, #1151, .F. ) ;
#64 = CARTESIAN_POINT ( 'NONE',  ( -0.2749999999999999700, 0.7500000000000003300, -0.3990000000000000200 ) ) ;
#65 = SURFACE_SIDE_STYLE ('',( #703 ) ) ;
#66 = CARTESIAN_POINT ( 'NONE',  ( -0.2749999999999998600, 0.7400000000000003200, -0.3990000000000000200 ) ) ;
#67 = EDGE_CURVE ( 'NONE', #299, #266, #462, .T. ) ;
#68 = LINE ( 'NONE', #1259, #194 ) ;
#69 = VERTEX_POINT ( 'NONE', #929 ) ;
#70 = CARTESIAN_POINT ( 'NONE',  ( -0.7249999999999998700, 0.7000000000000007300, -0.4000000000000000200 ) ) ;
#71 = LINE ( 'NONE', #500, #322 ) ;
#72 = DIRECTION ( 'NONE',  ( -1.000000000000000000, -0.0000000000000000000, -0.0000000000000000000 ) ) ;
#73 = CARTESIAN_POINT ( 'NONE',  ( -0.07499999999999981700, -0.08268098312772465000, 0.3990000000000000200 ) ) ;
#74 = VERTEX_POINT ( 'NONE', #824 ) ;
#75 = COLOUR_RGB ( '',0.7921568627450980000, 0.8196078431372548800, 0.9333333333333333500 ) ;
#76 = LINE ( 'NONE', #1161, #588 ) ;
#77 = PLANE ( 'NONE',  #1242 ) ;
#78 = CARTESIAN_POINT ( 'NONE',  ( -0.7249999999999998700, 0.7000000000000007300, 0.4000000000000000200 ) ) ;
#79 = CARTESIAN_POINT ( 'NONE',  ( 0.4249999999999999300, 0.7000000000000007300, 0.4000000000000000200 ) ) ;
#80 = CARTESIAN_POINT ( 'NONE',  ( 0.7750000000000002400, 5.421010862427522200E-016, 0.4000000000000000200 ) ) ;
#81 = CARTESIAN_POINT ( 'NONE',  ( -0.2749999999999999700, 0.7400000000000003200, -0.3990000000000000200 ) ) ;
#82 = VERTEX_POINT ( 'NONE', #581 ) ;
#83 = CARTESIAN_POINT ( 'NONE',  ( -0.2749999999999999700, 0.7400000000000003200, -0.3990000000000000200 ) ) ;
#84 = DIRECTION ( 'NONE',  ( 0.0000000000000000000, 1.000000000000000000, 0.0000000000000000000 ) ) ;
#85 = CARTESIAN_POINT ( 'NONE',  ( -0.2749999999999998000, -0.08268098312772465000, 0.3990000000000000200 ) ) ;
#86 = LINE ( 'NONE', #607, #1183 ) ;
#87 = SURFACE_STYLE_USAGE ( .BOTH. , #501 ) ;
#88 = AXIS2_PLACEMENT_3D ( 'NONE', #167, #1365, #1359 ) ;
#89 = CARTESIAN_POINT ( 'NONE',  ( 0.4249999999999991600, -4.607859233063383000E-016, -0.4000000000000000200 ) ) ;
#90 = ORIENTED_EDGE ( 'NONE', *, *, #737, .F. ) ;
#91 = PRESENTATION_LAYER_ASSIGNMENT (  '', '', ( #205 ) ) ;
#92 = VECTOR ( 'NONE', #275, 1000.000000000000000 ) ;
#93 = EDGE_CURVE ( 'NONE', #8, #862, #489, .T. ) ;
#94 = VECTOR ( 'NONE', #197, 1000.000000000000000 ) ;
#95 = UNCERTAINTY_MEASURE_WITH_UNIT (LENGTH_MEASURE( 1.000000000000000100E-005 ), #10, 'distance_accuracy_value', 'NONE');
#96 = ORIENTED_EDGE ( 'NONE', *, *, #610, .F. ) ;
#97 = LINE ( 'NONE', #771, #1005 ) ;
#98 = CARTESIAN_POINT ( 'NONE',  ( -0.4249999999999999300, 0.7000000000000007300, 0.0000000000000000000 ) ) ;
#99 = DIRECTION ( 'NONE',  ( 0.0000000000000000000, -0.0000000000000000000, 1.000000000000000000 ) ) ;
#100 = ORIENTED_EDGE ( 'NONE', *, *, #947, .T. ) ;
#101 = ORIENTED_EDGE ( 'NONE', *, *, #602, .T. ) ;
#102 = ORIENTED_EDGE ( 'NONE', *, *, #1226, .T. ) ;
#103 = CARTESIAN_POINT ( 'NONE',  ( 0.4249999999999999300, 0.7000000000000007300, 0.4000000000000000200 ) ) ;
#104 = CARTESIAN_POINT ( 'NONE',  ( -0.2749999999999999100, 0.7500000000000003300, 0.3990000000000000200 ) ) ;
#105 = CARTESIAN_POINT ( 'NONE',  ( -0.7750000000000001300, 0.7500000000000003300, -0.4000000000000000200 ) ) ;
#106 = CARTESIAN_POINT ( 'NONE',  ( -0.7750000000000001300, 0.7500000000000003300, 0.4000000000000000200 ) ) ;
#107 = LINE ( 'NONE', #280, #1219 ) ;
#108 = DIRECTION ( 'NONE',  ( 0.0000000000000000000, -1.000000000000000000, 0.0000000000000000000 ) ) ;
#109 =( LENGTH_UNIT ( ) NAMED_UNIT ( * ) SI_UNIT ( .MILLI., .METRE. ) );
#110 = VECTOR ( 'NONE', #617, 1000.000000000000000 ) ;
#111 = EDGE_LOOP ( 'NONE', ( #1095, #26, #725, #907 ) ) ;
#112 = EDGE_CURVE ( 'NONE', #683, #800, #347, .T. ) ;
#113 = LINE ( 'NONE', #1071, #1173 ) ;
#114 = LINE ( 'NONE', #1380, #326 ) ;
#115 = ORIENTED_EDGE ( 'NONE', *, *, #763, .T. ) ;
#116 = AXIS2_PLACEMENT_3D ( 'NONE', #526, #108, #1399 ) ;
#117 = MECHANICAL_DESIGN_GEOMETRIC_PRESENTATION_REPRESENTATION (  '', ( #205 ), #791 ) ;
#118 = EDGE_CURVE ( 'NONE', #345, #156, #641, .T. ) ;
#119 = CARTESIAN_POINT ( 'NONE',  ( 0.7249999999999998700, 0.0000000000000000000, -0.4000000000000000200 ) ) ;
#120 = DIRECTION ( 'NONE',  ( 6.793246694771331700E-017, 0.0000000000000000000, 1.000000000000000000 ) ) ;
#121 = VECTOR ( 'NONE', #1348, 1000.000000000000000 ) ;
#122 = ORIENTED_EDGE ( 'NONE', *, *, #1010, .F. ) ;
#123 = LINE ( 'NONE', #1299, #1234 ) ;
#124 = VECTOR ( 'NONE', #850, 1000.000000000000000 ) ;
#125 = CARTESIAN_POINT ( 'NONE',  ( -0.2749999999999999700, 0.7400000000000003200, -0.3990000000000000200 ) ) ;
#126 = EDGE_LOOP ( 'NONE', ( #1024, #715, #303, #47 ) ) ;
#127 = VECTOR ( 'NONE', #333, 1000.000000000000000 ) ;
#128 = DIRECTION ( 'NONE',  ( 0.0000000000000000000, 0.0000000000000000000, -1.000000000000000000 ) ) ;
#129 = ORIENTED_EDGE ( 'NONE', *, *, #43, .T. ) ;
#130 = ORIENTED_EDGE ( 'NONE', *, *, #486, .F. ) ;
#131 = DIRECTION ( 'NONE',  ( 1.000000000000000000, 1.626303258728256900E-016, -1.358649338954266300E-016 ) ) ;
#132 = AXIS2_PLACEMENT_3D ( 'NONE', #959, #286, #491 ) ;
#133 = ORIENTED_EDGE ( 'NONE', *, *, #394, .F. ) ;
#134 = ADVANCED_FACE ( 'NONE', ( #980 ), #1351, .T. ) ;
#135 = AXIS2_PLACEMENT_3D ( 'NONE', #106, #1182, #1301 ) ;
#136 = VERTEX_POINT ( 'NONE', #711 ) ;
#137 = DIRECTION ( 'NONE',  ( -1.000000000000000000, -0.0000000000000000000, -0.0000000000000000000 ) ) ;
#138 = PLANE ( 'NONE',  #816 ) ;
#139 = LINE ( 'NONE', #479, #764 ) ;
#140 = VERTEX_POINT ( 'NONE', #70 ) ;
#141 = EDGE_CURVE ( 'NONE', #503, #1033, #398, .T. ) ;
#142 = ORIENTED_EDGE ( 'NONE', *, *, #265, .F. ) ;
#143 = EDGE_LOOP ( 'NONE', ( #567, #938, #593, #1179 ) ) ;
#144 = ADVANCED_FACE ( 'NONE', ( #1308 ), #77, .T. ) ;
#145 = DIRECTION ( 'NONE',  ( 0.0000000000000000000, -1.000000000000000000, 0.0000000000000000000 ) ) ;
#146 = FACE_OUTER_BOUND ( 'NONE', #337, .T. ) ;
#147 = VERTEX_POINT ( 'NONE', #59 ) ;
#148 = LINE ( 'NONE', #409, #92 ) ;
#149 = VECTOR ( 'NONE', #23, 1000.000000000000000 ) ;
#150 = PRODUCT_CONTEXT ( 'NONE', #477, 'mechanical' ) ;
#151 = CARTESIAN_POINT ( 'NONE',  ( 0.0000000000000000000, 0.05000000000000002400, -0.4000000000000000200 ) ) ;
#152 = EDGE_LOOP ( 'NONE', ( #1186, #886, #650, #655 ) ) ;
#153 = VECTOR ( 'NONE', #5, 1000.000000000000000 ) ;
#154 = EDGE_CURVE ( 'NONE', #314, #1382, #68, .T. ) ;
#155 = CARTESIAN_POINT ( 'NONE',  ( -0.7750000000000001300, 0.7500000000000003300, 0.4000000000000000200 ) ) ;
#156 = VERTEX_POINT ( 'NONE', #268 ) ;
#157 = ADVANCED_FACE ( 'NONE', ( #957 ), #379, .T. ) ;
#158 = CARTESIAN_POINT ( 'NONE',  ( 0.4249999999999999300, 0.7000000000000007300, 0.0000000000000000000 ) ) ;
#159 = DIRECTION ( 'NONE',  ( 0.0000000000000000000, 0.0000000000000000000, 1.000000000000000000 ) ) ;
#160 = CARTESIAN_POINT ( 'NONE',  ( -0.07500000000000006700, 0.7400000000000003200, -0.3990000000000000200 ) ) ;
#161 = LINE ( 'NONE', #1174, #1088 ) ;
#162 = PRESENTATION_STYLE_ASSIGNMENT (( #1244 ) ) ;
#163 = PLANE ( 'NONE',  #1062 ) ;
#164 = LINE ( 'NONE', #89, #454 ) ;
#165 = ORIENTED_EDGE ( 'NONE', *, *, #992, .F. ) ;
#166 = DIRECTION ( 'NONE',  ( 1.084202172485504000E-015, 1.000000000000000000, 0.0000000000000000000 ) ) ;
#167 = CARTESIAN_POINT ( 'NONE',  ( -0.7249999999999998700, 0.5375000000000005300, 0.0000000000000000000 ) ) ;
#168 = DIRECTION ( 'NONE',  ( 1.000000000000000000, 1.581446693222703600E-016, 0.0000000000000000000 ) ) ;
#169 = DIRECTION ( 'NONE',  ( 0.0000000000000000000, 0.0000000000000000000, 1.000000000000000000 ) ) ;
#170 = ORIENTED_EDGE ( 'NONE', *, *, #176, .T. ) ;
#171 = ORIENTED_EDGE ( 'NONE', *, *, #1114, .F. ) ;
#172 = DIRECTION ( 'NONE',  ( 1.000000000000000000, -0.0000000000000000000, 0.0000000000000000000 ) ) ;
#173 = DIRECTION ( 'NONE',  ( -0.0000000000000000000, -0.0000000000000000000, -1.000000000000000000 ) ) ;
#174 = CARTESIAN_POINT ( 'NONE',  ( 0.4249999999999999900, 0.0000000000000000000, 0.4000000000000000200 ) ) ;
#175 = CARTESIAN_POINT ( 'NONE',  ( 0.4250000000000000400, 0.7500000000000003300, 0.4000000000000000200 ) ) ;
#176 = EDGE_CURVE ( 'NONE', #695, #800, #1321, .T. ) ;
#177 = LINE ( 'NONE', #941, #1251 ) ;
#178 = VERTEX_POINT ( 'NONE', #847 ) ;
#179 = DIRECTION ( 'NONE',  ( 0.0000000000000000000, 1.000000000000000000, 0.0000000000000000000 ) ) ;
#180 = FACE_OUTER_BOUND ( 'NONE', #377, .T. ) ;
#181 = PRESENTATION_LAYER_ASSIGNMENT (  '', '', ( #1394 ) ) ;
#182 = FACE_OUTER_BOUND ( 'NONE', #647, .T. ) ;
#183 = LINE ( 'NONE', #1265, #1258 ) ;
#184 = CARTESIAN_POINT ( 'NONE',  ( 0.0000000000000000000, 0.7000000000000007300, 0.4000000000000000200 ) ) ;
#185 = CARTESIAN_POINT ( 'NONE',  ( 0.0000000000000000000, 0.5375000000000005300, -0.4000000000000000200 ) ) ;
#186 = DIRECTION ( 'NONE',  ( 1.084202172485504000E-015, 1.000000000000000000, 0.0000000000000000000 ) ) ;
#187 = CARTESIAN_POINT ( 'NONE',  ( -0.7750000000000001300, 0.7500000000000003300, 0.4000000000000000200 ) ) ;
#188 = DIRECTION ( 'NONE',  ( 0.0000000000000000000, -1.000000000000000000, 0.0000000000000000000 ) ) ;
#189 =( NAMED_UNIT ( * ) PLANE_ANGLE_UNIT ( ) SI_UNIT ( $, .RADIAN. ) );
#190 = DIRECTION ( 'NONE',  ( -1.626303258728256900E-016, 1.000000000000000000, 0.0000000000000000000 ) ) ;
#191 = DIRECTION ( 'NONE',  ( 0.0000000000000000000, -1.000000000000000000, 0.0000000000000000000 ) ) ;
#192 = DIRECTION ( 'NONE',  ( -1.000000000000000000, 0.0000000000000000000, 0.0000000000000000000 ) ) ;
#193 = CARTESIAN_POINT ( 'NONE',  ( 0.4249999999999999300, 0.05000000000000002400, 0.4000000000000000200 ) ) ;
#194 = VECTOR ( 'NONE', #1030, 1000.000000000000000 ) ;
#195 = LINE ( 'NONE', #1397, #94 ) ;
#196 = CARTESIAN_POINT ( 'NONE',  ( -0.2749999999999999700, 0.7400000000000003200, -0.3990000000000000200 ) ) ;
#197 = DIRECTION ( 'NONE',  ( 1.000000000000000000, 0.0000000000000000000, 0.0000000000000000000 ) ) ;
#198 = ORIENTED_EDGE ( 'NONE', *, *, #685, .T. ) ;
#199 = DIRECTION ( 'NONE',  ( -1.626303258728256900E-016, 1.000000000000000000, 0.0000000000000000000 ) ) ;
#200 = ORIENTED_EDGE ( 'NONE', *, *, #686, .F. ) ;
#201 = VECTOR ( 'NONE', #1281, 1000.000000000000000 ) ;
#202 = CARTESIAN_POINT ( 'NONE',  ( 0.7249999999999998700, 0.7000000000000007300, 0.0000000000000000000 ) ) ;
#203 = DIRECTION ( 'NONE',  ( -1.358649338954266300E-016, -0.0000000000000000000, -1.000000000000000000 ) ) ;
#204 = CARTESIAN_POINT ( 'NONE',  ( -0.4249999999999999300, 0.7000000000000007300, 0.0000000000000000000 ) ) ;
#205 = STYLED_ITEM ( 'NONE', ( #162 ), #375 ) ;
#206 = EDGE_CURVE ( 'NONE', #17, #795, #276, .T. ) ;
#207 = CARTESIAN_POINT ( 'NONE',  ( -0.7749999999999999100, 2.969768487932331500E-016, 0.4000000000000000200 ) ) ;
#208 = EDGE_LOOP ( 'NONE', ( #962, #122, #290, #115 ) ) ;
#209 = VERTEX_POINT ( 'NONE', #80 ) ;
#210 = DIRECTION ( 'NONE',  ( -1.000000000000000000, -0.0000000000000000000, -0.0000000000000000000 ) ) ;
#211 = PLANE ( 'NONE',  #1248 ) ;
#212 = VECTOR ( 'NONE', #172, 1000.000000000000000 ) ;
#213 = ORIENTED_EDGE ( 'NONE', *, *, #812, .T. ) ;
#214 = CARTESIAN_POINT ( 'NONE',  ( -0.4249999999999998800, 0.05000000000000002400, 0.0000000000000000000 ) ) ;
#215 = VECTOR ( 'NONE', #397, 1000.000000000000000 ) ;
#216 = LINE ( 'NONE', #730, #124 ) ;
#217 = DIRECTION ( 'NONE',  ( 0.0000000000000000000, 1.000000000000000000, 0.0000000000000000000 ) ) ;
#218 = VECTOR ( 'NONE', #724, 1000.000000000000000 ) ;
#219 = EDGE_LOOP ( 'NONE', ( #789, #749, #994, #304 ) ) ;
#220 = VECTOR ( 'NONE', #308, 1000.000000000000000 ) ;
#221 = DIRECTION ( 'NONE',  ( -1.000000000000000000, 0.0000000000000000000, -0.0000000000000000000 ) ) ;
#222 =( NAMED_UNIT ( * ) PLANE_ANGLE_UNIT ( ) SI_UNIT ( $, .RADIAN. ) );
#223 = ORIENTED_EDGE ( 'NONE', *, *, #1202, .T. ) ;
#224 = AXIS2_PLACEMENT_3D ( 'NONE', #632, #954, #1371 ) ;
#225 = DIRECTION ( 'NONE',  ( 1.626303258728256900E-016, -1.000000000000000000, 0.0000000000000000000 ) ) ;
#226 = AXIS2_PLACEMENT_3D ( 'NONE', #887, #451, #668 ) ;
#227 = EDGE_CURVE ( 'NONE', #688, #53, #760, .T. ) ;
#228 = ADVANCED_FACE ( 'NONE', ( #1145 ), #1069, .T. ) ;
#229 = AXIS2_PLACEMENT_3D ( 'NONE', #207, #319, #429 ) ;
#230 = CARTESIAN_POINT ( 'NONE',  ( 0.7749999999999999100, 0.7500000000000003300, 0.4000000000000000200 ) ) ;
#231 = UNCERTAINTY_MEASURE_WITH_UNIT (LENGTH_MEASURE( 1.000000000000000100E-005 ), #658, 'distance_accuracy_value', 'NONE');
#232 = VERTEX_POINT ( 'NONE', #510 ) ;
#233 = CARTESIAN_POINT ( 'NONE',  ( -0.07500000000000006700, 0.7500000000000003300, -0.3990000000000000200 ) ) ;
#234 = PRESENTATION_STYLE_ASSIGNMENT (( #1335 ) ) ;
#235 = ADVANCED_FACE ( 'NONE', ( #597 ), #1278, .T. ) ;
#236 = DIRECTION ( 'NONE',  ( 0.0000000000000000000, 1.000000000000000000, 0.0000000000000000000 ) ) ;
#237 = ORIENTED_EDGE ( 'NONE', *, *, #614, .T. ) ;
#238 = LINE ( 'NONE', #1187, #153 ) ;
#239 = ORIENTED_EDGE ( 'NONE', *, *, #558, .F. ) ;
#240 = EDGE_LOOP ( 'NONE', ( #239, #19, #663, #860, #63, #592, #894, #1227 ) ) ;
#241 = VECTOR ( 'NONE', #1128, 1000.000000000000000 ) ;
#242 = ADVANCED_FACE ( 'NONE', ( #1117 ), #628, .T. ) ;
#243 = EDGE_LOOP ( 'NONE', ( #778, #1115, #1372, #1118 ) ) ;
#244 = FACE_OUTER_BOUND ( 'NONE', #219, .T. ) ;
#245 = EDGE_CURVE ( 'NONE', #1036, #625, #86, .T. ) ;
#246 = VECTOR ( 'NONE', #838, 1000.000000000000000 ) ;
#247 = EDGE_CURVE ( 'NONE', #281, #1350, #320, .T. ) ;
#248 = LINE ( 'NONE', #1260, #218 ) ;
#249 = DIRECTION ( 'NONE',  ( -1.000000000000000000, -0.0000000000000000000, -0.0000000000000000000 ) ) ;
#250 = STYLED_ITEM ( 'NONE', ( #963 ), #736 ) ;
#251 = ADVANCED_FACE ( 'NONE', ( #834 ), #1269, .T. ) ;
#252 = ORIENTED_EDGE ( 'NONE', *, *, #877, .T. ) ;
#253 = DIRECTION ( 'NONE',  ( 1.000000000000000000, 0.0000000000000000000, 0.0000000000000000000 ) ) ;
#254 = VERTEX_POINT ( 'NONE', #1059 ) ;
#255 = DIRECTION ( 'NONE',  ( 0.0000000000000000000, 0.0000000000000000000, 1.000000000000000000 ) ) ;
#256 = ORIENTED_EDGE ( 'NONE', *, *, #1334, .F. ) ;
#257 = ORIENTED_EDGE ( 'NONE', *, *, #1328, .T. ) ;
#258 = ADVANCED_FACE ( 'NONE', ( #359 ), #728, .T. ) ;
#259 = PLANE ( 'NONE',  #766 ) ;
#260 = LINE ( 'NONE', #979, #1132 ) ;
#261 = ORIENTED_EDGE ( 'NONE', *, *, #206, .T. ) ;
#262 = VECTOR ( 'NONE', #1184, 1000.000000000000000 ) ;
#263 = CARTESIAN_POINT ( 'NONE',  ( 0.7249999999999998700, 0.7000000000000007300, 0.0000000000000000000 ) ) ;
#264 = LINE ( 'NONE', #1302, #1120 ) ;
#265 = EDGE_CURVE ( 'NONE', #949, #281, #1015, .T. ) ;
#266 = VERTEX_POINT ( 'NONE', #1383 ) ;
#267 = FACE_OUTER_BOUND ( 'NONE', #497, .T. ) ;
#268 = CARTESIAN_POINT ( 'NONE',  ( 0.7249999999999998700, 0.7000000000000007300, 0.4000000000000000200 ) ) ;
#269 = FILL_AREA_STYLE ('',( #745 ) ) ;
#270 = PLANE ( 'NONE',  #584 ) ;
#271 = CARTESIAN_POINT ( 'NONE',  ( -0.4249999999999998800, 3.523274830560277800E-016, 0.4000000000000000200 ) ) ;
#272 = ORIENTED_EDGE ( 'NONE', *, *, #897, .F. ) ;
#273 = ORIENTED_EDGE ( 'NONE', *, *, #227, .F. ) ;
#274 = EDGE_CURVE ( 'NONE', #461, #38, #161, .T. ) ;
#275 = DIRECTION ( 'NONE',  ( 0.0000000000000000000, -1.000000000000000000, 0.0000000000000000000 ) ) ;
#276 = LINE ( 'NONE', #306, #1068 ) ;
#277 = CARTESIAN_POINT ( 'NONE',  ( -0.7249999999999998700, 0.5375000000000005300, -0.4000000000000000200 ) ) ;
#278 = ORIENTED_EDGE ( 'NONE', *, *, #442, .F. ) ;
#279 = VECTOR ( 'NONE', #173, 1000.000000000000000 ) ;
#280 = CARTESIAN_POINT ( 'NONE',  ( 0.0000000000000000000, 0.7000000000000007300, -0.4000000000000000200 ) ) ;
#281 = VERTEX_POINT ( 'NONE', #970 ) ;
#282 = CARTESIAN_POINT ( 'NONE',  ( -0.4249999999999998800, 0.05000000000000000300, 0.0000000000000000000 ) ) ;
#283 = VECTOR ( 'NONE', #128, 1000.000000000000000 ) ;
#284 = DIRECTION ( 'NONE',  ( 0.0000000000000000000, 0.0000000000000000000, -1.000000000000000000 ) ) ;
#285 = PLANE ( 'NONE',  #1207 ) ;
#286 = DIRECTION ( 'NONE',  ( -1.000000000000000000, 1.084202172485504000E-015, 0.0000000000000000000 ) ) ;
#287 = ORIENTED_EDGE ( 'NONE', *, *, #563, .T. ) ;
#288 = CARTESIAN_POINT ( 'NONE',  ( -0.7249999999999998700, 0.0000000000000000000, 0.4000000000000000200 ) ) ;
#289 = DIRECTION ( 'NONE',  ( -5.782411586589358600E-016, 1.000000000000000000, 0.0000000000000000000 ) ) ;
#290 = ORIENTED_EDGE ( 'NONE', *, *, #274, .T. ) ;
#291 = ORIENTED_EDGE ( 'NONE', *, *, #919, .F. ) ;
#292 = DIRECTION ( 'NONE',  ( -1.000000000000000000, 0.0000000000000000000, 0.0000000000000000000 ) ) ;
#293 = DIRECTION ( 'NONE',  ( 0.0000000000000000000, 0.0000000000000000000, -1.000000000000000000 ) ) ;
#294 = CARTESIAN_POINT ( 'NONE',  ( 0.0000000000000000000, 0.0000000000000000000, 0.4000000000000000200 ) ) ;
#295 = ORIENTED_EDGE ( 'NONE', *, *, #350, .T. ) ;
#296 = AXIS2_PLACEMENT_3D ( 'NONE', #751, #1185, #99 ) ;
#297 = EDGE_CURVE ( 'NONE', #1213, #473, #794, .T. ) ;
#298 = LINE ( 'NONE', #1080, #813 ) ;
#299 = VERTEX_POINT ( 'NONE', #621 ) ;
#300 = DIRECTION ( 'NONE',  ( -1.000000000000000000, 0.0000000000000000000, 0.0000000000000000000 ) ) ;
#301 = AXIS2_PLACEMENT_3D ( 'NONE', #635, #1087, #883 ) ;
#302 = SURFACE_STYLE_FILL_AREA ( #471 ) ;
#303 = ORIENTED_EDGE ( 'NONE', *, *, #428, .T. ) ;
#304 = ORIENTED_EDGE ( 'NONE', *, *, #154, .F. ) ;
#305 = FACE_OUTER_BOUND ( 'NONE', #1330, .T. ) ;
#306 = CARTESIAN_POINT ( 'NONE',  ( -0.4249999999999998800, 0.0000000000000000000, 0.4000000000000000200 ) ) ;
#307 = SURFACE_STYLE_FILL_AREA ( #344 ) ;
#308 = DIRECTION ( 'NONE',  ( 1.000000000000000000, 1.581446693222703600E-016, 0.0000000000000000000 ) ) ;
#309 = DIRECTION ( 'NONE',  ( 0.0000000000000000000, 0.0000000000000000000, 1.000000000000000000 ) ) ;
#310 = CARTESIAN_POINT ( 'NONE',  ( 0.7249999999999998700, 0.5375000000000005300, 0.0000000000000000000 ) ) ;
#311 = DIRECTION ( 'NONE',  ( 0.0000000000000000000, 0.0000000000000000000, -1.000000000000000000 ) ) ;
#312 = DIRECTION ( 'NONE',  ( 0.0000000000000000000, -0.0000000000000000000, -1.000000000000000000 ) ) ;
#313 = PLANE ( 'NONE',  #135 ) ;
#314 = VERTEX_POINT ( 'NONE', #1284 ) ;
#315 = ORIENTED_EDGE ( 'NONE', *, *, #1056, .T. ) ;
#316 = CARTESIAN_POINT ( 'NONE',  ( -0.07500000000000006700, 0.7400000000000003200, -0.3990000000000000200 ) ) ;
#317 = DIRECTION ( 'NONE',  ( -1.581446693222703800E-016, 1.000000000000000000, 0.0000000000000000000 ) ) ;
#318 = DIRECTION ( 'NONE',  ( 0.0000000000000000000, -0.0000000000000000000, 1.000000000000000000 ) ) ;
#319 = DIRECTION ( 'NONE',  ( 1.000000000000000000, 2.891205793294678300E-016, -0.0000000000000000000 ) ) ;
#320 = LINE ( 'NONE', #1158, #677 ) ;
#321 = ORIENTED_EDGE ( 'NONE', *, *, #685, .F. ) ;
#322 = VECTOR ( 'NONE', #733, 1000.000000000000000 ) ;
#323 = ORIENTED_EDGE ( 'NONE', *, *, #417, .T. ) ;
#324 = DIRECTION ( 'NONE',  ( 0.0000000000000000000, -1.000000000000000000, 0.0000000000000000000 ) ) ;
#325 = VERTEX_POINT ( 'NONE', #415 ) ;
#326 = VECTOR ( 'NONE', #284, 1000.000000000000000 ) ;
#327 = AXIS2_PLACEMENT_3D ( 'NONE', #316, #755, #199 ) ;
#328 = CARTESIAN_POINT ( 'NONE',  ( 0.0000000000000000000, 0.0000000000000000000, 0.4000000000000000200 ) ) ;
#329 = EDGE_CURVE ( 'NONE', #1116, #8, #107, .T. ) ;
#330 = VERTEX_POINT ( 'NONE', #103 ) ;
#331 = ORIENTED_EDGE ( 'NONE', *, *, #735, .T. ) ;
#332 = EDGE_LOOP ( 'NONE', ( #335, #922, #213, #942 ) ) ;
#333 = DIRECTION ( 'NONE',  ( 0.0000000000000000000, 0.0000000000000000000, 1.000000000000000000 ) ) ;
#334 = LINE ( 'NONE', #878, #1102 ) ;
#335 = ORIENTED_EDGE ( 'NONE', *, *, #15, .T. ) ;
#336 = VECTOR ( 'NONE', #289, 1000.000000000000000 ) ;
#337 = EDGE_LOOP ( 'NONE', ( #1261, #100, #1245, #481 ) ) ;
#338 = VECTOR ( 'NONE', #1105, 1000.000000000000000 ) ;
#339 = DIRECTION ( 'NONE',  ( -1.358649338954266300E-016, -0.0000000000000000000, -1.000000000000000000 ) ) ;
#340 = ADVANCED_FACE ( 'NONE', ( #1331 ), #1298, .T. ) ;
#341 = VERTEX_POINT ( 'NONE', #1290 ) ;
#342 = AXIS2_PLACEMENT_3D ( 'NONE', #202, #419, #1180 ) ;
#343 = DIRECTION ( 'NONE',  ( -1.000000000000000000, -0.0000000000000000000, -0.0000000000000000000 ) ) ;
#344 = FILL_AREA_STYLE ('',( #997 ) ) ;
#345 = VERTEX_POINT ( 'NONE', #424 ) ;
#346 = AXIS2_PLACEMENT_3D ( 'NONE', #393, #609, #950 ) ;
#347 = LINE ( 'NONE', #829, #1232 ) ;
#348 = EDGE_LOOP ( 'NONE', ( #1146, #1127, #1362, #171 ) ) ;
#349 = LINE ( 'NONE', #721, #39 ) ;
#350 = EDGE_CURVE ( 'NONE', #11, #683, #1046, .T. ) ;
#351 = ORIENTED_EDGE ( 'NONE', *, *, #1342, .F. ) ;
#352 = LINE ( 'NONE', #996, #54 ) ;
#353 = ORIENTED_EDGE ( 'NONE', *, *, #538, .T. ) ;
#354 = ADVANCED_FACE ( 'NONE', ( #908 ), #975, .F. ) ;
#355 = VECTOR ( 'NONE', #166, 1000.000000000000000 ) ;
#356 = ORIENTED_EDGE ( 'NONE', *, *, #538, .F. ) ;
#357 = ORIENTED_EDGE ( 'NONE', *, *, #1, .F. ) ;
#358 = ADVANCED_FACE ( 'NONE', ( #435 ), #637, .F. ) ;
#359 = FACE_OUTER_BOUND ( 'NONE', #912, .T. ) ;
#360 = EDGE_LOOP ( 'NONE', ( #615, #422, #433, #1089 ) ) ;
#361 = LINE ( 'NONE', #33, #552 ) ;
#362 = DIRECTION ( 'NONE',  ( 2.891205793294678300E-016, -1.000000000000000000, -0.0000000000000000000 ) ) ;
#363 = ADVANCED_FACE ( 'NONE', ( #146 ), #313, .F. ) ;
#364 = EDGE_CURVE ( 'NONE', #370, #555, #1384, .T. ) ;
#365 = EDGE_CURVE ( 'NONE', #232, #341, #24, .T. ) ;
#366 = CARTESIAN_POINT ( 'NONE',  ( -0.7749999999999999100, 2.969768487932331500E-016, 0.4000000000000000200 ) ) ;
#367 = ORIENTED_EDGE ( 'NONE', *, *, #154, .T. ) ;
#368 =( NAMED_UNIT ( * ) PLANE_ANGLE_UNIT ( ) SI_UNIT ( $, .RADIAN. ) );
#369 = LINE ( 'NONE', #889, #338 ) ;
#370 = VERTEX_POINT ( 'NONE', #1073 ) ;
#371 = CARTESIAN_POINT ( 'NONE',  ( -0.4249999999999998800, 3.523274830560277800E-016, 0.4000000000000000200 ) ) ;
#372 = STYLED_ITEM ( 'NONE', ( #32 ), #474 ) ;
#373 = ORIENTED_EDGE ( 'NONE', *, *, #1370, .F. ) ;
#374 = DIRECTION ( 'NONE',  ( -0.0000000000000000000, 0.0000000000000000000, -1.000000000000000000 ) ) ;
#375 = ADVANCED_BREP_SHAPE_REPRESENTATION ( 'TS4148C RCG', ( #474, #780, #1029, #736, #573, #896 ), #968 ) ;
#376 = CARTESIAN_POINT ( 'NONE',  ( -0.4249999999999999900, 0.7500000000000007800, 0.0000000000000000000 ) ) ;
#377 = EDGE_LOOP ( 'NONE', ( #536, #448, #620, #323 ) ) ;
#378 = ORIENTED_EDGE ( 'NONE', *, *, #1, .T. ) ;
#379 = PLANE ( 'NONE',  #224 ) ;
#380 =( NAMED_UNIT ( * ) PLANE_ANGLE_UNIT ( ) SI_UNIT ( $, .RADIAN. ) );
#381 = VECTOR ( 'NONE', #858, 1000.000000000000000 ) ;
#382 = DIRECTION ( 'NONE',  ( -1.000000000000000000, 0.0000000000000000000, 0.0000000000000000000 ) ) ;
#383 = VECTOR ( 'NONE', #1014, 1000.000000000000000 ) ;
#384 = CARTESIAN_POINT ( 'NONE',  ( 0.7750000000000002400, 5.421010862427522200E-016, 0.4000000000000000200 ) ) ;
#385 = VERTEX_POINT ( 'NONE', #193 ) ;
#386 = LINE ( 'NONE', #528, #1211 ) ;
#387 = ORIENTED_EDGE ( 'NONE', *, *, #112, .F. ) ;
#388 = ADVANCED_FACE ( 'NONE', ( #853 ), #1193, .F. ) ;
#389 = DIRECTION ( 'NONE',  ( 6.793246694771331700E-017, 0.0000000000000000000, 1.000000000000000000 ) ) ;
#390 = CARTESIAN_POINT ( 'NONE',  ( -0.7249999999999998700, 0.05000000000000002400, 0.0000000000000000000 ) ) ;
#391 = DIRECTION ( 'NONE',  ( 0.0000000000000000000, 0.0000000000000000000, 1.000000000000000000 ) ) ;
#392 = EDGE_LOOP ( 'NONE', ( #356, #1329, #1310, #1354 ) ) ;
#393 = CARTESIAN_POINT ( 'NONE',  ( -0.7249999999999998700, 0.7000000000000007300, 0.0000000000000000000 ) ) ;
#394 = EDGE_CURVE ( 'NONE', #11, #1065, #334, .T. ) ;
#395 = DIRECTION ( 'NONE',  ( -1.358649338954266300E-016, -0.0000000000000000000, -1.000000000000000000 ) ) ;
#396 = EDGE_CURVE ( 'NONE', #1081, #1246, #298, .T. ) ;
#397 = DIRECTION ( 'NONE',  ( 1.000000000000000000, -0.0000000000000000000, 0.0000000000000000000 ) ) ;
#398 = LINE ( 'NONE', #716, #121 ) ;
#399 = FILL_AREA_STYLE ('',( #1272 ) ) ;
#400 = CARTESIAN_POINT ( 'NONE',  ( 0.0000000000000000000, 0.0000000000000000000, -0.4000000000000000200 ) ) ;
#401 = EDGE_LOOP ( 'NONE', ( #909, #4, #565, #585 ) ) ;
#402 = LINE ( 'NONE', #603, #981 ) ;
#403 = LINE ( 'NONE', #867, #1289 ) ;
#404 = CARTESIAN_POINT ( 'NONE',  ( 0.0000000000000000000, 0.0000000000000000000, -0.4000000000000000200 ) ) ;
#405 = DIRECTION ( 'NONE',  ( -1.084202172485504000E-015, 1.000000000000000000, 0.0000000000000000000 ) ) ;
#406 = CARTESIAN_POINT ( 'NONE',  ( 0.7750000000000002400, 5.421010862427522200E-016, 0.4000000000000000200 ) ) ;
#407 = EDGE_LOOP ( 'NONE', ( #626, #1223, #698, #1110 ) ) ;
#408 = CARTESIAN_POINT ( 'NONE',  ( 1.626303258728256800E-018, 0.7400000000000003200, 0.0000000000000000000 ) ) ;
#409 = CARTESIAN_POINT ( 'NONE',  ( -0.7249999999999998700, 0.0000000000000000000, -0.4000000000000000200 ) ) ;
#410 = ORIENTED_EDGE ( 'NONE', *, *, #1025, .T. ) ;
#411 = CARTESIAN_POINT ( 'NONE',  ( -0.2749999999999999700, 0.7500000000000003300, -0.3990000000000000200 ) ) ;
#412 = ORIENTED_EDGE ( 'NONE', *, *, #112, .T. ) ;
#413 = ORIENTED_EDGE ( 'NONE', *, *, #1328, .F. ) ;
#414 = ORIENTED_EDGE ( 'NONE', *, *, #43, .F. ) ;
#415 = CARTESIAN_POINT ( 'NONE',  ( 0.7249999999999998700, 0.05000000000000002400, 0.4000000000000000200 ) ) ;
#416 = CARTESIAN_POINT ( 'NONE',  ( 0.4249999999999999300, 0.7000000000000007300, 0.0000000000000000000 ) ) ;
#417 = EDGE_CURVE ( 'NONE', #1116, #62, #260, .T. ) ;
#418 = VECTOR ( 'NONE', #389, 1000.000000000000000 ) ;
#419 = DIRECTION ( 'NONE',  ( -1.000000000000000000, 0.0000000000000000000, 0.0000000000000000000 ) ) ;
#420 = CARTESIAN_POINT ( 'NONE',  ( 0.4249999999999996000, 0.7500000000000003300, 0.4000000000000000200 ) ) ;
#421 = FACE_OUTER_BOUND ( 'NONE', #3, .T. ) ;
#422 = ORIENTED_EDGE ( 'NONE', *, *, #701, .F. ) ;
#423 = ORIENTED_EDGE ( 'NONE', *, *, #969, .F. ) ;
#424 = CARTESIAN_POINT ( 'NONE',  ( 0.7249999999999998700, 0.7000000000000007300, -0.4000000000000000200 ) ) ;
#425 = CARTESIAN_POINT ( 'NONE',  ( -0.07500000000000006700, 0.7500000000000003300, -0.3990000000000000200 ) ) ;
#426 = VECTOR ( 'NONE', #741, 1000.000000000000000 ) ;
#427 = CARTESIAN_POINT ( 'NONE',  ( -0.07500000000000006700, 0.7500000000000003300, -0.3990000000000000200 ) ) ;
#428 = EDGE_CURVE ( 'NONE', #385, #341, #50, .T. ) ;
#429 = DIRECTION ( 'NONE',  ( -2.891205793294678300E-016, 1.000000000000000000, 0.0000000000000000000 ) ) ;
#430 = CARTESIAN_POINT ( 'NONE',  ( 0.0000000000000000000, 0.7000000000000007300, -0.4000000000000000200 ) ) ;
#431 = CARTESIAN_POINT ( 'NONE',  ( 0.7249999999999998700, 0.05000000000000002400, 0.0000000000000000000 ) ) ;
#432 = EDGE_LOOP ( 'NONE', ( #165, #935, #1006, #142 ) ) ;
#433 = ORIENTED_EDGE ( 'NONE', *, *, #464, .F. ) ;
#434 = DIRECTION ( 'NONE',  ( 0.0000000000000000000, -1.000000000000000000, 0.0000000000000000000 ) ) ;
#435 = FACE_OUTER_BOUND ( 'NONE', #456, .T. ) ;
#436 = ORIENTED_EDGE ( 'NONE', *, *, #812, .F. ) ;
#437 = VECTOR ( 'NONE', #1214, 1000.000000000000000 ) ;
#438 = LINE ( 'NONE', #1205, #149 ) ;
#439 = CARTESIAN_POINT ( 'NONE',  ( 0.7249999999999998700, 0.5375000000000005300, 0.4000000000000000200 ) ) ;
#440 = ORIENTED_EDGE ( 'NONE', *, *, #20, .F. ) ;
#441 = LINE ( 'NONE', #430, #568 ) ;
#442 = EDGE_CURVE ( 'NONE', #1268, #1385, #890, .T. ) ;
#443 = CARTESIAN_POINT ( 'NONE',  ( -0.7750000000000001300, 0.7500000000000003300, 0.4000000000000000200 ) ) ;
#444 = EDGE_CURVE ( 'NONE', #625, #1268, #1028, .T. ) ;
#445 = ORIENTED_EDGE ( 'NONE', *, *, #1151, .T. ) ;
#446 = AXIS2_PLACEMENT_3D ( 'NONE', #328, #884, #1311 ) ;
#447 = DIRECTION ( 'NONE',  ( -1.000000000000000000, -1.626303258728256900E-016, 6.793246694771331700E-017 ) ) ;
#448 = ORIENTED_EDGE ( 'NONE', *, *, #93, .F. ) ;
#449 = ADVANCED_FACE ( 'NONE', ( #478 ), #630, .F. ) ;
#450 = CARTESIAN_POINT ( 'NONE',  ( -0.2749999999999999100, 0.7400000000000003200, 0.3990000000000000200 ) ) ;
#451 = DIRECTION ( 'NONE',  ( 1.000000000000000000, 0.0000000000000000000, -0.0000000000000000000 ) ) ;
#452 = VECTOR ( 'NONE', #934, 1000.000000000000000 ) ;
#453 = CARTESIAN_POINT ( 'NONE',  ( 0.4249999999999999300, 0.7000000000000007300, 0.0000000000000000000 ) ) ;
#454 = VECTOR ( 'NONE', #186, 1000.000000000000000 ) ;
#455 = ADVANCED_FACE ( 'NONE', ( #1154 ), #211, .F. ) ;
#456 = EDGE_LOOP ( 'NONE', ( #1241, #414, #436, #55 ) ) ;
#457 = LINE ( 'NONE', #83, #1295 ) ;
#458 = LINE ( 'NONE', #1176, #13 ) ;
#459 = ADVANCED_FACE ( 'NONE', ( #681 ), #753, .F. ) ;
#460 = ORIENTED_EDGE ( 'NONE', *, *, #758, .T. ) ;
#461 = VERTEX_POINT ( 'NONE', #872 ) ;
#462 = LINE ( 'NONE', #64, #418 ) ;
#463 = ADVANCED_FACE ( 'NONE', ( #1021 ), #529, .F. ) ;
#464 = EDGE_CURVE ( 'NONE', #987, #1036, #787, .T. ) ;
#465 = EDGE_LOOP ( 'NONE', ( #515, #58, #373, #46 ) ) ;
#466 = VECTOR ( 'NONE', #203, 1000.000000000000000 ) ;
#467 = EDGE_CURVE ( 'NONE', #232, #1116, #732, .T. ) ;
#468 = DIRECTION ( 'NONE',  ( -1.000000000000000000, -0.0000000000000000000, -0.0000000000000000000 ) ) ;
#469 = VECTOR ( 'NONE', #395, 1000.000000000000000 ) ;
#470 = MECHANICAL_DESIGN_GEOMETRIC_PRESENTATION_REPRESENTATION (  '', ( #250 ), #1027 ) ;
#471 = FILL_AREA_STYLE ('',( #60 ) ) ;
#472 = DIRECTION ( 'NONE',  ( 0.0000000000000000000, 0.0000000000000000000, 1.000000000000000000 ) ) ;
#473 = VERTEX_POINT ( 'NONE', #411 ) ;
#474 = MANIFOLD_SOLID_BREP ( 'Split1[2]', #30 ) ;
#475 = DIRECTION ( 'NONE',  ( -6.793246694771331700E-017, 0.0000000000000000000, -1.000000000000000000 ) ) ;
#476 = ADVANCED_FACE ( 'NONE', ( #863 ), #138, .T. ) ;
#477 = APPLICATION_CONTEXT ( 'automotive_design' ) ;
#478 = FACE_OUTER_BOUND ( 'NONE', #1339, .T. ) ;
#479 = CARTESIAN_POINT ( 'NONE',  ( 0.0000000000000000000, 0.5375000000000005300, 0.4000000000000000200 ) ) ;
#480 = DIRECTION ( 'NONE',  ( 0.0000000000000000000, -1.000000000000000000, 0.0000000000000000000 ) ) ;
#481 = ORIENTED_EDGE ( 'NONE', *, *, #767, .F. ) ;
#482 = VERTEX_POINT ( 'NONE', #545 ) ;
#483 = DIRECTION ( 'NONE',  ( -1.626303258728256900E-016, 1.000000000000000000, -0.0000000000000000000 ) ) ;
#484 = ORIENTED_EDGE ( 'NONE', *, *, #986, .T. ) ;
#485 = AXIS2_PLACEMENT_3D ( 'NONE', #1271, #317, #638 ) ;
#486 = EDGE_CURVE ( 'NONE', #738, #266, #803, .T. ) ;
#487 = ORIENTED_EDGE ( 'NONE', *, *, #1201, .T. ) ;
#488 = CARTESIAN_POINT ( 'NONE',  ( -0.7750000000000001300, 0.7500000000000003300, 0.4000000000000000200 ) ) ;
#489 = LINE ( 'NONE', #158, #452 ) ;
#490 = ORIENTED_EDGE ( 'NONE', *, *, #648, .T. ) ;
#491 = DIRECTION ( 'NONE',  ( -1.084202172485504000E-015, -1.000000000000000000, 0.0000000000000000000 ) ) ;
#492 = LINE ( 'NONE', #453, #262 ) ;
#493 = CARTESIAN_POINT ( 'NONE',  ( -0.7249999999999998700, 0.7000000000000007300, 0.0000000000000000000 ) ) ;
#494 = DIRECTION ( 'NONE',  ( 1.084202172485504000E-015, -1.000000000000000000, 0.0000000000000000000 ) ) ;
#495 = LINE ( 'NONE', #105, #28 ) ;
#496 = VECTOR ( 'NONE', #1162, 1000.000000000000000 ) ;
#497 = EDGE_LOOP ( 'NONE', ( #315, #96, #1381, #257 ) ) ;
#498 = FACE_OUTER_BOUND ( 'NONE', #1012, .T. ) ;
#499 = DIRECTION ( 'NONE',  ( 0.0000000000000000000, 1.000000000000000000, 0.0000000000000000000 ) ) ;
#500 = CARTESIAN_POINT ( 'NONE',  ( -0.7749999999999999100, 2.969768487932331500E-016, -0.4000000000000000200 ) ) ;
#501 = SURFACE_SIDE_STYLE ('',( #945 ) ) ;
#502 = DIRECTION ( 'NONE',  ( 0.0000000000000000000, 0.0000000000000000000, -1.000000000000000000 ) ) ;
#503 = VERTEX_POINT ( 'NONE', #1047 ) ;
#504 = CARTESIAN_POINT ( 'NONE',  ( 0.4249999999999991600, -4.607859233063383000E-016, 0.4000000000000000200 ) ) ;
#505 = DIRECTION ( 'NONE',  ( 0.0000000000000000000, -0.0000000000000000000, -1.000000000000000000 ) ) ;
#506 = EDGE_LOOP ( 'NONE', ( #925, #331, #440, #525 ) ) ;
#507 = EDGE_CURVE ( 'NONE', #82, #810, #114, .T. ) ;
#508 = DIRECTION ( 'NONE',  ( -1.000000000000000000, 0.0000000000000000000, -0.0000000000000000000 ) ) ;
#509 = EDGE_CURVE ( 'NONE', #562, #209, #710, .T. ) ;
#510 = CARTESIAN_POINT ( 'NONE',  ( 0.7249999999999998700, 0.05000000000000002400, -0.4000000000000000200 ) ) ;
#511 = VECTOR ( 'NONE', #1172, 1000.000000000000000 ) ;
#512 = AXIS2_PLACEMENT_3D ( 'NONE', #400, #502, #1363 ) ;
#513 = PLANE ( 'NONE',  #61 ) ;
#514 = DIRECTION ( 'NONE',  ( -1.000000000000000000, 0.0000000000000000000, 0.0000000000000000000 ) ) ;
#515 = ORIENTED_EDGE ( 'NONE', *, *, #823, .F. ) ;
#516 = LINE ( 'NONE', #175, #705 ) ;
#517 = CARTESIAN_POINT ( 'NONE',  ( 0.0000000000000000000, 0.0000000000000000000, -0.4000000000000000200 ) ) ;
#518 = ORIENTED_EDGE ( 'NONE', *, *, #1103, .F. ) ;
#519 = DIRECTION ( 'NONE',  ( -1.084202172485504000E-015, -1.000000000000000000, 0.0000000000000000000 ) ) ;
#520 = VECTOR ( 'NONE', #646, 1000.000000000000000 ) ;
#521 = ORIENTED_EDGE ( 'NONE', *, *, #396, .F. ) ;
#522 = UNCERTAINTY_MEASURE_WITH_UNIT (LENGTH_MEASURE( 1.000000000000000100E-005 ), #109, 'distance_accuracy_value', 'NONE');
#523 = PLANE ( 'NONE',  #613 ) ;
#524 = DIRECTION ( 'NONE',  ( -1.000000000000000000, 0.0000000000000000000, 0.0000000000000000000 ) ) ;
#525 = ORIENTED_EDGE ( 'NONE', *, *, #1169, .F. ) ;
#526 = CARTESIAN_POINT ( 'NONE',  ( -0.7750000000000001300, 0.7500000000000003300, 0.4000000000000000200 ) ) ;
#527 = CARTESIAN_POINT ( 'NONE',  ( -0.7249999999999998700, 0.05000000000000002400, 0.4000000000000000200 ) ) ;
#528 = CARTESIAN_POINT ( 'NONE',  ( -0.2749999999999999700, 0.7500000000000003300, -0.3990000000000000200 ) ) ;
#529 = PLANE ( 'NONE',  #301 ) ;
#530 = FACE_OUTER_BOUND ( 'NONE', #1237, .T. ) ;
#531 = ORIENTED_EDGE ( 'NONE', *, *, #1056, .F. ) ;
#532 = PLANE ( 'NONE',  #1013 ) ;
#533 = VECTOR ( 'NONE', #622, 1000.000000000000000 ) ;
#534 = DIRECTION ( 'NONE',  ( -1.581446693222703800E-016, 1.000000000000000000, 0.0000000000000000000 ) ) ;
#535 = LINE ( 'NONE', #570, #1391 ) ;
#536 = ORIENTED_EDGE ( 'NONE', *, *, #905, .T. ) ;
#537 = FACE_OUTER_BOUND ( 'NONE', #891, .T. ) ;
#538 = EDGE_CURVE ( 'NONE', #53, #1246, #76, .T. ) ;
#539 = VECTOR ( 'NONE', #653, 1000.000000000000000 ) ;
#540 = CARTESIAN_POINT ( 'NONE',  ( -0.07499999999999995600, 0.7400000000000003200, 0.3990000000000000200 ) ) ;
#541 = AXIS2_PLACEMENT_3D ( 'NONE', #1159, #188, #505 ) ;
#542 = EDGE_CURVE ( 'NONE', #1350, #810, #1377, .T. ) ;
#543 =( GEOMETRIC_REPRESENTATION_CONTEXT ( 3 ) GLOBAL_UNCERTAINTY_ASSIGNED_CONTEXT ( ( #902 ) ) GLOBAL_UNIT_ASSIGNED_CONTEXT ( ( #665, #547, #1209 ) ) REPRESENTATION_CONTEXT ( 'NONE', 'WORKASPACE' ) );
#544 = CARTESIAN_POINT ( 'NONE',  ( 0.7249999999999998700, 0.05000000000000002400, 0.0000000000000000000 ) ) ;
#545 = CARTESIAN_POINT ( 'NONE',  ( -0.07499999999999995600, 0.7500000000000003300, 0.3990000000000000200 ) ) ;
#546 = ORIENTED_EDGE ( 'NONE', *, *, #893, .T. ) ;
#547 =( NAMED_UNIT ( * ) PLANE_ANGLE_UNIT ( ) SI_UNIT ( $, .RADIAN. ) );
#548 = DIRECTION ( 'NONE',  ( 0.0000000000000000000, 1.000000000000000000, 0.0000000000000000000 ) ) ;
#549 = VECTOR ( 'NONE', #1177, 1000.000000000000000 ) ;
#550 = ORIENTED_EDGE ( 'NONE', *, *, #1305, .F. ) ;
#551 = PLANE ( 'NONE',  #946 ) ;
#552 = VECTOR ( 'NONE', #29, 1000.000000000000000 ) ;
#553 = ADVANCED_FACE ( 'NONE', ( #769 ), #513, .T. ) ;
#554 = VECTOR ( 'NONE', #14, 1000.000000000000000 ) ;
#555 = VERTEX_POINT ( 'NONE', #1063 ) ;
#556 = ORIENTED_EDGE ( 'NONE', *, *, #1253, .T. ) ;
#557 = DIRECTION ( 'NONE',  ( -1.626303258728256900E-016, 1.000000000000000000, 0.0000000000000000000 ) ) ;
#558 = EDGE_CURVE ( 'NONE', #562, #385, #822, .T. ) ;
#559 = DIRECTION ( 'NONE',  ( 0.0000000000000000000, 1.000000000000000000, 0.0000000000000000000 ) ) ;
#560 = ADVANCED_FACE ( 'NONE', ( #498 ), #844, .F. ) ;
#561 = STYLED_ITEM ( 'NONE', ( #41 ), #780 ) ;
#562 = VERTEX_POINT ( 'NONE', #618 ) ;
#563 = EDGE_CURVE ( 'NONE', #11, #345, #1395, .T. ) ;
#564 = ORIENTED_EDGE ( 'NONE', *, *, #18, .T. ) ;
#565 = ORIENTED_EDGE ( 'NONE', *, *, #846, .T. ) ;
#566 = LINE ( 'NONE', #1053, #215 ) ;
#567 = ORIENTED_EDGE ( 'NONE', *, *, #1025, .F. ) ;
#568 = VECTOR ( 'NONE', #16, 1000.000000000000000 ) ;
#569 = ADVANCED_FACE ( 'NONE', ( #267 ), #854, .F. ) ;
#570 = CARTESIAN_POINT ( 'NONE',  ( 0.7750000000000002400, 5.421010862427522200E-016, -0.4000000000000000200 ) ) ;
#571 = ORIENTED_EDGE ( 'NONE', *, *, #823, .T. ) ;
#572 = CLOSED_SHELL ( 'NONE', ( #1320, #251, #144, #1345, #1225, #463, #242, #455, #459, #363 ) ) ;
#573 = MANIFOLD_SOLID_BREP ( 'Boss-Extrude2', #1140 ) ;
#574 = CARTESIAN_POINT ( 'NONE',  ( -0.4249999999999999900, 0.7500000000000003300, 0.4000000000000000200 ) ) ;
#575 = VECTOR ( 'NONE', #324, 1000.000000000000000 ) ;
#576 = EDGE_CURVE ( 'NONE', #82, #605, #651, .T. ) ;
#577 = ORIENTED_EDGE ( 'NONE', *, *, #486, .T. ) ;
#578 = AXIS2_PLACEMENT_3D ( 'NONE', #85, #960, #848 ) ;
#579 = LINE ( 'NONE', #982, #1090 ) ;
#580 = EDGE_CURVE ( 'NONE', #1246, #695, #183, .T. ) ;
#581 = CARTESIAN_POINT ( 'NONE',  ( -0.7249999999999998700, 0.5375000000000005300, 0.4000000000000000200 ) ) ;
#582 = FACE_OUTER_BOUND ( 'NONE', #111, .T. ) ;
#583 = DIRECTION ( 'NONE',  ( 0.0000000000000000000, 0.0000000000000000000, -1.000000000000000000 ) ) ;
#584 = AXIS2_PLACEMENT_3D ( 'NONE', #694, #1247, #1136 ) ;
#585 = ORIENTED_EDGE ( 'NONE', *, *, #969, .T. ) ;
#586 = COLOUR_RGB ( '',0.2509803921568627400, 0.2509803921568627400, 0.2509803921568627400 ) ;
#587 = ORIENTED_EDGE ( 'NONE', *, *, #1253, .F. ) ;
#588 = VECTOR ( 'NONE', #494, 1000.000000000000000 ) ;
#589 = CARTESIAN_POINT ( 'NONE',  ( -0.4249999999999998800, 0.05000000000000002400, -0.4000000000000000200 ) ) ;
#590 = DIRECTION ( 'NONE',  ( -1.000000000000000000, 0.0000000000000000000, 0.0000000000000000000 ) ) ;
#591 = PLANE ( 'NONE',  #866 ) ;
#592 = ORIENTED_EDGE ( 'NONE', *, *, #905, .F. ) ;
#593 = ORIENTED_EDGE ( 'NONE', *, *, #542, .T. ) ;
#594 = DIRECTION ( 'NONE',  ( 0.0000000000000000000, 0.0000000000000000000, 1.000000000000000000 ) ) ;
#595 = CARTESIAN_POINT ( 'NONE',  ( -0.4250000000000000400, 0.7500000000000003300, 0.4000000000000000200 ) ) ;
#596 = CARTESIAN_POINT ( 'NONE',  ( 0.4249999999999996000, 0.7500000000000003300, -0.4000000000000000200 ) ) ;
#597 = FACE_OUTER_BOUND ( 'NONE', #1293, .T. ) ;
#598 = DIRECTION ( 'NONE',  ( -1.000000000000000000, 0.0000000000000000000, -0.0000000000000000000 ) ) ;
#599 = ORIENTED_EDGE ( 'NONE', *, *, #614, .F. ) ;
#600 = LINE ( 'NONE', #488, #279 ) ;
#601 = ORIENTED_EDGE ( 'NONE', *, *, #1305, .T. ) ;
#602 = EDGE_CURVE ( 'NONE', #555, #314, #458, .T. ) ;
#603 = CARTESIAN_POINT ( 'NONE',  ( -0.7249999999999998700, 0.05000000000000002400, 0.0000000000000000000 ) ) ;
#604 = SURFACE_STYLE_FILL_AREA ( #904 ) ;
#605 = VERTEX_POINT ( 'NONE', #966 ) ;
#606 = DIRECTION ( 'NONE',  ( 0.0000000000000000000, 0.0000000000000000000, -1.000000000000000000 ) ) ;
#607 = CARTESIAN_POINT ( 'NONE',  ( 0.0000000000000000000, 0.7000000000000007300, -0.4000000000000000200 ) ) ;
#608 = PLANE ( 'NONE',  #485 ) ;
#609 = DIRECTION ( 'NONE',  ( 1.000000000000000000, 0.0000000000000000000, -0.0000000000000000000 ) ) ;
#610 = EDGE_CURVE ( 'NONE', #788, #136, #1191, .T. ) ;
#611 = CARTESIAN_POINT ( 'NONE',  ( 0.4249999999999991600, -4.607859233063383000E-016, -0.4000000000000000200 ) ) ;
#612 = ORIENTED_EDGE ( 'NONE', *, *, #509, .F. ) ;
#613 = AXIS2_PLACEMENT_3D ( 'NONE', #633, #976, #1285 ) ;
#614 = EDGE_CURVE ( 'NONE', #683, #156, #113, .T. ) ;
#615 = ORIENTED_EDGE ( 'NONE', *, *, #747, .T. ) ;
#616 = DIRECTION ( 'NONE',  ( 0.0000000000000000000, -0.0000000000000000000, -1.000000000000000000 ) ) ;
#617 = DIRECTION ( 'NONE',  ( 0.0000000000000000000, 0.0000000000000000000, 1.000000000000000000 ) ) ;
#618 = CARTESIAN_POINT ( 'NONE',  ( 0.4250000000000000400, 4.867504519799575400E-016, 0.4000000000000000200 ) ) ;
#619 = CARTESIAN_POINT ( 'NONE',  ( -0.7750000000000001300, 0.7500000000000003300, -0.4000000000000000200 ) ) ;
#620 = ORIENTED_EDGE ( 'NONE', *, *, #329, .F. ) ;
#621 = CARTESIAN_POINT ( 'NONE',  ( -0.2749999999999999700, 0.7500000000000003300, -0.3990000000000000200 ) ) ;
#622 = DIRECTION ( 'NONE',  ( 0.0000000000000000000, 1.000000000000000000, 0.0000000000000000000 ) ) ;
#623 = CARTESIAN_POINT ( 'NONE',  ( 0.7749999999999999100, 0.7500000000000003300, 0.4000000000000000200 ) ) ;
#624 = LINE ( 'NONE', #371, #1003 ) ;
#625 = VERTEX_POINT ( 'NONE', #882 ) ;
#626 = ORIENTED_EDGE ( 'NONE', *, *, #790, .F. ) ;
#627 = LINE ( 'NONE', #759, #1035 ) ;
#628 = PLANE ( 'NONE',  #634 ) ;
#629 = CARTESIAN_POINT ( 'NONE',  ( 0.7750000000000002400, 5.421010862427522200E-016, 0.4000000000000000200 ) ) ;
#630 = PLANE ( 'NONE',  #1108 ) ;
#631 = ORIENTED_EDGE ( 'NONE', *, *, #442, .T. ) ;
#632 = CARTESIAN_POINT ( 'NONE',  ( -0.2749999999999998600, -0.08268098312772465000, -0.3990000000000000200 ) ) ;
#633 = CARTESIAN_POINT ( 'NONE',  ( 0.4249999999999999900, 0.05000000000000018300, 0.0000000000000000000 ) ) ;
#634 = AXIS2_PLACEMENT_3D ( 'NONE', #517, #1263, #1378 ) ;
#635 = CARTESIAN_POINT ( 'NONE',  ( 0.0000000000000000000, 0.0000000000000000000, 0.4000000000000000200 ) ) ;
#636 = CLOSED_SHELL ( 'NONE', ( #807, #682, #560, #952, #1039, #388, #134, #940, #915, #44, #793, #675, #358, #1133, #228 ) ) ;
#637 = PLANE ( 'NONE',  #327 ) ;
#638 = DIRECTION ( 'NONE',  ( -1.000000000000000000, -1.581446693222703800E-016, 0.0000000000000000000 ) ) ;
#639 = AXIS2_PLACEMENT_3D ( 'NONE', #1000, #559, #773 ) ;
#640 = DIRECTION ( 'NONE',  ( 0.0000000000000000000, 0.0000000000000000000, -1.000000000000000000 ) ) ;
#641 = LINE ( 'NONE', #263, #1288 ) ;
#642 = ORIENTED_EDGE ( 'NONE', *, *, #15, .F. ) ;
#643 = CARTESIAN_POINT ( 'NONE',  ( -0.4249999999999999300, 0.7000000000000007300, -0.4000000000000000200 ) ) ;
#644 = FACE_OUTER_BOUND ( 'NONE', #1153, .T. ) ;
#645 = CARTESIAN_POINT ( 'NONE',  ( -0.2749999999999999100, 0.7500000000000003300, 0.3990000000000000200 ) ) ;
#646 = DIRECTION ( 'NONE',  ( 0.0000000000000000000, 0.0000000000000000000, 1.000000000000000000 ) ) ;
#647 = EDGE_LOOP ( 'NONE', ( #953, #571, #990, #101 ) ) ;
#648 = EDGE_CURVE ( 'NONE', #1081, #140, #97, .T. ) ;
#649 = CARTESIAN_POINT ( 'NONE',  ( 0.0000000000000000000, 0.05000000000000002400, 0.4000000000000000200 ) ) ;
#650 = ORIENTED_EDGE ( 'NONE', *, *, #1342, .T. ) ;
#651 = LINE ( 'NONE', #288, #1297 ) ;
#652 = CARTESIAN_POINT ( 'NONE',  ( -0.4249999999999999900, 0.7500000000000003300, 0.4000000000000000200 ) ) ;
#653 = DIRECTION ( 'NONE',  ( -0.0000000000000000000, -0.0000000000000000000, -1.000000000000000000 ) ) ;
#654 = CARTESIAN_POINT ( 'NONE',  ( -0.7249999999999998700, 0.7000000000000007300, 0.0000000000000000000 ) ) ;
#655 = ORIENTED_EDGE ( 'NONE', *, *, #1370, .T. ) ;
#656 = ORIENTED_EDGE ( 'NONE', *, *, #580, .F. ) ;
#657 = SURFACE_STYLE_USAGE ( .BOTH. , #1292 ) ;
#658 =( LENGTH_UNIT ( ) NAMED_UNIT ( * ) SI_UNIT ( .MILLI., .METRE. ) );
#659 = VECTOR ( 'NONE', #817, 1000.000000000000000 ) ;
#660 = ORIENTED_EDGE ( 'NONE', *, *, #1044, .T. ) ;
#661 =( NAMED_UNIT ( * ) SI_UNIT ( $, .STERADIAN. ) SOLID_ANGLE_UNIT ( ) );
#662 = EDGE_CURVE ( 'NONE', #345, #911, #441, .T. ) ;
#663 = ORIENTED_EDGE ( 'NONE', *, *, #913, .T. ) ;
#664 = DIRECTION ( 'NONE',  ( 1.000000000000000000, 0.0000000000000000000, 0.0000000000000000000 ) ) ;
#665 =( LENGTH_UNIT ( ) NAMED_UNIT ( * ) SI_UNIT ( .MILLI., .METRE. ) );
#666 = EDGE_CURVE ( 'NONE', #1178, #482, #708, .T. ) ;
#667 = ADVANCED_FACE ( 'NONE', ( #819 ), #983, .F. ) ;
#668 = DIRECTION ( 'NONE',  ( -0.0000000000000000000, 0.0000000000000000000, -1.000000000000000000 ) ) ;
#669 = EDGE_LOOP ( 'NONE', ( #1150, #367, #90, #1318 ) ) ;
#670 = PRESENTATION_LAYER_ASSIGNMENT (  '', '', ( #561 ) ) ;
#671 = CARTESIAN_POINT ( 'NONE',  ( -0.7249999999999998700, 0.5375000000000005300, 0.4000000000000000200 ) ) ;
#672 = CARTESIAN_POINT ( 'NONE',  ( -0.7249999999999998700, 0.05000000000000002400, 0.0000000000000000000 ) ) ;
#673 = ORIENTED_EDGE ( 'NONE', *, *, #227, .T. ) ;
#674 = ORIENTED_EDGE ( 'NONE', *, *, #1009, .T. ) ;
#675 = ADVANCED_FACE ( 'NONE', ( #1152 ), #988, .F. ) ;
#676 = CARTESIAN_POINT ( 'NONE',  ( -0.7750000000000001300, 0.7500000000000003300, -0.4000000000000000200 ) ) ;
#677 = VECTOR ( 'NONE', #84, 1000.000000000000000 ) ;
#678 = LINE ( 'NONE', #504, #1387 ) ;
#679 = ORIENTED_EDGE ( 'NONE', *, *, #947, .F. ) ;
#680 = ORIENTED_EDGE ( 'NONE', *, *, #118, .T. ) ;
#681 = FACE_OUTER_BOUND ( 'NONE', #1332, .T. ) ;
#682 = ADVANCED_FACE ( 'NONE', ( #1238 ), #532, .F. ) ;
#683 = VERTEX_POINT ( 'NONE', #439 ) ;
#684 = ORIENTED_EDGE ( 'NONE', *, *, #747, .F. ) ;
#685 = EDGE_CURVE ( 'NONE', #140, #1065, #238, .T. ) ;
#686 = EDGE_CURVE ( 'NONE', #136, #1322, #1277, .T. ) ;
#687 = FACE_BOUND ( 'NONE', #348, .T. ) ;
#688 = VERTEX_POINT ( 'NONE', #420 ) ;
#689 = SHAPE_DEFINITION_REPRESENTATION ( #1327, #375 ) ;
#690 =( NAMED_UNIT ( * ) SI_UNIT ( $, .STERADIAN. ) SOLID_ANGLE_UNIT ( ) );
#691 = VECTOR ( 'NONE', #805, 1000.000000000000000 ) ;
#692 = ORIENTED_EDGE ( 'NONE', *, *, #1307, .T. ) ;
#693 = VECTOR ( 'NONE', #1093, 1000.000000000000000 ) ;
#694 = CARTESIAN_POINT ( 'NONE',  ( 0.0000000000000000000, 0.0000000000000000000, -0.4000000000000000200 ) ) ;
#695 = VERTEX_POINT ( 'NONE', #1306 ) ;
#696 =( LENGTH_UNIT ( ) NAMED_UNIT ( * ) SI_UNIT ( .MILLI., .METRE. ) );
#697 = ORIENTED_EDGE ( 'NONE', *, *, #1083, .T. ) ;
#698 = ORIENTED_EDGE ( 'NONE', *, *, #610, .T. ) ;
#699 = CARTESIAN_POINT ( 'NONE',  ( -0.7249999999999998700, 0.0000000000000000000, 0.4000000000000000200 ) ) ;
#700 = CARTESIAN_POINT ( 'NONE',  ( -0.4250000000000000400, 0.7500000000000003300, -0.4000000000000000200 ) ) ;
#701 = EDGE_CURVE ( 'NONE', #1036, #926, #899, .T. ) ;
#702 = VECTOR ( 'NONE', #483, 1000.000000000000000 ) ;
#703 = SURFACE_STYLE_FILL_AREA ( #269 ) ;
#704 = DIRECTION ( 'NONE',  ( 0.0000000000000000000, 1.000000000000000000, 0.0000000000000000000 ) ) ;
#705 = VECTOR ( 'NONE', #583, 1000.000000000000000 ) ;
#706 = MECHANICAL_DESIGN_GEOMETRIC_PRESENTATION_REPRESENTATION (  '', ( #561 ), #543 ) ;
#707 = VERTEX_POINT ( 'NONE', #1084 ) ;
#708 = LINE ( 'NONE', #540, #693 ) ;
#709 = VERTEX_POINT ( 'NONE', #427 ) ;
#710 = LINE ( 'NONE', #1375, #220 ) ;
#711 = CARTESIAN_POINT ( 'NONE',  ( 0.7749999999999999100, 0.7500000000000003300, -0.4000000000000000200 ) ) ;
#712 = CARTESIAN_POINT ( 'NONE',  ( 0.7249999999999998700, 0.7000000000000007300, 0.0000000000000000000 ) ) ;
#713 = AXIS2_PLACEMENT_3D ( 'NONE', #282, #1045, #1264 ) ;
#714 = EDGE_CURVE ( 'NONE', #707, #147, #927, .T. ) ;
#715 = ORIENTED_EDGE ( 'NONE', *, *, #897, .T. ) ;
#716 = CARTESIAN_POINT ( 'NONE',  ( -0.7749999999999999100, 2.969768487932331500E-016, -0.4000000000000000200 ) ) ;
#717 = CARTESIAN_POINT ( 'NONE',  ( 0.4249999999999996000, 0.7500000000000003300, -0.4000000000000000200 ) ) ;
#718 = ORIENTED_EDGE ( 'NONE', *, *, #918, .F. ) ;
#719 = ORIENTED_EDGE ( 'NONE', *, *, #666, .F. ) ;
#720 = DIRECTION ( 'NONE',  ( -1.000000000000000000, 0.0000000000000000000, 0.0000000000000000000 ) ) ;
#721 = CARTESIAN_POINT ( 'NONE',  ( -0.2749999999999999700, 0.7500000000000003300, -0.3990000000000000200 ) ) ;
#722 = VECTOR ( 'NONE', #750, 1000.000000000000000 ) ;
#723 = DIRECTION ( 'NONE',  ( 0.0000000000000000000, 1.000000000000000000, 0.0000000000000000000 ) ) ;
#724 = DIRECTION ( 'NONE',  ( 0.0000000000000000000, -0.0000000000000000000, 1.000000000000000000 ) ) ;
#725 = ORIENTED_EDGE ( 'NONE', *, *, #1169, .T. ) ;
#726 = LINE ( 'NONE', #999, #437 ) ;
#727 = VECTOR ( 'NONE', #249, 1000.000000000000000 ) ;
#728 = PLANE ( 'NONE',  #933 ) ;
#729 = DIRECTION ( 'NONE',  ( 0.0000000000000000000, -1.000000000000000000, 0.0000000000000000000 ) ) ;
#730 = CARTESIAN_POINT ( 'NONE',  ( -0.7749999999999999100, 2.969768487932331500E-016, 0.4000000000000000200 ) ) ;
#731 = ORIENTED_EDGE ( 'NONE', *, *, #580, .T. ) ;
#732 = LINE ( 'NONE', #119, #881 ) ;
#733 = DIRECTION ( 'NONE',  ( 1.000000000000000000, 1.581446693222703600E-016, 0.0000000000000000000 ) ) ;
#734 =( LENGTH_UNIT ( ) NAMED_UNIT ( * ) SI_UNIT ( .MILLI., .METRE. ) );
#735 = EDGE_CURVE ( 'NONE', #281, #325, #1256, .T. ) ;
#736 = MANIFOLD_SOLID_BREP ( 'Cut-Extrude1', #636 ) ;
#737 = EDGE_CURVE ( 'NONE', #473, #1382, #386, .T. ) ;
#738 = VERTEX_POINT ( 'NONE', #1097 ) ;
#739 = DIRECTION ( 'NONE',  ( 1.000000000000000000, 0.0000000000000000000, 0.0000000000000000000 ) ) ;
#740 = STYLED_ITEM ( 'NONE', ( #234 ), #1029 ) ;
#741 = DIRECTION ( 'NONE',  ( 0.0000000000000000000, 1.000000000000000000, 0.0000000000000000000 ) ) ;
#742 = DIRECTION ( 'NONE',  ( -1.000000000000000000, -1.581446693222703800E-016, 0.0000000000000000000 ) ) ;
#743 = LINE ( 'NONE', #366, #1366 ) ;
#744 = DIRECTION ( 'NONE',  ( 0.0000000000000000000, -1.000000000000000000, 0.0000000000000000000 ) ) ;
#745 = FILL_AREA_STYLE_COLOUR ( '', #923 ) ;
#746 = CARTESIAN_POINT ( 'NONE',  ( -0.7249999999999998700, 0.05000000000000002400, -0.4000000000000000200 ) ) ;
#747 = EDGE_CURVE ( 'NONE', #69, #926, #627, .T. ) ;
#748 = CARTESIAN_POINT ( 'NONE',  ( 0.7249999999999998700, 0.7000000000000007300, 0.0000000000000000000 ) ) ;
#749 = ORIENTED_EDGE ( 'NONE', *, *, #845, .T. ) ;
#750 = DIRECTION ( 'NONE',  ( 0.0000000000000000000, 0.0000000000000000000, 1.000000000000000000 ) ) ;
#751 = CARTESIAN_POINT ( 'NONE',  ( -0.7249999999999998700, 0.05000000000000002400, 0.0000000000000000000 ) ) ;
#752 = DIRECTION ( 'NONE',  ( -1.000000000000000000, -0.0000000000000000000, -0.0000000000000000000 ) ) ;
#753 = PLANE ( 'NONE',  #229 ) ;
#754 = PLANE ( 'NONE',  #226 ) ;
#755 = DIRECTION ( 'NONE',  ( 1.000000000000000000, 1.626303258728256900E-016, -1.358649338954266300E-016 ) ) ;
#756 = ORIENTED_EDGE ( 'NONE', *, *, #67, .T. ) ;
#757 = ORIENTED_EDGE ( 'NONE', *, *, #790, .T. ) ;
#758 = EDGE_CURVE ( 'NONE', #1350, #820, #369, .T. ) ;
#759 = CARTESIAN_POINT ( 'NONE',  ( -0.4249999999999991600, -4.607859233063383000E-016, 0.4000000000000000200 ) ) ;
#760 = LINE ( 'NONE', #187, #7 ) ;
#761 = ORIENTED_EDGE ( 'NONE', *, *, #792, .F. ) ;
#762 = FACE_OUTER_BOUND ( 'NONE', #208, .T. ) ;
#763 = EDGE_CURVE ( 'NONE', #38, #795, #1324, .T. ) ;
#764 = VECTOR ( 'NONE', #590, 1000.000000000000000 ) ;
#765 = CARTESIAN_POINT ( 'NONE',  ( -0.2749999999999999700, 0.7400000000000003200, -0.3990000000000000200 ) ) ;
#766 = AXIS2_PLACEMENT_3D ( 'NONE', #1018, #1240, #664 ) ;
#767 = EDGE_CURVE ( 'NONE', #69, #772, #352, .T. ) ;
#768 = LINE ( 'NONE', #1038, #469 ) ;
#769 = FACE_OUTER_BOUND ( 'NONE', #465, .T. ) ;
#770 = MECHANICAL_DESIGN_GEOMETRIC_PRESENTATION_REPRESENTATION (  '', ( #372 ), #1222 ) ;
#771 = CARTESIAN_POINT ( 'NONE',  ( 0.0000000000000000000, 0.7000000000000007300, -0.4000000000000000200 ) ) ;
#772 = VERTEX_POINT ( 'NONE', #443 ) ;
#773 = DIRECTION ( 'NONE',  ( 0.0000000000000000000, -0.0000000000000000000, 1.000000000000000000 ) ) ;
#774 = ORIENTED_EDGE ( 'NONE', *, *, #245, .F. ) ;
#775 = DIRECTION ( 'NONE',  ( 0.0000000000000000000, 1.000000000000000000, 0.0000000000000000000 ) ) ;
#776 = ADVANCED_FACE ( 'NONE', ( #861 ), #1212, .T. ) ;
#777 = VECTOR ( 'NONE', #362, 1000.000000000000000 ) ;
#778 = ORIENTED_EDGE ( 'NONE', *, *, #467, .F. ) ;
#779 = CARTESIAN_POINT ( 'NONE',  ( -0.07499999999999992800, -0.08268098312772465000, -0.3990000000000000200 ) ) ;
#780 = MANIFOLD_SOLID_BREP ( 'Split1[4]', #572 ) ;
#781 = AXIS2_PLACEMENT_3D ( 'NONE', #98, #744, #616 ) ;
#782 = ORIENTED_EDGE ( 'NONE', *, *, #1275, .T. ) ;
#783 = VECTOR ( 'NONE', #752, 1000.000000000000000 ) ;
#784 = ORIENTED_EDGE ( 'NONE', *, *, #662, .T. ) ;
#785 = DIRECTION ( 'NONE',  ( 1.084202172485504000E-015, -1.000000000000000000, 0.0000000000000000000 ) ) ;
#786 = DIRECTION ( 'NONE',  ( 1.084202172485504000E-015, -1.000000000000000000, 0.0000000000000000000 ) ) ;
#787 = LINE ( 'NONE', #1100, #1315 ) ;
#788 = VERTEX_POINT ( 'NONE', #230 ) ;
#789 = ORIENTED_EDGE ( 'NONE', *, *, #602, .F. ) ;
#790 = EDGE_CURVE ( 'NONE', #254, #1322, #1190, .T. ) ;
#791 =( GEOMETRIC_REPRESENTATION_CONTEXT ( 3 ) GLOBAL_UNCERTAINTY_ASSIGNED_CONTEXT ( ( #1138 ) ) GLOBAL_UNIT_ASSIGNED_CONTEXT ( ( #930, #368, #1143 ) ) REPRESENTATION_CONTEXT ( 'NONE', 'WORKASPACE' ) );
#792 = EDGE_CURVE ( 'NONE', #1228, #1196, #1314, .T. ) ;
#793 = ADVANCED_FACE ( 'NONE', ( #305 ), #906, .F. ) ;
#794 = LINE ( 'NONE', #1155, #1203 ) ;
#795 = VERTEX_POINT ( 'NONE', #1319 ) ;
#796 = LINE ( 'NONE', #493, #110 ) ;
#797 = FACE_OUTER_BOUND ( 'NONE', #1171, .T. ) ;
#798 = DIRECTION ( 'NONE',  ( 1.000000000000000000, 1.084202172485504000E-015, -0.0000000000000000000 ) ) ;
#799 = LINE ( 'NONE', #66, #1094 ) ;
#800 = VERTEX_POINT ( 'NONE', #671 ) ;
#801 = ADVANCED_FACE ( 'NONE', ( #182 ), #1099, .F. ) ;
#802 = EDGE_LOOP ( 'NONE', ( #856, #631, #1210, #1004 ) ) ;
#803 = LINE ( 'NONE', #450, #1113 ) ;
#804 = DIRECTION ( 'NONE',  ( 0.0000000000000000000, 0.0000000000000000000, 1.000000000000000000 ) ) ;
#805 = DIRECTION ( 'NONE',  ( 1.000000000000000000, -0.0000000000000000000, 0.0000000000000000000 ) ) ;
#806 = ORIENTED_EDGE ( 'NONE', *, *, #563, .F. ) ;
#807 = ADVANCED_FACE ( 'NONE', ( #537 ), #1042, .F. ) ;
#808 = CARTESIAN_POINT ( 'NONE',  ( 0.7249999999999998700, 0.5375000000000005300, -0.4000000000000000200 ) ) ;
#809 =( NAMED_UNIT ( * ) SI_UNIT ( $, .STERADIAN. ) SOLID_ANGLE_UNIT ( ) );
#810 = VERTEX_POINT ( 'NONE', #277 ) ;
#811 = DIRECTION ( 'NONE',  ( -5.782411586589358600E-016, 1.000000000000000000, 0.0000000000000000000 ) ) ;
#812 = EDGE_CURVE ( 'NONE', #1178, #707, #768, .T. ) ;
#813 = VECTOR ( 'NONE', #973, 1000.000000000000000 ) ;
#814 = EDGE_LOOP ( 'NONE', ( #1098, #1344, #1109, #49 ) ) ;
#815 = CARTESIAN_POINT ( 'NONE',  ( -0.7749999999999999100, 2.969768487932331500E-016, -0.4000000000000000200 ) ) ;
#816 = AXIS2_PLACEMENT_3D ( 'NONE', #672, #548, #21 ) ;
#817 = DIRECTION ( 'NONE',  ( 0.0000000000000000000, -1.000000000000000000, 0.0000000000000000000 ) ) ;
#818 = VERTEX_POINT ( 'NONE', #619 ) ;
#819 = FACE_OUTER_BOUND ( 'NONE', #240, .T. ) ;
#820 = VERTEX_POINT ( 'NONE', #936 ) ;
#821 = CARTESIAN_POINT ( 'NONE',  ( -0.7249999999999998700, 0.0000000000000000000, -0.4000000000000000200 ) ) ;
#822 = LINE ( 'NONE', #174, #1355 ) ;
#823 = EDGE_CURVE ( 'NONE', #1213, #370, #799, .T. ) ;
#824 = CARTESIAN_POINT ( 'NONE',  ( -0.07500000000000006700, 0.7500000000000003300, -0.3990000000000000200 ) ) ;
#825 = APPLICATION_PROTOCOL_DEFINITION ( 'draft international standard', 'automotive_design', 1998, #477 ) ;
#826 = DIRECTION ( 'NONE',  ( 1.000000000000000000, -0.0000000000000000000, 0.0000000000000000000 ) ) ;
#827 = CLOSED_SHELL ( 'NONE', ( #569, #354, #1326, #258, #667, #235, #1364, #476, #1336, #340 ) ) ;
#828 = ORIENTED_EDGE ( 'NONE', *, *, #118, .F. ) ;
#829 = CARTESIAN_POINT ( 'NONE',  ( 0.0000000000000000000, 0.5375000000000005300, 0.4000000000000000200 ) ) ;
#830 = CARTESIAN_POINT ( 'NONE',  ( -0.7749999999999999100, 2.969768487932331500E-016, 0.4000000000000000200 ) ) ;
#831 = CARTESIAN_POINT ( 'NONE',  ( -0.7749999999999999100, 2.969768487932331500E-016, -0.4000000000000000200 ) ) ;
#832 = ADVANCED_FACE ( 'NONE', ( #1054 ), #1257, .F. ) ;
#833 = PRODUCT_DEFINITION_CONTEXT ( 'detailed design', #1250, 'design' ) ;
#834 = FACE_OUTER_BOUND ( 'NONE', #40, .T. ) ;
#835 = ORIENTED_EDGE ( 'NONE', *, *, #967, .T. ) ;
#836 = CARTESIAN_POINT ( 'NONE',  ( 0.7249999999999998700, 0.7000000000000007300, 0.4000000000000000200 ) ) ;
#837 = LINE ( 'NONE', #104, #1017 ) ;
#838 = DIRECTION ( 'NONE',  ( -1.000000000000000000, 0.0000000000000000000, 0.0000000000000000000 ) ) ;
#839 = LINE ( 'NONE', #155, #727 ) ;
#840 = ORIENTED_EDGE ( 'NONE', *, *, #93, .T. ) ;
#841 = VECTOR ( 'NONE', #594, 1000.000000000000000 ) ;
#842 = VECTOR ( 'NONE', #1376, 1000.000000000000000 ) ;
#843 = PLANE ( 'NONE',  #42 ) ;
#844 = PLANE ( 'NONE',  #346 ) ;
#845 = EDGE_CURVE ( 'NONE', #555, #51, #1122, .T. ) ;
#846 = EDGE_CURVE ( 'NONE', #1255, #1385, #12, .T. ) ;
#847 = CARTESIAN_POINT ( 'NONE',  ( -0.7749999999999999100, 2.969768487932331500E-016, 0.4000000000000000200 ) ) ;
#848 = DIRECTION ( 'NONE',  ( 1.000000000000000000, 0.0000000000000000000, -0.0000000000000000000 ) ) ;
#849 =( NAMED_UNIT ( * ) SI_UNIT ( $, .STERADIAN. ) SOLID_ANGLE_UNIT ( ) );
#850 = DIRECTION ( 'NONE',  ( -0.0000000000000000000, -0.0000000000000000000, -1.000000000000000000 ) ) ;
#851 = UNCERTAINTY_MEASURE_WITH_UNIT (LENGTH_MEASURE( 1.000000000000000100E-005 ), #696, 'distance_accuracy_value', 'NONE');
#852 = CARTESIAN_POINT ( 'NONE',  ( -0.4250000000000000400, 0.7500000000000003300, -0.4000000000000000200 ) ) ;
#853 = FACE_OUTER_BOUND ( 'NONE', #814, .T. ) ;
#854 = PLANE ( 'NONE',  #921 ) ;
#855 = PRODUCT ( 'TS4148C RCG', 'TS4148C RCG', '', ( #150 ) ) ;
#856 = ORIENTED_EDGE ( 'NONE', *, *, #444, .T. ) ;
#857 = LINE ( 'NONE', #574, #1092 ) ;
#858 = DIRECTION ( 'NONE',  ( 1.000000000000000000, -0.0000000000000000000, 0.0000000000000000000 ) ) ;
#859 = CARTESIAN_POINT ( 'NONE',  ( 0.7249999999999998700, 0.0000000000000000000, -0.4000000000000000200 ) ) ;
#860 = ORIENTED_EDGE ( 'NONE', *, *, #1058, .T. ) ;
#861 = FACE_OUTER_BOUND ( 'NONE', #152, .T. ) ;
#862 = VERTEX_POINT ( 'NONE', #79 ) ;
#863 = FACE_OUTER_BOUND ( 'NONE', #126, .T. ) ;
#864 = PLANE ( 'NONE',  #1106 ) ;
#865 = CARTESIAN_POINT ( 'NONE',  ( -0.4249999999999999300, 0.7000000000000007300, 0.0000000000000000000 ) ) ;
#866 = AXIS2_PLACEMENT_3D ( 'NONE', #948, #1249, #1144 ) ;
#867 = CARTESIAN_POINT ( 'NONE',  ( -0.2749999999999999100, 0.7500000000000003300, 0.3990000000000000200 ) ) ;
#868 = ORIENTED_EDGE ( 'NONE', *, *, #1149, .T. ) ;
#869 = CARTESIAN_POINT ( 'NONE',  ( 0.0000000000000000000, 0.0000000000000000000, 0.0000000000000000000 ) ) ;
#870 = AXIS2_PLACEMENT_3D ( 'NONE', #712, #720, #169 ) ;
#871 = FILL_AREA_STYLE ('',( #1192 ) ) ;
#872 = CARTESIAN_POINT ( 'NONE',  ( -0.4249999999999998800, 3.523274830560277800E-016, -0.4000000000000000200 ) ) ;
#873 = LINE ( 'NONE', #160, #702 ) ;
#874 = EDGE_CURVE ( 'NONE', #8, #1322, #1123, .T. ) ;
#875 = ORIENTED_EDGE ( 'NONE', *, *, #350, .F. ) ;
#876 = LINE ( 'NONE', #955, #533 ) ;
#877 = EDGE_CURVE ( 'NONE', #147, #299, #457, .T. ) ;
#878 = CARTESIAN_POINT ( 'NONE',  ( 0.0000000000000000000, 0.5375000000000005300, -0.4000000000000000200 ) ) ;
#879 = ORIENTED_EDGE ( 'NONE', *, *, #1077, .F. ) ;
#880 = VECTOR ( 'NONE', #318, 1000.000000000000000 ) ;
#881 = VECTOR ( 'NONE', #236, 1000.000000000000000 ) ;
#882 = CARTESIAN_POINT ( 'NONE',  ( -0.7249999999999998700, 0.7000000000000007300, -0.4000000000000000200 ) ) ;
#883 = DIRECTION ( 'NONE',  ( -1.000000000000000000, 0.0000000000000000000, -0.0000000000000000000 ) ) ;
#884 = DIRECTION ( 'NONE',  ( 0.0000000000000000000, 0.0000000000000000000, -1.000000000000000000 ) ) ;
#885 =( NAMED_UNIT ( * ) SI_UNIT ( $, .STERADIAN. ) SOLID_ANGLE_UNIT ( ) );
#886 = ORIENTED_EDGE ( 'NONE', *, *, #1343, .T. ) ;
#887 = CARTESIAN_POINT ( 'NONE',  ( -0.7249999999999998700, 0.7000000000000007300, 0.0000000000000000000 ) ) ;
#888 = ORIENTED_EDGE ( 'NONE', *, *, #662, .F. ) ;
#889 = CARTESIAN_POINT ( 'NONE',  ( 0.7249999999999998700, 0.5375000000000005300, 0.0000000000000000000 ) ) ;
#890 = LINE ( 'NONE', #1294, #575 ) ;
#891 = EDGE_LOOP ( 'NONE', ( #287, #680, #599, #875 ) ) ;
#892 = VECTOR ( 'NONE', #339, 1000.000000000000000 ) ;
#893 = EDGE_CURVE ( 'NONE', #370, #709, #1338, .T. ) ;
#894 = ORIENTED_EDGE ( 'NONE', *, *, #1181, .F. ) ;
#895 = SURFACE_STYLE_USAGE ( .BOTH. , #1111 ) ;
#896 = AXIS2_PLACEMENT_3D ( 'NONE', #869, #804, #253 ) ;
#897 = EDGE_CURVE ( 'NONE', #1189, #385, #248, .T. ) ;
#898 = ORIENTED_EDGE ( 'NONE', *, *, #1124, .T. ) ;
#899 = LINE ( 'NONE', #204, #127 ) ;
#900 = ORIENTED_EDGE ( 'NONE', *, *, #735, .F. ) ;
#901 = CARTESIAN_POINT ( 'NONE',  ( 0.7249999999999998700, 0.7000000000000007300, -0.4000000000000000200 ) ) ;
#902 = UNCERTAINTY_MEASURE_WITH_UNIT (LENGTH_MEASURE( 1.000000000000000100E-005 ), #665, 'distance_accuracy_value', 'NONE');
#903 = MECHANICAL_DESIGN_GEOMETRIC_PRESENTATION_REPRESENTATION (  '', ( #740 ), #972 ) ;
#904 = FILL_AREA_STYLE ('',( #995 ) ) ;
#905 = EDGE_CURVE ( 'NONE', #62, #862, #1337, .T. ) ;
#906 = PLANE ( 'NONE',  #1229 ) ;
#907 = ORIENTED_EDGE ( 'NONE', *, *, #576, .F. ) ;
#908 = FACE_OUTER_BOUND ( 'NONE', #407, .T. ) ;
#909 = ORIENTED_EDGE ( 'NONE', *, *, #763, .F. ) ;
#910 = FACE_OUTER_BOUND ( 'NONE', #35, .T. ) ;
#911 = VERTEX_POINT ( 'NONE', #1266 ) ;
#912 = EDGE_LOOP ( 'NONE', ( #1361, #564, #487, #22, #1129, #1011, #200, #531 ) ) ;
#913 = EDGE_CURVE ( 'NONE', #209, #788, #1208, .T. ) ;
#914 = ORIENTED_EDGE ( 'NONE', *, *, #1334, .T. ) ;
#915 = ADVANCED_FACE ( 'NONE', ( #797 ), #951, .T. ) ;
#916 = DIRECTION ( 'NONE',  ( 0.0000000000000000000, -0.0000000000000000000, -1.000000000000000000 ) ) ;
#917 = ORIENTED_EDGE ( 'NONE', *, *, #20, .T. ) ;
#918 = EDGE_CURVE ( 'NONE', #911, #1228, #164, .T. ) ;
#919 = EDGE_CURVE ( 'NONE', #178, #932, #216, .T. ) ;
#920 = VECTOR ( 'NONE', #1287, 1000.000000000000000 ) ;
#921 = AXIS2_PLACEMENT_3D ( 'NONE', #406, #1157, #956 ) ;
#922 = ORIENTED_EDGE ( 'NONE', *, *, #944, .T. ) ;
#923 = COLOUR_RGB ( '',0.7921568627450980000, 0.8196078431372548800, 0.9333333333333333500 ) ;
#924 = LINE ( 'NONE', #1231, #691 ) ;
#925 = ORIENTED_EDGE ( 'NONE', *, *, #265, .T. ) ;
#926 = VERTEX_POINT ( 'NONE', #1273 ) ;
#927 = LINE ( 'NONE', #765, #943 ) ;
#928 = ORIENTED_EDGE ( 'NONE', *, *, #1010, .T. ) ;
#929 = CARTESIAN_POINT ( 'NONE',  ( -0.4250000000000000400, 0.7500000000000003300, 0.4000000000000000200 ) ) ;
#930 =( LENGTH_UNIT ( ) NAMED_UNIT ( * ) SI_UNIT ( .MILLI., .METRE. ) );
#931 = ORIENTED_EDGE ( 'NONE', *, *, #1083, .F. ) ;
#932 = VERTEX_POINT ( 'NONE', #831 ) ;
#933 = AXIS2_PLACEMENT_3D ( 'NONE', #404, #1043, #1052 ) ;
#934 = DIRECTION ( 'NONE',  ( 0.0000000000000000000, 0.0000000000000000000, 1.000000000000000000 ) ) ;
#935 = ORIENTED_EDGE ( 'NONE', *, *, #542, .F. ) ;
#936 = CARTESIAN_POINT ( 'NONE',  ( 0.7249999999999998700, 0.5375000000000005300, 0.4000000000000000200 ) ) ;
#937 = AXIS2_PLACEMENT_3D ( 'NONE', #1317, #775, #1279 ) ;
#938 = ORIENTED_EDGE ( 'NONE', *, *, #758, .F. ) ;
#939 = FACE_OUTER_BOUND ( 'NONE', #1200, .T. ) ;
#940 = ADVANCED_FACE ( 'NONE', ( #1031 ), #285, .F. ) ;
#941 = CARTESIAN_POINT ( 'NONE',  ( 0.4249999999999999900, 0.0000000000000000000, -0.4000000000000000200 ) ) ;
#942 = ORIENTED_EDGE ( 'NONE', *, *, #714, .T. ) ;
#943 = VECTOR ( 'NONE', #210, 1000.000000000000000 ) ;
#944 = EDGE_CURVE ( 'NONE', #738, #1178, #195, .T. ) ;
#945 = SURFACE_STYLE_FILL_AREA ( #399 ) ;
#946 = AXIS2_PLACEMENT_3D ( 'NONE', #779, #131, #557 ) ;
#947 = EDGE_CURVE ( 'NONE', #987, #818, #495, .T. ) ;
#948 = CARTESIAN_POINT ( 'NONE',  ( -0.7249999999999998700, 0.05000000000000002400, 0.0000000000000000000 ) ) ;
#949 = VERTEX_POINT ( 'NONE', #746 ) ;
#950 = DIRECTION ( 'NONE',  ( -0.0000000000000000000, 0.0000000000000000000, -1.000000000000000000 ) ) ;
#951 = PLANE ( 'NONE',  #512 ) ;
#952 = ADVANCED_FACE ( 'NONE', ( #1352 ), #163, .F. ) ;
#953 = ORIENTED_EDGE ( 'NONE', *, *, #978, .T. ) ;
#954 = DIRECTION ( 'NONE',  ( -1.000000000000000000, -1.626303258728256900E-016, 6.793246694771331700E-017 ) ) ;
#955 = CARTESIAN_POINT ( 'NONE',  ( 0.7249999999999998700, 0.0000000000000000000, 0.4000000000000000200 ) ) ;
#956 = DIRECTION ( 'NONE',  ( 5.782411586589359600E-016, -1.000000000000000000, 0.0000000000000000000 ) ) ;
#957 = FACE_OUTER_BOUND ( 'NONE', #669, .T. ) ;
#958 = ORIENTED_EDGE ( 'NONE', *, *, #245, .T. ) ;
#959 = CARTESIAN_POINT ( 'NONE',  ( 0.4249999999999999900, 0.7500000000000007800, 0.0000000000000000000 ) ) ;
#960 = DIRECTION ( 'NONE',  ( 0.0000000000000000000, -0.0000000000000000000, 1.000000000000000000 ) ) ;
#961 = VECTOR ( 'NONE', #1349, 1000.000000000000000 ) ;
#962 = ORIENTED_EDGE ( 'NONE', *, *, #206, .F. ) ;
#963 = PRESENTATION_STYLE_ASSIGNMENT (( #657 ) ) ;
#964 = DIRECTION ( 'NONE',  ( 0.0000000000000000000, -0.0000000000000000000, 1.000000000000000000 ) ) ;
#965 = PLANE ( 'NONE',  #578 ) ;
#966 = CARTESIAN_POINT ( 'NONE',  ( -0.7249999999999998700, 0.05000000000000002400, 0.4000000000000000200 ) ) ;
#967 = EDGE_CURVE ( 'NONE', #688, #1228, #516, .T. ) ;
#968 =( GEOMETRIC_REPRESENTATION_CONTEXT ( 3 ) GLOBAL_UNCERTAINTY_ASSIGNED_CONTEXT ( ( #522 ) ) GLOBAL_UNIT_ASSIGNED_CONTEXT ( ( #109, #380, #809 ) ) REPRESENTATION_CONTEXT ( 'NONE', 'WORKASPACE' ) );
#969 = EDGE_CURVE ( 'NONE', #1385, #795, #924, .T. ) ;
#970 = CARTESIAN_POINT ( 'NONE',  ( 0.7249999999999998700, 0.05000000000000002400, -0.4000000000000000200 ) ) ;
#971 = DIRECTION ( 'NONE',  ( -1.000000000000000000, -0.0000000000000000000, -0.0000000000000000000 ) ) ;
#972 =( GEOMETRIC_REPRESENTATION_CONTEXT ( 3 ) GLOBAL_UNCERTAINTY_ASSIGNED_CONTEXT ( ( #851 ) ) GLOBAL_UNIT_ASSIGNED_CONTEXT ( ( #696, #1353, #690 ) ) REPRESENTATION_CONTEXT ( 'NONE', 'WORKASPACE' ) );
#973 = DIRECTION ( 'NONE',  ( 0.0000000000000000000, 0.0000000000000000000, 1.000000000000000000 ) ) ;
#974 = ORIENTED_EDGE ( 'NONE', *, *, #944, .F. ) ;
#975 = PLANE ( 'NONE',  #116 ) ;
#976 = DIRECTION ( 'NONE',  ( -1.000000000000000000, 0.0000000000000000000, 0.0000000000000000000 ) ) ;
#977 = DIRECTION ( 'NONE',  ( 0.0000000000000000000, 1.000000000000000000, 0.0000000000000000000 ) ) ;
#978 = EDGE_CURVE ( 'NONE', #314, #1213, #1051, .T. ) ;
#979 = CARTESIAN_POINT ( 'NONE',  ( 0.7249999999999998700, 0.7000000000000007300, 0.0000000000000000000 ) ) ;
#980 = FACE_OUTER_BOUND ( 'NONE', #1368, .T. ) ;
#981 = VECTOR ( 'NONE', #391, 1000.000000000000000 ) ;
#982 = CARTESIAN_POINT ( 'NONE',  ( -0.7249999999999998700, 0.5375000000000005300, 0.0000000000000000000 ) ) ;
#983 = PLANE ( 'NONE',  #446 ) ;
#984 = ORIENTED_EDGE ( 'NONE', *, *, #1126, .F. ) ;
#985 = CARTESIAN_POINT ( 'NONE',  ( -0.07500000000000006700, 0.7400000000000003200, -0.3990000000000000200 ) ) ;
#986 = EDGE_CURVE ( 'NONE', #266, #482, #403, .T. ) ;
#987 = VERTEX_POINT ( 'NONE', #700 ) ;
#988 = PLANE ( 'NONE',  #1300 ) ;
#989 = LINE ( 'NONE', #1020, #241 ) ;
#990 = ORIENTED_EDGE ( 'NONE', *, *, #364, .T. ) ;
#991 = FACE_OUTER_BOUND ( 'NONE', #1082, .T. ) ;
#992 = EDGE_CURVE ( 'NONE', #810, #949, #993, .T. ) ;
#993 = LINE ( 'NONE', #821, #961 ) ;
#994 = ORIENTED_EDGE ( 'NONE', *, *, #1343, .F. ) ;
#995 = FILL_AREA_STYLE_COLOUR ( '', #75 ) ;
#996 = CARTESIAN_POINT ( 'NONE',  ( -0.7750000000000001300, 0.7500000000000003300, 0.4000000000000000200 ) ) ;
#997 = FILL_AREA_STYLE_COLOUR ( '', #1096 ) ;
#998 = ORIENTED_EDGE ( 'NONE', *, *, #1077, .T. ) ;
#999 = CARTESIAN_POINT ( 'NONE',  ( -0.4249999999999991600, -4.607859233063383000E-016, -0.4000000000000000200 ) ) ;
#1000 = CARTESIAN_POINT ( 'NONE',  ( 0.0000000000000000000, 0.7500000000000003300, 0.0000000000000000000 ) ) ;
#1001 = VECTOR ( 'NONE', #2, 1000.000000000000000 ) ;
#1002 = ADVANCED_FACE ( 'NONE', ( #1252 ), #270, .T. ) ;
#1003 = VECTOR ( 'NONE', #159, 1000.000000000000000 ) ;
#1004 = ORIENTED_EDGE ( 'NONE', *, *, #1194, .F. ) ;
#1005 = VECTOR ( 'NONE', #1197, 1000.000000000000000 ) ;
#1006 = ORIENTED_EDGE ( 'NONE', *, *, #247, .F. ) ;
#1007 = PRESENTATION_LAYER_ASSIGNMENT (  '', '', ( #372 ) ) ;
#1008 = ORIENTED_EDGE ( 'NONE', *, *, #1086, .T. ) ;
#1009 = EDGE_CURVE ( 'NONE', #818, #932, #1072, .T. ) ;
#1010 = EDGE_CURVE ( 'NONE', #461, #17, #624, .T. ) ;
#1011 = ORIENTED_EDGE ( 'NONE', *, *, #874, .T. ) ;
#1012 = EDGE_LOOP ( 'NONE', ( #1163, #1055, #198, #256 ) ) ;
#1013 = AXIS2_PLACEMENT_3D ( 'NONE', #865, #434, #312 ) ;
#1014 = DIRECTION ( 'NONE',  ( 1.084202172485504000E-015, 1.000000000000000000, 0.0000000000000000000 ) ) ;
#1015 = LINE ( 'NONE', #1164, #381 ) ;
#1016 = EDGE_LOOP ( 'NONE', ( #1358, #660, #1104, #1323, #1280, #679, #1303, #958 ) ) ;
#1017 = VECTOR ( 'NONE', #739, 1000.000000000000000 ) ;
#1018 = CARTESIAN_POINT ( 'NONE',  ( -0.2749999999999999100, 0.7400000000000003200, 0.3990000000000000200 ) ) ;
#1019 = VECTOR ( 'NONE', #1236, 1000.000000000000000 ) ;
#1020 = CARTESIAN_POINT ( 'NONE',  ( -0.2749999999999999700, 0.7400000000000003200, -0.3990000000000000200 ) ) ;
#1021 = FACE_OUTER_BOUND ( 'NONE', #1074, .T. ) ;
#1022 = CARTESIAN_POINT ( 'NONE',  ( -0.4249999999999999300, 0.7000000000000007300, -0.4000000000000000200 ) ) ;
#1023 = CARTESIAN_POINT ( 'NONE',  ( -0.7249999999999998700, 0.7000000000000007300, 0.0000000000000000000 ) ) ;
#1024 = ORIENTED_EDGE ( 'NONE', *, *, #1201, .F. ) ;
#1025 = EDGE_CURVE ( 'NONE', #820, #82, #139, .T. ) ;
#1026 = DIRECTION ( 'NONE',  ( 1.000000000000000000, 0.0000000000000000000, -0.0000000000000000000 ) ) ;
#1027 =( GEOMETRIC_REPRESENTATION_CONTEXT ( 3 ) GLOBAL_UNCERTAINTY_ASSIGNED_CONTEXT ( ( #95 ) ) GLOBAL_UNIT_ASSIGNED_CONTEXT ( ( #10, #1316, #661 ) ) REPRESENTATION_CONTEXT ( 'NONE', 'WORKASPACE' ) );
#1028 = LINE ( 'NONE', #654, #1001 ) ;
#1029 = MANIFOLD_SOLID_BREP ( 'Split1[5]', #827 ) ;
#1030 = DIRECTION ( 'NONE',  ( -1.626303258728256900E-016, 1.000000000000000000, 0.0000000000000000000 ) ) ;
#1031 = FACE_OUTER_BOUND ( 'NONE', #1041, .T. ) ;
#1032 = SURFACE_SIDE_STYLE ('',( #302 ) ) ;
#1033 = VERTEX_POINT ( 'NONE', #1130 ) ;
#1034 = EDGE_CURVE ( 'NONE', #987, #69, #857, .T. ) ;
#1035 = VECTOR ( 'NONE', #785, 1000.000000000000000 ) ;
#1036 = VERTEX_POINT ( 'NONE', #1022 ) ;
#1037 = PLANE ( 'NONE',  #57 ) ;
#1038 = CARTESIAN_POINT ( 'NONE',  ( -0.07500000000000006700, 0.7400000000000003200, -0.3990000000000000200 ) ) ;
#1039 = ADVANCED_FACE ( 'NONE', ( #421 ), #45, .F. ) ;
#1040 = CARTESIAN_POINT ( 'NONE',  ( -0.07499999999999995600, 0.7400000000000003200, 0.3990000000000000200 ) ) ;
#1041 = EDGE_LOOP ( 'NONE', ( #998, #898, #673, #353, #731, #170, #387, #237 ) ) ;
#1042 = PLANE ( 'NONE',  #870 ) ;
#1043 = DIRECTION ( 'NONE',  ( 0.0000000000000000000, 0.0000000000000000000, -1.000000000000000000 ) ) ;
#1044 = EDGE_CURVE ( 'NONE', #1255, #38, #1313, .T. ) ;
#1045 = DIRECTION ( 'NONE',  ( -1.000000000000000000, 0.0000000000000000000, 0.0000000000000000000 ) ) ;
#1046 = LINE ( 'NONE', #310, #722 ) ;
#1047 = CARTESIAN_POINT ( 'NONE',  ( 0.4250000000000000400, 4.867504519799575400E-016, -0.4000000000000000200 ) ) ;
#1048 = CARTESIAN_POINT ( 'NONE',  ( 0.0000000000000000000, 0.7000000000000007300, 0.4000000000000000200 ) ) ;
#1049 = ORIENTED_EDGE ( 'NONE', *, *, #576, .T. ) ;
#1050 = VECTOR ( 'NONE', #300, 1000.000000000000000 ) ;
#1051 = LINE ( 'NONE', #1357, #1137 ) ;
#1052 = DIRECTION ( 'NONE',  ( -1.000000000000000000, 0.0000000000000000000, -0.0000000000000000000 ) ) ;
#1053 = CARTESIAN_POINT ( 'NONE',  ( 0.0000000000000000000, 0.05000000000000002400, -0.4000000000000000200 ) ) ;
#1054 = FACE_OUTER_BOUND ( 'NONE', #1296, .T. ) ;
#1055 = ORIENTED_EDGE ( 'NONE', *, *, #1202, .F. ) ;
#1056 = EDGE_CURVE ( 'NONE', #1033, #136, #535, .T. ) ;
#1057 = DIRECTION ( 'NONE',  ( -1.626303258728256900E-016, 1.000000000000000000, -0.0000000000000000000 ) ) ;
#1058 = EDGE_CURVE ( 'NONE', #788, #254, #839, .T. ) ;
#1059 = CARTESIAN_POINT ( 'NONE',  ( 0.4249999999999996000, 0.7500000000000003300, 0.4000000000000000200 ) ) ;
#1060 = PLANE ( 'NONE',  #713 ) ;
#1061 = EDGE_LOOP ( 'NONE', ( #782, #1283, #1325, #129 ) ) ;
#1062 = AXIS2_PLACEMENT_3D ( 'NONE', #376, #798, #1341 ) ;
#1063 = CARTESIAN_POINT ( 'NONE',  ( -0.07499999999999995600, 0.7400000000000003200, 0.3990000000000000200 ) ) ;
#1064 = CARTESIAN_POINT ( 'NONE',  ( 0.0000000000000000000, 0.0000000000000000000, 0.4000000000000000200 ) ) ;
#1065 = VERTEX_POINT ( 'NONE', #52 ) ;
#1066 = DIRECTION ( 'NONE',  ( -1.000000000000000000, -0.0000000000000000000, -0.0000000000000000000 ) ) ;
#1067 = CARTESIAN_POINT ( 'NONE',  ( -0.4249999999999999300, 0.7000000000000007300, 0.4000000000000000200 ) ) ;
#1068 = VECTOR ( 'NONE', #499, 1000.000000000000000 ) ;
#1069 = PLANE ( 'NONE',  #1390 ) ;
#1070 = CARTESIAN_POINT ( 'NONE',  ( 0.7249999999999998700, 0.5375000000000005300, -0.4000000000000000200 ) ) ;
#1071 = CARTESIAN_POINT ( 'NONE',  ( 0.7249999999999998700, 0.0000000000000000000, 0.4000000000000000200 ) ) ;
#1072 = LINE ( 'NONE', #815, #777 ) ;
#1073 = CARTESIAN_POINT ( 'NONE',  ( -0.07500000000000006700, 0.7400000000000003200, -0.3990000000000000200 ) ) ;
#1074 = EDGE_LOOP ( 'NONE', ( #278, #587, #684, #1393, #378, #601, #261, #423 ) ) ;
#1075 = DIRECTION ( 'NONE',  ( 0.0000000000000000000, -0.0000000000000000000, -1.000000000000000000 ) ) ;
#1076 = CARTESIAN_POINT ( 'NONE',  ( -0.7750000000000001300, 0.7500000000000003300, -0.4000000000000000200 ) ) ;
#1077 = EDGE_CURVE ( 'NONE', #156, #330, #438, .T. ) ;
#1078 = CARTESIAN_POINT ( 'NONE',  ( 0.4249999999999999900, 0.7500000000000007800, 0.0000000000000000000 ) ) ;
#1079 = DIRECTION ( 'NONE',  ( -1.000000000000000000, 0.0000000000000000000, 0.0000000000000000000 ) ) ;
#1080 = CARTESIAN_POINT ( 'NONE',  ( -0.4249999999999999300, 0.7000000000000007300, 0.0000000000000000000 ) ) ;
#1081 = VERTEX_POINT ( 'NONE', #643 ) ;
#1082 = EDGE_LOOP ( 'NONE', ( #1198, #272, #1195, #1204 ) ) ;
#1083 = EDGE_CURVE ( 'NONE', #325, #820, #264, .T. ) ;
#1084 = CARTESIAN_POINT ( 'NONE',  ( -0.07500000000000006700, 0.7400000000000003200, -0.3990000000000000200 ) ) ;
#1085 = PRODUCT_DEFINITION ( 'UNKNOWN', '', #1243, #833 ) ;
#1086 = EDGE_CURVE ( 'NONE', #1196, #53, #1235, .T. ) ;
#1087 = DIRECTION ( 'NONE',  ( 0.0000000000000000000, 0.0000000000000000000, -1.000000000000000000 ) ) ;
#1088 = VECTOR ( 'NONE', #1386, 1000.000000000000000 ) ;
#1089 = ORIENTED_EDGE ( 'NONE', *, *, #1034, .T. ) ;
#1090 = VECTOR ( 'NONE', #311, 1000.000000000000000 ) ;
#1091 = AXIS2_PLACEMENT_3D ( 'NONE', #1078, #1398, #519 ) ;
#1092 = VECTOR ( 'NONE', #255, 1000.000000000000000 ) ;
#1093 = DIRECTION ( 'NONE',  ( -1.626303258728256900E-016, 1.000000000000000000, -0.0000000000000000000 ) ) ;
#1094 = VECTOR ( 'NONE', #826, 1000.000000000000000 ) ;
#1095 = ORIENTED_EDGE ( 'NONE', *, *, #507, .T. ) ;
#1096 = COLOUR_RGB ( '',1.000000000000000000, 1.000000000000000000, 1.000000000000000000 ) ;
#1097 = CARTESIAN_POINT ( 'NONE',  ( -0.2749999999999999100, 0.7400000000000003200, 0.3990000000000000200 ) ) ;
#1098 = ORIENTED_EDGE ( 'NONE', *, *, #1124, .F. ) ;
#1099 = PLANE ( 'NONE',  #937 ) ;
#1100 = CARTESIAN_POINT ( 'NONE',  ( -0.4249999999999991600, -4.607859233063383000E-016, -0.4000000000000000200 ) ) ;
#1101 = ADVANCED_FACE ( 'NONE', ( #582 ), #754, .F. ) ;
#1102 = VECTOR ( 'NONE', #524, 1000.000000000000000 ) ;
#1103 = EDGE_CURVE ( 'NONE', #503, #562, #361, .T. ) ;
#1104 = ORIENTED_EDGE ( 'NONE', *, *, #274, .F. ) ;
#1105 = DIRECTION ( 'NONE',  ( 0.0000000000000000000, 0.0000000000000000000, 1.000000000000000000 ) ) ;
#1106 = AXIS2_PLACEMENT_3D ( 'NONE', #416, #191, #1075 ) ;
#1107 = LINE ( 'NONE', #1218, #383 ) ;
#1108 = AXIS2_PLACEMENT_3D ( 'NONE', #748, #514, #1392 ) ;
#1109 = ORIENTED_EDGE ( 'NONE', *, *, #918, .T. ) ;
#1110 = ORIENTED_EDGE ( 'NONE', *, *, #686, .T. ) ;
#1111 = SURFACE_SIDE_STYLE ('',( #604 ) ) ;
#1112 = ADVANCED_FACE ( 'NONE', ( #644 ), #551, .T. ) ;
#1113 = VECTOR ( 'NONE', #1282, 1000.000000000000000 ) ;
#1114 = EDGE_CURVE ( 'NONE', #482, #74, #1188, .T. ) ;
#1115 = ORIENTED_EDGE ( 'NONE', *, *, #365, .T. ) ;
#1116 = VERTEX_POINT ( 'NONE', #901 ) ;
#1117 = FACE_OUTER_BOUND ( 'NONE', #1016, .T. ) ;
#1118 = ORIENTED_EDGE ( 'NONE', *, *, #417, .F. ) ;
#1119 = VECTOR ( 'NONE', #1291, 1000.000000000000000 ) ;
#1120 = VECTOR ( 'NONE', #217, 1000.000000000000000 ) ;
#1121 = ORIENTED_EDGE ( 'NONE', *, *, #247, .T. ) ;
#1122 = LINE ( 'NONE', #73, #496 ) ;
#1123 = LINE ( 'NONE', #611, #355 ) ;
#1124 = EDGE_CURVE ( 'NONE', #330, #688, #1107, .T. ) ;
#1125 = PRODUCT_RELATED_PRODUCT_CATEGORY ( 'part', '', ( #855 ) ) ;
#1126 = EDGE_CURVE ( 'NONE', #1196, #1081, #726, .T. ) ;
#1127 = ORIENTED_EDGE ( 'NONE', *, *, #67, .F. ) ;
#1128 = DIRECTION ( 'NONE',  ( 6.793246694771331700E-017, 0.0000000000000000000, 1.000000000000000000 ) ) ;
#1129 = ORIENTED_EDGE ( 'NONE', *, *, #329, .T. ) ;
#1130 = CARTESIAN_POINT ( 'NONE',  ( 0.7750000000000002400, 5.421010862427522200E-016, -0.4000000000000000200 ) ) ;
#1131 = PRESENTATION_LAYER_ASSIGNMENT (  '', '', ( #740 ) ) ;
#1132 = VECTOR ( 'NONE', #309, 1000.000000000000000 ) ;
#1133 = ADVANCED_FACE ( 'NONE', ( #910 ), #259, .F. ) ;
#1134 = APPLICATION_PROTOCOL_DEFINITION ( 'draft international standard', 'automotive_design', 1998, #1250 ) ;
#1135 = EDGE_LOOP ( 'NONE', ( #656, #521, #490, #223 ) ) ;
#1136 = DIRECTION ( 'NONE',  ( -1.000000000000000000, 0.0000000000000000000, -0.0000000000000000000 ) ) ;
#1137 = VECTOR ( 'NONE', #475, 1000.000000000000000 ) ;
#1138 = UNCERTAINTY_MEASURE_WITH_UNIT (LENGTH_MEASURE( 1.000000000000000100E-005 ), #930, 'distance_accuracy_value', 'NONE');
#1139 = DIRECTION ( 'NONE',  ( 0.0000000000000000000, -0.0000000000000000000, -1.000000000000000000 ) ) ;
#1140 = CLOSED_SHELL ( 'NONE', ( #157, #553, #1112, #1230, #776, #801 ) ) ;
#1141 = COLOUR_RGB ( '',1.000000000000000000, 1.000000000000000000, 1.000000000000000000 ) ;
#1142 = CARTESIAN_POINT ( 'NONE',  ( -0.7750000000000001300, 0.7500000000000003300, 0.4000000000000000200 ) ) ;
#1143 =( NAMED_UNIT ( * ) SI_UNIT ( $, .STERADIAN. ) SOLID_ANGLE_UNIT ( ) );
#1144 = DIRECTION ( 'NONE',  ( 0.0000000000000000000, -0.0000000000000000000, 1.000000000000000000 ) ) ;
#1145 = FACE_OUTER_BOUND ( 'NONE', #332, .T. ) ;
#1146 = ORIENTED_EDGE ( 'NONE', *, *, #986, .F. ) ;
#1147 = LINE ( 'NONE', #830, #1369 ) ;
#1148 = CARTESIAN_POINT ( 'NONE',  ( -0.4249999999999999900, 0.7500000000000007800, 0.0000000000000000000 ) ) ;
#1149 = EDGE_CURVE ( 'NONE', #911, #330, #492, .T. ) ;
#1150 = ORIENTED_EDGE ( 'NONE', *, *, #978, .F. ) ;
#1151 = EDGE_CURVE ( 'NONE', #862, #254, #678, .T. ) ;
#1152 = FACE_OUTER_BOUND ( 'NONE', #1061, .T. ) ;
#1153 = EDGE_LOOP ( 'NONE', ( #1216, #546, #351, #1304 ) ) ;
#1154 = FACE_OUTER_BOUND ( 'NONE', #1276, .T. ) ;
#1155 = CARTESIAN_POINT ( 'NONE',  ( -0.2749999999999998600, -0.08268098312772465000, -0.3990000000000000200 ) ) ;
#1156 = PRESENTATION_LAYER_ASSIGNMENT (  '', '', ( #250 ) ) ;
#1157 = DIRECTION ( 'NONE',  ( -1.000000000000000000, -5.782411586589359600E-016, 0.0000000000000000000 ) ) ;
#1158 = CARTESIAN_POINT ( 'NONE',  ( 0.7249999999999998700, 0.0000000000000000000, -0.4000000000000000200 ) ) ;
#1159 = CARTESIAN_POINT ( 'NONE',  ( -0.7249999999999998700, 0.5375000000000005300, 0.0000000000000000000 ) ) ;
#1160 = ORIENTED_EDGE ( 'NONE', *, *, #394, .T. ) ;
#1161 = CARTESIAN_POINT ( 'NONE',  ( -0.4249999999999991600, -4.607859233063383000E-016, 0.4000000000000000200 ) ) ;
#1162 = DIRECTION ( 'NONE',  ( -1.626303258728256900E-016, 1.000000000000000000, 0.0000000000000000000 ) ) ;
#1163 = ORIENTED_EDGE ( 'NONE', *, *, #176, .F. ) ;
#1164 = CARTESIAN_POINT ( 'NONE',  ( 0.0000000000000000000, 0.05000000000000002400, -0.4000000000000000200 ) ) ;
#1165 = CARTESIAN_POINT ( 'NONE',  ( -0.7249999999999998700, 0.05000000000000002400, -0.4000000000000000200 ) ) ;
#1166 = ORIENTED_EDGE ( 'NONE', *, *, #792, .T. ) ;
#1167 = COLOUR_RGB ( '',0.7921568627450980000, 0.8196078431372548800, 0.9333333333333333500 ) ;
#1168 = PLANE ( 'NONE',  #541 ) ;
#1169 = EDGE_CURVE ( 'NONE', #949, #605, #402, .T. ) ;
#1170 = DIRECTION ( 'NONE',  ( 0.0000000000000000000, 0.0000000000000000000, -1.000000000000000000 ) ) ;
#1171 = EDGE_LOOP ( 'NONE', ( #718, #888, #806, #1160, #321, #1374, #984, #761 ) ) ;
#1172 = DIRECTION ( 'NONE',  ( 1.358649338954266300E-016, -0.0000000000000000000, 1.000000000000000000 ) ) ;
#1173 = VECTOR ( 'NONE', #977, 1000.000000000000000 ) ;
#1174 = CARTESIAN_POINT ( 'NONE',  ( -0.4249999999999998800, 0.0000000000000000000, -0.4000000000000000200 ) ) ;
#1175 = MECHANICAL_DESIGN_GEOMETRIC_PRESENTATION_REPRESENTATION (  '', ( #1394 ), #25 ) ;
#1176 = CARTESIAN_POINT ( 'NONE',  ( -0.2749999999999998000, 0.7400000000000003200, 0.3990000000000000200 ) ) ;
#1177 = DIRECTION ( 'NONE',  ( 1.000000000000000000, -0.0000000000000000000, 0.0000000000000000000 ) ) ;
#1178 = VERTEX_POINT ( 'NONE', #1040 ) ;
#1179 = ORIENTED_EDGE ( 'NONE', *, *, #507, .F. ) ;
#1180 = DIRECTION ( 'NONE',  ( 0.0000000000000000000, 0.0000000000000000000, 1.000000000000000000 ) ) ;
#1181 = EDGE_CURVE ( 'NONE', #341, #62, #876, .T. ) ;
#1182 = DIRECTION ( 'NONE',  ( 0.0000000000000000000, -1.000000000000000000, 0.0000000000000000000 ) ) ;
#1183 = VECTOR ( 'NONE', #292, 1000.000000000000000 ) ;
#1184 = DIRECTION ( 'NONE',  ( 0.0000000000000000000, 0.0000000000000000000, 1.000000000000000000 ) ) ;
#1185 = DIRECTION ( 'NONE',  ( 0.0000000000000000000, 1.000000000000000000, 0.0000000000000000000 ) ) ;
#1186 = ORIENTED_EDGE ( 'NONE', *, *, #737, .T. ) ;
#1187 = CARTESIAN_POINT ( 'NONE',  ( -0.7249999999999998700, 0.0000000000000000000, -0.4000000000000000200 ) ) ;
#1188 = LINE ( 'NONE', #233, #892 ) ;
#1189 = VERTEX_POINT ( 'NONE', #1379 ) ;
#1190 = LINE ( 'NONE', #27, #283 ) ;
#1191 = LINE ( 'NONE', #623, #539 ) ;
#1192 = FILL_AREA_STYLE_COLOUR ( '', #586 ) ;
#1193 = PLANE ( 'NONE',  #1091 ) ;
#1194 = EDGE_CURVE ( 'NONE', #625, #1255, #148, .T. ) ;
#1195 = ORIENTED_EDGE ( 'NONE', *, *, #18, .F. ) ;
#1196 = VERTEX_POINT ( 'NONE', #852 ) ;
#1197 = DIRECTION ( 'NONE',  ( -1.000000000000000000, 0.0000000000000000000, 0.0000000000000000000 ) ) ;
#1198 = ORIENTED_EDGE ( 'NONE', *, *, #558, .T. ) ;
#1199 = SURFACE_SIDE_STYLE ('',( #307 ) ) ;
#1200 = EDGE_LOOP ( 'NONE', ( #518, #1220, #413, #612 ) ) ;
#1201 = EDGE_CURVE ( 'NONE', #1189, #232, #566, .T. ) ;
#1202 = EDGE_CURVE ( 'NONE', #140, #695, #796, .T. ) ;
#1203 = VECTOR ( 'NONE', #190, 1000.000000000000000 ) ;
#1204 = ORIENTED_EDGE ( 'NONE', *, *, #1103, .T. ) ;
#1205 = CARTESIAN_POINT ( 'NONE',  ( 0.0000000000000000000, 0.7000000000000007300, 0.4000000000000000200 ) ) ;
#1206 = FACE_OUTER_BOUND ( 'NONE', #143, .T. ) ;
#1207 = AXIS2_PLACEMENT_3D ( 'NONE', #294, #1170, #508 ) ;
#1208 = LINE ( 'NONE', #384, #336 ) ;
#1209 =( NAMED_UNIT ( * ) SI_UNIT ( $, .STERADIAN. ) SOLID_ANGLE_UNIT ( ) );
#1210 = ORIENTED_EDGE ( 'NONE', *, *, #846, .F. ) ;
#1211 = VECTOR ( 'NONE', #120, 1000.000000000000000 ) ;
#1212 = PLANE ( 'NONE',  #639 ) ;
#1213 = VERTEX_POINT ( 'NONE', #81 ) ;
#1214 = DIRECTION ( 'NONE',  ( 1.084202172485504000E-015, -1.000000000000000000, 0.0000000000000000000 ) ) ;
#1215 = ADVANCED_FACE ( 'NONE', ( #1206 ), #1168, .F. ) ;
#1216 = ORIENTED_EDGE ( 'NONE', *, *, #364, .F. ) ;
#1217 = SURFACE_STYLE_USAGE ( .BOTH. , #1199 ) ;
#1218 = CARTESIAN_POINT ( 'NONE',  ( 0.4249999999999991600, -4.607859233063383000E-016, 0.4000000000000000200 ) ) ;
#1219 = VECTOR ( 'NONE', #1079, 1000.000000000000000 ) ;
#1220 = ORIENTED_EDGE ( 'NONE', *, *, #141, .T. ) ;
#1221 = FACE_OUTER_BOUND ( 'NONE', #360, .T. ) ;
#1222 =( GEOMETRIC_REPRESENTATION_CONTEXT ( 3 ) GLOBAL_UNCERTAINTY_ASSIGNED_CONTEXT ( ( #231 ) ) GLOBAL_UNIT_ASSIGNED_CONTEXT ( ( #658, #222, #885 ) ) REPRESENTATION_CONTEXT ( 'NONE', 'WORKASPACE' ) );
#1223 = ORIENTED_EDGE ( 'NONE', *, *, #1058, .F. ) ;
#1224 = SURFACE_STYLE_FILL_AREA ( #871 ) ;
#1225 = ADVANCED_FACE ( 'NONE', ( #1221 ), #843, .T. ) ;
#1226 = EDGE_CURVE ( 'NONE', #932, #461, #71, .T. ) ;
#1227 = ORIENTED_EDGE ( 'NONE', *, *, #428, .F. ) ;
#1228 = VERTEX_POINT ( 'NONE', #717 ) ;
#1229 = AXIS2_PLACEMENT_3D ( 'NONE', #125, #447, #225 ) ;
#1230 = ADVANCED_FACE ( 'NONE', ( #244 ), #965, .T. ) ;
#1231 = CARTESIAN_POINT ( 'NONE',  ( 0.0000000000000000000, 0.05000000000000002400, 0.4000000000000000200 ) ) ;
#1232 = VECTOR ( 'NONE', #382, 1000.000000000000000 ) ;
#1233 = ORIENTED_EDGE ( 'NONE', *, *, #874, .F. ) ;
#1234 = VECTOR ( 'NONE', #971, 1000.000000000000000 ) ;
#1235 = LINE ( 'NONE', #652, #554 ) ;
#1236 = DIRECTION ( 'NONE',  ( 1.000000000000000000, -0.0000000000000000000, 0.0000000000000000000 ) ) ;
#1237 = EDGE_LOOP ( 'NONE', ( #273, #835, #1166, #1008 ) ) ;
#1238 = FACE_OUTER_BOUND ( 'NONE', #1135, .T. ) ;
#1239 = CARTESIAN_POINT ( 'NONE',  ( 0.0000000000000000000, 0.05000000000000002400, 0.4000000000000000200 ) ) ;
#1240 = DIRECTION ( 'NONE',  ( -0.0000000000000000000, 0.0000000000000000000, 1.000000000000000000 ) ) ;
#1241 = ORIENTED_EDGE ( 'NONE', *, *, #1114, .T. ) ;
#1242 = AXIS2_PLACEMENT_3D ( 'NONE', #1023, #1026, #374 ) ;
#1243 = PRODUCT_DEFINITION_FORMATION_WITH_SPECIFIED_SOURCE ( 'ANY', '', #855, .NOT_KNOWN. ) ;
#1244 = SURFACE_STYLE_USAGE ( .BOTH. , #65 ) ;
#1245 = ORIENTED_EDGE ( 'NONE', *, *, #1307, .F. ) ;
#1246 = VERTEX_POINT ( 'NONE', #1067 ) ;
#1247 = DIRECTION ( 'NONE',  ( 0.0000000000000000000, 0.0000000000000000000, -1.000000000000000000 ) ) ;
#1248 = AXIS2_PLACEMENT_3D ( 'NONE', #6, #534, #742 ) ;
#1249 = DIRECTION ( 'NONE',  ( 0.0000000000000000000, 1.000000000000000000, 0.0000000000000000000 ) ) ;
#1250 = APPLICATION_CONTEXT ( 'automotive_design' ) ;
#1251 = VECTOR ( 'NONE', #704, 1000.000000000000000 ) ;
#1252 = FACE_OUTER_BOUND ( 'NONE', #432, .T. ) ;
#1253 = EDGE_CURVE ( 'NONE', #926, #1268, #1333, .T. ) ;
#1254 = DIRECTION ( 'NONE',  ( 2.891205793294678300E-016, -1.000000000000000000, -0.0000000000000000000 ) ) ;
#1255 = VERTEX_POINT ( 'NONE', #1165 ) ;
#1256 = LINE ( 'NONE', #544, #520 ) ;
#1257 = PLANE ( 'NONE',  #1309 ) ;
#1258 = VECTOR ( 'NONE', #192, 1000.000000000000000 ) ;
#1259 = CARTESIAN_POINT ( 'NONE',  ( -0.2749999999999998000, -0.08268098312772465000, 0.3990000000000000200 ) ) ;
#1260 = CARTESIAN_POINT ( 'NONE',  ( 0.4249999999999999300, 0.05000000000000002400, 0.0000000000000000000 ) ) ;
#1261 = ORIENTED_EDGE ( 'NONE', *, *, #1034, .F. ) ;
#1262 = ORIENTED_EDGE ( 'NONE', *, *, #919, .T. ) ;
#1263 = DIRECTION ( 'NONE',  ( 0.0000000000000000000, 0.0000000000000000000, -1.000000000000000000 ) ) ;
#1264 = DIRECTION ( 'NONE',  ( 0.0000000000000000000, 0.0000000000000000000, 1.000000000000000000 ) ) ;
#1265 = CARTESIAN_POINT ( 'NONE',  ( 0.0000000000000000000, 0.7000000000000007300, 0.4000000000000000200 ) ) ;
#1266 = CARTESIAN_POINT ( 'NONE',  ( 0.4249999999999999300, 0.7000000000000007300, -0.4000000000000000200 ) ) ;
#1267 = FACE_OUTER_BOUND ( 'NONE', #506, .T. ) ;
#1268 = VERTEX_POINT ( 'NONE', #78 ) ;
#1269 = PLANE ( 'NONE',  #781 ) ;
#1270 = LINE ( 'NONE', #425, #466 ) ;
#1271 = CARTESIAN_POINT ( 'NONE',  ( -0.7749999999999999100, 2.969768487932331500E-016, 0.4000000000000000200 ) ) ;
#1272 = FILL_AREA_STYLE_COLOUR ( '', #1141 ) ;
#1273 = CARTESIAN_POINT ( 'NONE',  ( -0.4249999999999999300, 0.7000000000000007300, 0.4000000000000000200 ) ) ;
#1274 = AXIS2_PLACEMENT_3D ( 'NONE', #56, #145, #916 ) ;
#1275 = EDGE_CURVE ( 'NONE', #74, #299, #349, .T. ) ;
#1276 = EDGE_LOOP ( 'NONE', ( #102, #928, #550, #1262 ) ) ;
#1277 = LINE ( 'NONE', #1076, #783 ) ;
#1278 = PLANE ( 'NONE',  #132 ) ;
#1279 = DIRECTION ( 'NONE',  ( 0.0000000000000000000, -0.0000000000000000000, 1.000000000000000000 ) ) ;
#1280 = ORIENTED_EDGE ( 'NONE', *, *, #1009, .F. ) ;
#1281 = DIRECTION ( 'NONE',  ( -1.000000000000000000, 0.0000000000000000000, 0.0000000000000000000 ) ) ;
#1282 = DIRECTION ( 'NONE',  ( -1.626303258728256900E-016, 1.000000000000000000, -0.0000000000000000000 ) ) ;
#1283 = ORIENTED_EDGE ( 'NONE', *, *, #877, .F. ) ;
#1284 = CARTESIAN_POINT ( 'NONE',  ( -0.2749999999999999100, 0.7400000000000003200, 0.3990000000000000200 ) ) ;
#1285 = DIRECTION ( 'NONE',  ( 0.0000000000000000000, 0.0000000000000000000, 1.000000000000000000 ) ) ;
#1286 = CARTESIAN_POINT ( 'NONE',  ( -0.2749999999999998600, -0.08268098312772465000, -0.3990000000000000200 ) ) ;
#1287 = DIRECTION ( 'NONE',  ( 0.0000000000000000000, 0.0000000000000000000, 1.000000000000000000 ) ) ;
#1288 = VECTOR ( 'NONE', #472, 1000.000000000000000 ) ;
#1289 = VECTOR ( 'NONE', #1346, 1000.000000000000000 ) ;
#1290 = CARTESIAN_POINT ( 'NONE',  ( 0.7249999999999998700, 0.05000000000000002400, 0.4000000000000000200 ) ) ;
#1291 = DIRECTION ( 'NONE',  ( -0.0000000000000000000, -0.0000000000000000000, -1.000000000000000000 ) ) ;
#1292 = SURFACE_SIDE_STYLE ('',( #1224 ) ) ;
#1293 = EDGE_LOOP ( 'NONE', ( #445, #757, #1233, #840 ) ) ;
#1294 = CARTESIAN_POINT ( 'NONE',  ( -0.7249999999999998700, 0.0000000000000000000, 0.4000000000000000200 ) ) ;
#1295 = VECTOR ( 'NONE', #1057, 1000.000000000000000 ) ;
#1296 = EDGE_LOOP ( 'NONE', ( #410, #1049, #917, #697 ) ) ;
#1297 = VECTOR ( 'NONE', #729, 1000.000000000000000 ) ;
#1298 = PLANE ( 'NONE',  #342 ) ;
#1299 = CARTESIAN_POINT ( 'NONE',  ( -0.2749999999999999700, 0.7500000000000003300, -0.3990000000000000200 ) ) ;
#1300 = AXIS2_PLACEMENT_3D ( 'NONE', #196, #640, #221 ) ;
#1301 = DIRECTION ( 'NONE',  ( 0.0000000000000000000, -0.0000000000000000000, -1.000000000000000000 ) ) ;
#1302 = CARTESIAN_POINT ( 'NONE',  ( 0.7249999999999998700, 0.0000000000000000000, 0.4000000000000000200 ) ) ;
#1303 = ORIENTED_EDGE ( 'NONE', *, *, #464, .T. ) ;
#1304 = ORIENTED_EDGE ( 'NONE', *, *, #845, .F. ) ;
#1305 = EDGE_CURVE ( 'NONE', #178, #17, #1147, .T. ) ;
#1306 = CARTESIAN_POINT ( 'NONE',  ( -0.7249999999999998700, 0.7000000000000007300, 0.4000000000000000200 ) ) ;
#1307 = EDGE_CURVE ( 'NONE', #772, #818, #600, .T. ) ;
#1308 = FACE_OUTER_BOUND ( 'NONE', #802, .T. ) ;
#1309 = AXIS2_PLACEMENT_3D ( 'NONE', #1064, #606, #598 ) ;
#1310 = ORIENTED_EDGE ( 'NONE', *, *, #1126, .T. ) ;
#1311 = DIRECTION ( 'NONE',  ( -1.000000000000000000, 0.0000000000000000000, -0.0000000000000000000 ) ) ;
#1312 = FACE_OUTER_BOUND ( 'NONE', #401, .T. ) ;
#1313 = LINE ( 'NONE', #151, #1019 ) ;
#1314 = LINE ( 'NONE', #676, #1373 ) ;
#1315 = VECTOR ( 'NONE', #786, 1000.000000000000000 ) ;
#1316 =( NAMED_UNIT ( * ) PLANE_ANGLE_UNIT ( ) SI_UNIT ( $, .RADIAN. ) );
#1317 = CARTESIAN_POINT ( 'NONE',  ( 1.626303258728256800E-018, 0.7400000000000003200, 0.0000000000000000000 ) ) ;
#1318 = ORIENTED_EDGE ( 'NONE', *, *, #297, .F. ) ;
#1319 = CARTESIAN_POINT ( 'NONE',  ( -0.4249999999999998800, 0.05000000000000002400, 0.4000000000000000200 ) ) ;
#1320 = ADVANCED_FACE ( 'NONE', ( #762 ), #1060, .F. ) ;
#1321 = LINE ( 'NONE', #699, #659 ) ;
#1322 = VERTEX_POINT ( 'NONE', #596 ) ;
#1323 = ORIENTED_EDGE ( 'NONE', *, *, #1226, .F. ) ;
#1324 = LINE ( 'NONE', #214, #880 ) ;
#1325 = ORIENTED_EDGE ( 'NONE', *, *, #714, .F. ) ;
#1326 = ADVANCED_FACE ( 'NONE', ( #939 ), #608, .F. ) ;
#1327 = PRODUCT_DEFINITION_SHAPE ( 'NONE', 'NONE',  #1085 ) ;
#1328 = EDGE_CURVE ( 'NONE', #209, #1033, #9, .T. ) ;
#1329 = ORIENTED_EDGE ( 'NONE', *, *, #1086, .F. ) ;
#1330 = EDGE_LOOP ( 'NONE', ( #756, #130, #642, #252 ) ) ;
#1331 = FACE_OUTER_BOUND ( 'NONE', #243, .T. ) ;
#1332 = EDGE_LOOP ( 'NONE', ( #674, #291, #357, #692 ) ) ;
#1333 = LINE ( 'NONE', #184, #1050 ) ;
#1334 = EDGE_CURVE ( 'NONE', #800, #1065, #579, .T. ) ;
#1335 = SURFACE_STYLE_USAGE ( .BOTH. , #1032 ) ;
#1336 = ADVANCED_FACE ( 'NONE', ( #180 ), #864, .T. ) ;
#1337 = LINE ( 'NONE', #1048, #246 ) ;
#1338 = LINE ( 'NONE', #1367, #842 ) ;
#1339 = EDGE_LOOP ( 'NONE', ( #460, #931, #900, #1121 ) ) ;
#1340 = PRESENTATION_STYLE_ASSIGNMENT (( #87 ) ) ;
#1341 = DIRECTION ( 'NONE',  ( -1.084202172485504000E-015, 1.000000000000000000, 0.0000000000000000000 ) ) ;
#1342 = EDGE_CURVE ( 'NONE', #51, #709, #1270, .T. ) ;
#1343 = EDGE_CURVE ( 'NONE', #1382, #51, #837, .T. ) ;
#1344 = ORIENTED_EDGE ( 'NONE', *, *, #1149, .F. ) ;
#1345 = ADVANCED_FACE ( 'NONE', ( #1312 ), #1400, .T. ) ;
#1346 = DIRECTION ( 'NONE',  ( 1.000000000000000000, 0.0000000000000000000, 0.0000000000000000000 ) ) ;
#1347 = ORIENTED_EDGE ( 'NONE', *, *, #444, .F. ) ;
#1348 = DIRECTION ( 'NONE',  ( 1.000000000000000000, 1.581446693222703600E-016, 0.0000000000000000000 ) ) ;
#1349 = DIRECTION ( 'NONE',  ( 0.0000000000000000000, -1.000000000000000000, 0.0000000000000000000 ) ) ;
#1350 = VERTEX_POINT ( 'NONE', #1070 ) ;
#1351 = PLANE ( 'NONE',  #88 ) ;
#1352 = FACE_OUTER_BOUND ( 'NONE', #392, .T. ) ;
#1353 =( NAMED_UNIT ( * ) PLANE_ANGLE_UNIT ( ) SI_UNIT ( $, .RADIAN. ) );
#1354 = ORIENTED_EDGE ( 'NONE', *, *, #396, .T. ) ;
#1355 = VECTOR ( 'NONE', #723, 1000.000000000000000 ) ;
#1356 = CARTESIAN_POINT ( 'NONE',  ( -0.07499999999999995600, 0.7500000000000003300, 0.3990000000000000200 ) ) ;
#1357 = CARTESIAN_POINT ( 'NONE',  ( -0.2749999999999999700, 0.7400000000000003200, -0.3990000000000000200 ) ) ;
#1358 = ORIENTED_EDGE ( 'NONE', *, *, #1194, .T. ) ;
#1359 = DIRECTION ( 'NONE',  ( 0.0000000000000000000, -0.0000000000000000000, -1.000000000000000000 ) ) ;
#1360 = DIRECTION ( 'NONE',  ( 1.000000000000000000, 1.084202172485504000E-015, -0.0000000000000000000 ) ) ;
#1361 = ORIENTED_EDGE ( 'NONE', *, *, #141, .F. ) ;
#1362 = ORIENTED_EDGE ( 'NONE', *, *, #1275, .F. ) ;
#1363 = DIRECTION ( 'NONE',  ( -1.000000000000000000, 0.0000000000000000000, -0.0000000000000000000 ) ) ;
#1364 = ADVANCED_FACE ( 'NONE', ( #991 ), #523, .T. ) ;
#1365 = DIRECTION ( 'NONE',  ( 0.0000000000000000000, -1.000000000000000000, 0.0000000000000000000 ) ) ;
#1366 = VECTOR ( 'NONE', #1254, 1000.000000000000000 ) ;
#1367 = CARTESIAN_POINT ( 'NONE',  ( -0.07499999999999992800, -0.08268098312772465000, -0.3990000000000000200 ) ) ;
#1368 = EDGE_LOOP ( 'NONE', ( #412, #914, #133, #295 ) ) ;
#1369 = VECTOR ( 'NONE', #168, 1000.000000000000000 ) ;
#1370 = EDGE_CURVE ( 'NONE', #709, #473, #123, .T. ) ;
#1371 = DIRECTION ( 'NONE',  ( 1.626303258728256900E-016, -1.000000000000000000, 0.0000000000000000000 ) ) ;
#1372 = ORIENTED_EDGE ( 'NONE', *, *, #1181, .T. ) ;
#1373 = VECTOR ( 'NONE', #137, 1000.000000000000000 ) ;
#1374 = ORIENTED_EDGE ( 'NONE', *, *, #648, .F. ) ;
#1375 = CARTESIAN_POINT ( 'NONE',  ( -0.7749999999999999100, 2.969768487932331500E-016, 0.4000000000000000200 ) ) ;
#1376 = DIRECTION ( 'NONE',  ( -1.626303258728256900E-016, 1.000000000000000000, 0.0000000000000000000 ) ) ;
#1377 = LINE ( 'NONE', #185, #201 ) ;
#1378 = DIRECTION ( 'NONE',  ( -1.000000000000000000, 0.0000000000000000000, -0.0000000000000000000 ) ) ;
#1379 = CARTESIAN_POINT ( 'NONE',  ( 0.4249999999999999300, 0.05000000000000002400, -0.4000000000000000200 ) ) ;
#1380 = CARTESIAN_POINT ( 'NONE',  ( -0.7249999999999998700, 0.5375000000000005300, 0.0000000000000000000 ) ) ;
#1381 = ORIENTED_EDGE ( 'NONE', *, *, #913, .F. ) ;
#1382 = VERTEX_POINT ( 'NONE', #645 ) ;
#1383 = CARTESIAN_POINT ( 'NONE',  ( -0.2749999999999998600, 0.7500000000000003300, 0.3990000000000000200 ) ) ;
#1384 = LINE ( 'NONE', #985, #511 ) ;
#1385 = VERTEX_POINT ( 'NONE', #527 ) ;
#1386 = DIRECTION ( 'NONE',  ( 0.0000000000000000000, 1.000000000000000000, 0.0000000000000000000 ) ) ;
#1387 = VECTOR ( 'NONE', #31, 1000.000000000000000 ) ;
#1388 = UNCERTAINTY_MEASURE_WITH_UNIT (LENGTH_MEASURE( 1.000000000000000100E-005 ), #734, 'distance_accuracy_value', 'NONE');
#1389 = DIRECTION ( 'NONE',  ( -1.000000000000000000, 0.0000000000000000000, -0.0000000000000000000 ) ) ;
#1390 = AXIS2_PLACEMENT_3D ( 'NONE', #408, #179, #964 ) ;
#1391 = VECTOR ( 'NONE', #811, 1000.000000000000000 ) ;
#1392 = DIRECTION ( 'NONE',  ( 0.0000000000000000000, 0.0000000000000000000, 1.000000000000000000 ) ) ;
#1393 = ORIENTED_EDGE ( 'NONE', *, *, #767, .T. ) ;
#1394 = STYLED_ITEM ( 'NONE', ( #1340 ), #573 ) ;
#1395 = LINE ( 'NONE', #859, #426 ) ;
#1396 = DIRECTION ( 'NONE',  ( -1.000000000000000000, 0.0000000000000000000, 0.0000000000000000000 ) ) ;
#1397 = CARTESIAN_POINT ( 'NONE',  ( -0.2749999999999999100, 0.7400000000000003200, 0.3990000000000000200 ) ) ;
#1398 = DIRECTION ( 'NONE',  ( -1.000000000000000000, 1.084202172485504000E-015, 0.0000000000000000000 ) ) ;
#1399 = DIRECTION ( 'NONE',  ( 0.0000000000000000000, -0.0000000000000000000, -1.000000000000000000 ) ) ;
#1400 = PLANE ( 'NONE',  #296 ) ;
ENDSEC;
END-ISO-10303-21;
