ISO-10303-21;
HEADER;
FILE_DESCRIPTION(('CATIA V5 STEP Exchange','CAx-IF Rec.Pracs.--- Model Styling and Organization---1.2---2011-12-15'),'2;1');

FILE_NAME ('D1463301_0_2583400000_2583400000.stp','2018-05-17T10:16:25+00:00',('none'),('Weidmueller'),'CATIA Version 5-6 Release 2014','CATIA V5 STEP AP214','none');

FILE_SCHEMA(('AUTOMOTIVE_DESIGN { 1 0 10303 214 1 1 1 1 }'));

ENDSEC;
DATA;
#5=PRODUCT('2583400000_CABTITE_SE_3-4_SML','','',(#2)) ;
#2=PRODUCT_CONTEXT(' ',#1,'mechanical') ;
#1=APPLICATION_CONTEXT('automotive design') ;
#10=PRODUCT_DEFINITION('',' ',#6,#3) ;
#3=PRODUCT_DEFINITION_CONTEXT('part definition',#1,' ') ;
#11=PRODUCT_DEFINITION_SHAPE(' ',' ',#10) ;
#870=MECHANICAL_DESIGN_GEOMETRIC_PRESENTATION_REPRESENTATION(' ',(#29),#16) ;
#19=SHAPE_REPRESENTATION(' ',(#18),#16) ;
#18=AXIS2_PLACEMENT_3D(' ',#17,$,$) ;
#34=AXIS2_PLACEMENT_3D('Cylinder Axis2P3D',#31,#32,#33) ;
#38=AXIS2_PLACEMENT_3D('Circle Axis2P3D',#36,#37,$) ;
#54=AXIS2_PLACEMENT_3D('Circle Axis2P3D',#52,#53,$) ;
#73=AXIS2_PLACEMENT_3D('Circle Axis2P3D',#71,#72,$) ;
#78=AXIS2_PLACEMENT_3D('Circle Axis2P3D',#76,#77,$) ;
#91=AXIS2_PLACEMENT_3D('Plane Axis2P3D',#88,#89,#90) ;
#95=AXIS2_PLACEMENT_3D('Circle Axis2P3D',#93,#94,$) ;
#104=AXIS2_PLACEMENT_3D('Circle Axis2P3D',#102,#103,$) ;
#119=AXIS2_PLACEMENT_3D('Plane Axis2P3D',#116,#117,#118) ;
#123=AXIS2_PLACEMENT_3D('Circle Axis2P3D',#121,#122,$) ;
#132=AXIS2_PLACEMENT_3D('Circle Axis2P3D',#130,#131,$) ;
#147=AXIS2_PLACEMENT_3D('Cylinder Axis2P3D',#144,#145,#146) ;
#165=AXIS2_PLACEMENT_3D('Circle Axis2P3D',#163,#164,$) ;
#178=AXIS2_PLACEMENT_3D('Cylinder Axis2P3D',#175,#176,#177) ;
#182=AXIS2_PLACEMENT_3D('Circle Axis2P3D',#180,#181,$) ;
#195=AXIS2_PLACEMENT_3D('Cylinder Axis2P3D',#192,#193,#194) ;
#213=AXIS2_PLACEMENT_3D('Circle Axis2P3D',#211,#212,$) ;
#226=AXIS2_PLACEMENT_3D('Cylinder Axis2P3D',#223,#224,#225) ;
#230=AXIS2_PLACEMENT_3D('Circle Axis2P3D',#228,#229,$) ;
#243=AXIS2_PLACEMENT_3D('Plane Axis2P3D',#240,#241,#242) ;
#256=AXIS2_PLACEMENT_3D('Circle Axis2P3D',#254,#255,$) ;
#270=AXIS2_PLACEMENT_3D('Circle Axis2P3D',#268,#269,$) ;
#284=AXIS2_PLACEMENT_3D('Circle Axis2P3D',#282,#283,$) ;
#298=AXIS2_PLACEMENT_3D('Circle Axis2P3D',#296,#297,$) ;
#319=AXIS2_PLACEMENT_3D('Plane Axis2P3D',#316,#317,#318) ;
#443=AXIS2_PLACEMENT_3D('Plane Axis2P3D',#440,#441,#442) ;
#474=AXIS2_PLACEMENT_3D('Cylinder Axis2P3D',#471,#472,#473) ;
#478=AXIS2_PLACEMENT_3D('Circle Axis2P3D',#476,#477,$) ;
#498=AXIS2_PLACEMENT_3D('Plane Axis2P3D',#495,#496,#497) ;
#522=AXIS2_PLACEMENT_3D('Cylinder Axis2P3D',#519,#520,#521) ;
#526=AXIS2_PLACEMENT_3D('Circle Axis2P3D',#524,#525,$) ;
#546=AXIS2_PLACEMENT_3D('Plane Axis2P3D',#543,#544,#545) ;
#570=AXIS2_PLACEMENT_3D('Cylinder Axis2P3D',#567,#568,#569) ;
#574=AXIS2_PLACEMENT_3D('Circle Axis2P3D',#572,#573,$) ;
#594=AXIS2_PLACEMENT_3D('Plane Axis2P3D',#591,#592,#593) ;
#618=AXIS2_PLACEMENT_3D('Cylinder Axis2P3D',#615,#616,#617) ;
#622=AXIS2_PLACEMENT_3D('Circle Axis2P3D',#620,#621,$) ;
#635=AXIS2_PLACEMENT_3D('Cylinder Axis2P3D',#632,#633,#634) ;
#669=AXIS2_PLACEMENT_3D('Plane Axis2P3D',#666,#667,#668) ;
#693=AXIS2_PLACEMENT_3D('Cylinder Axis2P3D',#690,#691,#692) ;
#720=AXIS2_PLACEMENT_3D('Plane Axis2P3D',#717,#718,#719) ;
#744=AXIS2_PLACEMENT_3D('Cylinder Axis2P3D',#741,#742,#743) ;
#771=AXIS2_PLACEMENT_3D('Plane Axis2P3D',#768,#769,#770) ;
#795=AXIS2_PLACEMENT_3D('Cylinder Axis2P3D',#792,#793,#794) ;
#822=AXIS2_PLACEMENT_3D('Plane Axis2P3D',#819,#820,#821) ;
#839=AXIS2_PLACEMENT_3D('Plane Axis2P3D',#836,#837,#838) ;
#867=AXIS2_PLACEMENT_3D('Axis System.1',#864,#865,#866) ;
#17=CARTESIAN_POINT(' ',(0.,0.,0.)) ;
#31=CARTESIAN_POINT('Axis2P3D Location',(10.,10.,7.91286499571)) ;
#36=CARTESIAN_POINT('Axis2P3D Location',(10.,10.,0.3)) ;
#40=CARTESIAN_POINT('Vertex',(11.75,10.,0.3)) ;
#42=CARTESIAN_POINT('Vertex',(8.25,10.,0.3)) ;
#45=CARTESIAN_POINT('Line Origine',(8.25,10.,7.91286499571)) ;
#49=CARTESIAN_POINT('Vertex',(8.25,10.,17.2)) ;
#52=CARTESIAN_POINT('Axis2P3D Location',(10.,10.,17.2)) ;
#56=CARTESIAN_POINT('Vertex',(11.75,10.,17.2)) ;
#59=CARTESIAN_POINT('Line Origine',(11.75,10.,7.91286499571)) ;
#71=CARTESIAN_POINT('Axis2P3D Location',(10.,10.,0.3)) ;
#76=CARTESIAN_POINT('Axis2P3D Location',(10.,10.,17.2)) ;
#88=CARTESIAN_POINT('Axis2P3D Location',(10.,10.,17.2)) ;
#93=CARTESIAN_POINT('Axis2P3D Location',(10.,10.,17.2)) ;
#97=CARTESIAN_POINT('Vertex',(10.,3.,17.2)) ;
#99=CARTESIAN_POINT('Vertex',(10.,17.,17.1999999993)) ;
#102=CARTESIAN_POINT('Axis2P3D Location',(10.,10.,17.2)) ;
#116=CARTESIAN_POINT('Axis2P3D Location',(10.,10.,0.3)) ;
#121=CARTESIAN_POINT('Axis2P3D Location',(10.,10.,0.3)) ;
#125=CARTESIAN_POINT('Vertex',(10.,17.,0.3)) ;
#127=CARTESIAN_POINT('Vertex',(10.,3.,0.300000000745)) ;
#130=CARTESIAN_POINT('Axis2P3D Location',(10.,10.,0.3)) ;
#144=CARTESIAN_POINT('Axis2P3D Location',(10.,10.,17.5)) ;
#149=CARTESIAN_POINT('Line Origine',(10.,17.,17.5)) ;
#153=CARTESIAN_POINT('Vertex',(10.,17.,17.5)) ;
#156=CARTESIAN_POINT('Line Origine',(10.,3.,17.5)) ;
#160=CARTESIAN_POINT('Vertex',(10.,3.,17.5)) ;
#163=CARTESIAN_POINT('Axis2P3D Location',(10.,10.,17.5)) ;
#175=CARTESIAN_POINT('Axis2P3D Location',(10.,10.,17.5)) ;
#180=CARTESIAN_POINT('Axis2P3D Location',(10.,10.,17.5)) ;
#192=CARTESIAN_POINT('Axis2P3D Location',(10.,10.,0.)) ;
#197=CARTESIAN_POINT('Line Origine',(10.,3.,0.)) ;
#201=CARTESIAN_POINT('Vertex',(10.,3.,0.)) ;
#204=CARTESIAN_POINT('Line Origine',(10.,17.,0.)) ;
#208=CARTESIAN_POINT('Vertex',(10.,17.,0.)) ;
#211=CARTESIAN_POINT('Axis2P3D Location',(10.,10.,0.)) ;
#223=CARTESIAN_POINT('Axis2P3D Location',(10.,10.,0.)) ;
#228=CARTESIAN_POINT('Axis2P3D Location',(10.,10.,0.)) ;
#240=CARTESIAN_POINT('Axis2P3D Location',(10.,10.,17.5)) ;
#245=CARTESIAN_POINT('Line Origine',(1.40000000037,10.,17.5)) ;
#249=CARTESIAN_POINT('Vertex',(1.4,18.4499999996,17.4999999993)) ;
#251=CARTESIAN_POINT('Vertex',(1.4,1.54999999925,17.4999999993)) ;
#254=CARTESIAN_POINT('Axis2P3D Location',(1.54999999767,1.54999999767,17.5)) ;
#258=CARTESIAN_POINT('Vertex',(1.55000000037,1.4,17.4999999993)) ;
#261=CARTESIAN_POINT('Line Origine',(10.,1.40000000037,17.5)) ;
#265=CARTESIAN_POINT('Vertex',(18.45,1.4,17.5000000008)) ;
#268=CARTESIAN_POINT('Axis2P3D Location',(18.4500000023,1.54999999767,17.5)) ;
#272=CARTESIAN_POINT('Vertex',(18.6,1.55000000037,17.4999999993)) ;
#275=CARTESIAN_POINT('Line Origine',(18.5999999996,10.,17.5)) ;
#279=CARTESIAN_POINT('Vertex',(18.6,18.45,17.5000000008)) ;
#282=CARTESIAN_POINT('Axis2P3D Location',(18.4500000023,18.4500000023,17.5)) ;
#286=CARTESIAN_POINT('Vertex',(18.4499999996,18.6,17.4999999993)) ;
#289=CARTESIAN_POINT('Line Origine',(10.,18.5999999996,17.5)) ;
#293=CARTESIAN_POINT('Vertex',(1.55,18.6,17.5000000008)) ;
#296=CARTESIAN_POINT('Axis2P3D Location',(1.54999999767,18.4500000023,17.5)) ;
#316=CARTESIAN_POINT('Axis2P3D Location',(10.,10.,0.)) ;
#321=CARTESIAN_POINT('Line Origine',(10.,20.,0.)) ;
#325=CARTESIAN_POINT('Vertex',(0.299817247316,20.,0.)) ;
#327=CARTESIAN_POINT('Vertex',(19.7001827527,20.,0.)) ;
#331=CARTESIAN_POINT('Control Point',(19.7001827527,20.,0.)) ;
#332=CARTESIAN_POINT('Control Point',(19.7223850473,20.,0.)) ;
#333=CARTESIAN_POINT('Control Point',(19.7439694406,19.9984443564,0.)) ;
#334=CARTESIAN_POINT('Control Point',(19.765094824,19.9951327267,0.)) ;
#335=CARTESIAN_POINT('Control Point',(19.803053143,19.9855189901,0.)) ;
#336=CARTESIAN_POINT('Control Point',(19.8370781358,19.9699356186,0.)) ;
#337=CARTESIAN_POINT('Control Point',(19.8525677352,19.9610953687,0.)) ;
#338=CARTESIAN_POINT('Control Point',(19.8957697009,19.9315771911,0.)) ;
#339=CARTESIAN_POINT('Control Point',(19.9317270914,19.8940393002,0.)) ;
#340=CARTESIAN_POINT('Control Point',(19.9536430853,19.8687594406,0.)) ;
#341=CARTESIAN_POINT('Control Point',(19.9809164993,19.8212276431,0.)) ;
#342=CARTESIAN_POINT('Control Point',(19.9951323876,19.7650949147,0.)) ;
#343=CARTESIAN_POINT('Control Point',(19.9984443564,19.7439694406,0.)) ;
#344=CARTESIAN_POINT('Control Point',(20.,19.7223850473,0.)) ;
#345=CARTESIAN_POINT('Control Point',(20.,19.7001827527,0.)) ;
#346=CARTESIAN_POINT('Vertex',(20.,19.7001827527,0.)) ;
#349=CARTESIAN_POINT('Line Origine',(20.,10.,0.)) ;
#353=CARTESIAN_POINT('Vertex',(20.,0.299817247316,0.)) ;
#357=CARTESIAN_POINT('Control Point',(20.,0.299817247316,0.)) ;
#358=CARTESIAN_POINT('Control Point',(20.,0.277614952712,0.)) ;
#359=CARTESIAN_POINT('Control Point',(19.9984443564,0.256030559435,0.)) ;
#360=CARTESIAN_POINT('Control Point',(19.9951327267,0.234905175977,0.)) ;
#361=CARTESIAN_POINT('Control Point',(19.9855189901,0.196946857003,0.)) ;
#362=CARTESIAN_POINT('Control Point',(19.9699356186,0.16292186422,0.)) ;
#363=CARTESIAN_POINT('Control Point',(19.9610953687,0.14743226477,0.)) ;
#364=CARTESIAN_POINT('Control Point',(19.9315771911,0.104230299133,0.)) ;
#365=CARTESIAN_POINT('Control Point',(19.8940393002,0.0682729085716,0.)) ;
#366=CARTESIAN_POINT('Control Point',(19.8687594406,0.0463569146858,0.)) ;
#367=CARTESIAN_POINT('Control Point',(19.8212276431,0.0190835007067,0.)) ;
#368=CARTESIAN_POINT('Control Point',(19.7650949147,0.00486761239048,0.)) ;
#369=CARTESIAN_POINT('Control Point',(19.7439694406,0.00155564356628,0.)) ;
#370=CARTESIAN_POINT('Control Point',(19.7223850473,0.,0.)) ;
#371=CARTESIAN_POINT('Control Point',(19.7001827527,0.,0.)) ;
#372=CARTESIAN_POINT('Vertex',(19.7001827527,0.,0.)) ;
#375=CARTESIAN_POINT('Line Origine',(10.,0.,0.)) ;
#379=CARTESIAN_POINT('Vertex',(0.299817247316,1.7763568394E-015,0.)) ;
#383=CARTESIAN_POINT('Control Point',(0.299817247316,1.7763568394E-015,0.)) ;
#384=CARTESIAN_POINT('Control Point',(0.277614952712,0.,0.)) ;
#385=CARTESIAN_POINT('Control Point',(0.256030559435,0.00155564356628,0.)) ;
#386=CARTESIAN_POINT('Control Point',(0.234905175977,0.00486727334389,0.)) ;
#387=CARTESIAN_POINT('Control Point',(0.196946857003,0.0144810098785,0.)) ;
#388=CARTESIAN_POINT('Control Point',(0.16292186422,0.030064381356,0.)) ;
#389=CARTESIAN_POINT('Control Point',(0.14743226477,0.0389046312947,0.)) ;
#390=CARTESIAN_POINT('Control Point',(0.104230299133,0.0684228089416,0.)) ;
#391=CARTESIAN_POINT('Control Point',(0.0682729085716,0.105960699847,0.)) ;
#392=CARTESIAN_POINT('Control Point',(0.0463569146858,0.131240559448,0.)) ;
#393=CARTESIAN_POINT('Control Point',(0.0190835007067,0.178772356935,0.)) ;
#394=CARTESIAN_POINT('Control Point',(0.00486761239048,0.234905085304,0.)) ;
#395=CARTESIAN_POINT('Control Point',(0.00155564356628,0.256030559435,0.)) ;
#396=CARTESIAN_POINT('Control Point',(0.,0.277614952712,0.)) ;
#397=CARTESIAN_POINT('Control Point',(0.,0.299817247316,0.)) ;
#398=CARTESIAN_POINT('Vertex',(0.,0.299817247316,0.)) ;
#401=CARTESIAN_POINT('Line Origine',(0.,10.,0.)) ;
#405=CARTESIAN_POINT('Vertex',(1.7763568394E-015,19.7001827527,0.)) ;
#409=CARTESIAN_POINT('Control Point',(1.7763568394E-015,19.7001827527,0.)) ;
#410=CARTESIAN_POINT('Control Point',(0.,19.7223850473,0.)) ;
#411=CARTESIAN_POINT('Control Point',(0.00155564356628,19.7439694406,0.)) ;
#412=CARTESIAN_POINT('Control Point',(0.00486727334389,19.765094824,0.)) ;
#413=CARTESIAN_POINT('Control Point',(0.0144810098785,19.803053143,0.)) ;
#414=CARTESIAN_POINT('Control Point',(0.030064381356,19.8370781358,0.)) ;
#415=CARTESIAN_POINT('Control Point',(0.0389046312947,19.8525677352,0.)) ;
#416=CARTESIAN_POINT('Control Point',(0.0684228089416,19.8957697009,0.)) ;
#417=CARTESIAN_POINT('Control Point',(0.105960699847,19.9317270914,0.)) ;
#418=CARTESIAN_POINT('Control Point',(0.131240559448,19.9536430853,0.)) ;
#419=CARTESIAN_POINT('Control Point',(0.178772356935,19.9809164993,0.)) ;
#420=CARTESIAN_POINT('Control Point',(0.234905085304,19.9951323876,0.)) ;
#421=CARTESIAN_POINT('Control Point',(0.256030559435,19.9984443564,0.)) ;
#422=CARTESIAN_POINT('Control Point',(0.277614952712,20.,0.)) ;
#423=CARTESIAN_POINT('Control Point',(0.299817247316,20.,0.)) ;
#440=CARTESIAN_POINT('Axis2P3D Location',(1.4,18.6,16.3)) ;
#445=CARTESIAN_POINT('Line Origine',(1.4,9.99999999944,16.3)) ;
#449=CARTESIAN_POINT('Vertex',(1.40000000037,18.4499999993,16.3)) ;
#451=CARTESIAN_POINT('Vertex',(1.4,1.55,16.2999999997)) ;
#454=CARTESIAN_POINT('Line Origine',(1.4,1.54999999925,16.8999999996)) ;
#459=CARTESIAN_POINT('Line Origine',(1.4,18.4499999996,16.8999999996)) ;
#471=CARTESIAN_POINT('Axis2P3D Location',(1.55,1.55,40.313)) ;
#476=CARTESIAN_POINT('Axis2P3D Location',(1.55,1.55,16.2999999997)) ;
#480=CARTESIAN_POINT('Vertex',(1.55000000075,1.40000000037,16.3)) ;
#483=CARTESIAN_POINT('Line Origine',(1.55,1.4,40.3129999992)) ;
#495=CARTESIAN_POINT('Axis2P3D Location',(1.4,1.4,16.3)) ;
#500=CARTESIAN_POINT('Line Origine',(10.0000000006,1.4,16.3)) ;
#504=CARTESIAN_POINT('Vertex',(18.45,1.4,16.2999999997)) ;
#507=CARTESIAN_POINT('Line Origine',(18.4500000007,1.4,16.8999999996)) ;
#519=CARTESIAN_POINT('Axis2P3D Location',(18.45,1.55,40.313)) ;
#524=CARTESIAN_POINT('Axis2P3D Location',(18.45,1.55,16.2999999997)) ;
#528=CARTESIAN_POINT('Vertex',(18.5999999996,1.55000000075,16.3)) ;
#531=CARTESIAN_POINT('Line Origine',(18.6,1.55,40.3129999992)) ;
#543=CARTESIAN_POINT('Axis2P3D Location',(18.6,1.4,16.3)) ;
#548=CARTESIAN_POINT('Line Origine',(18.6,10.0000000006,16.3)) ;
#552=CARTESIAN_POINT('Vertex',(18.6,18.45,16.2999999997)) ;
#555=CARTESIAN_POINT('Line Origine',(18.6,18.4500000007,16.8999999996)) ;
#567=CARTESIAN_POINT('Axis2P3D Location',(18.45,18.45,40.313)) ;
#572=CARTESIAN_POINT('Axis2P3D Location',(18.45,18.45,16.2999999997)) ;
#576=CARTESIAN_POINT('Vertex',(18.4499999993,18.5999999996,16.3)) ;
#579=CARTESIAN_POINT('Line Origine',(18.45,18.6,40.3129999992)) ;
#591=CARTESIAN_POINT('Axis2P3D Location',(18.6,18.6,16.3)) ;
#596=CARTESIAN_POINT('Line Origine',(9.99999999944,18.6,16.3)) ;
#600=CARTESIAN_POINT('Vertex',(1.55,18.6,16.2999999997)) ;
#603=CARTESIAN_POINT('Line Origine',(1.54999999925,18.6,16.8999999996)) ;
#615=CARTESIAN_POINT('Axis2P3D Location',(1.55,18.45,40.313)) ;
#620=CARTESIAN_POINT('Axis2P3D Location',(1.55,18.45,16.2999999997)) ;
#632=CARTESIAN_POINT('Axis2P3D Location',(-0.49646465113,20.4964646511,-22.813)) ;
#637=CARTESIAN_POINT('Line Origine',(-0.496464651136,20.7962818993,-22.8025301509)) ;
#641=CARTESIAN_POINT('Vertex',(0.869025790836,19.4307914573,16.3000000006)) ;
#644=CARTESIAN_POINT('Line Origine',(-0.796281899267,20.4964646511,-22.8025301509)) ;
#648=CARTESIAN_POINT('Vertex',(0.56920854273,19.1309742092,16.3000000006)) ;
#652=CARTESIAN_POINT('Control Point',(0.869025790836,19.4307914573,16.3000000006)) ;
#653=CARTESIAN_POINT('Control Point',(0.763823694026,19.4307914573,16.3000000006)) ;
#654=CARTESIAN_POINT('Control Point',(0.67553044702,19.3836646822,16.2999051404)) ;
#655=CARTESIAN_POINT('Control Point',(0.616335446125,19.3244690938,16.299905279)) ;
#656=CARTESIAN_POINT('Control Point',(0.569208542729,19.236176306,16.3000000006)) ;
#657=CARTESIAN_POINT('Control Point',(0.56920854273,19.1309742092,16.3000000006)) ;
#666=CARTESIAN_POINT('Axis2P3D Location',(0.,20.,0.)) ;
#671=CARTESIAN_POINT('Line Origine',(0.28460427135,0.58442151919,8.14999999978)) ;
#675=CARTESIAN_POINT('Vertex',(0.569208541885,0.869025791064,16.3)) ;
#678=CARTESIAN_POINT('Line Origine',(0.5692085427,10.,16.2999999996)) ;
#690=CARTESIAN_POINT('Axis2P3D Location',(-0.49646465113,-0.49646465113,-22.813)) ;
#695=CARTESIAN_POINT('Line Origine',(-0.496464651136,-0.796281899267,-22.8025301509)) ;
#699=CARTESIAN_POINT('Vertex',(0.869025791064,0.569208541885,16.3)) ;
#703=CARTESIAN_POINT('Control Point',(0.56920854273,0.869025790836,16.3000000006)) ;
#704=CARTESIAN_POINT('Control Point',(0.56920854273,0.763823694026,16.3000000006)) ;
#705=CARTESIAN_POINT('Control Point',(0.61633531784,0.67553044702,16.2999051404)) ;
#706=CARTESIAN_POINT('Control Point',(0.675530906214,0.616335446125,16.299905279)) ;
#707=CARTESIAN_POINT('Control Point',(0.76382369403,0.569208542729,16.3000000006)) ;
#708=CARTESIAN_POINT('Control Point',(0.86902579084,0.56920854273,16.3000000006)) ;
#717=CARTESIAN_POINT('Axis2P3D Location',(0.,0.,0.)) ;
#722=CARTESIAN_POINT('Line Origine',(19.4155784808,0.28460427135,8.14999999978)) ;
#726=CARTESIAN_POINT('Vertex',(19.1309742089,0.569208541885,16.3)) ;
#729=CARTESIAN_POINT('Line Origine',(10.,0.5692085427,16.2999999996)) ;
#741=CARTESIAN_POINT('Axis2P3D Location',(20.4964646511,-0.49646465113,-22.813)) ;
#746=CARTESIAN_POINT('Line Origine',(20.7962818993,-0.496464651136,-22.8025301509)) ;
#750=CARTESIAN_POINT('Vertex',(19.4307914581,0.869025791064,16.3)) ;
#754=CARTESIAN_POINT('Control Point',(19.1309742092,0.56920854273,16.3000000006)) ;
#755=CARTESIAN_POINT('Control Point',(19.236176306,0.56920854273,16.3000000006)) ;
#756=CARTESIAN_POINT('Control Point',(19.324469553,0.61633531784,16.2999051404)) ;
#757=CARTESIAN_POINT('Control Point',(19.3836645539,0.675530906214,16.299905279)) ;
#758=CARTESIAN_POINT('Control Point',(19.4307914573,0.76382369403,16.3000000006)) ;
#759=CARTESIAN_POINT('Control Point',(19.4307914573,0.86902579084,16.3000000006)) ;
#768=CARTESIAN_POINT('Axis2P3D Location',(20.,0.,0.)) ;
#773=CARTESIAN_POINT('Line Origine',(19.4307914573,10.,16.2999999996)) ;
#777=CARTESIAN_POINT('Vertex',(19.4307914581,19.1309742089,16.3)) ;
#780=CARTESIAN_POINT('Line Origine',(19.7153957287,19.4155784808,8.14999999978)) ;
#792=CARTESIAN_POINT('Axis2P3D Location',(20.4964646511,20.4964646511,-22.813)) ;
#797=CARTESIAN_POINT('Line Origine',(20.4964646511,20.7962818993,-22.8025301509)) ;
#801=CARTESIAN_POINT('Vertex',(19.1309742089,19.4307914581,16.3)) ;
#805=CARTESIAN_POINT('Control Point',(19.4307914573,19.1309742092,16.3000000006)) ;
#806=CARTESIAN_POINT('Control Point',(19.4307914573,19.236176306,16.3000000006)) ;
#807=CARTESIAN_POINT('Control Point',(19.3836646822,19.324469553,16.2999051404)) ;
#808=CARTESIAN_POINT('Control Point',(19.3244690938,19.3836645539,16.299905279)) ;
#809=CARTESIAN_POINT('Control Point',(19.236176306,19.4307914573,16.3000000006)) ;
#810=CARTESIAN_POINT('Control Point',(19.1309742092,19.4307914573,16.3000000006)) ;
#819=CARTESIAN_POINT('Axis2P3D Location',(20.,20.,0.)) ;
#824=CARTESIAN_POINT('Line Origine',(10.,19.4307914573,16.2999999996)) ;
#836=CARTESIAN_POINT('Axis2P3D Location',(10.,10.,16.3)) ;
#864=CARTESIAN_POINT('Axis2P3D Location',(0.,0.,0.)) ;
#32=DIRECTION('Axis2P3D Direction',(0.,-0.,1.)) ;
#33=DIRECTION('Axis2P3D XDirection',(1.,0.,0.)) ;
#37=DIRECTION('Axis2P3D Direction',(0.,-0.,1.)) ;
#46=DIRECTION('Vector Direction',(0.,0.,1.)) ;
#53=DIRECTION('Axis2P3D Direction',(0.,-0.,1.)) ;
#60=DIRECTION('Vector Direction',(0.,0.,1.)) ;
#72=DIRECTION('Axis2P3D Direction',(0.,-0.,1.)) ;
#77=DIRECTION('Axis2P3D Direction',(0.,-0.,1.)) ;
#89=DIRECTION('Axis2P3D Direction',(0.,-0.,1.)) ;
#90=DIRECTION('Axis2P3D XDirection',(0.,1.,0.)) ;
#94=DIRECTION('Axis2P3D Direction',(0.,-0.,1.)) ;
#103=DIRECTION('Axis2P3D Direction',(0.,-0.,1.)) ;
#117=DIRECTION('Axis2P3D Direction',(-0.,-0.,-1.)) ;
#118=DIRECTION('Axis2P3D XDirection',(0.,-1.,0.)) ;
#122=DIRECTION('Axis2P3D Direction',(-0.,-0.,-1.)) ;
#131=DIRECTION('Axis2P3D Direction',(-0.,-0.,-1.)) ;
#145=DIRECTION('Axis2P3D Direction',(0.,-0.,1.)) ;
#146=DIRECTION('Axis2P3D XDirection',(-1.22464679915E-016,-1.,0.)) ;
#150=DIRECTION('Vector Direction',(0.,0.,1.)) ;
#157=DIRECTION('Vector Direction',(0.,0.,1.)) ;
#164=DIRECTION('Axis2P3D Direction',(0.,-0.,1.)) ;
#176=DIRECTION('Axis2P3D Direction',(0.,-0.,1.)) ;
#177=DIRECTION('Axis2P3D XDirection',(0.,1.,0.)) ;
#181=DIRECTION('Axis2P3D Direction',(0.,-0.,1.)) ;
#193=DIRECTION('Axis2P3D Direction',(0.,0.,-1.)) ;
#194=DIRECTION('Axis2P3D XDirection',(-1.22464679915E-016,1.,-0.)) ;
#198=DIRECTION('Vector Direction',(0.,0.,-1.)) ;
#205=DIRECTION('Vector Direction',(0.,0.,-1.)) ;
#212=DIRECTION('Axis2P3D Direction',(0.,0.,-1.)) ;
#224=DIRECTION('Axis2P3D Direction',(0.,0.,-1.)) ;
#225=DIRECTION('Axis2P3D XDirection',(0.,-1.,0.)) ;
#229=DIRECTION('Axis2P3D Direction',(0.,0.,-1.)) ;
#241=DIRECTION('Axis2P3D Direction',(0.,0.,1.)) ;
#242=DIRECTION('Axis2P3D XDirection',(1.,0.,0.)) ;
#246=DIRECTION('Vector Direction',(0.,-1.,0.)) ;
#255=DIRECTION('Axis2P3D Direction',(0.,0.,1.)) ;
#262=DIRECTION('Vector Direction',(1.,0.,0.)) ;
#269=DIRECTION('Axis2P3D Direction',(0.,0.,1.)) ;
#276=DIRECTION('Vector Direction',(0.,1.,0.)) ;
#283=DIRECTION('Axis2P3D Direction',(0.,0.,1.)) ;
#290=DIRECTION('Vector Direction',(-1.,0.,0.)) ;
#297=DIRECTION('Axis2P3D Direction',(0.,0.,1.)) ;
#317=DIRECTION('Axis2P3D Direction',(0.,0.,1.)) ;
#318=DIRECTION('Axis2P3D XDirection',(1.,0.,0.)) ;
#322=DIRECTION('Vector Direction',(1.,0.,0.)) ;
#350=DIRECTION('Vector Direction',(0.,-1.,0.)) ;
#376=DIRECTION('Vector Direction',(-1.,0.,0.)) ;
#402=DIRECTION('Vector Direction',(0.,1.,0.)) ;
#441=DIRECTION('Axis2P3D Direction',(-1.,0.,0.)) ;
#442=DIRECTION('Axis2P3D XDirection',(0.,-1.,0.)) ;
#446=DIRECTION('Vector Direction',(0.,-1.,0.)) ;
#455=DIRECTION('Vector Direction',(0.,0.,-1.)) ;
#460=DIRECTION('Vector Direction',(0.,0.,-1.)) ;
#472=DIRECTION('Axis2P3D Direction',(0.,0.,-1.)) ;
#473=DIRECTION('Axis2P3D XDirection',(0.,-1.,0.)) ;
#477=DIRECTION('Axis2P3D Direction',(0.,0.,-1.)) ;
#484=DIRECTION('Vector Direction',(0.,0.,-1.)) ;
#496=DIRECTION('Axis2P3D Direction',(0.,-1.,0.)) ;
#497=DIRECTION('Axis2P3D XDirection',(1.,0.,0.)) ;
#501=DIRECTION('Vector Direction',(1.,0.,0.)) ;
#508=DIRECTION('Vector Direction',(0.,0.,-1.)) ;
#520=DIRECTION('Axis2P3D Direction',(0.,0.,-1.)) ;
#521=DIRECTION('Axis2P3D XDirection',(1.,0.,0.)) ;
#525=DIRECTION('Axis2P3D Direction',(0.,0.,-1.)) ;
#532=DIRECTION('Vector Direction',(0.,0.,-1.)) ;
#544=DIRECTION('Axis2P3D Direction',(1.,0.,0.)) ;
#545=DIRECTION('Axis2P3D XDirection',(0.,1.,0.)) ;
#549=DIRECTION('Vector Direction',(0.,1.,0.)) ;
#556=DIRECTION('Vector Direction',(0.,0.,-1.)) ;
#568=DIRECTION('Axis2P3D Direction',(0.,0.,-1.)) ;
#569=DIRECTION('Axis2P3D XDirection',(0.,1.,0.)) ;
#573=DIRECTION('Axis2P3D Direction',(0.,0.,-1.)) ;
#580=DIRECTION('Vector Direction',(0.,0.,-1.)) ;
#592=DIRECTION('Axis2P3D Direction',(0.,1.,-0.)) ;
#593=DIRECTION('Axis2P3D XDirection',(-1.,0.,0.)) ;
#597=DIRECTION('Vector Direction',(-1.,0.,0.)) ;
#604=DIRECTION('Vector Direction',(0.,0.,-1.)) ;
#616=DIRECTION('Axis2P3D Direction',(0.,0.,-1.)) ;
#617=DIRECTION('Axis2P3D XDirection',(-1.,0.,0.)) ;
#621=DIRECTION('Axis2P3D Direction',(0.,0.,-1.)) ;
#633=DIRECTION('Axis2P3D Direction',(0.0348782627424,-0.0348782627424,0.998782765959)) ;
#634=DIRECTION('Axis2P3D XDirection',(-9.99528412301E-017,0.999390827019,0.0348994967025)) ;
#638=DIRECTION('Vector Direction',(0.0348782627424,-0.0348782627424,0.998782765959)) ;
#645=DIRECTION('Vector Direction',(0.0348782627424,-0.0348782627424,0.998782765959)) ;
#667=DIRECTION('Axis2P3D Direction',(-0.999390827019,0.,0.0348994967025)) ;
#668=DIRECTION('Axis2P3D XDirection',(0.,-1.,0.)) ;
#672=DIRECTION('Vector Direction',(0.0348782627423,0.0348782628065,0.998782765956)) ;
#679=DIRECTION('Vector Direction',(0.,1.,0.)) ;
#691=DIRECTION('Axis2P3D Direction',(0.0348782627424,0.0348782627424,0.998782765959)) ;
#692=DIRECTION('Axis2P3D XDirection',(-0.999390827019,-9.99528412301E-017,0.0348994967025)) ;
#696=DIRECTION('Vector Direction',(0.0348782627424,0.0348782627424,0.998782765959)) ;
#718=DIRECTION('Axis2P3D Direction',(0.,-0.999390827019,0.0348994967025)) ;
#719=DIRECTION('Axis2P3D XDirection',(1.,0.,0.)) ;
#723=DIRECTION('Vector Direction',(-0.0348782628065,0.0348782627423,0.998782765956)) ;
#730=DIRECTION('Vector Direction',(-1.,0.,0.)) ;
#742=DIRECTION('Axis2P3D Direction',(-0.0348782627424,0.0348782627424,0.998782765959)) ;
#743=DIRECTION('Axis2P3D XDirection',(9.99528412301E-017,-0.999390827019,0.0348994967025)) ;
#747=DIRECTION('Vector Direction',(-0.0348782627424,0.0348782627424,0.998782765959)) ;
#769=DIRECTION('Axis2P3D Direction',(0.999390827019,-0.,0.0348994967025)) ;
#770=DIRECTION('Axis2P3D XDirection',(0.,1.,0.)) ;
#774=DIRECTION('Vector Direction',(0.,1.,0.)) ;
#781=DIRECTION('Vector Direction',(-0.0348782627423,-0.0348782628065,0.998782765956)) ;
#793=DIRECTION('Axis2P3D Direction',(-0.0348782627424,-0.0348782627424,0.998782765959)) ;
#794=DIRECTION('Axis2P3D XDirection',(0.999390827019,9.99528412301E-017,0.0348994967025)) ;
#798=DIRECTION('Vector Direction',(-0.0348782627424,-0.0348782627424,0.998782765959)) ;
#820=DIRECTION('Axis2P3D Direction',(0.,0.999390827019,0.0348994967025)) ;
#821=DIRECTION('Axis2P3D XDirection',(-1.,0.,0.)) ;
#825=DIRECTION('Vector Direction',(-1.,0.,0.)) ;
#837=DIRECTION('Axis2P3D Direction',(0.,0.,1.)) ;
#838=DIRECTION('Axis2P3D XDirection',(1.,0.,0.)) ;
#865=DIRECTION('Axis2P3D Direction',(0.,0.,1.)) ;
#866=DIRECTION('Axis2P3D XDirection',(1.,0.,0.)) ;
#8=PRODUCT_RELATED_PRODUCT_CATEGORY('part',$,(#5)) ;
#7=PRODUCT_CATEGORY('part','specification') ;
#29=STYLED_ITEM(' ',(#28),#21) ;
#28=PRESENTATION_STYLE_ASSIGNMENT((#27)) ;
#27=SURFACE_STYLE_USAGE(.BOTH.,#26) ;
#26=SURFACE_SIDE_STYLE(' ',(#25)) ;
#25=SURFACE_STYLE_FILL_AREA(#24) ;
#24=FILL_AREA_STYLE(' ',(#23)) ;
#23=FILL_AREA_STYLE_COLOUR(' ',#22) ;
#47=VECTOR('Line Direction',#46,1.) ;
#61=VECTOR('Line Direction',#60,1.) ;
#151=VECTOR('Line Direction',#150,1.) ;
#158=VECTOR('Line Direction',#157,1.) ;
#199=VECTOR('Line Direction',#198,1.) ;
#206=VECTOR('Line Direction',#205,1.) ;
#247=VECTOR('Line Direction',#246,1.) ;
#263=VECTOR('Line Direction',#262,1.) ;
#277=VECTOR('Line Direction',#276,1.) ;
#291=VECTOR('Line Direction',#290,1.) ;
#323=VECTOR('Line Direction',#322,1.) ;
#351=VECTOR('Line Direction',#350,1.) ;
#377=VECTOR('Line Direction',#376,1.) ;
#403=VECTOR('Line Direction',#402,1.) ;
#447=VECTOR('Line Direction',#446,1.) ;
#456=VECTOR('Line Direction',#455,1.) ;
#461=VECTOR('Line Direction',#460,1.) ;
#485=VECTOR('Line Direction',#484,1.) ;
#502=VECTOR('Line Direction',#501,1.) ;
#509=VECTOR('Line Direction',#508,1.) ;
#533=VECTOR('Line Direction',#532,1.) ;
#550=VECTOR('Line Direction',#549,1.) ;
#557=VECTOR('Line Direction',#556,1.) ;
#581=VECTOR('Line Direction',#580,1.) ;
#598=VECTOR('Line Direction',#597,1.) ;
#605=VECTOR('Line Direction',#604,1.) ;
#639=VECTOR('Line Direction',#638,1.) ;
#646=VECTOR('Line Direction',#645,1.) ;
#673=VECTOR('Line Direction',#672,1.) ;
#680=VECTOR('Line Direction',#679,1.) ;
#697=VECTOR('Line Direction',#696,1.) ;
#724=VECTOR('Line Direction',#723,1.) ;
#731=VECTOR('Line Direction',#730,1.) ;
#748=VECTOR('Line Direction',#747,1.) ;
#775=VECTOR('Line Direction',#774,1.) ;
#782=VECTOR('Line Direction',#781,1.) ;
#799=VECTOR('Line Direction',#798,1.) ;
#826=VECTOR('Line Direction',#825,1.) ;
#15=UNCERTAINTY_MEASURE_WITH_UNIT(LENGTH_MEASURE(0.005),#12,'distance_accuracy_value','CONFUSED CURVE UNCERTAINTY') ;
#863=SHAPE_REPRESENTATION_RELATIONSHIP(' ',' ',#19,#862) ;
#65=ORIENTED_EDGE('',*,*,#44,.T.) ;
#66=ORIENTED_EDGE('',*,*,#51,.F.) ;
#67=ORIENTED_EDGE('',*,*,#58,.T.) ;
#68=ORIENTED_EDGE('',*,*,#63,.T.) ;
#82=ORIENTED_EDGE('',*,*,#75,.T.) ;
#83=ORIENTED_EDGE('',*,*,#63,.F.) ;
#84=ORIENTED_EDGE('',*,*,#80,.T.) ;
#85=ORIENTED_EDGE('',*,*,#51,.T.) ;
#108=ORIENTED_EDGE('',*,*,#101,.T.) ;
#109=ORIENTED_EDGE('',*,*,#106,.T.) ;
#112=ORIENTED_EDGE('',*,*,#80,.F.) ;
#113=ORIENTED_EDGE('',*,*,#58,.F.) ;
#136=ORIENTED_EDGE('',*,*,#129,.T.) ;
#137=ORIENTED_EDGE('',*,*,#134,.T.) ;
#140=ORIENTED_EDGE('',*,*,#75,.F.) ;
#141=ORIENTED_EDGE('',*,*,#44,.F.) ;
#169=ORIENTED_EDGE('',*,*,#155,.T.) ;
#170=ORIENTED_EDGE('',*,*,#101,.F.) ;
#171=ORIENTED_EDGE('',*,*,#162,.F.) ;
#172=ORIENTED_EDGE('',*,*,#167,.T.) ;
#186=ORIENTED_EDGE('',*,*,#162,.T.) ;
#187=ORIENTED_EDGE('',*,*,#106,.F.) ;
#188=ORIENTED_EDGE('',*,*,#155,.F.) ;
#189=ORIENTED_EDGE('',*,*,#184,.T.) ;
#217=ORIENTED_EDGE('',*,*,#203,.T.) ;
#218=ORIENTED_EDGE('',*,*,#129,.F.) ;
#219=ORIENTED_EDGE('',*,*,#210,.F.) ;
#220=ORIENTED_EDGE('',*,*,#215,.T.) ;
#234=ORIENTED_EDGE('',*,*,#210,.T.) ;
#235=ORIENTED_EDGE('',*,*,#134,.F.) ;
#236=ORIENTED_EDGE('',*,*,#203,.F.) ;
#237=ORIENTED_EDGE('',*,*,#232,.T.) ;
#302=ORIENTED_EDGE('',*,*,#253,.T.) ;
#303=ORIENTED_EDGE('',*,*,#260,.T.) ;
#304=ORIENTED_EDGE('',*,*,#267,.T.) ;
#305=ORIENTED_EDGE('',*,*,#274,.T.) ;
#306=ORIENTED_EDGE('',*,*,#281,.T.) ;
#307=ORIENTED_EDGE('',*,*,#288,.T.) ;
#308=ORIENTED_EDGE('',*,*,#295,.T.) ;
#309=ORIENTED_EDGE('',*,*,#300,.T.) ;
#312=ORIENTED_EDGE('',*,*,#167,.F.) ;
#313=ORIENTED_EDGE('',*,*,#184,.F.) ;
#426=ORIENTED_EDGE('',*,*,#329,.T.) ;
#427=ORIENTED_EDGE('',*,*,#348,.T.) ;
#428=ORIENTED_EDGE('',*,*,#355,.T.) ;
#429=ORIENTED_EDGE('',*,*,#374,.T.) ;
#430=ORIENTED_EDGE('',*,*,#381,.T.) ;
#431=ORIENTED_EDGE('',*,*,#400,.T.) ;
#432=ORIENTED_EDGE('',*,*,#407,.T.) ;
#433=ORIENTED_EDGE('',*,*,#424,.T.) ;
#436=ORIENTED_EDGE('',*,*,#215,.F.) ;
#437=ORIENTED_EDGE('',*,*,#232,.F.) ;
#465=ORIENTED_EDGE('',*,*,#453,.T.) ;
#466=ORIENTED_EDGE('',*,*,#458,.F.) ;
#467=ORIENTED_EDGE('',*,*,#253,.F.) ;
#468=ORIENTED_EDGE('',*,*,#463,.T.) ;
#489=ORIENTED_EDGE('',*,*,#482,.F.) ;
#490=ORIENTED_EDGE('',*,*,#487,.F.) ;
#491=ORIENTED_EDGE('',*,*,#260,.F.) ;
#492=ORIENTED_EDGE('',*,*,#458,.T.) ;
#513=ORIENTED_EDGE('',*,*,#506,.T.) ;
#514=ORIENTED_EDGE('',*,*,#511,.F.) ;
#515=ORIENTED_EDGE('',*,*,#267,.F.) ;
#516=ORIENTED_EDGE('',*,*,#487,.T.) ;
#537=ORIENTED_EDGE('',*,*,#530,.F.) ;
#538=ORIENTED_EDGE('',*,*,#535,.F.) ;
#539=ORIENTED_EDGE('',*,*,#274,.F.) ;
#540=ORIENTED_EDGE('',*,*,#511,.T.) ;
#561=ORIENTED_EDGE('',*,*,#281,.F.) ;
#562=ORIENTED_EDGE('',*,*,#535,.T.) ;
#563=ORIENTED_EDGE('',*,*,#554,.T.) ;
#564=ORIENTED_EDGE('',*,*,#559,.F.) ;
#585=ORIENTED_EDGE('',*,*,#578,.F.) ;
#586=ORIENTED_EDGE('',*,*,#583,.F.) ;
#587=ORIENTED_EDGE('',*,*,#288,.F.) ;
#588=ORIENTED_EDGE('',*,*,#559,.T.) ;
#609=ORIENTED_EDGE('',*,*,#295,.F.) ;
#610=ORIENTED_EDGE('',*,*,#583,.T.) ;
#611=ORIENTED_EDGE('',*,*,#602,.T.) ;
#612=ORIENTED_EDGE('',*,*,#607,.F.) ;
#626=ORIENTED_EDGE('',*,*,#624,.F.) ;
#627=ORIENTED_EDGE('',*,*,#463,.F.) ;
#628=ORIENTED_EDGE('',*,*,#300,.F.) ;
#629=ORIENTED_EDGE('',*,*,#607,.T.) ;
#660=ORIENTED_EDGE('',*,*,#643,.F.) ;
#661=ORIENTED_EDGE('',*,*,#424,.F.) ;
#662=ORIENTED_EDGE('',*,*,#650,.T.) ;
#663=ORIENTED_EDGE('',*,*,#658,.F.) ;
#684=ORIENTED_EDGE('',*,*,#407,.F.) ;
#685=ORIENTED_EDGE('',*,*,#677,.T.) ;
#686=ORIENTED_EDGE('',*,*,#682,.T.) ;
#687=ORIENTED_EDGE('',*,*,#650,.F.) ;
#711=ORIENTED_EDGE('',*,*,#677,.F.) ;
#712=ORIENTED_EDGE('',*,*,#400,.F.) ;
#713=ORIENTED_EDGE('',*,*,#701,.T.) ;
#714=ORIENTED_EDGE('',*,*,#709,.F.) ;
#735=ORIENTED_EDGE('',*,*,#381,.F.) ;
#736=ORIENTED_EDGE('',*,*,#728,.T.) ;
#737=ORIENTED_EDGE('',*,*,#733,.T.) ;
#738=ORIENTED_EDGE('',*,*,#701,.F.) ;
#762=ORIENTED_EDGE('',*,*,#728,.F.) ;
#763=ORIENTED_EDGE('',*,*,#374,.F.) ;
#764=ORIENTED_EDGE('',*,*,#752,.T.) ;
#765=ORIENTED_EDGE('',*,*,#760,.F.) ;
#786=ORIENTED_EDGE('',*,*,#779,.F.) ;
#787=ORIENTED_EDGE('',*,*,#752,.F.) ;
#788=ORIENTED_EDGE('',*,*,#355,.F.) ;
#789=ORIENTED_EDGE('',*,*,#784,.T.) ;
#813=ORIENTED_EDGE('',*,*,#784,.F.) ;
#814=ORIENTED_EDGE('',*,*,#348,.F.) ;
#815=ORIENTED_EDGE('',*,*,#803,.T.) ;
#816=ORIENTED_EDGE('',*,*,#811,.F.) ;
#830=ORIENTED_EDGE('',*,*,#828,.F.) ;
#831=ORIENTED_EDGE('',*,*,#803,.F.) ;
#832=ORIENTED_EDGE('',*,*,#329,.F.) ;
#833=ORIENTED_EDGE('',*,*,#643,.T.) ;
#842=ORIENTED_EDGE('',*,*,#682,.F.) ;
#843=ORIENTED_EDGE('',*,*,#709,.T.) ;
#844=ORIENTED_EDGE('',*,*,#733,.F.) ;
#845=ORIENTED_EDGE('',*,*,#760,.T.) ;
#846=ORIENTED_EDGE('',*,*,#779,.T.) ;
#847=ORIENTED_EDGE('',*,*,#811,.T.) ;
#848=ORIENTED_EDGE('',*,*,#828,.T.) ;
#849=ORIENTED_EDGE('',*,*,#658,.T.) ;
#852=ORIENTED_EDGE('',*,*,#624,.T.) ;
#853=ORIENTED_EDGE('',*,*,#602,.F.) ;
#854=ORIENTED_EDGE('',*,*,#578,.T.) ;
#855=ORIENTED_EDGE('',*,*,#554,.F.) ;
#856=ORIENTED_EDGE('',*,*,#530,.T.) ;
#857=ORIENTED_EDGE('',*,*,#506,.F.) ;
#858=ORIENTED_EDGE('',*,*,#482,.T.) ;
#859=ORIENTED_EDGE('',*,*,#453,.F.) ;
#114=FACE_BOUND('',#111,.T.) ;
#142=FACE_BOUND('',#139,.T.) ;
#314=FACE_BOUND('',#311,.T.) ;
#438=FACE_BOUND('',#435,.T.) ;
#860=FACE_BOUND('',#851,.T.) ;
#30=CLOSED_SHELL('Closed Shell',(#70,#87,#115,#143,#174,#191,#222,#239,#315,#439,#470,#494,#518,#542,#566,#590,#614,#631,#665,#689,#716,#740,#767,#791,#818,#835,#861)) ;
#862=ADVANCED_BREP_SHAPE_REPRESENTATION('NONE',(#21),#16) ;
#70=ADVANCED_FACE('K\X2\00F6\X0\rper',(#69),#35,.F.) ;
#87=ADVANCED_FACE('K\X2\00F6\X0\rper',(#86),#35,.F.) ;
#115=ADVANCED_FACE('K\X2\00F6\X0\rper',(#110,#114),#92,.T.) ;
#143=ADVANCED_FACE('K\X2\00F6\X0\rper',(#138,#142),#120,.T.) ;
#174=ADVANCED_FACE('K\X2\00F6\X0\rper',(#173),#148,.F.) ;
#191=ADVANCED_FACE('K\X2\00F6\X0\rper',(#190),#179,.F.) ;
#222=ADVANCED_FACE('K\X2\00F6\X0\rper',(#221),#196,.F.) ;
#239=ADVANCED_FACE('K\X2\00F6\X0\rper',(#238),#227,.F.) ;
#315=ADVANCED_FACE('K\X2\00F6\X0\rper',(#310,#314),#244,.T.) ;
#439=ADVANCED_FACE('K\X2\00F6\X0\rper',(#434,#438),#320,.F.) ;
#470=ADVANCED_FACE('K\X2\00F6\X0\rper',(#469),#444,.T.) ;
#494=ADVANCED_FACE('K\X2\00F6\X0\rper',(#493),#475,.T.) ;
#518=ADVANCED_FACE('K\X2\00F6\X0\rper',(#517),#499,.T.) ;
#542=ADVANCED_FACE('K\X2\00F6\X0\rper',(#541),#523,.T.) ;
#566=ADVANCED_FACE('K\X2\00F6\X0\rper',(#565),#547,.T.) ;
#590=ADVANCED_FACE('K\X2\00F6\X0\rper',(#589),#571,.T.) ;
#614=ADVANCED_FACE('K\X2\00F6\X0\rper',(#613),#595,.T.) ;
#631=ADVANCED_FACE('K\X2\00F6\X0\rper',(#630),#619,.T.) ;
#665=ADVANCED_FACE('K\X2\00F6\X0\rper',(#664),#636,.T.) ;
#689=ADVANCED_FACE('K\X2\00F6\X0\rper',(#688),#670,.T.) ;
#716=ADVANCED_FACE('K\X2\00F6\X0\rper',(#715),#694,.T.) ;
#740=ADVANCED_FACE('K\X2\00F6\X0\rper',(#739),#721,.T.) ;
#767=ADVANCED_FACE('K\X2\00F6\X0\rper',(#766),#745,.T.) ;
#791=ADVANCED_FACE('K\X2\00F6\X0\rper',(#790),#772,.T.) ;
#818=ADVANCED_FACE('K\X2\00F6\X0\rper',(#817),#796,.T.) ;
#835=ADVANCED_FACE('K\X2\00F6\X0\rper',(#834),#823,.T.) ;
#861=ADVANCED_FACE('K\X2\00F6\X0\rper',(#850,#860),#840,.T.) ;
#4=APPLICATION_PROTOCOL_DEFINITION('international standard','automotive_design',2001,#1) ;
#330=B_SPLINE_CURVE_WITH_KNOTS('',5,(#331,#332,#333,#334,#335,#336,#337,#338,#339,#340,#341,#342,#343,#344,#345),.UNSPECIFIED.,.F.,.U.,(6,3,3,3,6),(0.,0.14297214641,0.274284835561,0.53692671906,0.67989886547),.UNSPECIFIED.) ;
#356=B_SPLINE_CURVE_WITH_KNOTS('',5,(#357,#358,#359,#360,#361,#362,#363,#364,#365,#366,#367,#368,#369,#370,#371),.UNSPECIFIED.,.F.,.U.,(6,3,3,3,6),(0.,0.14297214641,0.274284835561,0.53692671906,0.67989886547),.UNSPECIFIED.) ;
#382=B_SPLINE_CURVE_WITH_KNOTS('',5,(#383,#384,#385,#386,#387,#388,#389,#390,#391,#392,#393,#394,#395,#396,#397),.UNSPECIFIED.,.F.,.U.,(6,3,3,3,6),(0.,0.14297214641,0.274284835561,0.53692671906,0.67989886547),.UNSPECIFIED.) ;
#408=B_SPLINE_CURVE_WITH_KNOTS('',5,(#409,#410,#411,#412,#413,#414,#415,#416,#417,#418,#419,#420,#421,#422,#423),.UNSPECIFIED.,.F.,.U.,(6,3,3,3,6),(0.,0.14297214641,0.274284835561,0.53692671906,0.67989886547),.UNSPECIFIED.) ;
#651=B_SPLINE_CURVE_WITH_KNOTS('',5,(#652,#653,#654,#655,#656,#657),.UNSPECIFIED.,.F.,.U.,(6,6),(0.,0.677451130861),.UNSPECIFIED.) ;
#702=B_SPLINE_CURVE_WITH_KNOTS('',5,(#703,#704,#705,#706,#707,#708),.UNSPECIFIED.,.F.,.U.,(6,6),(0.,0.677451130861),.UNSPECIFIED.) ;
#753=B_SPLINE_CURVE_WITH_KNOTS('',5,(#754,#755,#756,#757,#758,#759),.UNSPECIFIED.,.F.,.U.,(6,6),(0.,0.677451130861),.UNSPECIFIED.) ;
#804=B_SPLINE_CURVE_WITH_KNOTS('',5,(#805,#806,#807,#808,#809,#810),.UNSPECIFIED.,.F.,.U.,(6,6),(0.,0.677451130861),.UNSPECIFIED.) ;
#21=MANIFOLD_SOLID_BREP('K\X2\00F6\X0\rper',#30) ;
#39=CIRCLE('generated circle',#38,1.75) ;
#55=CIRCLE('generated circle',#54,1.75) ;
#74=CIRCLE('generated circle',#73,1.75) ;
#79=CIRCLE('generated circle',#78,1.75) ;
#96=CIRCLE('generated circle',#95,7.) ;
#105=CIRCLE('generated circle',#104,7.) ;
#124=CIRCLE('generated circle',#123,7.) ;
#133=CIRCLE('generated circle',#132,7.) ;
#166=CIRCLE('generated circle',#165,7.) ;
#183=CIRCLE('generated circle',#182,7.) ;
#214=CIRCLE('generated circle',#213,7.) ;
#231=CIRCLE('generated circle',#230,7.) ;
#257=CIRCLE('generated circle',#256,0.149999997294) ;
#271=CIRCLE('generated circle',#270,0.149999997294) ;
#285=CIRCLE('generated circle',#284,0.149999997294) ;
#299=CIRCLE('generated circle',#298,0.149999997294) ;
#479=CIRCLE('generated circle',#478,0.15) ;
#527=CIRCLE('generated circle',#526,0.15) ;
#575=CIRCLE('generated circle',#574,0.15) ;
#623=CIRCLE('generated circle',#622,0.15) ;
#22=COLOUR_RGB('Colour',0.78431372549,0.764705882353,0.78431372549) ;
#868=CONSTRUCTIVE_GEOMETRY_REPRESENTATION('supplemental geometry',(#867),#16) ;
#869=CONSTRUCTIVE_GEOMETRY_REPRESENTATION_RELATIONSHIP('supplemental geometry','',#19,#868) ;
#35=CYLINDRICAL_SURFACE('generated cylinder',#34,1.75) ;
#148=CYLINDRICAL_SURFACE('generated cylinder',#147,7.) ;
#179=CYLINDRICAL_SURFACE('generated cylinder',#178,7.) ;
#196=CYLINDRICAL_SURFACE('generated cylinder',#195,7.) ;
#227=CYLINDRICAL_SURFACE('generated cylinder',#226,7.) ;
#475=CYLINDRICAL_SURFACE('generated cylinder',#474,0.15) ;
#523=CYLINDRICAL_SURFACE('generated cylinder',#522,0.15) ;
#571=CYLINDRICAL_SURFACE('generated cylinder',#570,0.15) ;
#619=CYLINDRICAL_SURFACE('generated cylinder',#618,0.15) ;
#636=CYLINDRICAL_SURFACE('generated cylinder',#635,0.3) ;
#694=CYLINDRICAL_SURFACE('generated cylinder',#693,0.3) ;
#745=CYLINDRICAL_SURFACE('generated cylinder',#744,0.3) ;
#796=CYLINDRICAL_SURFACE('generated cylinder',#795,0.3) ;
#44=EDGE_CURVE('',#41,#43,#39,.F.) ;
#51=EDGE_CURVE('',#50,#43,#48,.F.) ;
#58=EDGE_CURVE('',#50,#57,#55,.T.) ;
#63=EDGE_CURVE('',#57,#41,#62,.F.) ;
#75=EDGE_CURVE('',#43,#41,#74,.F.) ;
#80=EDGE_CURVE('',#57,#50,#79,.T.) ;
#101=EDGE_CURVE('',#98,#100,#96,.T.) ;
#106=EDGE_CURVE('',#100,#98,#105,.T.) ;
#129=EDGE_CURVE('',#126,#128,#124,.T.) ;
#134=EDGE_CURVE('',#128,#126,#133,.T.) ;
#155=EDGE_CURVE('',#154,#100,#152,.F.) ;
#162=EDGE_CURVE('',#161,#98,#159,.F.) ;
#167=EDGE_CURVE('',#161,#154,#166,.T.) ;
#184=EDGE_CURVE('',#154,#161,#183,.T.) ;
#203=EDGE_CURVE('',#202,#128,#200,.F.) ;
#210=EDGE_CURVE('',#209,#126,#207,.F.) ;
#215=EDGE_CURVE('',#209,#202,#214,.T.) ;
#232=EDGE_CURVE('',#202,#209,#231,.T.) ;
#253=EDGE_CURVE('',#250,#252,#248,.T.) ;
#260=EDGE_CURVE('',#252,#259,#257,.T.) ;
#267=EDGE_CURVE('',#259,#266,#264,.T.) ;
#274=EDGE_CURVE('',#266,#273,#271,.T.) ;
#281=EDGE_CURVE('',#273,#280,#278,.T.) ;
#288=EDGE_CURVE('',#280,#287,#285,.T.) ;
#295=EDGE_CURVE('',#287,#294,#292,.T.) ;
#300=EDGE_CURVE('',#294,#250,#299,.T.) ;
#329=EDGE_CURVE('',#326,#328,#324,.T.) ;
#348=EDGE_CURVE('',#328,#347,#330,.T.) ;
#355=EDGE_CURVE('',#347,#354,#352,.T.) ;
#374=EDGE_CURVE('',#354,#373,#356,.T.) ;
#381=EDGE_CURVE('',#373,#380,#378,.T.) ;
#400=EDGE_CURVE('',#380,#399,#382,.T.) ;
#407=EDGE_CURVE('',#399,#406,#404,.T.) ;
#424=EDGE_CURVE('',#406,#326,#408,.T.) ;
#453=EDGE_CURVE('',#450,#452,#448,.T.) ;
#458=EDGE_CURVE('',#252,#452,#457,.T.) ;
#463=EDGE_CURVE('',#250,#450,#462,.T.) ;
#482=EDGE_CURVE('',#481,#452,#479,.T.) ;
#487=EDGE_CURVE('',#259,#481,#486,.T.) ;
#506=EDGE_CURVE('',#481,#505,#503,.T.) ;
#511=EDGE_CURVE('',#266,#505,#510,.T.) ;
#530=EDGE_CURVE('',#529,#505,#527,.T.) ;
#535=EDGE_CURVE('',#273,#529,#534,.T.) ;
#554=EDGE_CURVE('',#529,#553,#551,.T.) ;
#559=EDGE_CURVE('',#280,#553,#558,.T.) ;
#578=EDGE_CURVE('',#577,#553,#575,.T.) ;
#583=EDGE_CURVE('',#287,#577,#582,.T.) ;
#602=EDGE_CURVE('',#577,#601,#599,.T.) ;
#607=EDGE_CURVE('',#294,#601,#606,.T.) ;
#624=EDGE_CURVE('',#450,#601,#623,.T.) ;
#643=EDGE_CURVE('',#326,#642,#640,.T.) ;
#650=EDGE_CURVE('',#406,#649,#647,.T.) ;
#658=EDGE_CURVE('',#642,#649,#651,.T.) ;
#677=EDGE_CURVE('',#399,#676,#674,.T.) ;
#682=EDGE_CURVE('',#676,#649,#681,.T.) ;
#701=EDGE_CURVE('',#380,#700,#698,.T.) ;
#709=EDGE_CURVE('',#676,#700,#702,.T.) ;
#728=EDGE_CURVE('',#373,#727,#725,.T.) ;
#733=EDGE_CURVE('',#727,#700,#732,.T.) ;
#752=EDGE_CURVE('',#354,#751,#749,.T.) ;
#760=EDGE_CURVE('',#727,#751,#753,.T.) ;
#779=EDGE_CURVE('',#751,#778,#776,.T.) ;
#784=EDGE_CURVE('',#347,#778,#783,.T.) ;
#803=EDGE_CURVE('',#328,#802,#800,.T.) ;
#811=EDGE_CURVE('',#778,#802,#804,.T.) ;
#828=EDGE_CURVE('',#802,#642,#827,.T.) ;
#64=EDGE_LOOP('',(#65,#66,#67,#68)) ;
#81=EDGE_LOOP('',(#82,#83,#84,#85)) ;
#107=EDGE_LOOP('',(#108,#109)) ;
#111=EDGE_LOOP('',(#112,#113)) ;
#135=EDGE_LOOP('',(#136,#137)) ;
#139=EDGE_LOOP('',(#140,#141)) ;
#168=EDGE_LOOP('',(#169,#170,#171,#172)) ;
#185=EDGE_LOOP('',(#186,#187,#188,#189)) ;
#216=EDGE_LOOP('',(#217,#218,#219,#220)) ;
#233=EDGE_LOOP('',(#234,#235,#236,#237)) ;
#301=EDGE_LOOP('',(#302,#303,#304,#305,#306,#307,#308,#309)) ;
#311=EDGE_LOOP('',(#312,#313)) ;
#425=EDGE_LOOP('',(#426,#427,#428,#429,#430,#431,#432,#433)) ;
#435=EDGE_LOOP('',(#436,#437)) ;
#464=EDGE_LOOP('',(#465,#466,#467,#468)) ;
#488=EDGE_LOOP('',(#489,#490,#491,#492)) ;
#512=EDGE_LOOP('',(#513,#514,#515,#516)) ;
#536=EDGE_LOOP('',(#537,#538,#539,#540)) ;
#560=EDGE_LOOP('',(#561,#562,#563,#564)) ;
#584=EDGE_LOOP('',(#585,#586,#587,#588)) ;
#608=EDGE_LOOP('',(#609,#610,#611,#612)) ;
#625=EDGE_LOOP('',(#626,#627,#628,#629)) ;
#659=EDGE_LOOP('',(#660,#661,#662,#663)) ;
#683=EDGE_LOOP('',(#684,#685,#686,#687)) ;
#710=EDGE_LOOP('',(#711,#712,#713,#714)) ;
#734=EDGE_LOOP('',(#735,#736,#737,#738)) ;
#761=EDGE_LOOP('',(#762,#763,#764,#765)) ;
#785=EDGE_LOOP('',(#786,#787,#788,#789)) ;
#812=EDGE_LOOP('',(#813,#814,#815,#816)) ;
#829=EDGE_LOOP('',(#830,#831,#832,#833)) ;
#841=EDGE_LOOP('',(#842,#843,#844,#845,#846,#847,#848,#849)) ;
#851=EDGE_LOOP('',(#852,#853,#854,#855,#856,#857,#858,#859)) ;
#69=FACE_OUTER_BOUND('',#64,.T.) ;
#86=FACE_OUTER_BOUND('',#81,.T.) ;
#110=FACE_OUTER_BOUND('',#107,.T.) ;
#138=FACE_OUTER_BOUND('',#135,.T.) ;
#173=FACE_OUTER_BOUND('',#168,.T.) ;
#190=FACE_OUTER_BOUND('',#185,.T.) ;
#221=FACE_OUTER_BOUND('',#216,.T.) ;
#238=FACE_OUTER_BOUND('',#233,.T.) ;
#310=FACE_OUTER_BOUND('',#301,.T.) ;
#434=FACE_OUTER_BOUND('',#425,.T.) ;
#469=FACE_OUTER_BOUND('',#464,.T.) ;
#493=FACE_OUTER_BOUND('',#488,.T.) ;
#517=FACE_OUTER_BOUND('',#512,.T.) ;
#541=FACE_OUTER_BOUND('',#536,.T.) ;
#565=FACE_OUTER_BOUND('',#560,.T.) ;
#589=FACE_OUTER_BOUND('',#584,.T.) ;
#613=FACE_OUTER_BOUND('',#608,.T.) ;
#630=FACE_OUTER_BOUND('',#625,.T.) ;
#664=FACE_OUTER_BOUND('',#659,.T.) ;
#688=FACE_OUTER_BOUND('',#683,.T.) ;
#715=FACE_OUTER_BOUND('',#710,.T.) ;
#739=FACE_OUTER_BOUND('',#734,.T.) ;
#766=FACE_OUTER_BOUND('',#761,.T.) ;
#790=FACE_OUTER_BOUND('',#785,.T.) ;
#817=FACE_OUTER_BOUND('',#812,.T.) ;
#834=FACE_OUTER_BOUND('',#829,.T.) ;
#850=FACE_OUTER_BOUND('',#841,.T.) ;
#48=LINE('Line',#45,#47) ;
#62=LINE('Line',#59,#61) ;
#152=LINE('Line',#149,#151) ;
#159=LINE('Line',#156,#158) ;
#200=LINE('Line',#197,#199) ;
#207=LINE('Line',#204,#206) ;
#248=LINE('Line',#245,#247) ;
#264=LINE('Line',#261,#263) ;
#278=LINE('Line',#275,#277) ;
#292=LINE('Line',#289,#291) ;
#324=LINE('Line',#321,#323) ;
#352=LINE('Line',#349,#351) ;
#378=LINE('Line',#375,#377) ;
#404=LINE('Line',#401,#403) ;
#448=LINE('Line',#445,#447) ;
#457=LINE('Line',#454,#456) ;
#462=LINE('Line',#459,#461) ;
#486=LINE('Line',#483,#485) ;
#503=LINE('Line',#500,#502) ;
#510=LINE('Line',#507,#509) ;
#534=LINE('Line',#531,#533) ;
#551=LINE('Line',#548,#550) ;
#558=LINE('Line',#555,#557) ;
#582=LINE('Line',#579,#581) ;
#599=LINE('Line',#596,#598) ;
#606=LINE('Line',#603,#605) ;
#640=LINE('Line',#637,#639) ;
#647=LINE('Line',#644,#646) ;
#674=LINE('Line',#671,#673) ;
#681=LINE('Line',#678,#680) ;
#698=LINE('Line',#695,#697) ;
#725=LINE('Line',#722,#724) ;
#732=LINE('Line',#729,#731) ;
#749=LINE('Line',#746,#748) ;
#776=LINE('Line',#773,#775) ;
#783=LINE('Line',#780,#782) ;
#800=LINE('Line',#797,#799) ;
#827=LINE('Line',#824,#826) ;
#92=PLANE('',#91) ;
#120=PLANE('',#119) ;
#244=PLANE('',#243) ;
#320=PLANE('',#319) ;
#444=PLANE('',#443) ;
#499=PLANE('',#498) ;
#547=PLANE('',#546) ;
#595=PLANE('',#594) ;
#670=PLANE('',#669) ;
#721=PLANE('',#720) ;
#772=PLANE('',#771) ;
#823=PLANE('',#822) ;
#840=PLANE('',#839) ;
#9=PRODUCT_CATEGORY_RELATIONSHIP(' ',' ',#7,#8) ;
#6=PRODUCT_DEFINITION_FORMATION_WITH_SPECIFIED_SOURCE('',' ',#5,.NOT_KNOWN.) ;
#20=SHAPE_DEFINITION_REPRESENTATION(#11,#19) ;
#41=VERTEX_POINT('',#40) ;
#43=VERTEX_POINT('',#42) ;
#50=VERTEX_POINT('',#49) ;
#57=VERTEX_POINT('',#56) ;
#98=VERTEX_POINT('',#97) ;
#100=VERTEX_POINT('',#99) ;
#126=VERTEX_POINT('',#125) ;
#128=VERTEX_POINT('',#127) ;
#154=VERTEX_POINT('',#153) ;
#161=VERTEX_POINT('',#160) ;
#202=VERTEX_POINT('',#201) ;
#209=VERTEX_POINT('',#208) ;
#250=VERTEX_POINT('',#249) ;
#252=VERTEX_POINT('',#251) ;
#259=VERTEX_POINT('',#258) ;
#266=VERTEX_POINT('',#265) ;
#273=VERTEX_POINT('',#272) ;
#280=VERTEX_POINT('',#279) ;
#287=VERTEX_POINT('',#286) ;
#294=VERTEX_POINT('',#293) ;
#326=VERTEX_POINT('',#325) ;
#328=VERTEX_POINT('',#327) ;
#347=VERTEX_POINT('',#346) ;
#354=VERTEX_POINT('',#353) ;
#373=VERTEX_POINT('',#372) ;
#380=VERTEX_POINT('',#379) ;
#399=VERTEX_POINT('',#398) ;
#406=VERTEX_POINT('',#405) ;
#450=VERTEX_POINT('',#449) ;
#452=VERTEX_POINT('',#451) ;
#481=VERTEX_POINT('',#480) ;
#505=VERTEX_POINT('',#504) ;
#529=VERTEX_POINT('',#528) ;
#553=VERTEX_POINT('',#552) ;
#577=VERTEX_POINT('',#576) ;
#601=VERTEX_POINT('',#600) ;
#642=VERTEX_POINT('',#641) ;
#649=VERTEX_POINT('',#648) ;
#676=VERTEX_POINT('',#675) ;
#700=VERTEX_POINT('',#699) ;
#727=VERTEX_POINT('',#726) ;
#751=VERTEX_POINT('',#750) ;
#778=VERTEX_POINT('',#777) ;
#802=VERTEX_POINT('',#801) ;
#12=(LENGTH_UNIT()NAMED_UNIT(*)SI_UNIT(.MILLI.,.METRE.)) ;
#13=(NAMED_UNIT(*)PLANE_ANGLE_UNIT()SI_UNIT($,.RADIAN.)) ;
#14=(NAMED_UNIT(*)SI_UNIT($,.STERADIAN.)SOLID_ANGLE_UNIT()) ;
#16=(GEOMETRIC_REPRESENTATION_CONTEXT(3)GLOBAL_UNCERTAINTY_ASSIGNED_CONTEXT((#15))GLOBAL_UNIT_ASSIGNED_CONTEXT((#12,#13,#14))REPRESENTATION_CONTEXT(' ',' ')) ;
ENDSEC;
END-ISO-10303-21;
