M48
;DRILL file {KiCad (5.0.1-3-g963ef8bb5)} date 2018 November 28, Wednesday 15:45:35
;FORMAT={-:-/ absolute / metric / decimal}
FMAT,2
METRIC,TZ
T1C0.400
T2C0.700
T3C2.400
%
G90
G05
M71
T1
X115.57Y-85.09
X115.57Y-93.98
X115.84Y-91.17
X119.Y-88.5
X121.92Y-92.9
X124.46Y-92.
X124.5Y-88.5
X127.Y-85.09
X127.48Y-92.9
X127.99Y-81.
X129.54Y-88.4
X129.54Y-91.7
X132.3Y-95.25
T2
X117.Y-86.52
X117.Y-93.82
X121.3Y-93.82
X122.55Y-86.52
X122.55Y-93.82
X126.85Y-93.82
X128.1Y-86.52
X128.1Y-93.82
X132.4Y-93.82
T3
X118.15Y-83.22
X118.15Y-97.12
X124.7Y-83.22
X124.7Y-97.12
X131.25Y-83.22
X131.25Y-97.12
T0
M30
