G04 #@! TF.GenerationSoftware,KiCad,Pcbnew,(5.0.1-3-g963ef8bb5)*
G04 #@! TF.CreationDate,2018-11-28T15:45:59+01:00*
G04 #@! TF.ProjectId,WindSensor,57696E6453656E736F722E6B69636164,rev?*
G04 #@! TF.SameCoordinates,Original*
G04 #@! TF.FileFunction,Paste,Top*
G04 #@! TF.FilePolarity,Positive*
%FSLAX46Y46*%
G04 Gerber Fmt 4.6, Leading zero omitted, Abs format (unit mm)*
G04 Created by KiCad (PCBNEW (5.0.1-3-g963ef8bb5)) date 2018 November 28, Wednesday 15:45:59*
%MOMM*%
%LPD*%
G01*
G04 APERTURE LIST*
%ADD10C,0.100000*%
%ADD11C,0.318000*%
%ADD12R,2.200000X1.500000*%
%ADD13R,0.750000X0.400000*%
%ADD14R,0.400000X0.750000*%
%ADD15R,2.600000X1.800000*%
G04 APERTURE END LIST*
D10*
G04 #@! TO.C,2.7 kOhms*
G36*
X129972292Y-95100383D02*
X129980010Y-95101528D01*
X129987578Y-95103423D01*
X129994923Y-95106052D01*
X130001976Y-95109387D01*
X130008668Y-95113398D01*
X130014934Y-95118046D01*
X130020715Y-95123285D01*
X130025954Y-95129066D01*
X130030602Y-95135332D01*
X130034613Y-95142024D01*
X130037948Y-95149077D01*
X130040577Y-95156422D01*
X130042472Y-95163990D01*
X130043617Y-95171708D01*
X130044000Y-95179500D01*
X130044000Y-95380500D01*
X130043617Y-95388292D01*
X130042472Y-95396010D01*
X130040577Y-95403578D01*
X130037948Y-95410923D01*
X130034613Y-95417976D01*
X130030602Y-95424668D01*
X130025954Y-95430934D01*
X130020715Y-95436715D01*
X130014934Y-95441954D01*
X130008668Y-95446602D01*
X130001976Y-95450613D01*
X129994923Y-95453948D01*
X129987578Y-95456577D01*
X129980010Y-95458472D01*
X129972292Y-95459617D01*
X129964500Y-95460000D01*
X129805500Y-95460000D01*
X129797708Y-95459617D01*
X129789990Y-95458472D01*
X129782422Y-95456577D01*
X129775077Y-95453948D01*
X129768024Y-95450613D01*
X129761332Y-95446602D01*
X129755066Y-95441954D01*
X129749285Y-95436715D01*
X129744046Y-95430934D01*
X129739398Y-95424668D01*
X129735387Y-95417976D01*
X129732052Y-95410923D01*
X129729423Y-95403578D01*
X129727528Y-95396010D01*
X129726383Y-95388292D01*
X129726000Y-95380500D01*
X129726000Y-95179500D01*
X129726383Y-95171708D01*
X129727528Y-95163990D01*
X129729423Y-95156422D01*
X129732052Y-95149077D01*
X129735387Y-95142024D01*
X129739398Y-95135332D01*
X129744046Y-95129066D01*
X129749285Y-95123285D01*
X129755066Y-95118046D01*
X129761332Y-95113398D01*
X129768024Y-95109387D01*
X129775077Y-95106052D01*
X129782422Y-95103423D01*
X129789990Y-95101528D01*
X129797708Y-95100383D01*
X129805500Y-95100000D01*
X129964500Y-95100000D01*
X129972292Y-95100383D01*
X129972292Y-95100383D01*
G37*
D11*
X129885000Y-95280000D03*
D10*
G36*
X129282292Y-95100383D02*
X129290010Y-95101528D01*
X129297578Y-95103423D01*
X129304923Y-95106052D01*
X129311976Y-95109387D01*
X129318668Y-95113398D01*
X129324934Y-95118046D01*
X129330715Y-95123285D01*
X129335954Y-95129066D01*
X129340602Y-95135332D01*
X129344613Y-95142024D01*
X129347948Y-95149077D01*
X129350577Y-95156422D01*
X129352472Y-95163990D01*
X129353617Y-95171708D01*
X129354000Y-95179500D01*
X129354000Y-95380500D01*
X129353617Y-95388292D01*
X129352472Y-95396010D01*
X129350577Y-95403578D01*
X129347948Y-95410923D01*
X129344613Y-95417976D01*
X129340602Y-95424668D01*
X129335954Y-95430934D01*
X129330715Y-95436715D01*
X129324934Y-95441954D01*
X129318668Y-95446602D01*
X129311976Y-95450613D01*
X129304923Y-95453948D01*
X129297578Y-95456577D01*
X129290010Y-95458472D01*
X129282292Y-95459617D01*
X129274500Y-95460000D01*
X129115500Y-95460000D01*
X129107708Y-95459617D01*
X129099990Y-95458472D01*
X129092422Y-95456577D01*
X129085077Y-95453948D01*
X129078024Y-95450613D01*
X129071332Y-95446602D01*
X129065066Y-95441954D01*
X129059285Y-95436715D01*
X129054046Y-95430934D01*
X129049398Y-95424668D01*
X129045387Y-95417976D01*
X129042052Y-95410923D01*
X129039423Y-95403578D01*
X129037528Y-95396010D01*
X129036383Y-95388292D01*
X129036000Y-95380500D01*
X129036000Y-95179500D01*
X129036383Y-95171708D01*
X129037528Y-95163990D01*
X129039423Y-95156422D01*
X129042052Y-95149077D01*
X129045387Y-95142024D01*
X129049398Y-95135332D01*
X129054046Y-95129066D01*
X129059285Y-95123285D01*
X129065066Y-95118046D01*
X129071332Y-95113398D01*
X129078024Y-95109387D01*
X129085077Y-95106052D01*
X129092422Y-95103423D01*
X129099990Y-95101528D01*
X129107708Y-95100383D01*
X129115500Y-95100000D01*
X129274500Y-95100000D01*
X129282292Y-95100383D01*
X129282292Y-95100383D01*
G37*
D11*
X129195000Y-95280000D03*
G04 #@! TD*
D10*
G04 #@! TO.C,1.2 kOhms*
G36*
X117592292Y-94820383D02*
X117600010Y-94821528D01*
X117607578Y-94823423D01*
X117614923Y-94826052D01*
X117621976Y-94829387D01*
X117628668Y-94833398D01*
X117634934Y-94838046D01*
X117640715Y-94843285D01*
X117645954Y-94849066D01*
X117650602Y-94855332D01*
X117654613Y-94862024D01*
X117657948Y-94869077D01*
X117660577Y-94876422D01*
X117662472Y-94883990D01*
X117663617Y-94891708D01*
X117664000Y-94899500D01*
X117664000Y-95100500D01*
X117663617Y-95108292D01*
X117662472Y-95116010D01*
X117660577Y-95123578D01*
X117657948Y-95130923D01*
X117654613Y-95137976D01*
X117650602Y-95144668D01*
X117645954Y-95150934D01*
X117640715Y-95156715D01*
X117634934Y-95161954D01*
X117628668Y-95166602D01*
X117621976Y-95170613D01*
X117614923Y-95173948D01*
X117607578Y-95176577D01*
X117600010Y-95178472D01*
X117592292Y-95179617D01*
X117584500Y-95180000D01*
X117425500Y-95180000D01*
X117417708Y-95179617D01*
X117409990Y-95178472D01*
X117402422Y-95176577D01*
X117395077Y-95173948D01*
X117388024Y-95170613D01*
X117381332Y-95166602D01*
X117375066Y-95161954D01*
X117369285Y-95156715D01*
X117364046Y-95150934D01*
X117359398Y-95144668D01*
X117355387Y-95137976D01*
X117352052Y-95130923D01*
X117349423Y-95123578D01*
X117347528Y-95116010D01*
X117346383Y-95108292D01*
X117346000Y-95100500D01*
X117346000Y-94899500D01*
X117346383Y-94891708D01*
X117347528Y-94883990D01*
X117349423Y-94876422D01*
X117352052Y-94869077D01*
X117355387Y-94862024D01*
X117359398Y-94855332D01*
X117364046Y-94849066D01*
X117369285Y-94843285D01*
X117375066Y-94838046D01*
X117381332Y-94833398D01*
X117388024Y-94829387D01*
X117395077Y-94826052D01*
X117402422Y-94823423D01*
X117409990Y-94821528D01*
X117417708Y-94820383D01*
X117425500Y-94820000D01*
X117584500Y-94820000D01*
X117592292Y-94820383D01*
X117592292Y-94820383D01*
G37*
D11*
X117505000Y-95000000D03*
D10*
G36*
X116902292Y-94820383D02*
X116910010Y-94821528D01*
X116917578Y-94823423D01*
X116924923Y-94826052D01*
X116931976Y-94829387D01*
X116938668Y-94833398D01*
X116944934Y-94838046D01*
X116950715Y-94843285D01*
X116955954Y-94849066D01*
X116960602Y-94855332D01*
X116964613Y-94862024D01*
X116967948Y-94869077D01*
X116970577Y-94876422D01*
X116972472Y-94883990D01*
X116973617Y-94891708D01*
X116974000Y-94899500D01*
X116974000Y-95100500D01*
X116973617Y-95108292D01*
X116972472Y-95116010D01*
X116970577Y-95123578D01*
X116967948Y-95130923D01*
X116964613Y-95137976D01*
X116960602Y-95144668D01*
X116955954Y-95150934D01*
X116950715Y-95156715D01*
X116944934Y-95161954D01*
X116938668Y-95166602D01*
X116931976Y-95170613D01*
X116924923Y-95173948D01*
X116917578Y-95176577D01*
X116910010Y-95178472D01*
X116902292Y-95179617D01*
X116894500Y-95180000D01*
X116735500Y-95180000D01*
X116727708Y-95179617D01*
X116719990Y-95178472D01*
X116712422Y-95176577D01*
X116705077Y-95173948D01*
X116698024Y-95170613D01*
X116691332Y-95166602D01*
X116685066Y-95161954D01*
X116679285Y-95156715D01*
X116674046Y-95150934D01*
X116669398Y-95144668D01*
X116665387Y-95137976D01*
X116662052Y-95130923D01*
X116659423Y-95123578D01*
X116657528Y-95116010D01*
X116656383Y-95108292D01*
X116656000Y-95100500D01*
X116656000Y-94899500D01*
X116656383Y-94891708D01*
X116657528Y-94883990D01*
X116659423Y-94876422D01*
X116662052Y-94869077D01*
X116665387Y-94862024D01*
X116669398Y-94855332D01*
X116674046Y-94849066D01*
X116679285Y-94843285D01*
X116685066Y-94838046D01*
X116691332Y-94833398D01*
X116698024Y-94829387D01*
X116705077Y-94826052D01*
X116712422Y-94823423D01*
X116719990Y-94821528D01*
X116727708Y-94820383D01*
X116735500Y-94820000D01*
X116894500Y-94820000D01*
X116902292Y-94820383D01*
X116902292Y-94820383D01*
G37*
D11*
X116815000Y-95000000D03*
G04 #@! TD*
D10*
G04 #@! TO.C,100 nF*
G36*
X117852292Y-85120383D02*
X117860010Y-85121528D01*
X117867578Y-85123423D01*
X117874923Y-85126052D01*
X117881976Y-85129387D01*
X117888668Y-85133398D01*
X117894934Y-85138046D01*
X117900715Y-85143285D01*
X117905954Y-85149066D01*
X117910602Y-85155332D01*
X117914613Y-85162024D01*
X117917948Y-85169077D01*
X117920577Y-85176422D01*
X117922472Y-85183990D01*
X117923617Y-85191708D01*
X117924000Y-85199500D01*
X117924000Y-85400500D01*
X117923617Y-85408292D01*
X117922472Y-85416010D01*
X117920577Y-85423578D01*
X117917948Y-85430923D01*
X117914613Y-85437976D01*
X117910602Y-85444668D01*
X117905954Y-85450934D01*
X117900715Y-85456715D01*
X117894934Y-85461954D01*
X117888668Y-85466602D01*
X117881976Y-85470613D01*
X117874923Y-85473948D01*
X117867578Y-85476577D01*
X117860010Y-85478472D01*
X117852292Y-85479617D01*
X117844500Y-85480000D01*
X117685500Y-85480000D01*
X117677708Y-85479617D01*
X117669990Y-85478472D01*
X117662422Y-85476577D01*
X117655077Y-85473948D01*
X117648024Y-85470613D01*
X117641332Y-85466602D01*
X117635066Y-85461954D01*
X117629285Y-85456715D01*
X117624046Y-85450934D01*
X117619398Y-85444668D01*
X117615387Y-85437976D01*
X117612052Y-85430923D01*
X117609423Y-85423578D01*
X117607528Y-85416010D01*
X117606383Y-85408292D01*
X117606000Y-85400500D01*
X117606000Y-85199500D01*
X117606383Y-85191708D01*
X117607528Y-85183990D01*
X117609423Y-85176422D01*
X117612052Y-85169077D01*
X117615387Y-85162024D01*
X117619398Y-85155332D01*
X117624046Y-85149066D01*
X117629285Y-85143285D01*
X117635066Y-85138046D01*
X117641332Y-85133398D01*
X117648024Y-85129387D01*
X117655077Y-85126052D01*
X117662422Y-85123423D01*
X117669990Y-85121528D01*
X117677708Y-85120383D01*
X117685500Y-85120000D01*
X117844500Y-85120000D01*
X117852292Y-85120383D01*
X117852292Y-85120383D01*
G37*
D11*
X117765000Y-85300000D03*
D10*
G36*
X118542292Y-85120383D02*
X118550010Y-85121528D01*
X118557578Y-85123423D01*
X118564923Y-85126052D01*
X118571976Y-85129387D01*
X118578668Y-85133398D01*
X118584934Y-85138046D01*
X118590715Y-85143285D01*
X118595954Y-85149066D01*
X118600602Y-85155332D01*
X118604613Y-85162024D01*
X118607948Y-85169077D01*
X118610577Y-85176422D01*
X118612472Y-85183990D01*
X118613617Y-85191708D01*
X118614000Y-85199500D01*
X118614000Y-85400500D01*
X118613617Y-85408292D01*
X118612472Y-85416010D01*
X118610577Y-85423578D01*
X118607948Y-85430923D01*
X118604613Y-85437976D01*
X118600602Y-85444668D01*
X118595954Y-85450934D01*
X118590715Y-85456715D01*
X118584934Y-85461954D01*
X118578668Y-85466602D01*
X118571976Y-85470613D01*
X118564923Y-85473948D01*
X118557578Y-85476577D01*
X118550010Y-85478472D01*
X118542292Y-85479617D01*
X118534500Y-85480000D01*
X118375500Y-85480000D01*
X118367708Y-85479617D01*
X118359990Y-85478472D01*
X118352422Y-85476577D01*
X118345077Y-85473948D01*
X118338024Y-85470613D01*
X118331332Y-85466602D01*
X118325066Y-85461954D01*
X118319285Y-85456715D01*
X118314046Y-85450934D01*
X118309398Y-85444668D01*
X118305387Y-85437976D01*
X118302052Y-85430923D01*
X118299423Y-85423578D01*
X118297528Y-85416010D01*
X118296383Y-85408292D01*
X118296000Y-85400500D01*
X118296000Y-85199500D01*
X118296383Y-85191708D01*
X118297528Y-85183990D01*
X118299423Y-85176422D01*
X118302052Y-85169077D01*
X118305387Y-85162024D01*
X118309398Y-85155332D01*
X118314046Y-85149066D01*
X118319285Y-85143285D01*
X118325066Y-85138046D01*
X118331332Y-85133398D01*
X118338024Y-85129387D01*
X118345077Y-85126052D01*
X118352422Y-85123423D01*
X118359990Y-85121528D01*
X118367708Y-85120383D01*
X118375500Y-85120000D01*
X118534500Y-85120000D01*
X118542292Y-85120383D01*
X118542292Y-85120383D01*
G37*
D11*
X118455000Y-85300000D03*
G04 #@! TD*
D10*
G04 #@! TO.C,75 Ohms*
G36*
X124892292Y-80820383D02*
X124900010Y-80821528D01*
X124907578Y-80823423D01*
X124914923Y-80826052D01*
X124921976Y-80829387D01*
X124928668Y-80833398D01*
X124934934Y-80838046D01*
X124940715Y-80843285D01*
X124945954Y-80849066D01*
X124950602Y-80855332D01*
X124954613Y-80862024D01*
X124957948Y-80869077D01*
X124960577Y-80876422D01*
X124962472Y-80883990D01*
X124963617Y-80891708D01*
X124964000Y-80899500D01*
X124964000Y-81100500D01*
X124963617Y-81108292D01*
X124962472Y-81116010D01*
X124960577Y-81123578D01*
X124957948Y-81130923D01*
X124954613Y-81137976D01*
X124950602Y-81144668D01*
X124945954Y-81150934D01*
X124940715Y-81156715D01*
X124934934Y-81161954D01*
X124928668Y-81166602D01*
X124921976Y-81170613D01*
X124914923Y-81173948D01*
X124907578Y-81176577D01*
X124900010Y-81178472D01*
X124892292Y-81179617D01*
X124884500Y-81180000D01*
X124725500Y-81180000D01*
X124717708Y-81179617D01*
X124709990Y-81178472D01*
X124702422Y-81176577D01*
X124695077Y-81173948D01*
X124688024Y-81170613D01*
X124681332Y-81166602D01*
X124675066Y-81161954D01*
X124669285Y-81156715D01*
X124664046Y-81150934D01*
X124659398Y-81144668D01*
X124655387Y-81137976D01*
X124652052Y-81130923D01*
X124649423Y-81123578D01*
X124647528Y-81116010D01*
X124646383Y-81108292D01*
X124646000Y-81100500D01*
X124646000Y-80899500D01*
X124646383Y-80891708D01*
X124647528Y-80883990D01*
X124649423Y-80876422D01*
X124652052Y-80869077D01*
X124655387Y-80862024D01*
X124659398Y-80855332D01*
X124664046Y-80849066D01*
X124669285Y-80843285D01*
X124675066Y-80838046D01*
X124681332Y-80833398D01*
X124688024Y-80829387D01*
X124695077Y-80826052D01*
X124702422Y-80823423D01*
X124709990Y-80821528D01*
X124717708Y-80820383D01*
X124725500Y-80820000D01*
X124884500Y-80820000D01*
X124892292Y-80820383D01*
X124892292Y-80820383D01*
G37*
D11*
X124805000Y-81000000D03*
D10*
G36*
X124202292Y-80820383D02*
X124210010Y-80821528D01*
X124217578Y-80823423D01*
X124224923Y-80826052D01*
X124231976Y-80829387D01*
X124238668Y-80833398D01*
X124244934Y-80838046D01*
X124250715Y-80843285D01*
X124255954Y-80849066D01*
X124260602Y-80855332D01*
X124264613Y-80862024D01*
X124267948Y-80869077D01*
X124270577Y-80876422D01*
X124272472Y-80883990D01*
X124273617Y-80891708D01*
X124274000Y-80899500D01*
X124274000Y-81100500D01*
X124273617Y-81108292D01*
X124272472Y-81116010D01*
X124270577Y-81123578D01*
X124267948Y-81130923D01*
X124264613Y-81137976D01*
X124260602Y-81144668D01*
X124255954Y-81150934D01*
X124250715Y-81156715D01*
X124244934Y-81161954D01*
X124238668Y-81166602D01*
X124231976Y-81170613D01*
X124224923Y-81173948D01*
X124217578Y-81176577D01*
X124210010Y-81178472D01*
X124202292Y-81179617D01*
X124194500Y-81180000D01*
X124035500Y-81180000D01*
X124027708Y-81179617D01*
X124019990Y-81178472D01*
X124012422Y-81176577D01*
X124005077Y-81173948D01*
X123998024Y-81170613D01*
X123991332Y-81166602D01*
X123985066Y-81161954D01*
X123979285Y-81156715D01*
X123974046Y-81150934D01*
X123969398Y-81144668D01*
X123965387Y-81137976D01*
X123962052Y-81130923D01*
X123959423Y-81123578D01*
X123957528Y-81116010D01*
X123956383Y-81108292D01*
X123956000Y-81100500D01*
X123956000Y-80899500D01*
X123956383Y-80891708D01*
X123957528Y-80883990D01*
X123959423Y-80876422D01*
X123962052Y-80869077D01*
X123965387Y-80862024D01*
X123969398Y-80855332D01*
X123974046Y-80849066D01*
X123979285Y-80843285D01*
X123985066Y-80838046D01*
X123991332Y-80833398D01*
X123998024Y-80829387D01*
X124005077Y-80826052D01*
X124012422Y-80823423D01*
X124019990Y-80821528D01*
X124027708Y-80820383D01*
X124035500Y-80820000D01*
X124194500Y-80820000D01*
X124202292Y-80820383D01*
X124202292Y-80820383D01*
G37*
D11*
X124115000Y-81000000D03*
G04 #@! TD*
D12*
G04 #@! TO.C,LED_3528*
X121500000Y-81530000D03*
X121500000Y-84630000D03*
G04 #@! TD*
D13*
G04 #@! TO.C,SDP32*
X132325000Y-92170000D03*
D14*
X130250000Y-87345000D03*
D13*
X128175000Y-88170000D03*
D14*
X131250000Y-92995000D03*
X131250000Y-87345000D03*
D13*
X132325000Y-88170000D03*
X132325000Y-89170000D03*
D14*
X130250000Y-92995000D03*
D13*
X132325000Y-90170000D03*
X128175000Y-89170000D03*
X128175000Y-92170000D03*
X128175000Y-91170000D03*
X132325000Y-91170000D03*
X128175000Y-90170000D03*
D14*
X129250000Y-92995000D03*
D15*
X130250000Y-90170000D03*
D14*
X129250000Y-87345000D03*
X125700000Y-92995000D03*
D13*
X122625000Y-90170000D03*
D14*
X123700000Y-92995000D03*
D15*
X124700000Y-90170000D03*
D14*
X123700000Y-87345000D03*
X124700000Y-87345000D03*
D13*
X122625000Y-88170000D03*
D14*
X125700000Y-87345000D03*
D13*
X126775000Y-88170000D03*
X126775000Y-89170000D03*
D14*
X124700000Y-92995000D03*
D13*
X126775000Y-90170000D03*
X122625000Y-89170000D03*
X122625000Y-92170000D03*
X122625000Y-91170000D03*
X126775000Y-91170000D03*
X126775000Y-92170000D03*
X117075000Y-91170000D03*
X117075000Y-88170000D03*
D14*
X118150000Y-92995000D03*
D15*
X119150000Y-90170000D03*
D14*
X118150000Y-87345000D03*
X119150000Y-87345000D03*
X120150000Y-87345000D03*
D13*
X121225000Y-88170000D03*
X121225000Y-89170000D03*
D14*
X119150000Y-92995000D03*
D13*
X121225000Y-90170000D03*
X121225000Y-91170000D03*
X121225000Y-92170000D03*
D14*
X120150000Y-92995000D03*
D13*
X117075000Y-90170000D03*
X117075000Y-89170000D03*
X117075000Y-92170000D03*
G04 #@! TD*
M02*
