G04 #@! TF.GenerationSoftware,KiCad,Pcbnew,(5.0.1-3-g963ef8bb5)*
G04 #@! TF.CreationDate,2018-11-28T15:45:59+01:00*
G04 #@! TF.ProjectId,WindSensor,57696E6453656E736F722E6B69636164,rev?*
G04 #@! TF.SameCoordinates,Original*
G04 #@! TF.FileFunction,Soldermask,Top*
G04 #@! TF.FilePolarity,Negative*
%FSLAX46Y46*%
G04 Gerber Fmt 4.6, Leading zero omitted, Abs format (unit mm)*
G04 Created by KiCad (PCBNEW (5.0.1-3-g963ef8bb5)) date 2018 November 28, Wednesday 15:45:59*
%MOMM*%
%LPD*%
G01*
G04 APERTURE LIST*
%ADD10C,0.100000*%
G04 APERTURE END LIST*
D10*
G36*
X131602527Y-95608736D02*
X131702410Y-95628604D01*
X131984674Y-95745521D01*
X132238705Y-95915259D01*
X132454741Y-96131295D01*
X132624479Y-96385326D01*
X132741396Y-96667590D01*
X132801000Y-96967240D01*
X132801000Y-97272760D01*
X132741396Y-97572410D01*
X132624479Y-97854674D01*
X132454741Y-98108705D01*
X132238705Y-98324741D01*
X131984674Y-98494479D01*
X131702410Y-98611396D01*
X131602527Y-98631264D01*
X131402762Y-98671000D01*
X131097238Y-98671000D01*
X130897473Y-98631264D01*
X130797590Y-98611396D01*
X130515326Y-98494479D01*
X130261295Y-98324741D01*
X130045259Y-98108705D01*
X129875521Y-97854674D01*
X129758604Y-97572410D01*
X129699000Y-97272760D01*
X129699000Y-96967240D01*
X129758604Y-96667590D01*
X129875521Y-96385326D01*
X130045259Y-96131295D01*
X130261295Y-95915259D01*
X130515326Y-95745521D01*
X130797590Y-95628604D01*
X130897473Y-95608736D01*
X131097238Y-95569000D01*
X131402762Y-95569000D01*
X131602527Y-95608736D01*
X131602527Y-95608736D01*
G37*
G36*
X125052527Y-95608736D02*
X125152410Y-95628604D01*
X125434674Y-95745521D01*
X125688705Y-95915259D01*
X125904741Y-96131295D01*
X126074479Y-96385326D01*
X126191396Y-96667590D01*
X126251000Y-96967240D01*
X126251000Y-97272760D01*
X126191396Y-97572410D01*
X126074479Y-97854674D01*
X125904741Y-98108705D01*
X125688705Y-98324741D01*
X125434674Y-98494479D01*
X125152410Y-98611396D01*
X125052527Y-98631264D01*
X124852762Y-98671000D01*
X124547238Y-98671000D01*
X124347473Y-98631264D01*
X124247590Y-98611396D01*
X123965326Y-98494479D01*
X123711295Y-98324741D01*
X123495259Y-98108705D01*
X123325521Y-97854674D01*
X123208604Y-97572410D01*
X123149000Y-97272760D01*
X123149000Y-96967240D01*
X123208604Y-96667590D01*
X123325521Y-96385326D01*
X123495259Y-96131295D01*
X123711295Y-95915259D01*
X123965326Y-95745521D01*
X124247590Y-95628604D01*
X124347473Y-95608736D01*
X124547238Y-95569000D01*
X124852762Y-95569000D01*
X125052527Y-95608736D01*
X125052527Y-95608736D01*
G37*
G36*
X118502527Y-95608736D02*
X118602410Y-95628604D01*
X118884674Y-95745521D01*
X119138705Y-95915259D01*
X119354741Y-96131295D01*
X119524479Y-96385326D01*
X119641396Y-96667590D01*
X119701000Y-96967240D01*
X119701000Y-97272760D01*
X119641396Y-97572410D01*
X119524479Y-97854674D01*
X119354741Y-98108705D01*
X119138705Y-98324741D01*
X118884674Y-98494479D01*
X118602410Y-98611396D01*
X118502527Y-98631264D01*
X118302762Y-98671000D01*
X117997238Y-98671000D01*
X117797473Y-98631264D01*
X117697590Y-98611396D01*
X117415326Y-98494479D01*
X117161295Y-98324741D01*
X116945259Y-98108705D01*
X116775521Y-97854674D01*
X116658604Y-97572410D01*
X116599000Y-97272760D01*
X116599000Y-96967240D01*
X116658604Y-96667590D01*
X116775521Y-96385326D01*
X116945259Y-96131295D01*
X117161295Y-95915259D01*
X117415326Y-95745521D01*
X117697590Y-95628604D01*
X117797473Y-95608736D01*
X117997238Y-95569000D01*
X118302762Y-95569000D01*
X118502527Y-95608736D01*
X118502527Y-95608736D01*
G37*
G36*
X129450170Y-95030803D02*
X129461875Y-95034354D01*
X129481076Y-95044617D01*
X129503715Y-95053994D01*
X129527749Y-95058774D01*
X129552253Y-95058774D01*
X129576286Y-95053993D01*
X129598924Y-95044617D01*
X129618125Y-95034354D01*
X129629830Y-95030803D01*
X129648138Y-95029000D01*
X130071862Y-95029000D01*
X130090170Y-95030803D01*
X130101879Y-95034355D01*
X130112662Y-95040119D01*
X130122120Y-95047880D01*
X130129881Y-95057338D01*
X130135645Y-95068121D01*
X130139197Y-95079830D01*
X130141000Y-95098138D01*
X130141000Y-95461862D01*
X130139197Y-95480170D01*
X130135645Y-95491879D01*
X130129881Y-95502662D01*
X130122120Y-95512120D01*
X130112662Y-95519881D01*
X130101879Y-95525645D01*
X130090170Y-95529197D01*
X130071862Y-95531000D01*
X129648138Y-95531000D01*
X129629830Y-95529197D01*
X129618125Y-95525646D01*
X129598924Y-95515383D01*
X129576285Y-95506006D01*
X129552251Y-95501226D01*
X129527747Y-95501226D01*
X129503714Y-95506007D01*
X129481076Y-95515383D01*
X129461875Y-95525646D01*
X129450170Y-95529197D01*
X129431862Y-95531000D01*
X129008138Y-95531000D01*
X128989830Y-95529197D01*
X128978121Y-95525645D01*
X128967338Y-95519881D01*
X128957880Y-95512120D01*
X128950119Y-95502662D01*
X128944355Y-95491879D01*
X128940803Y-95480170D01*
X128939000Y-95461862D01*
X128939000Y-95098138D01*
X128940803Y-95079830D01*
X128944355Y-95068121D01*
X128950119Y-95057338D01*
X128957880Y-95047880D01*
X128967338Y-95040119D01*
X128978121Y-95034355D01*
X128989830Y-95030803D01*
X129008138Y-95029000D01*
X129431862Y-95029000D01*
X129450170Y-95030803D01*
X129450170Y-95030803D01*
G37*
G36*
X117070170Y-94750803D02*
X117081875Y-94754354D01*
X117101076Y-94764617D01*
X117123715Y-94773994D01*
X117147749Y-94778774D01*
X117172253Y-94778774D01*
X117196286Y-94773993D01*
X117218924Y-94764617D01*
X117238125Y-94754354D01*
X117249830Y-94750803D01*
X117268138Y-94749000D01*
X117691862Y-94749000D01*
X117710170Y-94750803D01*
X117721879Y-94754355D01*
X117732662Y-94760119D01*
X117742120Y-94767880D01*
X117749881Y-94777338D01*
X117755645Y-94788121D01*
X117759197Y-94799830D01*
X117761000Y-94818138D01*
X117761000Y-95181862D01*
X117759197Y-95200170D01*
X117755645Y-95211879D01*
X117749881Y-95222662D01*
X117742120Y-95232120D01*
X117732662Y-95239881D01*
X117721879Y-95245645D01*
X117710170Y-95249197D01*
X117691862Y-95251000D01*
X117268138Y-95251000D01*
X117249830Y-95249197D01*
X117238125Y-95245646D01*
X117218924Y-95235383D01*
X117196285Y-95226006D01*
X117172251Y-95221226D01*
X117147747Y-95221226D01*
X117123714Y-95226007D01*
X117101076Y-95235383D01*
X117081875Y-95245646D01*
X117070170Y-95249197D01*
X117051862Y-95251000D01*
X116628138Y-95251000D01*
X116609830Y-95249197D01*
X116598121Y-95245645D01*
X116587338Y-95239881D01*
X116577880Y-95232120D01*
X116570119Y-95222662D01*
X116564355Y-95211879D01*
X116560803Y-95200170D01*
X116559000Y-95181862D01*
X116559000Y-94818138D01*
X116560803Y-94799830D01*
X116564355Y-94788121D01*
X116570119Y-94777338D01*
X116577880Y-94767880D01*
X116587338Y-94760119D01*
X116598121Y-94754355D01*
X116609830Y-94750803D01*
X116628138Y-94749000D01*
X117051862Y-94749000D01*
X117070170Y-94750803D01*
X117070170Y-94750803D01*
G37*
G36*
X117160721Y-93290174D02*
X117260995Y-93331709D01*
X117351245Y-93392012D01*
X117427988Y-93468755D01*
X117488291Y-93559005D01*
X117529826Y-93659279D01*
X117551000Y-93765730D01*
X117551000Y-93874270D01*
X117529826Y-93980721D01*
X117488291Y-94080995D01*
X117427988Y-94171245D01*
X117351245Y-94247988D01*
X117260995Y-94308291D01*
X117160721Y-94349826D01*
X117054270Y-94371000D01*
X116945730Y-94371000D01*
X116839279Y-94349826D01*
X116739005Y-94308291D01*
X116648755Y-94247988D01*
X116572012Y-94171245D01*
X116511709Y-94080995D01*
X116470174Y-93980721D01*
X116449000Y-93874270D01*
X116449000Y-93765730D01*
X116470174Y-93659279D01*
X116511709Y-93559005D01*
X116572012Y-93468755D01*
X116648755Y-93392012D01*
X116739005Y-93331709D01*
X116839279Y-93290174D01*
X116945730Y-93269000D01*
X117054270Y-93269000D01*
X117160721Y-93290174D01*
X117160721Y-93290174D01*
G37*
G36*
X132560721Y-93290174D02*
X132660995Y-93331709D01*
X132751245Y-93392012D01*
X132827988Y-93468755D01*
X132888291Y-93559005D01*
X132929826Y-93659279D01*
X132951000Y-93765730D01*
X132951000Y-93874270D01*
X132929826Y-93980721D01*
X132888291Y-94080995D01*
X132827988Y-94171245D01*
X132751245Y-94247988D01*
X132660995Y-94308291D01*
X132560721Y-94349826D01*
X132454270Y-94371000D01*
X132345730Y-94371000D01*
X132239279Y-94349826D01*
X132139005Y-94308291D01*
X132048755Y-94247988D01*
X131972012Y-94171245D01*
X131911709Y-94080995D01*
X131870174Y-93980721D01*
X131849000Y-93874270D01*
X131849000Y-93765730D01*
X131870174Y-93659279D01*
X131911709Y-93559005D01*
X131972012Y-93468755D01*
X132048755Y-93392012D01*
X132139005Y-93331709D01*
X132239279Y-93290174D01*
X132345730Y-93269000D01*
X132454270Y-93269000D01*
X132560721Y-93290174D01*
X132560721Y-93290174D01*
G37*
G36*
X127010721Y-93290174D02*
X127110995Y-93331709D01*
X127201245Y-93392012D01*
X127277988Y-93468755D01*
X127338291Y-93559005D01*
X127359515Y-93610244D01*
X127371066Y-93631855D01*
X127386612Y-93650797D01*
X127405554Y-93666343D01*
X127427165Y-93677894D01*
X127450614Y-93685007D01*
X127475000Y-93687409D01*
X127499386Y-93685007D01*
X127522835Y-93677894D01*
X127544446Y-93666343D01*
X127563388Y-93650797D01*
X127578934Y-93631855D01*
X127590485Y-93610244D01*
X127611709Y-93559005D01*
X127672012Y-93468755D01*
X127748755Y-93392012D01*
X127839005Y-93331709D01*
X127939279Y-93290174D01*
X128045730Y-93269000D01*
X128154270Y-93269000D01*
X128260721Y-93290174D01*
X128360995Y-93331709D01*
X128451245Y-93392012D01*
X128527988Y-93468755D01*
X128588291Y-93559005D01*
X128629826Y-93659279D01*
X128651000Y-93765730D01*
X128651000Y-93874270D01*
X128629826Y-93980721D01*
X128588291Y-94080995D01*
X128527988Y-94171245D01*
X128451245Y-94247988D01*
X128360995Y-94308291D01*
X128260721Y-94349826D01*
X128154270Y-94371000D01*
X128045730Y-94371000D01*
X127939279Y-94349826D01*
X127839005Y-94308291D01*
X127748755Y-94247988D01*
X127672012Y-94171245D01*
X127611709Y-94080995D01*
X127590485Y-94029756D01*
X127578934Y-94008145D01*
X127563388Y-93989203D01*
X127544446Y-93973657D01*
X127522835Y-93962106D01*
X127499386Y-93954993D01*
X127475000Y-93952591D01*
X127450614Y-93954993D01*
X127427165Y-93962106D01*
X127405554Y-93973657D01*
X127386612Y-93989203D01*
X127371066Y-94008145D01*
X127359515Y-94029756D01*
X127338291Y-94080995D01*
X127277988Y-94171245D01*
X127201245Y-94247988D01*
X127110995Y-94308291D01*
X127010721Y-94349826D01*
X126904270Y-94371000D01*
X126795730Y-94371000D01*
X126689279Y-94349826D01*
X126589005Y-94308291D01*
X126498755Y-94247988D01*
X126422012Y-94171245D01*
X126361709Y-94080995D01*
X126320174Y-93980721D01*
X126299000Y-93874270D01*
X126299000Y-93765730D01*
X126320174Y-93659279D01*
X126361709Y-93559005D01*
X126422012Y-93468755D01*
X126498755Y-93392012D01*
X126589005Y-93331709D01*
X126689279Y-93290174D01*
X126795730Y-93269000D01*
X126904270Y-93269000D01*
X127010721Y-93290174D01*
X127010721Y-93290174D01*
G37*
G36*
X121460721Y-93290174D02*
X121560995Y-93331709D01*
X121651245Y-93392012D01*
X121727988Y-93468755D01*
X121788291Y-93559005D01*
X121809515Y-93610244D01*
X121821066Y-93631855D01*
X121836612Y-93650797D01*
X121855554Y-93666343D01*
X121877165Y-93677894D01*
X121900614Y-93685007D01*
X121925000Y-93687409D01*
X121949386Y-93685007D01*
X121972835Y-93677894D01*
X121994446Y-93666343D01*
X122013388Y-93650797D01*
X122028934Y-93631855D01*
X122040485Y-93610244D01*
X122061709Y-93559005D01*
X122122012Y-93468755D01*
X122198755Y-93392012D01*
X122289005Y-93331709D01*
X122389279Y-93290174D01*
X122495730Y-93269000D01*
X122604270Y-93269000D01*
X122710721Y-93290174D01*
X122810995Y-93331709D01*
X122901245Y-93392012D01*
X122977988Y-93468755D01*
X123038291Y-93559005D01*
X123079826Y-93659279D01*
X123101000Y-93765730D01*
X123101000Y-93874270D01*
X123079826Y-93980721D01*
X123038291Y-94080995D01*
X122977988Y-94171245D01*
X122901245Y-94247988D01*
X122810995Y-94308291D01*
X122710721Y-94349826D01*
X122604270Y-94371000D01*
X122495730Y-94371000D01*
X122389279Y-94349826D01*
X122289005Y-94308291D01*
X122198755Y-94247988D01*
X122122012Y-94171245D01*
X122061709Y-94080995D01*
X122040485Y-94029756D01*
X122028934Y-94008145D01*
X122013388Y-93989203D01*
X121994446Y-93973657D01*
X121972835Y-93962106D01*
X121949386Y-93954993D01*
X121925000Y-93952591D01*
X121900614Y-93954993D01*
X121877165Y-93962106D01*
X121855554Y-93973657D01*
X121836612Y-93989203D01*
X121821066Y-94008145D01*
X121809515Y-94029756D01*
X121788291Y-94080995D01*
X121727988Y-94171245D01*
X121651245Y-94247988D01*
X121560995Y-94308291D01*
X121460721Y-94349826D01*
X121354270Y-94371000D01*
X121245730Y-94371000D01*
X121139279Y-94349826D01*
X121039005Y-94308291D01*
X120948755Y-94247988D01*
X120872012Y-94171245D01*
X120811709Y-94080995D01*
X120770174Y-93980721D01*
X120749000Y-93874270D01*
X120749000Y-93765730D01*
X120770174Y-93659279D01*
X120811709Y-93559005D01*
X120872012Y-93468755D01*
X120948755Y-93392012D01*
X121039005Y-93331709D01*
X121139279Y-93290174D01*
X121245730Y-93269000D01*
X121354270Y-93269000D01*
X121460721Y-93290174D01*
X121460721Y-93290174D01*
G37*
G36*
X125951000Y-93421000D02*
X125449000Y-93421000D01*
X125449000Y-92569000D01*
X125951000Y-92569000D01*
X125951000Y-93421000D01*
X125951000Y-93421000D01*
G37*
G36*
X129501000Y-93421000D02*
X128999000Y-93421000D01*
X128999000Y-92569000D01*
X129501000Y-92569000D01*
X129501000Y-93421000D01*
X129501000Y-93421000D01*
G37*
G36*
X131501000Y-93421000D02*
X130999000Y-93421000D01*
X130999000Y-92569000D01*
X131501000Y-92569000D01*
X131501000Y-93421000D01*
X131501000Y-93421000D01*
G37*
G36*
X123951000Y-93421000D02*
X123449000Y-93421000D01*
X123449000Y-92569000D01*
X123951000Y-92569000D01*
X123951000Y-93421000D01*
X123951000Y-93421000D01*
G37*
G36*
X124951000Y-93421000D02*
X124449000Y-93421000D01*
X124449000Y-92569000D01*
X124951000Y-92569000D01*
X124951000Y-93421000D01*
X124951000Y-93421000D01*
G37*
G36*
X118401000Y-93421000D02*
X117899000Y-93421000D01*
X117899000Y-92569000D01*
X118401000Y-92569000D01*
X118401000Y-93421000D01*
X118401000Y-93421000D01*
G37*
G36*
X119401000Y-93421000D02*
X118899000Y-93421000D01*
X118899000Y-92569000D01*
X119401000Y-92569000D01*
X119401000Y-93421000D01*
X119401000Y-93421000D01*
G37*
G36*
X120401000Y-93421000D02*
X119899000Y-93421000D01*
X119899000Y-92569000D01*
X120401000Y-92569000D01*
X120401000Y-93421000D01*
X120401000Y-93421000D01*
G37*
G36*
X130501000Y-93421000D02*
X129999000Y-93421000D01*
X129999000Y-92569000D01*
X130501000Y-92569000D01*
X130501000Y-93421000D01*
X130501000Y-93421000D01*
G37*
G36*
X121651000Y-92421000D02*
X120799000Y-92421000D01*
X120799000Y-91919000D01*
X121651000Y-91919000D01*
X121651000Y-92421000D01*
X121651000Y-92421000D01*
G37*
G36*
X132751000Y-92421000D02*
X131899000Y-92421000D01*
X131899000Y-91919000D01*
X132751000Y-91919000D01*
X132751000Y-92421000D01*
X132751000Y-92421000D01*
G37*
G36*
X128601000Y-92421000D02*
X127749000Y-92421000D01*
X127749000Y-91919000D01*
X128601000Y-91919000D01*
X128601000Y-92421000D01*
X128601000Y-92421000D01*
G37*
G36*
X127201000Y-92421000D02*
X126349000Y-92421000D01*
X126349000Y-91919000D01*
X127201000Y-91919000D01*
X127201000Y-92421000D01*
X127201000Y-92421000D01*
G37*
G36*
X123051000Y-92421000D02*
X122199000Y-92421000D01*
X122199000Y-91919000D01*
X123051000Y-91919000D01*
X123051000Y-92421000D01*
X123051000Y-92421000D01*
G37*
G36*
X117501000Y-92421000D02*
X116649000Y-92421000D01*
X116649000Y-91919000D01*
X117501000Y-91919000D01*
X117501000Y-92421000D01*
X117501000Y-92421000D01*
G37*
G36*
X117501000Y-91421000D02*
X116649000Y-91421000D01*
X116649000Y-90919000D01*
X117501000Y-90919000D01*
X117501000Y-91421000D01*
X117501000Y-91421000D01*
G37*
G36*
X127201000Y-91421000D02*
X126349000Y-91421000D01*
X126349000Y-90919000D01*
X127201000Y-90919000D01*
X127201000Y-91421000D01*
X127201000Y-91421000D01*
G37*
G36*
X123051000Y-91421000D02*
X122199000Y-91421000D01*
X122199000Y-90919000D01*
X123051000Y-90919000D01*
X123051000Y-91421000D01*
X123051000Y-91421000D01*
G37*
G36*
X121651000Y-91421000D02*
X120799000Y-91421000D01*
X120799000Y-90919000D01*
X121651000Y-90919000D01*
X121651000Y-91421000D01*
X121651000Y-91421000D01*
G37*
G36*
X132751000Y-91421000D02*
X131899000Y-91421000D01*
X131899000Y-90919000D01*
X132751000Y-90919000D01*
X132751000Y-91421000D01*
X132751000Y-91421000D01*
G37*
G36*
X128601000Y-91421000D02*
X127749000Y-91421000D01*
X127749000Y-90919000D01*
X128601000Y-90919000D01*
X128601000Y-91421000D01*
X128601000Y-91421000D01*
G37*
G36*
X120501000Y-91121000D02*
X117799000Y-91121000D01*
X117799000Y-89219000D01*
X120501000Y-89219000D01*
X120501000Y-91121000D01*
X120501000Y-91121000D01*
G37*
G36*
X131601000Y-91121000D02*
X128899000Y-91121000D01*
X128899000Y-89219000D01*
X131601000Y-89219000D01*
X131601000Y-91121000D01*
X131601000Y-91121000D01*
G37*
G36*
X126051000Y-91121000D02*
X123349000Y-91121000D01*
X123349000Y-89219000D01*
X126051000Y-89219000D01*
X126051000Y-91121000D01*
X126051000Y-91121000D01*
G37*
G36*
X128601000Y-90421000D02*
X127749000Y-90421000D01*
X127749000Y-89919000D01*
X128601000Y-89919000D01*
X128601000Y-90421000D01*
X128601000Y-90421000D01*
G37*
G36*
X117501000Y-90421000D02*
X116649000Y-90421000D01*
X116649000Y-89919000D01*
X117501000Y-89919000D01*
X117501000Y-90421000D01*
X117501000Y-90421000D01*
G37*
G36*
X123051000Y-90421000D02*
X122199000Y-90421000D01*
X122199000Y-89919000D01*
X123051000Y-89919000D01*
X123051000Y-90421000D01*
X123051000Y-90421000D01*
G37*
G36*
X121651000Y-90421000D02*
X120799000Y-90421000D01*
X120799000Y-89919000D01*
X121651000Y-89919000D01*
X121651000Y-90421000D01*
X121651000Y-90421000D01*
G37*
G36*
X127201000Y-90421000D02*
X126349000Y-90421000D01*
X126349000Y-89919000D01*
X127201000Y-89919000D01*
X127201000Y-90421000D01*
X127201000Y-90421000D01*
G37*
G36*
X132751000Y-90421000D02*
X131899000Y-90421000D01*
X131899000Y-89919000D01*
X132751000Y-89919000D01*
X132751000Y-90421000D01*
X132751000Y-90421000D01*
G37*
G36*
X127201000Y-89421000D02*
X126349000Y-89421000D01*
X126349000Y-88919000D01*
X127201000Y-88919000D01*
X127201000Y-89421000D01*
X127201000Y-89421000D01*
G37*
G36*
X123051000Y-89421000D02*
X122199000Y-89421000D01*
X122199000Y-88919000D01*
X123051000Y-88919000D01*
X123051000Y-89421000D01*
X123051000Y-89421000D01*
G37*
G36*
X121651000Y-89421000D02*
X120799000Y-89421000D01*
X120799000Y-88919000D01*
X121651000Y-88919000D01*
X121651000Y-89421000D01*
X121651000Y-89421000D01*
G37*
G36*
X128601000Y-89421000D02*
X127749000Y-89421000D01*
X127749000Y-88919000D01*
X128601000Y-88919000D01*
X128601000Y-89421000D01*
X128601000Y-89421000D01*
G37*
G36*
X117501000Y-89421000D02*
X116649000Y-89421000D01*
X116649000Y-88919000D01*
X117501000Y-88919000D01*
X117501000Y-89421000D01*
X117501000Y-89421000D01*
G37*
G36*
X132751000Y-89421000D02*
X131899000Y-89421000D01*
X131899000Y-88919000D01*
X132751000Y-88919000D01*
X132751000Y-89421000D01*
X132751000Y-89421000D01*
G37*
G36*
X117501000Y-88421000D02*
X116649000Y-88421000D01*
X116649000Y-87919000D01*
X117501000Y-87919000D01*
X117501000Y-88421000D01*
X117501000Y-88421000D01*
G37*
G36*
X121651000Y-88421000D02*
X120799000Y-88421000D01*
X120799000Y-87919000D01*
X121651000Y-87919000D01*
X121651000Y-88421000D01*
X121651000Y-88421000D01*
G37*
G36*
X132751000Y-88421000D02*
X131899000Y-88421000D01*
X131899000Y-87919000D01*
X132751000Y-87919000D01*
X132751000Y-88421000D01*
X132751000Y-88421000D01*
G37*
G36*
X128601000Y-88421000D02*
X127749000Y-88421000D01*
X127749000Y-87919000D01*
X128601000Y-87919000D01*
X128601000Y-88421000D01*
X128601000Y-88421000D01*
G37*
G36*
X127201000Y-88421000D02*
X126349000Y-88421000D01*
X126349000Y-87919000D01*
X127201000Y-87919000D01*
X127201000Y-88421000D01*
X127201000Y-88421000D01*
G37*
G36*
X123051000Y-88421000D02*
X122199000Y-88421000D01*
X122199000Y-87919000D01*
X123051000Y-87919000D01*
X123051000Y-88421000D01*
X123051000Y-88421000D01*
G37*
G36*
X119401000Y-87771000D02*
X118899000Y-87771000D01*
X118899000Y-86919000D01*
X119401000Y-86919000D01*
X119401000Y-87771000D01*
X119401000Y-87771000D01*
G37*
G36*
X125951000Y-87771000D02*
X125449000Y-87771000D01*
X125449000Y-86919000D01*
X125951000Y-86919000D01*
X125951000Y-87771000D01*
X125951000Y-87771000D01*
G37*
G36*
X129501000Y-87771000D02*
X128999000Y-87771000D01*
X128999000Y-86919000D01*
X129501000Y-86919000D01*
X129501000Y-87771000D01*
X129501000Y-87771000D01*
G37*
G36*
X130501000Y-87771000D02*
X129999000Y-87771000D01*
X129999000Y-86919000D01*
X130501000Y-86919000D01*
X130501000Y-87771000D01*
X130501000Y-87771000D01*
G37*
G36*
X131501000Y-87771000D02*
X130999000Y-87771000D01*
X130999000Y-86919000D01*
X131501000Y-86919000D01*
X131501000Y-87771000D01*
X131501000Y-87771000D01*
G37*
G36*
X123951000Y-87771000D02*
X123449000Y-87771000D01*
X123449000Y-86919000D01*
X123951000Y-86919000D01*
X123951000Y-87771000D01*
X123951000Y-87771000D01*
G37*
G36*
X124951000Y-87771000D02*
X124449000Y-87771000D01*
X124449000Y-86919000D01*
X124951000Y-86919000D01*
X124951000Y-87771000D01*
X124951000Y-87771000D01*
G37*
G36*
X120401000Y-87771000D02*
X119899000Y-87771000D01*
X119899000Y-86919000D01*
X120401000Y-86919000D01*
X120401000Y-87771000D01*
X120401000Y-87771000D01*
G37*
G36*
X118401000Y-87771000D02*
X117899000Y-87771000D01*
X117899000Y-86919000D01*
X118401000Y-86919000D01*
X118401000Y-87771000D01*
X118401000Y-87771000D01*
G37*
G36*
X128260721Y-85990174D02*
X128360995Y-86031709D01*
X128451245Y-86092012D01*
X128527988Y-86168755D01*
X128588291Y-86259005D01*
X128629826Y-86359279D01*
X128651000Y-86465730D01*
X128651000Y-86574270D01*
X128629826Y-86680721D01*
X128588291Y-86780995D01*
X128527988Y-86871245D01*
X128451245Y-86947988D01*
X128360995Y-87008291D01*
X128260721Y-87049826D01*
X128154270Y-87071000D01*
X128045730Y-87071000D01*
X127939279Y-87049826D01*
X127839005Y-87008291D01*
X127748755Y-86947988D01*
X127672012Y-86871245D01*
X127611709Y-86780995D01*
X127570174Y-86680721D01*
X127549000Y-86574270D01*
X127549000Y-86465730D01*
X127570174Y-86359279D01*
X127611709Y-86259005D01*
X127672012Y-86168755D01*
X127748755Y-86092012D01*
X127839005Y-86031709D01*
X127939279Y-85990174D01*
X128045730Y-85969000D01*
X128154270Y-85969000D01*
X128260721Y-85990174D01*
X128260721Y-85990174D01*
G37*
G36*
X122710721Y-85990174D02*
X122810995Y-86031709D01*
X122901245Y-86092012D01*
X122977988Y-86168755D01*
X123038291Y-86259005D01*
X123079826Y-86359279D01*
X123101000Y-86465730D01*
X123101000Y-86574270D01*
X123079826Y-86680721D01*
X123038291Y-86780995D01*
X122977988Y-86871245D01*
X122901245Y-86947988D01*
X122810995Y-87008291D01*
X122710721Y-87049826D01*
X122604270Y-87071000D01*
X122495730Y-87071000D01*
X122389279Y-87049826D01*
X122289005Y-87008291D01*
X122198755Y-86947988D01*
X122122012Y-86871245D01*
X122061709Y-86780995D01*
X122020174Y-86680721D01*
X121999000Y-86574270D01*
X121999000Y-86465730D01*
X122020174Y-86359279D01*
X122061709Y-86259005D01*
X122122012Y-86168755D01*
X122198755Y-86092012D01*
X122289005Y-86031709D01*
X122389279Y-85990174D01*
X122495730Y-85969000D01*
X122604270Y-85969000D01*
X122710721Y-85990174D01*
X122710721Y-85990174D01*
G37*
G36*
X117160721Y-85990174D02*
X117260995Y-86031709D01*
X117351245Y-86092012D01*
X117427988Y-86168755D01*
X117488291Y-86259005D01*
X117529826Y-86359279D01*
X117551000Y-86465730D01*
X117551000Y-86574270D01*
X117529826Y-86680721D01*
X117488291Y-86780995D01*
X117427988Y-86871245D01*
X117351245Y-86947988D01*
X117260995Y-87008291D01*
X117160721Y-87049826D01*
X117054270Y-87071000D01*
X116945730Y-87071000D01*
X116839279Y-87049826D01*
X116739005Y-87008291D01*
X116648755Y-86947988D01*
X116572012Y-86871245D01*
X116511709Y-86780995D01*
X116470174Y-86680721D01*
X116449000Y-86574270D01*
X116449000Y-86465730D01*
X116470174Y-86359279D01*
X116511709Y-86259005D01*
X116572012Y-86168755D01*
X116648755Y-86092012D01*
X116739005Y-86031709D01*
X116839279Y-85990174D01*
X116945730Y-85969000D01*
X117054270Y-85969000D01*
X117160721Y-85990174D01*
X117160721Y-85990174D01*
G37*
G36*
X118020170Y-85050803D02*
X118031875Y-85054354D01*
X118051076Y-85064617D01*
X118073715Y-85073994D01*
X118097749Y-85078774D01*
X118122253Y-85078774D01*
X118146286Y-85073993D01*
X118168924Y-85064617D01*
X118188125Y-85054354D01*
X118199830Y-85050803D01*
X118218138Y-85049000D01*
X118641862Y-85049000D01*
X118660170Y-85050803D01*
X118671879Y-85054355D01*
X118682662Y-85060119D01*
X118692120Y-85067880D01*
X118699881Y-85077338D01*
X118705645Y-85088121D01*
X118709197Y-85099830D01*
X118711000Y-85118138D01*
X118711000Y-85481862D01*
X118709197Y-85500170D01*
X118705645Y-85511879D01*
X118699881Y-85522662D01*
X118692120Y-85532120D01*
X118682662Y-85539881D01*
X118671879Y-85545645D01*
X118660170Y-85549197D01*
X118641862Y-85551000D01*
X118218138Y-85551000D01*
X118199830Y-85549197D01*
X118188125Y-85545646D01*
X118168924Y-85535383D01*
X118146285Y-85526006D01*
X118122251Y-85521226D01*
X118097747Y-85521226D01*
X118073714Y-85526007D01*
X118051076Y-85535383D01*
X118031875Y-85545646D01*
X118020170Y-85549197D01*
X118001862Y-85551000D01*
X117578138Y-85551000D01*
X117559830Y-85549197D01*
X117548121Y-85545645D01*
X117537338Y-85539881D01*
X117527880Y-85532120D01*
X117520119Y-85522662D01*
X117514355Y-85511879D01*
X117510803Y-85500170D01*
X117509000Y-85481862D01*
X117509000Y-85118138D01*
X117510803Y-85099830D01*
X117514355Y-85088121D01*
X117520119Y-85077338D01*
X117527880Y-85067880D01*
X117537338Y-85060119D01*
X117548121Y-85054355D01*
X117559830Y-85050803D01*
X117578138Y-85049000D01*
X118001862Y-85049000D01*
X118020170Y-85050803D01*
X118020170Y-85050803D01*
G37*
G36*
X122651000Y-85431000D02*
X120349000Y-85431000D01*
X120349000Y-83829000D01*
X122651000Y-83829000D01*
X122651000Y-85431000D01*
X122651000Y-85431000D01*
G37*
G36*
X125052527Y-81708736D02*
X125152410Y-81728604D01*
X125434674Y-81845521D01*
X125688705Y-82015259D01*
X125904741Y-82231295D01*
X126074479Y-82485326D01*
X126191396Y-82767590D01*
X126251000Y-83067240D01*
X126251000Y-83372760D01*
X126191396Y-83672410D01*
X126074479Y-83954674D01*
X125904741Y-84208705D01*
X125688705Y-84424741D01*
X125434674Y-84594479D01*
X125152410Y-84711396D01*
X125052527Y-84731264D01*
X124852762Y-84771000D01*
X124547238Y-84771000D01*
X124347473Y-84731264D01*
X124247590Y-84711396D01*
X123965326Y-84594479D01*
X123711295Y-84424741D01*
X123495259Y-84208705D01*
X123325521Y-83954674D01*
X123208604Y-83672410D01*
X123149000Y-83372760D01*
X123149000Y-83067240D01*
X123208604Y-82767590D01*
X123325521Y-82485326D01*
X123495259Y-82231295D01*
X123711295Y-82015259D01*
X123965326Y-81845521D01*
X124247590Y-81728604D01*
X124347473Y-81708736D01*
X124547238Y-81669000D01*
X124852762Y-81669000D01*
X125052527Y-81708736D01*
X125052527Y-81708736D01*
G37*
G36*
X131602527Y-81708736D02*
X131702410Y-81728604D01*
X131984674Y-81845521D01*
X132238705Y-82015259D01*
X132454741Y-82231295D01*
X132624479Y-82485326D01*
X132741396Y-82767590D01*
X132801000Y-83067240D01*
X132801000Y-83372760D01*
X132741396Y-83672410D01*
X132624479Y-83954674D01*
X132454741Y-84208705D01*
X132238705Y-84424741D01*
X131984674Y-84594479D01*
X131702410Y-84711396D01*
X131602527Y-84731264D01*
X131402762Y-84771000D01*
X131097238Y-84771000D01*
X130897473Y-84731264D01*
X130797590Y-84711396D01*
X130515326Y-84594479D01*
X130261295Y-84424741D01*
X130045259Y-84208705D01*
X129875521Y-83954674D01*
X129758604Y-83672410D01*
X129699000Y-83372760D01*
X129699000Y-83067240D01*
X129758604Y-82767590D01*
X129875521Y-82485326D01*
X130045259Y-82231295D01*
X130261295Y-82015259D01*
X130515326Y-81845521D01*
X130797590Y-81728604D01*
X130897473Y-81708736D01*
X131097238Y-81669000D01*
X131402762Y-81669000D01*
X131602527Y-81708736D01*
X131602527Y-81708736D01*
G37*
G36*
X118502527Y-81708736D02*
X118602410Y-81728604D01*
X118884674Y-81845521D01*
X119138705Y-82015259D01*
X119354741Y-82231295D01*
X119524479Y-82485326D01*
X119641396Y-82767590D01*
X119701000Y-83067240D01*
X119701000Y-83372760D01*
X119641396Y-83672410D01*
X119524479Y-83954674D01*
X119354741Y-84208705D01*
X119138705Y-84424741D01*
X118884674Y-84594479D01*
X118602410Y-84711396D01*
X118502527Y-84731264D01*
X118302762Y-84771000D01*
X117997238Y-84771000D01*
X117797473Y-84731264D01*
X117697590Y-84711396D01*
X117415326Y-84594479D01*
X117161295Y-84424741D01*
X116945259Y-84208705D01*
X116775521Y-83954674D01*
X116658604Y-83672410D01*
X116599000Y-83372760D01*
X116599000Y-83067240D01*
X116658604Y-82767590D01*
X116775521Y-82485326D01*
X116945259Y-82231295D01*
X117161295Y-82015259D01*
X117415326Y-81845521D01*
X117697590Y-81728604D01*
X117797473Y-81708736D01*
X117997238Y-81669000D01*
X118302762Y-81669000D01*
X118502527Y-81708736D01*
X118502527Y-81708736D01*
G37*
G36*
X122651000Y-82331000D02*
X120349000Y-82331000D01*
X120349000Y-80729000D01*
X122651000Y-80729000D01*
X122651000Y-82331000D01*
X122651000Y-82331000D01*
G37*
G36*
X124370170Y-80750803D02*
X124381875Y-80754354D01*
X124401076Y-80764617D01*
X124423715Y-80773994D01*
X124447749Y-80778774D01*
X124472253Y-80778774D01*
X124496286Y-80773993D01*
X124518924Y-80764617D01*
X124538125Y-80754354D01*
X124549830Y-80750803D01*
X124568138Y-80749000D01*
X124991862Y-80749000D01*
X125010170Y-80750803D01*
X125021879Y-80754355D01*
X125032662Y-80760119D01*
X125042120Y-80767880D01*
X125049881Y-80777338D01*
X125055645Y-80788121D01*
X125059197Y-80799830D01*
X125061000Y-80818138D01*
X125061000Y-81181862D01*
X125059197Y-81200170D01*
X125055645Y-81211879D01*
X125049881Y-81222662D01*
X125042120Y-81232120D01*
X125032662Y-81239881D01*
X125021879Y-81245645D01*
X125010170Y-81249197D01*
X124991862Y-81251000D01*
X124568138Y-81251000D01*
X124549830Y-81249197D01*
X124538125Y-81245646D01*
X124518924Y-81235383D01*
X124496285Y-81226006D01*
X124472251Y-81221226D01*
X124447747Y-81221226D01*
X124423714Y-81226007D01*
X124401076Y-81235383D01*
X124381875Y-81245646D01*
X124370170Y-81249197D01*
X124351862Y-81251000D01*
X123928138Y-81251000D01*
X123909830Y-81249197D01*
X123898121Y-81245645D01*
X123887338Y-81239881D01*
X123877880Y-81232120D01*
X123870119Y-81222662D01*
X123864355Y-81211879D01*
X123860803Y-81200170D01*
X123859000Y-81181862D01*
X123859000Y-80818138D01*
X123860803Y-80799830D01*
X123864355Y-80788121D01*
X123870119Y-80777338D01*
X123877880Y-80767880D01*
X123887338Y-80760119D01*
X123898121Y-80754355D01*
X123909830Y-80750803D01*
X123928138Y-80749000D01*
X124351862Y-80749000D01*
X124370170Y-80750803D01*
X124370170Y-80750803D01*
G37*
M02*
