G04 #@! TF.GenerationSoftware,KiCad,Pcbnew,(5.0.1-3-g963ef8bb5)*
G04 #@! TF.CreationDate,2018-11-28T15:45:59+01:00*
G04 #@! TF.ProjectId,WindSensor,57696E6453656E736F722E6B69636164,rev?*
G04 #@! TF.SameCoordinates,Original*
G04 #@! TF.FileFunction,Other,Fab,Top*
%FSLAX46Y46*%
G04 Gerber Fmt 4.6, Leading zero omitted, Abs format (unit mm)*
G04 Created by KiCad (PCBNEW (5.0.1-3-g963ef8bb5)) date 2018 November 28, Wednesday 15:45:59*
%MOMM*%
%LPD*%
G01*
G04 APERTURE LIST*
%ADD10C,0.100000*%
%ADD11C,0.040000*%
G04 APERTURE END LIST*
D10*
G04 #@! TO.C,2.7 kOhms*
X129840000Y-95430000D02*
X129240000Y-95430000D01*
X129840000Y-95130000D02*
X129840000Y-95430000D01*
X129240000Y-95130000D02*
X129840000Y-95130000D01*
X129240000Y-95430000D02*
X129240000Y-95130000D01*
G04 #@! TO.C,1.2 kOhms*
X117460000Y-95150000D02*
X116860000Y-95150000D01*
X117460000Y-94850000D02*
X117460000Y-95150000D01*
X116860000Y-94850000D02*
X117460000Y-94850000D01*
X116860000Y-95150000D02*
X116860000Y-94850000D01*
G04 #@! TO.C,100 nF*
X117810000Y-85150000D02*
X118410000Y-85150000D01*
X117810000Y-85450000D02*
X117810000Y-85150000D01*
X118410000Y-85450000D02*
X117810000Y-85450000D01*
X118410000Y-85150000D02*
X118410000Y-85450000D01*
G04 #@! TO.C,75 Ohms*
X124760000Y-81150000D02*
X124160000Y-81150000D01*
X124760000Y-80850000D02*
X124760000Y-81150000D01*
X124160000Y-80850000D02*
X124760000Y-80850000D01*
X124160000Y-81150000D02*
X124160000Y-80850000D01*
G04 #@! TD*
G04 #@! TO.C,2.7 kOhms*
D11*
X128581666Y-94486904D02*
X128593571Y-94475000D01*
X128617380Y-94463095D01*
X128676904Y-94463095D01*
X128700714Y-94475000D01*
X128712619Y-94486904D01*
X128724523Y-94510714D01*
X128724523Y-94534523D01*
X128712619Y-94570238D01*
X128569761Y-94713095D01*
X128724523Y-94713095D01*
X128831666Y-94689285D02*
X128843571Y-94701190D01*
X128831666Y-94713095D01*
X128819761Y-94701190D01*
X128831666Y-94689285D01*
X128831666Y-94713095D01*
X128926904Y-94463095D02*
X129093571Y-94463095D01*
X128986428Y-94713095D01*
X129379285Y-94713095D02*
X129379285Y-94463095D01*
X129403095Y-94617857D02*
X129474523Y-94713095D01*
X129474523Y-94546428D02*
X129379285Y-94641666D01*
X129629285Y-94463095D02*
X129676904Y-94463095D01*
X129700714Y-94475000D01*
X129724523Y-94498809D01*
X129736428Y-94546428D01*
X129736428Y-94629761D01*
X129724523Y-94677380D01*
X129700714Y-94701190D01*
X129676904Y-94713095D01*
X129629285Y-94713095D01*
X129605476Y-94701190D01*
X129581666Y-94677380D01*
X129569761Y-94629761D01*
X129569761Y-94546428D01*
X129581666Y-94498809D01*
X129605476Y-94475000D01*
X129629285Y-94463095D01*
X129843571Y-94713095D02*
X129843571Y-94463095D01*
X129950714Y-94713095D02*
X129950714Y-94582142D01*
X129938809Y-94558333D01*
X129915000Y-94546428D01*
X129879285Y-94546428D01*
X129855476Y-94558333D01*
X129843571Y-94570238D01*
X130069761Y-94713095D02*
X130069761Y-94546428D01*
X130069761Y-94570238D02*
X130081666Y-94558333D01*
X130105476Y-94546428D01*
X130141190Y-94546428D01*
X130165000Y-94558333D01*
X130176904Y-94582142D01*
X130176904Y-94713095D01*
X130176904Y-94582142D02*
X130188809Y-94558333D01*
X130212619Y-94546428D01*
X130248333Y-94546428D01*
X130272142Y-94558333D01*
X130284047Y-94582142D01*
X130284047Y-94713095D01*
X130391190Y-94701190D02*
X130415000Y-94713095D01*
X130462619Y-94713095D01*
X130486428Y-94701190D01*
X130498333Y-94677380D01*
X130498333Y-94665476D01*
X130486428Y-94641666D01*
X130462619Y-94629761D01*
X130426904Y-94629761D01*
X130403095Y-94617857D01*
X130391190Y-94594047D01*
X130391190Y-94582142D01*
X130403095Y-94558333D01*
X130426904Y-94546428D01*
X130462619Y-94546428D01*
X130486428Y-94558333D01*
G04 #@! TO.C,1.2 kOhms*
X116344523Y-94433095D02*
X116201666Y-94433095D01*
X116273095Y-94433095D02*
X116273095Y-94183095D01*
X116249285Y-94218809D01*
X116225476Y-94242619D01*
X116201666Y-94254523D01*
X116451666Y-94409285D02*
X116463571Y-94421190D01*
X116451666Y-94433095D01*
X116439761Y-94421190D01*
X116451666Y-94409285D01*
X116451666Y-94433095D01*
X116558809Y-94206904D02*
X116570714Y-94195000D01*
X116594523Y-94183095D01*
X116654047Y-94183095D01*
X116677857Y-94195000D01*
X116689761Y-94206904D01*
X116701666Y-94230714D01*
X116701666Y-94254523D01*
X116689761Y-94290238D01*
X116546904Y-94433095D01*
X116701666Y-94433095D01*
X116999285Y-94433095D02*
X116999285Y-94183095D01*
X117023095Y-94337857D02*
X117094523Y-94433095D01*
X117094523Y-94266428D02*
X116999285Y-94361666D01*
X117249285Y-94183095D02*
X117296904Y-94183095D01*
X117320714Y-94195000D01*
X117344523Y-94218809D01*
X117356428Y-94266428D01*
X117356428Y-94349761D01*
X117344523Y-94397380D01*
X117320714Y-94421190D01*
X117296904Y-94433095D01*
X117249285Y-94433095D01*
X117225476Y-94421190D01*
X117201666Y-94397380D01*
X117189761Y-94349761D01*
X117189761Y-94266428D01*
X117201666Y-94218809D01*
X117225476Y-94195000D01*
X117249285Y-94183095D01*
X117463571Y-94433095D02*
X117463571Y-94183095D01*
X117570714Y-94433095D02*
X117570714Y-94302142D01*
X117558809Y-94278333D01*
X117535000Y-94266428D01*
X117499285Y-94266428D01*
X117475476Y-94278333D01*
X117463571Y-94290238D01*
X117689761Y-94433095D02*
X117689761Y-94266428D01*
X117689761Y-94290238D02*
X117701666Y-94278333D01*
X117725476Y-94266428D01*
X117761190Y-94266428D01*
X117785000Y-94278333D01*
X117796904Y-94302142D01*
X117796904Y-94433095D01*
X117796904Y-94302142D02*
X117808809Y-94278333D01*
X117832619Y-94266428D01*
X117868333Y-94266428D01*
X117892142Y-94278333D01*
X117904047Y-94302142D01*
X117904047Y-94433095D01*
X118011190Y-94421190D02*
X118035000Y-94433095D01*
X118082619Y-94433095D01*
X118106428Y-94421190D01*
X118118333Y-94397380D01*
X118118333Y-94385476D01*
X118106428Y-94361666D01*
X118082619Y-94349761D01*
X118046904Y-94349761D01*
X118023095Y-94337857D01*
X118011190Y-94314047D01*
X118011190Y-94302142D01*
X118023095Y-94278333D01*
X118046904Y-94266428D01*
X118082619Y-94266428D01*
X118106428Y-94278333D01*
G04 #@! TO.C,100 nF*
X117627857Y-86093095D02*
X117485000Y-86093095D01*
X117556428Y-86093095D02*
X117556428Y-85843095D01*
X117532619Y-85878809D01*
X117508809Y-85902619D01*
X117485000Y-85914523D01*
X117782619Y-85843095D02*
X117806428Y-85843095D01*
X117830238Y-85855000D01*
X117842142Y-85866904D01*
X117854047Y-85890714D01*
X117865952Y-85938333D01*
X117865952Y-85997857D01*
X117854047Y-86045476D01*
X117842142Y-86069285D01*
X117830238Y-86081190D01*
X117806428Y-86093095D01*
X117782619Y-86093095D01*
X117758809Y-86081190D01*
X117746904Y-86069285D01*
X117735000Y-86045476D01*
X117723095Y-85997857D01*
X117723095Y-85938333D01*
X117735000Y-85890714D01*
X117746904Y-85866904D01*
X117758809Y-85855000D01*
X117782619Y-85843095D01*
X118020714Y-85843095D02*
X118044523Y-85843095D01*
X118068333Y-85855000D01*
X118080238Y-85866904D01*
X118092142Y-85890714D01*
X118104047Y-85938333D01*
X118104047Y-85997857D01*
X118092142Y-86045476D01*
X118080238Y-86069285D01*
X118068333Y-86081190D01*
X118044523Y-86093095D01*
X118020714Y-86093095D01*
X117996904Y-86081190D01*
X117985000Y-86069285D01*
X117973095Y-86045476D01*
X117961190Y-85997857D01*
X117961190Y-85938333D01*
X117973095Y-85890714D01*
X117985000Y-85866904D01*
X117996904Y-85855000D01*
X118020714Y-85843095D01*
X118401666Y-85926428D02*
X118401666Y-86093095D01*
X118401666Y-85950238D02*
X118413571Y-85938333D01*
X118437380Y-85926428D01*
X118473095Y-85926428D01*
X118496904Y-85938333D01*
X118508809Y-85962142D01*
X118508809Y-86093095D01*
X118711190Y-85962142D02*
X118627857Y-85962142D01*
X118627857Y-86093095D02*
X118627857Y-85843095D01*
X118746904Y-85843095D01*
G04 #@! TO.C,75 Ohms*
X123650476Y-80183095D02*
X123817142Y-80183095D01*
X123710000Y-80433095D01*
X124031428Y-80183095D02*
X123912380Y-80183095D01*
X123900476Y-80302142D01*
X123912380Y-80290238D01*
X123936190Y-80278333D01*
X123995714Y-80278333D01*
X124019523Y-80290238D01*
X124031428Y-80302142D01*
X124043333Y-80325952D01*
X124043333Y-80385476D01*
X124031428Y-80409285D01*
X124019523Y-80421190D01*
X123995714Y-80433095D01*
X123936190Y-80433095D01*
X123912380Y-80421190D01*
X123900476Y-80409285D01*
X124388571Y-80183095D02*
X124436190Y-80183095D01*
X124460000Y-80195000D01*
X124483809Y-80218809D01*
X124495714Y-80266428D01*
X124495714Y-80349761D01*
X124483809Y-80397380D01*
X124460000Y-80421190D01*
X124436190Y-80433095D01*
X124388571Y-80433095D01*
X124364761Y-80421190D01*
X124340952Y-80397380D01*
X124329047Y-80349761D01*
X124329047Y-80266428D01*
X124340952Y-80218809D01*
X124364761Y-80195000D01*
X124388571Y-80183095D01*
X124602857Y-80433095D02*
X124602857Y-80183095D01*
X124710000Y-80433095D02*
X124710000Y-80302142D01*
X124698095Y-80278333D01*
X124674285Y-80266428D01*
X124638571Y-80266428D01*
X124614761Y-80278333D01*
X124602857Y-80290238D01*
X124829047Y-80433095D02*
X124829047Y-80266428D01*
X124829047Y-80290238D02*
X124840952Y-80278333D01*
X124864761Y-80266428D01*
X124900476Y-80266428D01*
X124924285Y-80278333D01*
X124936190Y-80302142D01*
X124936190Y-80433095D01*
X124936190Y-80302142D02*
X124948095Y-80278333D01*
X124971904Y-80266428D01*
X125007619Y-80266428D01*
X125031428Y-80278333D01*
X125043333Y-80302142D01*
X125043333Y-80433095D01*
X125150476Y-80421190D02*
X125174285Y-80433095D01*
X125221904Y-80433095D01*
X125245714Y-80421190D01*
X125257619Y-80397380D01*
X125257619Y-80385476D01*
X125245714Y-80361666D01*
X125221904Y-80349761D01*
X125186190Y-80349761D01*
X125162380Y-80337857D01*
X125150476Y-80314047D01*
X125150476Y-80302142D01*
X125162380Y-80278333D01*
X125186190Y-80266428D01*
X125221904Y-80266428D01*
X125245714Y-80278333D01*
G04 #@! TO.C,SDP32*
D10*
X129130952Y-91642380D02*
X129202380Y-91666190D01*
X129321428Y-91666190D01*
X129369047Y-91642380D01*
X129392857Y-91618571D01*
X129416666Y-91570952D01*
X129416666Y-91523333D01*
X129392857Y-91475714D01*
X129369047Y-91451904D01*
X129321428Y-91428095D01*
X129226190Y-91404285D01*
X129178571Y-91380476D01*
X129154761Y-91356666D01*
X129130952Y-91309047D01*
X129130952Y-91261428D01*
X129154761Y-91213809D01*
X129178571Y-91190000D01*
X129226190Y-91166190D01*
X129345238Y-91166190D01*
X129416666Y-91190000D01*
X129630952Y-91666190D02*
X129630952Y-91166190D01*
X129750000Y-91166190D01*
X129821428Y-91190000D01*
X129869047Y-91237619D01*
X129892857Y-91285238D01*
X129916666Y-91380476D01*
X129916666Y-91451904D01*
X129892857Y-91547142D01*
X129869047Y-91594761D01*
X129821428Y-91642380D01*
X129750000Y-91666190D01*
X129630952Y-91666190D01*
X130130952Y-91666190D02*
X130130952Y-91166190D01*
X130321428Y-91166190D01*
X130369047Y-91190000D01*
X130392857Y-91213809D01*
X130416666Y-91261428D01*
X130416666Y-91332857D01*
X130392857Y-91380476D01*
X130369047Y-91404285D01*
X130321428Y-91428095D01*
X130130952Y-91428095D01*
X130583333Y-91166190D02*
X130892857Y-91166190D01*
X130726190Y-91356666D01*
X130797619Y-91356666D01*
X130845238Y-91380476D01*
X130869047Y-91404285D01*
X130892857Y-91451904D01*
X130892857Y-91570952D01*
X130869047Y-91618571D01*
X130845238Y-91642380D01*
X130797619Y-91666190D01*
X130654761Y-91666190D01*
X130607142Y-91642380D01*
X130583333Y-91618571D01*
X131083333Y-91213809D02*
X131107142Y-91190000D01*
X131154761Y-91166190D01*
X131273809Y-91166190D01*
X131321428Y-91190000D01*
X131345238Y-91213809D01*
X131369047Y-91261428D01*
X131369047Y-91309047D01*
X131345238Y-91380476D01*
X131059523Y-91666190D01*
X131369047Y-91666190D01*
X129130952Y-91642380D02*
X129202380Y-91666190D01*
X129321428Y-91666190D01*
X129369047Y-91642380D01*
X129392857Y-91618571D01*
X129416666Y-91570952D01*
X129416666Y-91523333D01*
X129392857Y-91475714D01*
X129369047Y-91451904D01*
X129321428Y-91428095D01*
X129226190Y-91404285D01*
X129178571Y-91380476D01*
X129154761Y-91356666D01*
X129130952Y-91309047D01*
X129130952Y-91261428D01*
X129154761Y-91213809D01*
X129178571Y-91190000D01*
X129226190Y-91166190D01*
X129345238Y-91166190D01*
X129416666Y-91190000D01*
X129630952Y-91666190D02*
X129630952Y-91166190D01*
X129750000Y-91166190D01*
X129821428Y-91190000D01*
X129869047Y-91237619D01*
X129892857Y-91285238D01*
X129916666Y-91380476D01*
X129916666Y-91451904D01*
X129892857Y-91547142D01*
X129869047Y-91594761D01*
X129821428Y-91642380D01*
X129750000Y-91666190D01*
X129630952Y-91666190D01*
X130130952Y-91666190D02*
X130130952Y-91166190D01*
X130321428Y-91166190D01*
X130369047Y-91190000D01*
X130392857Y-91213809D01*
X130416666Y-91261428D01*
X130416666Y-91332857D01*
X130392857Y-91380476D01*
X130369047Y-91404285D01*
X130321428Y-91428095D01*
X130130952Y-91428095D01*
X130583333Y-91166190D02*
X130892857Y-91166190D01*
X130726190Y-91356666D01*
X130797619Y-91356666D01*
X130845238Y-91380476D01*
X130869047Y-91404285D01*
X130892857Y-91451904D01*
X130892857Y-91570952D01*
X130869047Y-91618571D01*
X130845238Y-91642380D01*
X130797619Y-91666190D01*
X130654761Y-91666190D01*
X130607142Y-91642380D01*
X130583333Y-91618571D01*
X131083333Y-91213809D02*
X131107142Y-91190000D01*
X131154761Y-91166190D01*
X131273809Y-91166190D01*
X131321428Y-91190000D01*
X131345238Y-91213809D01*
X131369047Y-91261428D01*
X131369047Y-91309047D01*
X131345238Y-91380476D01*
X131059523Y-91666190D01*
X131369047Y-91666190D01*
X123580952Y-91642380D02*
X123652380Y-91666190D01*
X123771428Y-91666190D01*
X123819047Y-91642380D01*
X123842857Y-91618571D01*
X123866666Y-91570952D01*
X123866666Y-91523333D01*
X123842857Y-91475714D01*
X123819047Y-91451904D01*
X123771428Y-91428095D01*
X123676190Y-91404285D01*
X123628571Y-91380476D01*
X123604761Y-91356666D01*
X123580952Y-91309047D01*
X123580952Y-91261428D01*
X123604761Y-91213809D01*
X123628571Y-91190000D01*
X123676190Y-91166190D01*
X123795238Y-91166190D01*
X123866666Y-91190000D01*
X124080952Y-91666190D02*
X124080952Y-91166190D01*
X124200000Y-91166190D01*
X124271428Y-91190000D01*
X124319047Y-91237619D01*
X124342857Y-91285238D01*
X124366666Y-91380476D01*
X124366666Y-91451904D01*
X124342857Y-91547142D01*
X124319047Y-91594761D01*
X124271428Y-91642380D01*
X124200000Y-91666190D01*
X124080952Y-91666190D01*
X124580952Y-91666190D02*
X124580952Y-91166190D01*
X124771428Y-91166190D01*
X124819047Y-91190000D01*
X124842857Y-91213809D01*
X124866666Y-91261428D01*
X124866666Y-91332857D01*
X124842857Y-91380476D01*
X124819047Y-91404285D01*
X124771428Y-91428095D01*
X124580952Y-91428095D01*
X125033333Y-91166190D02*
X125342857Y-91166190D01*
X125176190Y-91356666D01*
X125247619Y-91356666D01*
X125295238Y-91380476D01*
X125319047Y-91404285D01*
X125342857Y-91451904D01*
X125342857Y-91570952D01*
X125319047Y-91618571D01*
X125295238Y-91642380D01*
X125247619Y-91666190D01*
X125104761Y-91666190D01*
X125057142Y-91642380D01*
X125033333Y-91618571D01*
X125533333Y-91213809D02*
X125557142Y-91190000D01*
X125604761Y-91166190D01*
X125723809Y-91166190D01*
X125771428Y-91190000D01*
X125795238Y-91213809D01*
X125819047Y-91261428D01*
X125819047Y-91309047D01*
X125795238Y-91380476D01*
X125509523Y-91666190D01*
X125819047Y-91666190D01*
X123580952Y-91642380D02*
X123652380Y-91666190D01*
X123771428Y-91666190D01*
X123819047Y-91642380D01*
X123842857Y-91618571D01*
X123866666Y-91570952D01*
X123866666Y-91523333D01*
X123842857Y-91475714D01*
X123819047Y-91451904D01*
X123771428Y-91428095D01*
X123676190Y-91404285D01*
X123628571Y-91380476D01*
X123604761Y-91356666D01*
X123580952Y-91309047D01*
X123580952Y-91261428D01*
X123604761Y-91213809D01*
X123628571Y-91190000D01*
X123676190Y-91166190D01*
X123795238Y-91166190D01*
X123866666Y-91190000D01*
X124080952Y-91666190D02*
X124080952Y-91166190D01*
X124200000Y-91166190D01*
X124271428Y-91190000D01*
X124319047Y-91237619D01*
X124342857Y-91285238D01*
X124366666Y-91380476D01*
X124366666Y-91451904D01*
X124342857Y-91547142D01*
X124319047Y-91594761D01*
X124271428Y-91642380D01*
X124200000Y-91666190D01*
X124080952Y-91666190D01*
X124580952Y-91666190D02*
X124580952Y-91166190D01*
X124771428Y-91166190D01*
X124819047Y-91190000D01*
X124842857Y-91213809D01*
X124866666Y-91261428D01*
X124866666Y-91332857D01*
X124842857Y-91380476D01*
X124819047Y-91404285D01*
X124771428Y-91428095D01*
X124580952Y-91428095D01*
X125033333Y-91166190D02*
X125342857Y-91166190D01*
X125176190Y-91356666D01*
X125247619Y-91356666D01*
X125295238Y-91380476D01*
X125319047Y-91404285D01*
X125342857Y-91451904D01*
X125342857Y-91570952D01*
X125319047Y-91618571D01*
X125295238Y-91642380D01*
X125247619Y-91666190D01*
X125104761Y-91666190D01*
X125057142Y-91642380D01*
X125033333Y-91618571D01*
X125533333Y-91213809D02*
X125557142Y-91190000D01*
X125604761Y-91166190D01*
X125723809Y-91166190D01*
X125771428Y-91190000D01*
X125795238Y-91213809D01*
X125819047Y-91261428D01*
X125819047Y-91309047D01*
X125795238Y-91380476D01*
X125509523Y-91666190D01*
X125819047Y-91666190D01*
X118030952Y-91642380D02*
X118102380Y-91666190D01*
X118221428Y-91666190D01*
X118269047Y-91642380D01*
X118292857Y-91618571D01*
X118316666Y-91570952D01*
X118316666Y-91523333D01*
X118292857Y-91475714D01*
X118269047Y-91451904D01*
X118221428Y-91428095D01*
X118126190Y-91404285D01*
X118078571Y-91380476D01*
X118054761Y-91356666D01*
X118030952Y-91309047D01*
X118030952Y-91261428D01*
X118054761Y-91213809D01*
X118078571Y-91190000D01*
X118126190Y-91166190D01*
X118245238Y-91166190D01*
X118316666Y-91190000D01*
X118530952Y-91666190D02*
X118530952Y-91166190D01*
X118650000Y-91166190D01*
X118721428Y-91190000D01*
X118769047Y-91237619D01*
X118792857Y-91285238D01*
X118816666Y-91380476D01*
X118816666Y-91451904D01*
X118792857Y-91547142D01*
X118769047Y-91594761D01*
X118721428Y-91642380D01*
X118650000Y-91666190D01*
X118530952Y-91666190D01*
X119030952Y-91666190D02*
X119030952Y-91166190D01*
X119221428Y-91166190D01*
X119269047Y-91190000D01*
X119292857Y-91213809D01*
X119316666Y-91261428D01*
X119316666Y-91332857D01*
X119292857Y-91380476D01*
X119269047Y-91404285D01*
X119221428Y-91428095D01*
X119030952Y-91428095D01*
X119483333Y-91166190D02*
X119792857Y-91166190D01*
X119626190Y-91356666D01*
X119697619Y-91356666D01*
X119745238Y-91380476D01*
X119769047Y-91404285D01*
X119792857Y-91451904D01*
X119792857Y-91570952D01*
X119769047Y-91618571D01*
X119745238Y-91642380D01*
X119697619Y-91666190D01*
X119554761Y-91666190D01*
X119507142Y-91642380D01*
X119483333Y-91618571D01*
X119983333Y-91213809D02*
X120007142Y-91190000D01*
X120054761Y-91166190D01*
X120173809Y-91166190D01*
X120221428Y-91190000D01*
X120245238Y-91213809D01*
X120269047Y-91261428D01*
X120269047Y-91309047D01*
X120245238Y-91380476D01*
X119959523Y-91666190D01*
X120269047Y-91666190D01*
X118030952Y-91642380D02*
X118102380Y-91666190D01*
X118221428Y-91666190D01*
X118269047Y-91642380D01*
X118292857Y-91618571D01*
X118316666Y-91570952D01*
X118316666Y-91523333D01*
X118292857Y-91475714D01*
X118269047Y-91451904D01*
X118221428Y-91428095D01*
X118126190Y-91404285D01*
X118078571Y-91380476D01*
X118054761Y-91356666D01*
X118030952Y-91309047D01*
X118030952Y-91261428D01*
X118054761Y-91213809D01*
X118078571Y-91190000D01*
X118126190Y-91166190D01*
X118245238Y-91166190D01*
X118316666Y-91190000D01*
X118530952Y-91666190D02*
X118530952Y-91166190D01*
X118650000Y-91166190D01*
X118721428Y-91190000D01*
X118769047Y-91237619D01*
X118792857Y-91285238D01*
X118816666Y-91380476D01*
X118816666Y-91451904D01*
X118792857Y-91547142D01*
X118769047Y-91594761D01*
X118721428Y-91642380D01*
X118650000Y-91666190D01*
X118530952Y-91666190D01*
X119030952Y-91666190D02*
X119030952Y-91166190D01*
X119221428Y-91166190D01*
X119269047Y-91190000D01*
X119292857Y-91213809D01*
X119316666Y-91261428D01*
X119316666Y-91332857D01*
X119292857Y-91380476D01*
X119269047Y-91404285D01*
X119221428Y-91428095D01*
X119030952Y-91428095D01*
X119483333Y-91166190D02*
X119792857Y-91166190D01*
X119626190Y-91356666D01*
X119697619Y-91356666D01*
X119745238Y-91380476D01*
X119769047Y-91404285D01*
X119792857Y-91451904D01*
X119792857Y-91570952D01*
X119769047Y-91618571D01*
X119745238Y-91642380D01*
X119697619Y-91666190D01*
X119554761Y-91666190D01*
X119507142Y-91642380D01*
X119483333Y-91618571D01*
X119983333Y-91213809D02*
X120007142Y-91190000D01*
X120054761Y-91166190D01*
X120173809Y-91166190D01*
X120221428Y-91190000D01*
X120245238Y-91213809D01*
X120269047Y-91261428D01*
X120269047Y-91309047D01*
X120245238Y-91380476D01*
X119959523Y-91666190D01*
X120269047Y-91666190D01*
G04 #@! TD*
M02*
