G04 #@! TF.GenerationSoftware,KiCad,Pcbnew,(5.0.1-3-g963ef8bb5)*
G04 #@! TF.CreationDate,2018-11-28T15:45:59+01:00*
G04 #@! TF.ProjectId,WindSensor,57696E6453656E736F722E6B69636164,rev?*
G04 #@! TF.SameCoordinates,Original*
G04 #@! TF.FileFunction,Legend,Top*
G04 #@! TF.FilePolarity,Positive*
%FSLAX46Y46*%
G04 Gerber Fmt 4.6, Leading zero omitted, Abs format (unit mm)*
G04 Created by KiCad (PCBNEW (5.0.1-3-g963ef8bb5)) date 2018 November 28, Wednesday 15:45:59*
%MOMM*%
%LPD*%
G01*
G04 APERTURE LIST*
%ADD10C,0.150000*%
%ADD11C,0.100000*%
%ADD12C,0.087500*%
G04 APERTURE END LIST*
D10*
G04 #@! TO.C,LED_3528*
X122770000Y-80260000D02*
X122770000Y-85800000D01*
X120230000Y-85800000D02*
X122770000Y-85800000D01*
X120230000Y-80260000D02*
X120230000Y-85800000D01*
X122770000Y-80260000D02*
X120230000Y-80260000D01*
G04 #@! TO.C,SDP32*
X127450000Y-85920000D02*
X121950000Y-85920000D01*
X127450000Y-94420000D02*
X121950000Y-94420000D01*
X121900000Y-94420000D02*
X116400000Y-94420000D01*
X133000000Y-85920000D02*
X133000000Y-94420000D01*
X133000000Y-94420000D02*
X127500000Y-94420000D01*
X133000000Y-85920000D02*
X127500000Y-85920000D01*
X121900000Y-85920000D02*
X116400000Y-85920000D01*
X121900000Y-94420000D02*
X116400000Y-94420000D01*
X116400000Y-85920000D02*
X116400000Y-94420000D01*
G04 #@! TO.C,2.7 kOhms*
D11*
X127613809Y-97913333D02*
X127590000Y-97894285D01*
X127566190Y-97856190D01*
X127566190Y-97760952D01*
X127590000Y-97722857D01*
X127613809Y-97703809D01*
X127661428Y-97684761D01*
X127709047Y-97684761D01*
X127780476Y-97703809D01*
X128066190Y-97932380D01*
X128066190Y-97684761D01*
X128018571Y-97513333D02*
X128042380Y-97494285D01*
X128066190Y-97513333D01*
X128042380Y-97532380D01*
X128018571Y-97513333D01*
X128066190Y-97513333D01*
X127566190Y-97360952D02*
X127566190Y-97094285D01*
X128066190Y-97265714D01*
X128066190Y-96637142D02*
X127566190Y-96637142D01*
X127875714Y-96599047D02*
X128066190Y-96484761D01*
X127732857Y-96484761D02*
X127923333Y-96637142D01*
X127566190Y-96237142D02*
X127566190Y-96160952D01*
X127590000Y-96122857D01*
X127637619Y-96084761D01*
X127732857Y-96065714D01*
X127899523Y-96065714D01*
X127994761Y-96084761D01*
X128042380Y-96122857D01*
X128066190Y-96160952D01*
X128066190Y-96237142D01*
X128042380Y-96275238D01*
X127994761Y-96313333D01*
X127899523Y-96332380D01*
X127732857Y-96332380D01*
X127637619Y-96313333D01*
X127590000Y-96275238D01*
X127566190Y-96237142D01*
X128066190Y-95894285D02*
X127566190Y-95894285D01*
X128066190Y-95722857D02*
X127804285Y-95722857D01*
X127756666Y-95741904D01*
X127732857Y-95780000D01*
X127732857Y-95837142D01*
X127756666Y-95875238D01*
X127780476Y-95894285D01*
X128066190Y-95532380D02*
X127732857Y-95532380D01*
X127780476Y-95532380D02*
X127756666Y-95513333D01*
X127732857Y-95475238D01*
X127732857Y-95418095D01*
X127756666Y-95380000D01*
X127804285Y-95360952D01*
X128066190Y-95360952D01*
X127804285Y-95360952D02*
X127756666Y-95341904D01*
X127732857Y-95303809D01*
X127732857Y-95246666D01*
X127756666Y-95208571D01*
X127804285Y-95189523D01*
X128066190Y-95189523D01*
X128042380Y-95018095D02*
X128066190Y-94980000D01*
X128066190Y-94903809D01*
X128042380Y-94865714D01*
X127994761Y-94846666D01*
X127970952Y-94846666D01*
X127923333Y-94865714D01*
X127899523Y-94903809D01*
X127899523Y-94960952D01*
X127875714Y-94999047D01*
X127828095Y-95018095D01*
X127804285Y-95018095D01*
X127756666Y-94999047D01*
X127732857Y-94960952D01*
X127732857Y-94903809D01*
X127756666Y-94865714D01*
G04 #@! TO.C,1.2 kOhms*
X120289047Y-95476190D02*
X120003333Y-95476190D01*
X120146190Y-95476190D02*
X120146190Y-94976190D01*
X120098571Y-95047619D01*
X120050952Y-95095238D01*
X120003333Y-95119047D01*
X120503333Y-95428571D02*
X120527142Y-95452380D01*
X120503333Y-95476190D01*
X120479523Y-95452380D01*
X120503333Y-95428571D01*
X120503333Y-95476190D01*
X120717619Y-95023809D02*
X120741428Y-95000000D01*
X120789047Y-94976190D01*
X120908095Y-94976190D01*
X120955714Y-95000000D01*
X120979523Y-95023809D01*
X121003333Y-95071428D01*
X121003333Y-95119047D01*
X120979523Y-95190476D01*
X120693809Y-95476190D01*
X121003333Y-95476190D01*
X121598571Y-95476190D02*
X121598571Y-94976190D01*
X121646190Y-95285714D02*
X121789047Y-95476190D01*
X121789047Y-95142857D02*
X121598571Y-95333333D01*
X122098571Y-94976190D02*
X122193809Y-94976190D01*
X122241428Y-95000000D01*
X122289047Y-95047619D01*
X122312857Y-95142857D01*
X122312857Y-95309523D01*
X122289047Y-95404761D01*
X122241428Y-95452380D01*
X122193809Y-95476190D01*
X122098571Y-95476190D01*
X122050952Y-95452380D01*
X122003333Y-95404761D01*
X121979523Y-95309523D01*
X121979523Y-95142857D01*
X122003333Y-95047619D01*
X122050952Y-95000000D01*
X122098571Y-94976190D01*
X122527142Y-95476190D02*
X122527142Y-94976190D01*
X122741428Y-95476190D02*
X122741428Y-95214285D01*
X122717619Y-95166666D01*
X122670000Y-95142857D01*
X122598571Y-95142857D01*
X122550952Y-95166666D01*
X122527142Y-95190476D01*
X122979523Y-95476190D02*
X122979523Y-95142857D01*
X122979523Y-95190476D02*
X123003333Y-95166666D01*
X123050952Y-95142857D01*
X123122380Y-95142857D01*
X123170000Y-95166666D01*
X123193809Y-95214285D01*
X123193809Y-95476190D01*
X123193809Y-95214285D02*
X123217619Y-95166666D01*
X123265238Y-95142857D01*
X123336666Y-95142857D01*
X123384285Y-95166666D01*
X123408095Y-95214285D01*
X123408095Y-95476190D01*
X123622380Y-95452380D02*
X123670000Y-95476190D01*
X123765238Y-95476190D01*
X123812857Y-95452380D01*
X123836666Y-95404761D01*
X123836666Y-95380952D01*
X123812857Y-95333333D01*
X123765238Y-95309523D01*
X123693809Y-95309523D01*
X123646190Y-95285714D01*
X123622380Y-95238095D01*
X123622380Y-95214285D01*
X123646190Y-95166666D01*
X123693809Y-95142857D01*
X123765238Y-95142857D01*
X123812857Y-95166666D01*
G04 #@! TO.C,100 nF*
X115136190Y-86264285D02*
X115136190Y-86550000D01*
X115136190Y-86407142D02*
X114636190Y-86407142D01*
X114707619Y-86454761D01*
X114755238Y-86502380D01*
X114779047Y-86550000D01*
X114636190Y-85954761D02*
X114636190Y-85907142D01*
X114660000Y-85859523D01*
X114683809Y-85835714D01*
X114731428Y-85811904D01*
X114826666Y-85788095D01*
X114945714Y-85788095D01*
X115040952Y-85811904D01*
X115088571Y-85835714D01*
X115112380Y-85859523D01*
X115136190Y-85907142D01*
X115136190Y-85954761D01*
X115112380Y-86002380D01*
X115088571Y-86026190D01*
X115040952Y-86050000D01*
X114945714Y-86073809D01*
X114826666Y-86073809D01*
X114731428Y-86050000D01*
X114683809Y-86026190D01*
X114660000Y-86002380D01*
X114636190Y-85954761D01*
X114636190Y-85478571D02*
X114636190Y-85430952D01*
X114660000Y-85383333D01*
X114683809Y-85359523D01*
X114731428Y-85335714D01*
X114826666Y-85311904D01*
X114945714Y-85311904D01*
X115040952Y-85335714D01*
X115088571Y-85359523D01*
X115112380Y-85383333D01*
X115136190Y-85430952D01*
X115136190Y-85478571D01*
X115112380Y-85526190D01*
X115088571Y-85550000D01*
X115040952Y-85573809D01*
X114945714Y-85597619D01*
X114826666Y-85597619D01*
X114731428Y-85573809D01*
X114683809Y-85550000D01*
X114660000Y-85526190D01*
X114636190Y-85478571D01*
X114802857Y-84716666D02*
X115136190Y-84716666D01*
X114850476Y-84716666D02*
X114826666Y-84692857D01*
X114802857Y-84645238D01*
X114802857Y-84573809D01*
X114826666Y-84526190D01*
X114874285Y-84502380D01*
X115136190Y-84502380D01*
X114874285Y-84097619D02*
X114874285Y-84264285D01*
X115136190Y-84264285D02*
X114636190Y-84264285D01*
X114636190Y-84026190D01*
G04 #@! TO.C,75 Ohms*
X123840952Y-80180952D02*
X124174285Y-80180952D01*
X123960000Y-80580952D01*
X124602857Y-80180952D02*
X124364761Y-80180952D01*
X124340952Y-80371428D01*
X124364761Y-80352380D01*
X124412380Y-80333333D01*
X124531428Y-80333333D01*
X124579047Y-80352380D01*
X124602857Y-80371428D01*
X124626666Y-80409523D01*
X124626666Y-80504761D01*
X124602857Y-80542857D01*
X124579047Y-80561904D01*
X124531428Y-80580952D01*
X124412380Y-80580952D01*
X124364761Y-80561904D01*
X124340952Y-80542857D01*
X125317142Y-80180952D02*
X125412380Y-80180952D01*
X125460000Y-80200000D01*
X125507619Y-80238095D01*
X125531428Y-80314285D01*
X125531428Y-80447619D01*
X125507619Y-80523809D01*
X125460000Y-80561904D01*
X125412380Y-80580952D01*
X125317142Y-80580952D01*
X125269523Y-80561904D01*
X125221904Y-80523809D01*
X125198095Y-80447619D01*
X125198095Y-80314285D01*
X125221904Y-80238095D01*
X125269523Y-80200000D01*
X125317142Y-80180952D01*
X125745714Y-80580952D02*
X125745714Y-80180952D01*
X125960000Y-80580952D02*
X125960000Y-80371428D01*
X125936190Y-80333333D01*
X125888571Y-80314285D01*
X125817142Y-80314285D01*
X125769523Y-80333333D01*
X125745714Y-80352380D01*
X126198095Y-80580952D02*
X126198095Y-80314285D01*
X126198095Y-80352380D02*
X126221904Y-80333333D01*
X126269523Y-80314285D01*
X126340952Y-80314285D01*
X126388571Y-80333333D01*
X126412380Y-80371428D01*
X126412380Y-80580952D01*
X126412380Y-80371428D02*
X126436190Y-80333333D01*
X126483809Y-80314285D01*
X126555238Y-80314285D01*
X126602857Y-80333333D01*
X126626666Y-80371428D01*
X126626666Y-80580952D01*
X126840952Y-80561904D02*
X126888571Y-80580952D01*
X126983809Y-80580952D01*
X127031428Y-80561904D01*
X127055238Y-80523809D01*
X127055238Y-80504761D01*
X127031428Y-80466666D01*
X126983809Y-80447619D01*
X126912380Y-80447619D01*
X126864761Y-80428571D01*
X126840952Y-80390476D01*
X126840952Y-80371428D01*
X126864761Y-80333333D01*
X126912380Y-80314285D01*
X126983809Y-80314285D01*
X127031428Y-80333333D01*
G04 #@! TO.C,LED_3528*
D12*
X117775000Y-81458333D02*
X117608333Y-81458333D01*
X117608333Y-81108333D01*
X117891666Y-81275000D02*
X118008333Y-81275000D01*
X118058333Y-81458333D02*
X117891666Y-81458333D01*
X117891666Y-81108333D01*
X118058333Y-81108333D01*
X118208333Y-81458333D02*
X118208333Y-81108333D01*
X118291666Y-81108333D01*
X118341666Y-81125000D01*
X118375000Y-81158333D01*
X118391666Y-81191666D01*
X118408333Y-81258333D01*
X118408333Y-81308333D01*
X118391666Y-81375000D01*
X118375000Y-81408333D01*
X118341666Y-81441666D01*
X118291666Y-81458333D01*
X118208333Y-81458333D01*
X118475000Y-81491666D02*
X118741666Y-81491666D01*
X118791666Y-81108333D02*
X119008333Y-81108333D01*
X118891666Y-81241666D01*
X118941666Y-81241666D01*
X118975000Y-81258333D01*
X118991666Y-81275000D01*
X119008333Y-81308333D01*
X119008333Y-81391666D01*
X118991666Y-81425000D01*
X118975000Y-81441666D01*
X118941666Y-81458333D01*
X118841666Y-81458333D01*
X118808333Y-81441666D01*
X118791666Y-81425000D01*
X119325000Y-81108333D02*
X119158333Y-81108333D01*
X119141666Y-81275000D01*
X119158333Y-81258333D01*
X119191666Y-81241666D01*
X119275000Y-81241666D01*
X119308333Y-81258333D01*
X119325000Y-81275000D01*
X119341666Y-81308333D01*
X119341666Y-81391666D01*
X119325000Y-81425000D01*
X119308333Y-81441666D01*
X119275000Y-81458333D01*
X119191666Y-81458333D01*
X119158333Y-81441666D01*
X119141666Y-81425000D01*
X119475000Y-81141666D02*
X119491666Y-81125000D01*
X119525000Y-81108333D01*
X119608333Y-81108333D01*
X119641666Y-81125000D01*
X119658333Y-81141666D01*
X119675000Y-81175000D01*
X119675000Y-81208333D01*
X119658333Y-81258333D01*
X119458333Y-81458333D01*
X119675000Y-81458333D01*
X119875000Y-81258333D02*
X119841666Y-81241666D01*
X119825000Y-81225000D01*
X119808333Y-81191666D01*
X119808333Y-81175000D01*
X119825000Y-81141666D01*
X119841666Y-81125000D01*
X119875000Y-81108333D01*
X119941666Y-81108333D01*
X119975000Y-81125000D01*
X119991666Y-81141666D01*
X120008333Y-81175000D01*
X120008333Y-81191666D01*
X119991666Y-81225000D01*
X119975000Y-81241666D01*
X119941666Y-81258333D01*
X119875000Y-81258333D01*
X119841666Y-81275000D01*
X119825000Y-81291666D01*
X119808333Y-81325000D01*
X119808333Y-81391666D01*
X119825000Y-81425000D01*
X119841666Y-81441666D01*
X119875000Y-81458333D01*
X119941666Y-81458333D01*
X119975000Y-81441666D01*
X119991666Y-81425000D01*
X120008333Y-81391666D01*
X120008333Y-81325000D01*
X119991666Y-81291666D01*
X119975000Y-81275000D01*
X119941666Y-81258333D01*
G04 #@! TO.C,SDP32*
D11*
X123160952Y-89102380D02*
X123232380Y-89126190D01*
X123351428Y-89126190D01*
X123399047Y-89102380D01*
X123422857Y-89078571D01*
X123446666Y-89030952D01*
X123446666Y-88983333D01*
X123422857Y-88935714D01*
X123399047Y-88911904D01*
X123351428Y-88888095D01*
X123256190Y-88864285D01*
X123208571Y-88840476D01*
X123184761Y-88816666D01*
X123160952Y-88769047D01*
X123160952Y-88721428D01*
X123184761Y-88673809D01*
X123208571Y-88650000D01*
X123256190Y-88626190D01*
X123375238Y-88626190D01*
X123446666Y-88650000D01*
X123660952Y-89126190D02*
X123660952Y-88626190D01*
X123780000Y-88626190D01*
X123851428Y-88650000D01*
X123899047Y-88697619D01*
X123922857Y-88745238D01*
X123946666Y-88840476D01*
X123946666Y-88911904D01*
X123922857Y-89007142D01*
X123899047Y-89054761D01*
X123851428Y-89102380D01*
X123780000Y-89126190D01*
X123660952Y-89126190D01*
X124160952Y-89126190D02*
X124160952Y-88626190D01*
X124351428Y-88626190D01*
X124399047Y-88650000D01*
X124422857Y-88673809D01*
X124446666Y-88721428D01*
X124446666Y-88792857D01*
X124422857Y-88840476D01*
X124399047Y-88864285D01*
X124351428Y-88888095D01*
X124160952Y-88888095D01*
X124613333Y-88626190D02*
X124922857Y-88626190D01*
X124756190Y-88816666D01*
X124827619Y-88816666D01*
X124875238Y-88840476D01*
X124899047Y-88864285D01*
X124922857Y-88911904D01*
X124922857Y-89030952D01*
X124899047Y-89078571D01*
X124875238Y-89102380D01*
X124827619Y-89126190D01*
X124684761Y-89126190D01*
X124637142Y-89102380D01*
X124613333Y-89078571D01*
X125113333Y-88673809D02*
X125137142Y-88650000D01*
X125184761Y-88626190D01*
X125303809Y-88626190D01*
X125351428Y-88650000D01*
X125375238Y-88673809D01*
X125399047Y-88721428D01*
X125399047Y-88769047D01*
X125375238Y-88840476D01*
X125089523Y-89126190D01*
X125399047Y-89126190D01*
G04 #@! TD*
M02*
