G04 #@! TF.GenerationSoftware,KiCad,Pcbnew,(5.0.1-3-g963ef8bb5)*
G04 #@! TF.CreationDate,2018-11-28T15:45:59+01:00*
G04 #@! TF.ProjectId,WindSensor,57696E6453656E736F722E6B69636164,rev?*
G04 #@! TF.SameCoordinates,Original*
G04 #@! TF.FileFunction,Copper,L2,Bot,Signal*
G04 #@! TF.FilePolarity,Positive*
%FSLAX46Y46*%
G04 Gerber Fmt 4.6, Leading zero omitted, Abs format (unit mm)*
G04 Created by KiCad (PCBNEW (5.0.1-3-g963ef8bb5)) date 2018 November 28, Wednesday 15:45:59*
%MOMM*%
%LPD*%
G01*
G04 APERTURE LIST*
G04 #@! TA.AperFunction,Conductor*
%ADD10C,0.100000*%
G04 #@! TD*
G04 #@! TA.AperFunction,SMDPad,CuDef*
%ADD11C,0.400000*%
G04 #@! TD*
G04 #@! TA.AperFunction,ComponentPad*
%ADD12C,3.000000*%
G04 #@! TD*
G04 #@! TA.AperFunction,SMDPad,CuDef*
%ADD13R,1.000000X1.700000*%
G04 #@! TD*
G04 #@! TA.AperFunction,ComponentPad*
%ADD14C,1.000000*%
G04 #@! TD*
G04 #@! TA.AperFunction,ViaPad*
%ADD15C,0.800000*%
G04 #@! TD*
G04 #@! TA.AperFunction,Conductor*
%ADD16C,0.250000*%
G04 #@! TD*
G04 APERTURE END LIST*
D10*
G04 #@! TO.N,N/C*
G04 #@! TO.C,*
G36*
X125839802Y-86770482D02*
X125849509Y-86771921D01*
X125859028Y-86774306D01*
X125868268Y-86777612D01*
X125877140Y-86781808D01*
X125885557Y-86786853D01*
X125893439Y-86792699D01*
X125900711Y-86799289D01*
X125907301Y-86806561D01*
X125913147Y-86814443D01*
X125918192Y-86822860D01*
X125922388Y-86831732D01*
X125925694Y-86840972D01*
X125928079Y-86850491D01*
X125929518Y-86860198D01*
X125930000Y-86870000D01*
X125930000Y-87130000D01*
X125929518Y-87139802D01*
X125928079Y-87149509D01*
X125925694Y-87159028D01*
X125922388Y-87168268D01*
X125918192Y-87177140D01*
X125913147Y-87185557D01*
X125907301Y-87193439D01*
X125900711Y-87200711D01*
X125893439Y-87207301D01*
X125885557Y-87213147D01*
X125877140Y-87218192D01*
X125868268Y-87222388D01*
X125859028Y-87225694D01*
X125849509Y-87228079D01*
X125839802Y-87229518D01*
X125830000Y-87230000D01*
X125630000Y-87230000D01*
X125620198Y-87229518D01*
X125610491Y-87228079D01*
X125600972Y-87225694D01*
X125591732Y-87222388D01*
X125582860Y-87218192D01*
X125574443Y-87213147D01*
X125566561Y-87207301D01*
X125559289Y-87200711D01*
X125552699Y-87193439D01*
X125546853Y-87185557D01*
X125541808Y-87177140D01*
X125537612Y-87168268D01*
X125534306Y-87159028D01*
X125531921Y-87149509D01*
X125530482Y-87139802D01*
X125530000Y-87130000D01*
X125530000Y-86870000D01*
X125530482Y-86860198D01*
X125531921Y-86850491D01*
X125534306Y-86840972D01*
X125537612Y-86831732D01*
X125541808Y-86822860D01*
X125546853Y-86814443D01*
X125552699Y-86806561D01*
X125559289Y-86799289D01*
X125566561Y-86792699D01*
X125574443Y-86786853D01*
X125582860Y-86781808D01*
X125591732Y-86777612D01*
X125600972Y-86774306D01*
X125610491Y-86771921D01*
X125620198Y-86770482D01*
X125630000Y-86770000D01*
X125830000Y-86770000D01*
X125839802Y-86770482D01*
X125839802Y-86770482D01*
G37*
D11*
G04 #@! TD*
G04 #@! TO.P,,2*
G04 #@! TO.N,N/C*
X125730000Y-87000000D03*
D10*
G04 #@! TO.N,N/C*
G04 #@! TO.C,*
G36*
X125839802Y-86130482D02*
X125849509Y-86131921D01*
X125859028Y-86134306D01*
X125868268Y-86137612D01*
X125877140Y-86141808D01*
X125885557Y-86146853D01*
X125893439Y-86152699D01*
X125900711Y-86159289D01*
X125907301Y-86166561D01*
X125913147Y-86174443D01*
X125918192Y-86182860D01*
X125922388Y-86191732D01*
X125925694Y-86200972D01*
X125928079Y-86210491D01*
X125929518Y-86220198D01*
X125930000Y-86230000D01*
X125930000Y-86490000D01*
X125929518Y-86499802D01*
X125928079Y-86509509D01*
X125925694Y-86519028D01*
X125922388Y-86528268D01*
X125918192Y-86537140D01*
X125913147Y-86545557D01*
X125907301Y-86553439D01*
X125900711Y-86560711D01*
X125893439Y-86567301D01*
X125885557Y-86573147D01*
X125877140Y-86578192D01*
X125868268Y-86582388D01*
X125859028Y-86585694D01*
X125849509Y-86588079D01*
X125839802Y-86589518D01*
X125830000Y-86590000D01*
X125630000Y-86590000D01*
X125620198Y-86589518D01*
X125610491Y-86588079D01*
X125600972Y-86585694D01*
X125591732Y-86582388D01*
X125582860Y-86578192D01*
X125574443Y-86573147D01*
X125566561Y-86567301D01*
X125559289Y-86560711D01*
X125552699Y-86553439D01*
X125546853Y-86545557D01*
X125541808Y-86537140D01*
X125537612Y-86528268D01*
X125534306Y-86519028D01*
X125531921Y-86509509D01*
X125530482Y-86499802D01*
X125530000Y-86490000D01*
X125530000Y-86230000D01*
X125530482Y-86220198D01*
X125531921Y-86210491D01*
X125534306Y-86200972D01*
X125537612Y-86191732D01*
X125541808Y-86182860D01*
X125546853Y-86174443D01*
X125552699Y-86166561D01*
X125559289Y-86159289D01*
X125566561Y-86152699D01*
X125574443Y-86146853D01*
X125582860Y-86141808D01*
X125591732Y-86137612D01*
X125600972Y-86134306D01*
X125610491Y-86131921D01*
X125620198Y-86130482D01*
X125630000Y-86130000D01*
X125830000Y-86130000D01*
X125839802Y-86130482D01*
X125839802Y-86130482D01*
G37*
D11*
G04 #@! TD*
G04 #@! TO.P,,1*
G04 #@! TO.N,N/C*
X125730000Y-86360000D03*
D10*
G04 #@! TO.N,N/C*
G04 #@! TO.C,*
G36*
X133779802Y-93090482D02*
X133789509Y-93091921D01*
X133799028Y-93094306D01*
X133808268Y-93097612D01*
X133817140Y-93101808D01*
X133825557Y-93106853D01*
X133833439Y-93112699D01*
X133840711Y-93119289D01*
X133847301Y-93126561D01*
X133853147Y-93134443D01*
X133858192Y-93142860D01*
X133862388Y-93151732D01*
X133865694Y-93160972D01*
X133868079Y-93170491D01*
X133869518Y-93180198D01*
X133870000Y-93190000D01*
X133870000Y-93450000D01*
X133869518Y-93459802D01*
X133868079Y-93469509D01*
X133865694Y-93479028D01*
X133862388Y-93488268D01*
X133858192Y-93497140D01*
X133853147Y-93505557D01*
X133847301Y-93513439D01*
X133840711Y-93520711D01*
X133833439Y-93527301D01*
X133825557Y-93533147D01*
X133817140Y-93538192D01*
X133808268Y-93542388D01*
X133799028Y-93545694D01*
X133789509Y-93548079D01*
X133779802Y-93549518D01*
X133770000Y-93550000D01*
X133570000Y-93550000D01*
X133560198Y-93549518D01*
X133550491Y-93548079D01*
X133540972Y-93545694D01*
X133531732Y-93542388D01*
X133522860Y-93538192D01*
X133514443Y-93533147D01*
X133506561Y-93527301D01*
X133499289Y-93520711D01*
X133492699Y-93513439D01*
X133486853Y-93505557D01*
X133481808Y-93497140D01*
X133477612Y-93488268D01*
X133474306Y-93479028D01*
X133471921Y-93469509D01*
X133470482Y-93459802D01*
X133470000Y-93450000D01*
X133470000Y-93190000D01*
X133470482Y-93180198D01*
X133471921Y-93170491D01*
X133474306Y-93160972D01*
X133477612Y-93151732D01*
X133481808Y-93142860D01*
X133486853Y-93134443D01*
X133492699Y-93126561D01*
X133499289Y-93119289D01*
X133506561Y-93112699D01*
X133514443Y-93106853D01*
X133522860Y-93101808D01*
X133531732Y-93097612D01*
X133540972Y-93094306D01*
X133550491Y-93091921D01*
X133560198Y-93090482D01*
X133570000Y-93090000D01*
X133770000Y-93090000D01*
X133779802Y-93090482D01*
X133779802Y-93090482D01*
G37*
D11*
G04 #@! TD*
G04 #@! TO.P,,2*
G04 #@! TO.N,N/C*
X133670000Y-93320000D03*
D10*
G04 #@! TO.N,N/C*
G04 #@! TO.C,*
G36*
X133779802Y-92450482D02*
X133789509Y-92451921D01*
X133799028Y-92454306D01*
X133808268Y-92457612D01*
X133817140Y-92461808D01*
X133825557Y-92466853D01*
X133833439Y-92472699D01*
X133840711Y-92479289D01*
X133847301Y-92486561D01*
X133853147Y-92494443D01*
X133858192Y-92502860D01*
X133862388Y-92511732D01*
X133865694Y-92520972D01*
X133868079Y-92530491D01*
X133869518Y-92540198D01*
X133870000Y-92550000D01*
X133870000Y-92810000D01*
X133869518Y-92819802D01*
X133868079Y-92829509D01*
X133865694Y-92839028D01*
X133862388Y-92848268D01*
X133858192Y-92857140D01*
X133853147Y-92865557D01*
X133847301Y-92873439D01*
X133840711Y-92880711D01*
X133833439Y-92887301D01*
X133825557Y-92893147D01*
X133817140Y-92898192D01*
X133808268Y-92902388D01*
X133799028Y-92905694D01*
X133789509Y-92908079D01*
X133779802Y-92909518D01*
X133770000Y-92910000D01*
X133570000Y-92910000D01*
X133560198Y-92909518D01*
X133550491Y-92908079D01*
X133540972Y-92905694D01*
X133531732Y-92902388D01*
X133522860Y-92898192D01*
X133514443Y-92893147D01*
X133506561Y-92887301D01*
X133499289Y-92880711D01*
X133492699Y-92873439D01*
X133486853Y-92865557D01*
X133481808Y-92857140D01*
X133477612Y-92848268D01*
X133474306Y-92839028D01*
X133471921Y-92829509D01*
X133470482Y-92819802D01*
X133470000Y-92810000D01*
X133470000Y-92550000D01*
X133470482Y-92540198D01*
X133471921Y-92530491D01*
X133474306Y-92520972D01*
X133477612Y-92511732D01*
X133481808Y-92502860D01*
X133486853Y-92494443D01*
X133492699Y-92486561D01*
X133499289Y-92479289D01*
X133506561Y-92472699D01*
X133514443Y-92466853D01*
X133522860Y-92461808D01*
X133531732Y-92457612D01*
X133540972Y-92454306D01*
X133550491Y-92451921D01*
X133560198Y-92450482D01*
X133570000Y-92450000D01*
X133770000Y-92450000D01*
X133779802Y-92450482D01*
X133779802Y-92450482D01*
G37*
D11*
G04 #@! TD*
G04 #@! TO.P,,1*
G04 #@! TO.N,N/C*
X133670000Y-92680000D03*
D12*
G04 #@! TO.P,SDP32,30*
G04 #@! TO.N,N/C*
X131250000Y-83220000D03*
G04 #@! TO.P,SDP32,29*
X124700000Y-83220000D03*
G04 #@! TO.P,SDP32,28*
X118150000Y-83220000D03*
G04 #@! TO.P,SDP32,27*
X131250000Y-97120000D03*
G04 #@! TO.P,SDP32,26*
X124700000Y-97120000D03*
G04 #@! TO.P,SDP32,25*
X118150000Y-97120000D03*
D13*
G04 #@! TO.P,SDP32,22*
X125700000Y-88900000D03*
G04 #@! TO.P,SDP32,23*
X130780000Y-88900000D03*
G04 #@! TO.P,SDP32,24*
X128240000Y-88900000D03*
G04 #@! TO.P,SDP32,21*
X123160000Y-88900000D03*
D14*
G04 #@! TO.P,SDP32,18*
X122550000Y-93820000D03*
G04 #@! TO.P,SDP32,17*
X122550000Y-86520000D03*
G04 #@! TO.P,SDP32,19*
X126850000Y-93820000D03*
G04 #@! TO.P,SDP32,17*
X117000000Y-86520000D03*
G04 #@! TO.P,SDP32,19*
X121300000Y-93820000D03*
G04 #@! TO.P,SDP32,18*
X117000000Y-93820000D03*
G04 #@! TO.P,SDP32,17*
X128100000Y-86520000D03*
G04 #@! TO.P,SDP32,19*
X132400000Y-93820000D03*
G04 #@! TO.P,SDP32,18*
X128100000Y-93820000D03*
G04 #@! TD*
D15*
G04 #@! TO.N,*
X115570000Y-85090000D03*
X124460000Y-92000000D03*
X129540000Y-88400000D03*
X115840000Y-91170000D03*
X121920000Y-92900000D03*
X115570000Y-93980000D03*
X119000000Y-88500000D03*
X127480000Y-92900000D03*
X129540000Y-91700000D03*
X124500000Y-88500000D03*
X132300000Y-95250000D03*
X127000000Y-85090000D03*
X127990000Y-81000000D03*
G04 #@! TD*
D16*
G04 #@! TO.N,*
X125730000Y-88900000D02*
X125730000Y-87630000D01*
X129540000Y-87630000D02*
X130810000Y-87630000D01*
X130810000Y-87630000D02*
X130810000Y-88900000D01*
X130810000Y-83820000D02*
X132080000Y-82550000D01*
X129540000Y-88400000D02*
X129540000Y-87630000D01*
X124460000Y-92000000D02*
X124460000Y-95250000D01*
X119000000Y-88500000D02*
X119000000Y-89790000D01*
X119000000Y-89790000D02*
X119380000Y-90170000D01*
X119380000Y-90170000D02*
X124460000Y-90170000D01*
X124460000Y-90170000D02*
X127000000Y-90170000D01*
X127000000Y-90170000D02*
X127000000Y-87630000D01*
X127000000Y-87630000D02*
X129540000Y-87630000D01*
X129540000Y-91700000D02*
X128530000Y-91700000D01*
X128270000Y-91440000D02*
X128270000Y-88900000D01*
X128270000Y-95250000D02*
X129540000Y-93980000D01*
X129540000Y-93980000D02*
X129540000Y-92710000D01*
X115570000Y-95250000D02*
X128270000Y-95250000D01*
X129540000Y-92710000D02*
X128270000Y-91440000D01*
X115570000Y-93980000D02*
X115570000Y-95250000D01*
X124500000Y-90130000D02*
X124460000Y-90170000D01*
X124500000Y-88500000D02*
X124500000Y-90130000D01*
X125730000Y-92710000D02*
X125730000Y-91440000D01*
X125920000Y-92900000D02*
X125730000Y-92710000D01*
X125730000Y-91440000D02*
X120840000Y-91440000D01*
X127500000Y-92900000D02*
X125920000Y-92900000D01*
X118380000Y-92710000D02*
X115840000Y-90170000D01*
X119570000Y-92710000D02*
X118380000Y-92710000D01*
X115840000Y-90170000D02*
X115840000Y-86090000D01*
X115840000Y-91170000D02*
X115840000Y-90170000D01*
X121920000Y-92900000D02*
X120650000Y-91630000D01*
X120650000Y-91630000D02*
X119570000Y-92710000D01*
X120840000Y-91440000D02*
X120650000Y-91630000D01*
X132080000Y-96520000D02*
X132080000Y-96520000D01*
X123160000Y-88900000D02*
X123160000Y-87660000D01*
X120650000Y-86360000D02*
X121920000Y-85090000D01*
X120650000Y-87630000D02*
X120650000Y-86360000D01*
X120680000Y-87660000D02*
X120650000Y-87630000D01*
X121920000Y-85090000D02*
X125730000Y-85090000D01*
X123160000Y-87660000D02*
X120680000Y-87660000D01*
X127000000Y-85090000D02*
X125730000Y-85090000D01*
X125730000Y-87000000D02*
X125730000Y-87630000D01*
X125730000Y-86360000D02*
X125730000Y-85090000D01*
X115570000Y-82550000D02*
X116840000Y-81280000D01*
X116840000Y-81280000D02*
X127000000Y-81280000D01*
X132080000Y-85090000D02*
X133670000Y-86680000D01*
X128270000Y-85090000D02*
X132080000Y-85090000D01*
X127160000Y-86200000D02*
X128270000Y-85090000D01*
X133670000Y-86680000D02*
X133670000Y-92710000D01*
X125730000Y-87630000D02*
X126050000Y-87630000D01*
X127160000Y-86520000D02*
X127160000Y-86200000D01*
X126050000Y-87630000D02*
X127160000Y-86520000D01*
X127000000Y-83820000D02*
X128270000Y-85090000D01*
X127000000Y-81280000D02*
X127000000Y-83820000D01*
X133670000Y-93320000D02*
X133670000Y-94930000D01*
X133670000Y-94930000D02*
X133350000Y-95250000D01*
X115840000Y-86090000D02*
X116840000Y-85090000D01*
X116840000Y-85090000D02*
X115570000Y-83820000D01*
X115570000Y-83820000D02*
X115570000Y-82550000D01*
X115570000Y-85090000D02*
X115570000Y-83820000D01*
X127990000Y-82830000D02*
X127000000Y-83820000D01*
X127990000Y-81000000D02*
X127990000Y-82830000D01*
X133350000Y-95250000D02*
X132300000Y-95250000D01*
G04 #@! TD*
M02*
