G04 #@! TF.GenerationSoftware,KiCad,Pcbnew,(5.0.1-3-g963ef8bb5)*
G04 #@! TF.CreationDate,2018-11-28T15:45:59+01:00*
G04 #@! TF.ProjectId,WindSensor,57696E6453656E736F722E6B69636164,rev?*
G04 #@! TF.SameCoordinates,Original*
G04 #@! TF.FileFunction,Copper,L1,Top,Signal*
G04 #@! TF.FilePolarity,Positive*
%FSLAX46Y46*%
G04 Gerber Fmt 4.6, Leading zero omitted, Abs format (unit mm)*
G04 Created by KiCad (PCBNEW (5.0.1-3-g963ef8bb5)) date 2018 November 28, Wednesday 15:45:59*
%MOMM*%
%LPD*%
G01*
G04 APERTURE LIST*
G04 #@! TA.AperFunction,Conductor*
%ADD10C,0.100000*%
G04 #@! TD*
G04 #@! TA.AperFunction,SMDPad,CuDef*
%ADD11C,0.400000*%
G04 #@! TD*
G04 #@! TA.AperFunction,SMDPad,CuDef*
%ADD12R,2.200000X1.500000*%
G04 #@! TD*
G04 #@! TA.AperFunction,ComponentPad*
%ADD13C,3.000000*%
G04 #@! TD*
G04 #@! TA.AperFunction,SMDPad,CuDef*
%ADD14R,0.750000X0.400000*%
G04 #@! TD*
G04 #@! TA.AperFunction,SMDPad,CuDef*
%ADD15R,0.400000X0.750000*%
G04 #@! TD*
G04 #@! TA.AperFunction,SMDPad,CuDef*
%ADD16R,2.600000X1.800000*%
G04 #@! TD*
G04 #@! TA.AperFunction,ComponentPad*
%ADD17C,1.000000*%
G04 #@! TD*
G04 #@! TA.AperFunction,ViaPad*
%ADD18C,0.800000*%
G04 #@! TD*
G04 #@! TA.AperFunction,Conductor*
%ADD19C,0.250000*%
G04 #@! TD*
G04 APERTURE END LIST*
D10*
G04 #@! TO.N,N/C*
G04 #@! TO.C,2.7 kOhms*
G36*
X129999802Y-95080482D02*
X130009509Y-95081921D01*
X130019028Y-95084306D01*
X130028268Y-95087612D01*
X130037140Y-95091808D01*
X130045557Y-95096853D01*
X130053439Y-95102699D01*
X130060711Y-95109289D01*
X130067301Y-95116561D01*
X130073147Y-95124443D01*
X130078192Y-95132860D01*
X130082388Y-95141732D01*
X130085694Y-95150972D01*
X130088079Y-95160491D01*
X130089518Y-95170198D01*
X130090000Y-95180000D01*
X130090000Y-95380000D01*
X130089518Y-95389802D01*
X130088079Y-95399509D01*
X130085694Y-95409028D01*
X130082388Y-95418268D01*
X130078192Y-95427140D01*
X130073147Y-95435557D01*
X130067301Y-95443439D01*
X130060711Y-95450711D01*
X130053439Y-95457301D01*
X130045557Y-95463147D01*
X130037140Y-95468192D01*
X130028268Y-95472388D01*
X130019028Y-95475694D01*
X130009509Y-95478079D01*
X129999802Y-95479518D01*
X129990000Y-95480000D01*
X129730000Y-95480000D01*
X129720198Y-95479518D01*
X129710491Y-95478079D01*
X129700972Y-95475694D01*
X129691732Y-95472388D01*
X129682860Y-95468192D01*
X129674443Y-95463147D01*
X129666561Y-95457301D01*
X129659289Y-95450711D01*
X129652699Y-95443439D01*
X129646853Y-95435557D01*
X129641808Y-95427140D01*
X129637612Y-95418268D01*
X129634306Y-95409028D01*
X129631921Y-95399509D01*
X129630482Y-95389802D01*
X129630000Y-95380000D01*
X129630000Y-95180000D01*
X129630482Y-95170198D01*
X129631921Y-95160491D01*
X129634306Y-95150972D01*
X129637612Y-95141732D01*
X129641808Y-95132860D01*
X129646853Y-95124443D01*
X129652699Y-95116561D01*
X129659289Y-95109289D01*
X129666561Y-95102699D01*
X129674443Y-95096853D01*
X129682860Y-95091808D01*
X129691732Y-95087612D01*
X129700972Y-95084306D01*
X129710491Y-95081921D01*
X129720198Y-95080482D01*
X129730000Y-95080000D01*
X129990000Y-95080000D01*
X129999802Y-95080482D01*
X129999802Y-95080482D01*
G37*
D11*
G04 #@! TD*
G04 #@! TO.P,2.7 kOhms,2*
G04 #@! TO.N,N/C*
X129860000Y-95280000D03*
D10*
G04 #@! TO.N,N/C*
G04 #@! TO.C,2.7 kOhms*
G36*
X129359802Y-95080482D02*
X129369509Y-95081921D01*
X129379028Y-95084306D01*
X129388268Y-95087612D01*
X129397140Y-95091808D01*
X129405557Y-95096853D01*
X129413439Y-95102699D01*
X129420711Y-95109289D01*
X129427301Y-95116561D01*
X129433147Y-95124443D01*
X129438192Y-95132860D01*
X129442388Y-95141732D01*
X129445694Y-95150972D01*
X129448079Y-95160491D01*
X129449518Y-95170198D01*
X129450000Y-95180000D01*
X129450000Y-95380000D01*
X129449518Y-95389802D01*
X129448079Y-95399509D01*
X129445694Y-95409028D01*
X129442388Y-95418268D01*
X129438192Y-95427140D01*
X129433147Y-95435557D01*
X129427301Y-95443439D01*
X129420711Y-95450711D01*
X129413439Y-95457301D01*
X129405557Y-95463147D01*
X129397140Y-95468192D01*
X129388268Y-95472388D01*
X129379028Y-95475694D01*
X129369509Y-95478079D01*
X129359802Y-95479518D01*
X129350000Y-95480000D01*
X129090000Y-95480000D01*
X129080198Y-95479518D01*
X129070491Y-95478079D01*
X129060972Y-95475694D01*
X129051732Y-95472388D01*
X129042860Y-95468192D01*
X129034443Y-95463147D01*
X129026561Y-95457301D01*
X129019289Y-95450711D01*
X129012699Y-95443439D01*
X129006853Y-95435557D01*
X129001808Y-95427140D01*
X128997612Y-95418268D01*
X128994306Y-95409028D01*
X128991921Y-95399509D01*
X128990482Y-95389802D01*
X128990000Y-95380000D01*
X128990000Y-95180000D01*
X128990482Y-95170198D01*
X128991921Y-95160491D01*
X128994306Y-95150972D01*
X128997612Y-95141732D01*
X129001808Y-95132860D01*
X129006853Y-95124443D01*
X129012699Y-95116561D01*
X129019289Y-95109289D01*
X129026561Y-95102699D01*
X129034443Y-95096853D01*
X129042860Y-95091808D01*
X129051732Y-95087612D01*
X129060972Y-95084306D01*
X129070491Y-95081921D01*
X129080198Y-95080482D01*
X129090000Y-95080000D01*
X129350000Y-95080000D01*
X129359802Y-95080482D01*
X129359802Y-95080482D01*
G37*
D11*
G04 #@! TD*
G04 #@! TO.P,2.7 kOhms,1*
G04 #@! TO.N,N/C*
X129220000Y-95280000D03*
D10*
G04 #@! TO.N,N/C*
G04 #@! TO.C,1.2 kOhms*
G36*
X117619802Y-94800482D02*
X117629509Y-94801921D01*
X117639028Y-94804306D01*
X117648268Y-94807612D01*
X117657140Y-94811808D01*
X117665557Y-94816853D01*
X117673439Y-94822699D01*
X117680711Y-94829289D01*
X117687301Y-94836561D01*
X117693147Y-94844443D01*
X117698192Y-94852860D01*
X117702388Y-94861732D01*
X117705694Y-94870972D01*
X117708079Y-94880491D01*
X117709518Y-94890198D01*
X117710000Y-94900000D01*
X117710000Y-95100000D01*
X117709518Y-95109802D01*
X117708079Y-95119509D01*
X117705694Y-95129028D01*
X117702388Y-95138268D01*
X117698192Y-95147140D01*
X117693147Y-95155557D01*
X117687301Y-95163439D01*
X117680711Y-95170711D01*
X117673439Y-95177301D01*
X117665557Y-95183147D01*
X117657140Y-95188192D01*
X117648268Y-95192388D01*
X117639028Y-95195694D01*
X117629509Y-95198079D01*
X117619802Y-95199518D01*
X117610000Y-95200000D01*
X117350000Y-95200000D01*
X117340198Y-95199518D01*
X117330491Y-95198079D01*
X117320972Y-95195694D01*
X117311732Y-95192388D01*
X117302860Y-95188192D01*
X117294443Y-95183147D01*
X117286561Y-95177301D01*
X117279289Y-95170711D01*
X117272699Y-95163439D01*
X117266853Y-95155557D01*
X117261808Y-95147140D01*
X117257612Y-95138268D01*
X117254306Y-95129028D01*
X117251921Y-95119509D01*
X117250482Y-95109802D01*
X117250000Y-95100000D01*
X117250000Y-94900000D01*
X117250482Y-94890198D01*
X117251921Y-94880491D01*
X117254306Y-94870972D01*
X117257612Y-94861732D01*
X117261808Y-94852860D01*
X117266853Y-94844443D01*
X117272699Y-94836561D01*
X117279289Y-94829289D01*
X117286561Y-94822699D01*
X117294443Y-94816853D01*
X117302860Y-94811808D01*
X117311732Y-94807612D01*
X117320972Y-94804306D01*
X117330491Y-94801921D01*
X117340198Y-94800482D01*
X117350000Y-94800000D01*
X117610000Y-94800000D01*
X117619802Y-94800482D01*
X117619802Y-94800482D01*
G37*
D11*
G04 #@! TD*
G04 #@! TO.P,1.2 kOhms,2*
G04 #@! TO.N,N/C*
X117480000Y-95000000D03*
D10*
G04 #@! TO.N,N/C*
G04 #@! TO.C,1.2 kOhms*
G36*
X116979802Y-94800482D02*
X116989509Y-94801921D01*
X116999028Y-94804306D01*
X117008268Y-94807612D01*
X117017140Y-94811808D01*
X117025557Y-94816853D01*
X117033439Y-94822699D01*
X117040711Y-94829289D01*
X117047301Y-94836561D01*
X117053147Y-94844443D01*
X117058192Y-94852860D01*
X117062388Y-94861732D01*
X117065694Y-94870972D01*
X117068079Y-94880491D01*
X117069518Y-94890198D01*
X117070000Y-94900000D01*
X117070000Y-95100000D01*
X117069518Y-95109802D01*
X117068079Y-95119509D01*
X117065694Y-95129028D01*
X117062388Y-95138268D01*
X117058192Y-95147140D01*
X117053147Y-95155557D01*
X117047301Y-95163439D01*
X117040711Y-95170711D01*
X117033439Y-95177301D01*
X117025557Y-95183147D01*
X117017140Y-95188192D01*
X117008268Y-95192388D01*
X116999028Y-95195694D01*
X116989509Y-95198079D01*
X116979802Y-95199518D01*
X116970000Y-95200000D01*
X116710000Y-95200000D01*
X116700198Y-95199518D01*
X116690491Y-95198079D01*
X116680972Y-95195694D01*
X116671732Y-95192388D01*
X116662860Y-95188192D01*
X116654443Y-95183147D01*
X116646561Y-95177301D01*
X116639289Y-95170711D01*
X116632699Y-95163439D01*
X116626853Y-95155557D01*
X116621808Y-95147140D01*
X116617612Y-95138268D01*
X116614306Y-95129028D01*
X116611921Y-95119509D01*
X116610482Y-95109802D01*
X116610000Y-95100000D01*
X116610000Y-94900000D01*
X116610482Y-94890198D01*
X116611921Y-94880491D01*
X116614306Y-94870972D01*
X116617612Y-94861732D01*
X116621808Y-94852860D01*
X116626853Y-94844443D01*
X116632699Y-94836561D01*
X116639289Y-94829289D01*
X116646561Y-94822699D01*
X116654443Y-94816853D01*
X116662860Y-94811808D01*
X116671732Y-94807612D01*
X116680972Y-94804306D01*
X116690491Y-94801921D01*
X116700198Y-94800482D01*
X116710000Y-94800000D01*
X116970000Y-94800000D01*
X116979802Y-94800482D01*
X116979802Y-94800482D01*
G37*
D11*
G04 #@! TD*
G04 #@! TO.P,1.2 kOhms,1*
G04 #@! TO.N,N/C*
X116840000Y-95000000D03*
D10*
G04 #@! TO.N,N/C*
G04 #@! TO.C,100 nF*
G36*
X117929802Y-85100482D02*
X117939509Y-85101921D01*
X117949028Y-85104306D01*
X117958268Y-85107612D01*
X117967140Y-85111808D01*
X117975557Y-85116853D01*
X117983439Y-85122699D01*
X117990711Y-85129289D01*
X117997301Y-85136561D01*
X118003147Y-85144443D01*
X118008192Y-85152860D01*
X118012388Y-85161732D01*
X118015694Y-85170972D01*
X118018079Y-85180491D01*
X118019518Y-85190198D01*
X118020000Y-85200000D01*
X118020000Y-85400000D01*
X118019518Y-85409802D01*
X118018079Y-85419509D01*
X118015694Y-85429028D01*
X118012388Y-85438268D01*
X118008192Y-85447140D01*
X118003147Y-85455557D01*
X117997301Y-85463439D01*
X117990711Y-85470711D01*
X117983439Y-85477301D01*
X117975557Y-85483147D01*
X117967140Y-85488192D01*
X117958268Y-85492388D01*
X117949028Y-85495694D01*
X117939509Y-85498079D01*
X117929802Y-85499518D01*
X117920000Y-85500000D01*
X117660000Y-85500000D01*
X117650198Y-85499518D01*
X117640491Y-85498079D01*
X117630972Y-85495694D01*
X117621732Y-85492388D01*
X117612860Y-85488192D01*
X117604443Y-85483147D01*
X117596561Y-85477301D01*
X117589289Y-85470711D01*
X117582699Y-85463439D01*
X117576853Y-85455557D01*
X117571808Y-85447140D01*
X117567612Y-85438268D01*
X117564306Y-85429028D01*
X117561921Y-85419509D01*
X117560482Y-85409802D01*
X117560000Y-85400000D01*
X117560000Y-85200000D01*
X117560482Y-85190198D01*
X117561921Y-85180491D01*
X117564306Y-85170972D01*
X117567612Y-85161732D01*
X117571808Y-85152860D01*
X117576853Y-85144443D01*
X117582699Y-85136561D01*
X117589289Y-85129289D01*
X117596561Y-85122699D01*
X117604443Y-85116853D01*
X117612860Y-85111808D01*
X117621732Y-85107612D01*
X117630972Y-85104306D01*
X117640491Y-85101921D01*
X117650198Y-85100482D01*
X117660000Y-85100000D01*
X117920000Y-85100000D01*
X117929802Y-85100482D01*
X117929802Y-85100482D01*
G37*
D11*
G04 #@! TD*
G04 #@! TO.P,100 nF,2*
G04 #@! TO.N,N/C*
X117790000Y-85300000D03*
D10*
G04 #@! TO.N,N/C*
G04 #@! TO.C,100 nF*
G36*
X118569802Y-85100482D02*
X118579509Y-85101921D01*
X118589028Y-85104306D01*
X118598268Y-85107612D01*
X118607140Y-85111808D01*
X118615557Y-85116853D01*
X118623439Y-85122699D01*
X118630711Y-85129289D01*
X118637301Y-85136561D01*
X118643147Y-85144443D01*
X118648192Y-85152860D01*
X118652388Y-85161732D01*
X118655694Y-85170972D01*
X118658079Y-85180491D01*
X118659518Y-85190198D01*
X118660000Y-85200000D01*
X118660000Y-85400000D01*
X118659518Y-85409802D01*
X118658079Y-85419509D01*
X118655694Y-85429028D01*
X118652388Y-85438268D01*
X118648192Y-85447140D01*
X118643147Y-85455557D01*
X118637301Y-85463439D01*
X118630711Y-85470711D01*
X118623439Y-85477301D01*
X118615557Y-85483147D01*
X118607140Y-85488192D01*
X118598268Y-85492388D01*
X118589028Y-85495694D01*
X118579509Y-85498079D01*
X118569802Y-85499518D01*
X118560000Y-85500000D01*
X118300000Y-85500000D01*
X118290198Y-85499518D01*
X118280491Y-85498079D01*
X118270972Y-85495694D01*
X118261732Y-85492388D01*
X118252860Y-85488192D01*
X118244443Y-85483147D01*
X118236561Y-85477301D01*
X118229289Y-85470711D01*
X118222699Y-85463439D01*
X118216853Y-85455557D01*
X118211808Y-85447140D01*
X118207612Y-85438268D01*
X118204306Y-85429028D01*
X118201921Y-85419509D01*
X118200482Y-85409802D01*
X118200000Y-85400000D01*
X118200000Y-85200000D01*
X118200482Y-85190198D01*
X118201921Y-85180491D01*
X118204306Y-85170972D01*
X118207612Y-85161732D01*
X118211808Y-85152860D01*
X118216853Y-85144443D01*
X118222699Y-85136561D01*
X118229289Y-85129289D01*
X118236561Y-85122699D01*
X118244443Y-85116853D01*
X118252860Y-85111808D01*
X118261732Y-85107612D01*
X118270972Y-85104306D01*
X118280491Y-85101921D01*
X118290198Y-85100482D01*
X118300000Y-85100000D01*
X118560000Y-85100000D01*
X118569802Y-85100482D01*
X118569802Y-85100482D01*
G37*
D11*
G04 #@! TD*
G04 #@! TO.P,100 nF,1*
G04 #@! TO.N,N/C*
X118430000Y-85300000D03*
D10*
G04 #@! TO.N,N/C*
G04 #@! TO.C,75 Ohms*
G36*
X124919802Y-80800482D02*
X124929509Y-80801921D01*
X124939028Y-80804306D01*
X124948268Y-80807612D01*
X124957140Y-80811808D01*
X124965557Y-80816853D01*
X124973439Y-80822699D01*
X124980711Y-80829289D01*
X124987301Y-80836561D01*
X124993147Y-80844443D01*
X124998192Y-80852860D01*
X125002388Y-80861732D01*
X125005694Y-80870972D01*
X125008079Y-80880491D01*
X125009518Y-80890198D01*
X125010000Y-80900000D01*
X125010000Y-81100000D01*
X125009518Y-81109802D01*
X125008079Y-81119509D01*
X125005694Y-81129028D01*
X125002388Y-81138268D01*
X124998192Y-81147140D01*
X124993147Y-81155557D01*
X124987301Y-81163439D01*
X124980711Y-81170711D01*
X124973439Y-81177301D01*
X124965557Y-81183147D01*
X124957140Y-81188192D01*
X124948268Y-81192388D01*
X124939028Y-81195694D01*
X124929509Y-81198079D01*
X124919802Y-81199518D01*
X124910000Y-81200000D01*
X124650000Y-81200000D01*
X124640198Y-81199518D01*
X124630491Y-81198079D01*
X124620972Y-81195694D01*
X124611732Y-81192388D01*
X124602860Y-81188192D01*
X124594443Y-81183147D01*
X124586561Y-81177301D01*
X124579289Y-81170711D01*
X124572699Y-81163439D01*
X124566853Y-81155557D01*
X124561808Y-81147140D01*
X124557612Y-81138268D01*
X124554306Y-81129028D01*
X124551921Y-81119509D01*
X124550482Y-81109802D01*
X124550000Y-81100000D01*
X124550000Y-80900000D01*
X124550482Y-80890198D01*
X124551921Y-80880491D01*
X124554306Y-80870972D01*
X124557612Y-80861732D01*
X124561808Y-80852860D01*
X124566853Y-80844443D01*
X124572699Y-80836561D01*
X124579289Y-80829289D01*
X124586561Y-80822699D01*
X124594443Y-80816853D01*
X124602860Y-80811808D01*
X124611732Y-80807612D01*
X124620972Y-80804306D01*
X124630491Y-80801921D01*
X124640198Y-80800482D01*
X124650000Y-80800000D01*
X124910000Y-80800000D01*
X124919802Y-80800482D01*
X124919802Y-80800482D01*
G37*
D11*
G04 #@! TD*
G04 #@! TO.P,75 Ohms,2*
G04 #@! TO.N,N/C*
X124780000Y-81000000D03*
D10*
G04 #@! TO.N,N/C*
G04 #@! TO.C,75 Ohms*
G36*
X124279802Y-80800482D02*
X124289509Y-80801921D01*
X124299028Y-80804306D01*
X124308268Y-80807612D01*
X124317140Y-80811808D01*
X124325557Y-80816853D01*
X124333439Y-80822699D01*
X124340711Y-80829289D01*
X124347301Y-80836561D01*
X124353147Y-80844443D01*
X124358192Y-80852860D01*
X124362388Y-80861732D01*
X124365694Y-80870972D01*
X124368079Y-80880491D01*
X124369518Y-80890198D01*
X124370000Y-80900000D01*
X124370000Y-81100000D01*
X124369518Y-81109802D01*
X124368079Y-81119509D01*
X124365694Y-81129028D01*
X124362388Y-81138268D01*
X124358192Y-81147140D01*
X124353147Y-81155557D01*
X124347301Y-81163439D01*
X124340711Y-81170711D01*
X124333439Y-81177301D01*
X124325557Y-81183147D01*
X124317140Y-81188192D01*
X124308268Y-81192388D01*
X124299028Y-81195694D01*
X124289509Y-81198079D01*
X124279802Y-81199518D01*
X124270000Y-81200000D01*
X124010000Y-81200000D01*
X124000198Y-81199518D01*
X123990491Y-81198079D01*
X123980972Y-81195694D01*
X123971732Y-81192388D01*
X123962860Y-81188192D01*
X123954443Y-81183147D01*
X123946561Y-81177301D01*
X123939289Y-81170711D01*
X123932699Y-81163439D01*
X123926853Y-81155557D01*
X123921808Y-81147140D01*
X123917612Y-81138268D01*
X123914306Y-81129028D01*
X123911921Y-81119509D01*
X123910482Y-81109802D01*
X123910000Y-81100000D01*
X123910000Y-80900000D01*
X123910482Y-80890198D01*
X123911921Y-80880491D01*
X123914306Y-80870972D01*
X123917612Y-80861732D01*
X123921808Y-80852860D01*
X123926853Y-80844443D01*
X123932699Y-80836561D01*
X123939289Y-80829289D01*
X123946561Y-80822699D01*
X123954443Y-80816853D01*
X123962860Y-80811808D01*
X123971732Y-80807612D01*
X123980972Y-80804306D01*
X123990491Y-80801921D01*
X124000198Y-80800482D01*
X124010000Y-80800000D01*
X124270000Y-80800000D01*
X124279802Y-80800482D01*
X124279802Y-80800482D01*
G37*
D11*
G04 #@! TD*
G04 #@! TO.P,75 Ohms,1*
G04 #@! TO.N,N/C*
X124140000Y-81000000D03*
D12*
G04 #@! TO.P,LED_3528,2*
G04 #@! TO.N,N/C*
X121500000Y-81530000D03*
G04 #@! TO.P,LED_3528,1*
X121500000Y-84630000D03*
G04 #@! TD*
D13*
G04 #@! TO.P,SDP32,30*
G04 #@! TO.N,N/C*
X131250000Y-83220000D03*
G04 #@! TO.P,SDP32,29*
X124700000Y-83220000D03*
G04 #@! TO.P,SDP32,28*
X118150000Y-83220000D03*
G04 #@! TO.P,SDP32,27*
X131250000Y-97120000D03*
G04 #@! TO.P,SDP32,26*
X124700000Y-97120000D03*
G04 #@! TO.P,SDP32,25*
X118150000Y-97120000D03*
D14*
G04 #@! TO.P,SDP32,12*
X132325000Y-92170000D03*
D15*
G04 #@! TO.P,SDP32,2*
X130250000Y-87345000D03*
D14*
G04 #@! TO.P,SDP32,4*
X128175000Y-88170000D03*
D15*
G04 #@! TO.P,SDP32,11*
X131250000Y-92995000D03*
G04 #@! TO.P,SDP32,1*
X131250000Y-87345000D03*
D14*
G04 #@! TO.P,SDP32,16*
X132325000Y-88170000D03*
G04 #@! TO.P,SDP32,15*
X132325000Y-89170000D03*
D15*
G04 #@! TO.P,SDP32,10*
X130250000Y-92995000D03*
D14*
G04 #@! TO.P,SDP32,14*
X132325000Y-90170000D03*
G04 #@! TO.P,SDP32,5*
X128175000Y-89170000D03*
G04 #@! TO.P,SDP32,8*
X128175000Y-92170000D03*
G04 #@! TO.P,SDP32,7*
X128175000Y-91170000D03*
G04 #@! TO.P,SDP32,13*
X132325000Y-91170000D03*
G04 #@! TO.P,SDP32,6*
X128175000Y-90170000D03*
D15*
G04 #@! TO.P,SDP32,9*
X129250000Y-92995000D03*
D16*
G04 #@! TO.P,SDP32,20*
X130250000Y-90170000D03*
D15*
G04 #@! TO.P,SDP32,3*
X129250000Y-87345000D03*
G04 #@! TO.P,SDP32,11*
X125700000Y-92995000D03*
D14*
G04 #@! TO.P,SDP32,6*
X122625000Y-90170000D03*
D15*
G04 #@! TO.P,SDP32,9*
X123700000Y-92995000D03*
D16*
G04 #@! TO.P,SDP32,20*
X124700000Y-90170000D03*
D15*
G04 #@! TO.P,SDP32,3*
X123700000Y-87345000D03*
G04 #@! TO.P,SDP32,2*
X124700000Y-87345000D03*
D14*
G04 #@! TO.P,SDP32,4*
X122625000Y-88170000D03*
D15*
G04 #@! TO.P,SDP32,1*
X125700000Y-87345000D03*
D14*
G04 #@! TO.P,SDP32,16*
X126775000Y-88170000D03*
G04 #@! TO.P,SDP32,15*
X126775000Y-89170000D03*
D15*
G04 #@! TO.P,SDP32,10*
X124700000Y-92995000D03*
D14*
G04 #@! TO.P,SDP32,14*
X126775000Y-90170000D03*
G04 #@! TO.P,SDP32,5*
X122625000Y-89170000D03*
G04 #@! TO.P,SDP32,8*
X122625000Y-92170000D03*
G04 #@! TO.P,SDP32,7*
X122625000Y-91170000D03*
G04 #@! TO.P,SDP32,13*
X126775000Y-91170000D03*
G04 #@! TO.P,SDP32,12*
X126775000Y-92170000D03*
D17*
G04 #@! TO.P,SDP32,18*
X122550000Y-93820000D03*
G04 #@! TO.P,SDP32,17*
X122550000Y-86520000D03*
G04 #@! TO.P,SDP32,19*
X126850000Y-93820000D03*
D14*
G04 #@! TO.P,SDP32,7*
X117075000Y-91170000D03*
D17*
G04 #@! TO.P,SDP32,17*
X117000000Y-86520000D03*
D14*
G04 #@! TO.P,SDP32,4*
X117075000Y-88170000D03*
D15*
G04 #@! TO.P,SDP32,9*
X118150000Y-92995000D03*
D16*
G04 #@! TO.P,SDP32,20*
X119150000Y-90170000D03*
D15*
G04 #@! TO.P,SDP32,3*
X118150000Y-87345000D03*
G04 #@! TO.P,SDP32,2*
X119150000Y-87345000D03*
G04 #@! TO.P,SDP32,1*
X120150000Y-87345000D03*
D14*
G04 #@! TO.P,SDP32,16*
X121225000Y-88170000D03*
G04 #@! TO.P,SDP32,15*
X121225000Y-89170000D03*
D17*
G04 #@! TO.P,SDP32,19*
X121300000Y-93820000D03*
D15*
G04 #@! TO.P,SDP32,10*
X119150000Y-92995000D03*
D17*
G04 #@! TO.P,SDP32,18*
X117000000Y-93820000D03*
D14*
G04 #@! TO.P,SDP32,14*
X121225000Y-90170000D03*
G04 #@! TO.P,SDP32,13*
X121225000Y-91170000D03*
G04 #@! TO.P,SDP32,12*
X121225000Y-92170000D03*
D15*
G04 #@! TO.P,SDP32,11*
X120150000Y-92995000D03*
D14*
G04 #@! TO.P,SDP32,6*
X117075000Y-90170000D03*
G04 #@! TO.P,SDP32,5*
X117075000Y-89170000D03*
G04 #@! TO.P,SDP32,8*
X117075000Y-92170000D03*
D17*
G04 #@! TO.P,SDP32,17*
X128100000Y-86520000D03*
G04 #@! TO.P,SDP32,19*
X132400000Y-93820000D03*
G04 #@! TO.P,SDP32,18*
X128100000Y-93820000D03*
G04 #@! TD*
D18*
G04 #@! TO.N,*
X115570000Y-85090000D03*
X124460000Y-92000000D03*
X129540000Y-88400000D03*
X115840000Y-91170000D03*
X121920000Y-92900000D03*
X115570000Y-93980000D03*
X119000000Y-88500000D03*
X127480000Y-92900000D03*
X129540000Y-91700000D03*
X124500000Y-88500000D03*
X132300000Y-95250000D03*
X127000000Y-85090000D03*
X127990000Y-81000000D03*
G04 #@! TD*
D19*
G04 #@! TO.N,*
X118180000Y-87500000D02*
X118180000Y-86430000D01*
X118995000Y-86360000D02*
X118250000Y-86360000D01*
X119180000Y-87500000D02*
X119180000Y-86545000D01*
X119180000Y-86545000D02*
X118995000Y-86360000D01*
X118180000Y-86430000D02*
X118250000Y-86360000D01*
X124730000Y-87400000D02*
X124730000Y-86545000D01*
X124730000Y-86545000D02*
X124545000Y-86360000D01*
X123730000Y-87400000D02*
X123730000Y-86360000D01*
X125730000Y-87400000D02*
X125730000Y-86360000D01*
X125730000Y-86360000D02*
X124545000Y-86360000D01*
X129280000Y-87400000D02*
X129280000Y-86545000D01*
X130280000Y-87400000D02*
X130280000Y-86400000D01*
X124460000Y-86360000D02*
X123730000Y-86360000D01*
X124545000Y-86360000D02*
X124460000Y-86360000D01*
X118180000Y-93170000D02*
X118180000Y-93170000D01*
X123730000Y-93170000D02*
X123730000Y-93345000D01*
X124545000Y-93980000D02*
X123730000Y-93980000D01*
X124730000Y-93795000D02*
X124545000Y-93980000D01*
X124730000Y-93170000D02*
X124730000Y-93795000D01*
X123730000Y-93980000D02*
X123730000Y-93170000D01*
X130280000Y-93170000D02*
X130280000Y-93345000D01*
X118180000Y-93170000D02*
X118180000Y-93980000D01*
X125730000Y-93170000D02*
X125730000Y-94700000D01*
X119545000Y-86360000D02*
X118995000Y-86360000D01*
X119380000Y-86360000D02*
X119545000Y-86360000D01*
X120025000Y-86360000D02*
X119545000Y-86360000D01*
X115570000Y-85090000D02*
X115570000Y-85090000D01*
X120160000Y-86495000D02*
X120160000Y-87345000D01*
X120025000Y-86360000D02*
X120160000Y-86495000D01*
X117075000Y-90170000D02*
X115000000Y-90170000D01*
X115840000Y-91170000D02*
X115840000Y-91170000D01*
X117075000Y-91170000D02*
X115840000Y-91170000D01*
X122625000Y-90170000D02*
X121920000Y-90170000D01*
X121920000Y-90170000D02*
X121920000Y-87630000D01*
X121920000Y-87630000D02*
X120650000Y-86360000D01*
X120650000Y-86360000D02*
X120025000Y-86360000D01*
X122000000Y-91170000D02*
X121920000Y-91250000D01*
X122625000Y-91170000D02*
X122000000Y-91170000D01*
X121920000Y-91250000D02*
X121920000Y-92710000D01*
X121920000Y-92710000D02*
X121920000Y-92710000D01*
X117075000Y-92170000D02*
X116110000Y-92170000D01*
X116110000Y-92170000D02*
X115570000Y-92710000D01*
X115570000Y-92710000D02*
X115570000Y-93980000D01*
X115570000Y-93980000D02*
X115570000Y-93980000D01*
X124290000Y-92170000D02*
X124460000Y-92000000D01*
X122625000Y-92170000D02*
X124290000Y-92170000D01*
X120180000Y-94130000D02*
X120180000Y-93200000D01*
X119530000Y-94130000D02*
X120180000Y-94130000D01*
X119380000Y-94280000D02*
X119530000Y-94130000D01*
X119180000Y-94080000D02*
X119380000Y-94280000D01*
X119180000Y-93170000D02*
X119180000Y-94080000D01*
X116800000Y-89170000D02*
X117550000Y-89170000D01*
X118220000Y-88500000D02*
X117550000Y-89170000D01*
X119000000Y-88500000D02*
X118220000Y-88500000D01*
X127480000Y-87700000D02*
X127000000Y-87200000D01*
X127480000Y-90170000D02*
X127480000Y-87700000D01*
X128175000Y-90170000D02*
X127480000Y-90170000D01*
X126570000Y-87200000D02*
X125730000Y-86360000D01*
X127000000Y-87200000D02*
X126570000Y-87200000D01*
X128175000Y-91170000D02*
X127480000Y-91170000D01*
X127480000Y-92900000D02*
X127480000Y-91170000D01*
X129070000Y-92170000D02*
X129540000Y-91700000D01*
X128175000Y-92170000D02*
X129070000Y-92170000D01*
X122350000Y-89170000D02*
X123100000Y-89170000D01*
X123590000Y-88500000D02*
X124500000Y-88500000D01*
X123590000Y-88680000D02*
X123100000Y-89170000D01*
X123590000Y-88500000D02*
X123590000Y-88680000D01*
X131280000Y-95720000D02*
X132080000Y-96520000D01*
X118110000Y-96520000D02*
X118180000Y-96520000D01*
X115000000Y-90170000D02*
X115000000Y-95250000D01*
X129425000Y-86400000D02*
X129280000Y-86545000D01*
X130280000Y-86400000D02*
X129425000Y-86400000D01*
X129425000Y-85205000D02*
X129540000Y-85090000D01*
X129425000Y-86400000D02*
X129425000Y-85205000D01*
X129540000Y-85090000D02*
X127825000Y-85090000D01*
X130810000Y-85090000D02*
X129540000Y-85090000D01*
X131250000Y-86720000D02*
X130890000Y-86360000D01*
X131250000Y-87345000D02*
X131250000Y-86720000D01*
X130890000Y-85170000D02*
X130810000Y-85090000D01*
X130890000Y-86360000D02*
X130890000Y-85170000D01*
X121500000Y-80530000D02*
X121629990Y-80400010D01*
X121500000Y-81530000D02*
X121500000Y-80530000D01*
X121629990Y-80400010D02*
X123190000Y-80400010D01*
X123190000Y-80400010D02*
X123190000Y-81000000D01*
X123190000Y-81000000D02*
X124140000Y-81000000D01*
X121500000Y-84630000D02*
X121500000Y-85940000D01*
X121500000Y-85940000D02*
X121070000Y-85940000D01*
X121070000Y-85940000D02*
X120650000Y-86360000D01*
X127825000Y-85090000D02*
X127000000Y-85090000D01*
X125730000Y-86360000D02*
X127000000Y-85090000D01*
X124780000Y-81000000D02*
X127990000Y-81000000D01*
X125010000Y-93980000D02*
X125730000Y-94700000D01*
X124545000Y-93980000D02*
X125010000Y-93980000D01*
X118180000Y-94050000D02*
X118180000Y-93980000D01*
X115250000Y-95000000D02*
X115000000Y-95250000D01*
X116840000Y-95000000D02*
X115250000Y-95000000D01*
X117480000Y-95000000D02*
X117860000Y-95000000D01*
X118180000Y-94680000D02*
X118180000Y-93980000D01*
X117860000Y-95000000D02*
X118180000Y-94680000D01*
X115000000Y-95250000D02*
X115000000Y-98490000D01*
X115000000Y-98490000D02*
X115570000Y-99060000D01*
X119380000Y-94280000D02*
X119380000Y-95250000D01*
X119380000Y-95250000D02*
X120650000Y-96520000D01*
X120650000Y-96520000D02*
X120650000Y-99060000D01*
X115570000Y-99060000D02*
X120650000Y-99060000D01*
X125730000Y-94700000D02*
X125730000Y-95250000D01*
X125730000Y-95250000D02*
X127000000Y-96520000D01*
X127000000Y-96520000D02*
X127000000Y-99060000D01*
X127000000Y-99060000D02*
X120650000Y-99060000D01*
X129250000Y-92995000D02*
X129250000Y-93690000D01*
X129220000Y-95280000D02*
X128300000Y-95280000D01*
X129250000Y-94330000D02*
X129250000Y-93690000D01*
X128300000Y-95280000D02*
X129250000Y-94330000D01*
X129860000Y-95280000D02*
X130780000Y-95280000D01*
X130250000Y-94750000D02*
X130250000Y-92995000D01*
X130780000Y-95280000D02*
X130250000Y-94750000D01*
X131250000Y-94810000D02*
X131250000Y-92995000D01*
X130780000Y-95280000D02*
X131250000Y-94810000D01*
X134000000Y-94700000D02*
X134000000Y-88280000D01*
X134000000Y-88280000D02*
X132080000Y-86360000D01*
X132080000Y-86360000D02*
X130890000Y-86360000D01*
X127000000Y-99060000D02*
X133350000Y-99060000D01*
X133350000Y-99060000D02*
X133350000Y-94700000D01*
X133350000Y-94700000D02*
X134000000Y-94700000D01*
X131250000Y-94700000D02*
X133350000Y-94700000D01*
X115780000Y-85300000D02*
X115570000Y-85090000D01*
X117790000Y-85300000D02*
X115780000Y-85300000D01*
X118430000Y-85300000D02*
X119170000Y-85300000D01*
X119380000Y-85510000D02*
X119380000Y-86360000D01*
X119170000Y-85300000D02*
X119380000Y-85510000D01*
X127990000Y-81000000D02*
X127990000Y-81000000D01*
X130810000Y-95250000D02*
X132300000Y-95250000D01*
X130780000Y-95280000D02*
X130810000Y-95250000D01*
X128680000Y-89170000D02*
X129540000Y-88400000D01*
X127900000Y-89170000D02*
X128680000Y-89170000D01*
G04 #@! TD*
M02*
