<?xml version="1.0" encoding="UTF-8" standalone="no"?>
<!DOCTYPE svg PUBLIC "-//W3C//DTD SVG 1.1//EN" "http://www.w3.org/Graphics/SVG/1.1/DTD/svg11.dtd">
<svg width="100%" height="100%" viewBox="0 0 351 213" version="1.1" xmlns="http://www.w3.org/2000/svg" xmlns:xlink="http://www.w3.org/1999/xlink" xml:space="preserve" xmlns:serif="http://www.serif.com/" style="fill-rule:evenodd;clip-rule:evenodd;">
    <g id="hatch-layer" transform="matrix(2.83465,0,0,2.83465,0,0)">
        <path id="hatch-body" d="M123.5,3.351L123.5,71.649C123.5,73.498 121.998,75 120.149,75L3.351,75C1.502,75 0,73.498 0,71.649L0,3.351C0,1.502 1.502,0 3.351,0L120.149,0C121.998,0 123.5,1.502 123.5,3.351Z" style="fill:none;"/>
        <g transform="matrix(-0.384685,0,0,0.341322,57.0799,-0.214069)">
            <path d="M56.518,52.649C56.518,39.794 65.778,29.357 77.184,29.357C86.05,29.357 93.619,35.662 96.551,44.507L96.551,60.791C93.619,69.636 86.05,75.941 77.184,75.941C65.778,75.941 56.518,65.504 56.518,52.649Z" style="fill:none;"/>
        </g>
        <g transform="matrix(0.294822,0,0,0.294822,26.5285,5.30204)">
            <circle cx="92.234" cy="42.243" r="26.965" style="fill:none;"/>
        </g>
        <g transform="matrix(0.352778,0,0,0.352778,13.5843,-32.4435)">
            <text x="150.915px" y="115.059px" style="font-family:'ArialMT', 'Arial', sans-serif;font-size:13px;fill:rgb(255,0,0);">LEDs</text>
            <text x="150.915px" y="129.484px" style="font-family:'ArialMT', 'Arial', sans-serif;font-size:13px;fill:rgb(255,0,0);">Green: Heartbeat</text>
            <text x="165.088px" y="143.91px" style="font-family:'ArialMT', 'Arial', sans-serif;font-size:13px;fill:rgb(255,0,0);">1 Hz: idle</text>
            <text x="165.088px" y="158.335px" style="font-family:'ArialMT', 'Arial', sans-serif;font-size:13px;fill:rgb(255,0,0);">2 Hz: active</text>
            <text x="165.088px" y="172.76px" style="font-family:'ArialMT', 'Arial', sans-serif;font-size:13px;fill:rgb(255,0,0);">3 Hz: recording</text>
            <text x="150.915px" y="201.611px" style="font-family:'ArialMT', 'Arial', sans-serif;font-size:13px;fill:rgb(255,0,0);">Blue: Charging</text>
            <text x="150.915px" y="230.461px" style="font-family:'ArialMT', 'Arial', sans-serif;font-size:13px;fill:rgb(255,0,0);">Red SOS: Low battery</text>
            <text x="150.915px" y="244.887px" style="font-family:'ArialMT', 'Arial', sans-serif;font-size:13px;fill:rgb(255,0,0);">R/G: WiFi lost</text>
            <g transform="matrix(13,0,0,13,281.727,273.737)">
            </g>
            <text x="150.915px" y="273.737px" style="font-family:'ArialMT', 'Arial', sans-serif;font-size:13px;fill:rgb(255,0,0);">Both: Button/shutdown</text>
        </g>
        <g transform="matrix(0.352778,0,0,0.352778,-66.9982,11.6537)">
            <text x="203.53px" y="112.72px" style="font-family:'ArialMT', 'Arial', sans-serif;font-size:13px;fill:rgb(255,0,0);">Button</text>
            <text x="214.869px" y="127.146px" style="font-family:'ArialMT', 'Arial', sans-serif;font-size:13px;fill:rgb(255,0,0);">1 tap: <tspan x="250.771px 257.271px 264.501px " y="127.146px 127.146px 127.146px ">Tog</tspan>gle pause</text>
            <text x="214.869px" y="141.571px" style="font-family:'ArialMT', 'Arial', sans-serif;font-size:13px;fill:rgb(255,0,0);">2 taps: <tspan x="257.271px 263.771px 271.001px " y="141.571px 141.571px 141.571px ">Tog</tspan>gle recording</text>
            <text x="214.869px" y="155.996px" style="font-family:'ArialMT', 'Arial', sans-serif;font-size:13px;fill:rgb(255,0,0);">Hold 8s: Shutdown (tap to</text>
            <g transform="matrix(13,0,0,13,244.481,169.422)">
            </g>
            <text x="214.869px" y="169.422px" style="font-family:'ArialMT', 'Arial', sans-serif;font-size:13px;fill:rgb(255,0,0);">start)</text>
        </g>
        <g transform="matrix(0.352778,0,0,0.352778,3.9141,1.54066)">
            <g transform="matrix(49,0,0,49,110.465,112.092)">
            </g>
            <text x="6.962px" y="112.092px" style="font-family:'ArialMT', 'Arial', sans-serif;font-size:49px;fill:rgb(255,0,0);">Argo</text>
        </g>
    </g>
</svg>
