ISO-10303-21;
HEADER;
FILE_DESCRIPTION(('FreeCAD Model'),'2;1');
FILE_NAME('Open CASCADE Shape Model','2025-12-24T14:22:43',(''),(''),
  'Open CASCADE STEP processor 7.8','FreeCAD','Unknown');
FILE_SCHEMA(('AUTOMOTIVE_DESIGN { 1 0 10303 214 1 1 1 1 }'));
ENDSEC;
DATA;
#1 = APPLICATION_PROTOCOL_DEFINITION('international standard',
  'automotive_design',2000,#2);
#2 = APPLICATION_CONTEXT(
  'core data for automotive mechanical design processes');
#3 = SHAPE_DEFINITION_REPRESENTATION(#4,#10);
#4 = PRODUCT_DEFINITION_SHAPE('','',#5);
#5 = PRODUCT_DEFINITION('design','',#6,#9);
#6 = PRODUCT_DEFINITION_FORMATION('','',#7);
#7 = PRODUCT('PCB','PCB','',(#8));
#8 = PRODUCT_CONTEXT('',#2,'mechanical');
#9 = PRODUCT_DEFINITION_CONTEXT('part definition',#2,'design');
#10 = ADVANCED_BREP_SHAPE_REPRESENTATION('',(#11,#15),#979);
#11 = AXIS2_PLACEMENT_3D('',#12,#13,#14);
#12 = CARTESIAN_POINT('',(0.,0.,0.));
#13 = DIRECTION('',(0.,0.,1.));
#14 = DIRECTION('',(1.,0.,-0.));
#15 = MANIFOLD_SOLID_BREP('',#16);
#16 = CLOSED_SHELL('',(#17,#57,#88,#332,#356,#593,#605,#627,#639,#661,
    #673,#695,#707,#729,#741,#763,#775,#797,#809,#831,#843,#865,#877,
    #899,#911,#933,#945,#967));
#17 = ADVANCED_FACE('',(#18),#52,.F.);
#18 = FACE_BOUND('',#19,.F.);
#19 = EDGE_LOOP('',(#20,#30,#38,#46));
#20 = ORIENTED_EDGE('',*,*,#21,.F.);
#21 = EDGE_CURVE('',#22,#24,#26,.T.);
#22 = VERTEX_POINT('',#23);
#23 = CARTESIAN_POINT('',(-28.06225725,-24.078857,-1.59));
#24 = VERTEX_POINT('',#25);
#25 = CARTESIAN_POINT('',(-28.06225725,-24.078857,-1.E-02));
#26 = LINE('',#27,#28);
#27 = CARTESIAN_POINT('',(-28.06225725,-24.078857,-1.59));
#28 = VECTOR('',#29,1.);
#29 = DIRECTION('',(0.,0.,1.));
#30 = ORIENTED_EDGE('',*,*,#31,.T.);
#31 = EDGE_CURVE('',#22,#32,#34,.T.);
#32 = VERTEX_POINT('',#33);
#33 = CARTESIAN_POINT('',(-28.06225725,32.153287,-1.59));
#34 = LINE('',#35,#36);
#35 = CARTESIAN_POINT('',(-28.06225725,-24.078857,-1.59));
#36 = VECTOR('',#37,1.);
#37 = DIRECTION('',(-0.,1.,0.));
#38 = ORIENTED_EDGE('',*,*,#39,.T.);
#39 = EDGE_CURVE('',#32,#40,#42,.T.);
#40 = VERTEX_POINT('',#41);
#41 = CARTESIAN_POINT('',(-28.06225725,32.153287,-1.E-02));
#42 = LINE('',#43,#44);
#43 = CARTESIAN_POINT('',(-28.06225725,32.153287,-1.59));
#44 = VECTOR('',#45,1.);
#45 = DIRECTION('',(0.,0.,1.));
#46 = ORIENTED_EDGE('',*,*,#47,.F.);
#47 = EDGE_CURVE('',#24,#40,#48,.T.);
#48 = LINE('',#49,#50);
#49 = CARTESIAN_POINT('',(-28.06225725,-24.078857,-1.E-02));
#50 = VECTOR('',#51,1.);
#51 = DIRECTION('',(-0.,1.,0.));
#52 = PLANE('',#53);
#53 = AXIS2_PLACEMENT_3D('',#54,#55,#56);
#54 = CARTESIAN_POINT('',(-28.06225725,-24.078857,-1.59));
#55 = DIRECTION('',(1.,0.,-0.));
#56 = DIRECTION('',(0.,0.,1.));
#57 = ADVANCED_FACE('',(#58),#83,.F.);
#58 = FACE_BOUND('',#59,.F.);
#59 = EDGE_LOOP('',(#60,#68,#69,#77));
#60 = ORIENTED_EDGE('',*,*,#61,.F.);
#61 = EDGE_CURVE('',#22,#62,#64,.T.);
#62 = VERTEX_POINT('',#63);
#63 = CARTESIAN_POINT('',(42.72405225,-24.078857,-1.59));
#64 = LINE('',#65,#66);
#65 = CARTESIAN_POINT('',(-28.06225725,-24.078857,-1.59));
#66 = VECTOR('',#67,1.);
#67 = DIRECTION('',(1.,0.,-0.));
#68 = ORIENTED_EDGE('',*,*,#21,.T.);
#69 = ORIENTED_EDGE('',*,*,#70,.T.);
#70 = EDGE_CURVE('',#24,#71,#73,.T.);
#71 = VERTEX_POINT('',#72);
#72 = CARTESIAN_POINT('',(42.72405225,-24.078857,-1.E-02));
#73 = LINE('',#74,#75);
#74 = CARTESIAN_POINT('',(-28.06225725,-24.078857,-1.E-02));
#75 = VECTOR('',#76,1.);
#76 = DIRECTION('',(1.,0.,-0.));
#77 = ORIENTED_EDGE('',*,*,#78,.F.);
#78 = EDGE_CURVE('',#62,#71,#79,.T.);
#79 = LINE('',#80,#81);
#80 = CARTESIAN_POINT('',(42.72405225,-24.078857,-1.59));
#81 = VECTOR('',#82,1.);
#82 = DIRECTION('',(0.,0.,1.));
#83 = PLANE('',#84);
#84 = AXIS2_PLACEMENT_3D('',#85,#86,#87);
#85 = CARTESIAN_POINT('',(-28.06225725,-24.078857,-1.59));
#86 = DIRECTION('',(-0.,1.,0.));
#87 = DIRECTION('',(0.,0.,1.));
#88 = ADVANCED_FACE('',(#89,#107,#127,#147,#167,#187,#207,#227,#247,#267
    ,#287,#307),#327,.T.);
#89 = FACE_BOUND('',#90,.T.);
#90 = EDGE_LOOP('',(#91,#92,#93,#101));
#91 = ORIENTED_EDGE('',*,*,#47,.F.);
#92 = ORIENTED_EDGE('',*,*,#70,.T.);
#93 = ORIENTED_EDGE('',*,*,#94,.T.);
#94 = EDGE_CURVE('',#71,#95,#97,.T.);
#95 = VERTEX_POINT('',#96);
#96 = CARTESIAN_POINT('',(42.72405225,32.153287,-1.E-02));
#97 = LINE('',#98,#99);
#98 = CARTESIAN_POINT('',(42.72405225,-24.078857,-1.E-02));
#99 = VECTOR('',#100,1.);
#100 = DIRECTION('',(-0.,1.,0.));
#101 = ORIENTED_EDGE('',*,*,#102,.F.);
#102 = EDGE_CURVE('',#40,#95,#103,.T.);
#103 = LINE('',#104,#105);
#104 = CARTESIAN_POINT('',(-28.06225725,32.153287,-1.E-02));
#105 = VECTOR('',#106,1.);
#106 = DIRECTION('',(1.,0.,-0.));
#107 = FACE_BOUND('',#108,.T.);
#108 = EDGE_LOOP('',(#109,#120));
#109 = ORIENTED_EDGE('',*,*,#110,.T.);
#110 = EDGE_CURVE('',#111,#113,#115,.T.);
#111 = VERTEX_POINT('',#112);
#112 = CARTESIAN_POINT('',(-13.0997243,-10.2114473,-1.E-02));
#113 = VERTEX_POINT('',#114);
#114 = CARTESIAN_POINT('',(-13.0199436,-13.4105526,-1.E-02));
#115 = CIRCLE('',#116,1.600049974265);
#116 = AXIS2_PLACEMENT_3D('',#117,#118,#119);
#117 = CARTESIAN_POINT('',(-13.05983397426,-11.8109999506,-1.E-02));
#118 = DIRECTION('',(0.,0.,-1.));
#119 = DIRECTION('',(-1.,0.,0.));
#120 = ORIENTED_EDGE('',*,*,#121,.T.);
#121 = EDGE_CURVE('',#113,#111,#122,.T.);
#122 = CIRCLE('',#123,1.600049974265);
#123 = AXIS2_PLACEMENT_3D('',#124,#125,#126);
#124 = CARTESIAN_POINT('',(-13.05983402573,-11.81099995188,-1.E-02));
#125 = DIRECTION('',(0.,0.,-1.));
#126 = DIRECTION('',(-1.,0.,0.));
#127 = FACE_BOUND('',#128,.T.);
#128 = EDGE_LOOP('',(#129,#140));
#129 = ORIENTED_EDGE('',*,*,#130,.T.);
#130 = EDGE_CURVE('',#131,#133,#135,.T.);
#131 = VERTEX_POINT('',#132);
#132 = CARTESIAN_POINT('',(5.96,-12.60005,-1.E-02));
#133 = VERTEX_POINT('',#134);
#134 = CARTESIAN_POINT('',(5.9599999,-13.59995,-1.E-02));
#135 = CIRCLE('',#136,0.49995);
#136 = AXIS2_PLACEMENT_3D('',#137,#138,#139);
#137 = CARTESIAN_POINT('',(5.96,-13.1,-1.E-02));
#138 = DIRECTION('',(0.,0.,-1.));
#139 = DIRECTION('',(-1.,0.,0.));
#140 = ORIENTED_EDGE('',*,*,#141,.T.);
#141 = EDGE_CURVE('',#133,#131,#142,.T.);
#142 = CIRCLE('',#143,0.49995);
#143 = AXIS2_PLACEMENT_3D('',#144,#145,#146);
#144 = CARTESIAN_POINT('',(5.96,-13.1,-1.E-02));
#145 = DIRECTION('',(0.,0.,-1.));
#146 = DIRECTION('',(-1.,0.,0.));
#147 = FACE_BOUND('',#148,.T.);
#148 = EDGE_LOOP('',(#149,#160));
#149 = ORIENTED_EDGE('',*,*,#150,.T.);
#150 = EDGE_CURVE('',#151,#153,#155,.T.);
#151 = VERTEX_POINT('',#152);
#152 = CARTESIAN_POINT('',(8.5,-12.60005,-1.E-02));
#153 = VERTEX_POINT('',#154);
#154 = CARTESIAN_POINT('',(8.4999999,-13.59995,-1.E-02));
#155 = CIRCLE('',#156,0.49995);
#156 = AXIS2_PLACEMENT_3D('',#157,#158,#159);
#157 = CARTESIAN_POINT('',(8.5,-13.1,-1.E-02));
#158 = DIRECTION('',(0.,0.,-1.));
#159 = DIRECTION('',(-1.,0.,0.));
#160 = ORIENTED_EDGE('',*,*,#161,.T.);
#161 = EDGE_CURVE('',#153,#151,#162,.T.);
#162 = CIRCLE('',#163,0.49995);
#163 = AXIS2_PLACEMENT_3D('',#164,#165,#166);
#164 = CARTESIAN_POINT('',(8.5,-13.1,-1.E-02));
#165 = DIRECTION('',(0.,0.,-1.));
#166 = DIRECTION('',(-1.,0.,0.));
#167 = FACE_BOUND('',#168,.T.);
#168 = EDGE_LOOP('',(#169,#180));
#169 = ORIENTED_EDGE('',*,*,#170,.T.);
#170 = EDGE_CURVE('',#171,#173,#175,.T.);
#171 = VERTEX_POINT('',#172);
#172 = CARTESIAN_POINT('',(11.051848,-12.60005,-1.E-02));
#173 = VERTEX_POINT('',#174);
#174 = CARTESIAN_POINT('',(11.0518479,-13.59995,-1.E-02));
#175 = CIRCLE('',#176,0.49995);
#176 = AXIS2_PLACEMENT_3D('',#177,#178,#179);
#177 = CARTESIAN_POINT('',(11.051848,-13.1,-1.E-02));
#178 = DIRECTION('',(0.,0.,-1.));
#179 = DIRECTION('',(-1.,0.,0.));
#180 = ORIENTED_EDGE('',*,*,#181,.T.);
#181 = EDGE_CURVE('',#173,#171,#182,.T.);
#182 = CIRCLE('',#183,0.49995);
#183 = AXIS2_PLACEMENT_3D('',#184,#185,#186);
#184 = CARTESIAN_POINT('',(11.051848,-13.1,-1.E-02));
#185 = DIRECTION('',(0.,0.,-1.));
#186 = DIRECTION('',(-1.,0.,0.));
#187 = FACE_BOUND('',#188,.T.);
#188 = EDGE_LOOP('',(#189,#200));
#189 = ORIENTED_EDGE('',*,*,#190,.T.);
#190 = EDGE_CURVE('',#191,#193,#195,.T.);
#191 = VERTEX_POINT('',#192);
#192 = CARTESIAN_POINT('',(22.4601096,-10.2004473,-1.E-02));
#193 = VERTEX_POINT('',#194);
#194 = CARTESIAN_POINT('',(22.5398903,-13.3995526,-1.E-02));
#195 = CIRCLE('',#196,1.600049974265);
#196 = AXIS2_PLACEMENT_3D('',#197,#198,#199);
#197 = CARTESIAN_POINT('',(22.500000025735,-11.79999994811,-1.E-02));
#198 = DIRECTION('',(0.,0.,-1.));
#199 = DIRECTION('',(-1.,0.,0.));
#200 = ORIENTED_EDGE('',*,*,#201,.T.);
#201 = EDGE_CURVE('',#193,#191,#202,.T.);
#202 = CIRCLE('',#203,1.600049974265);
#203 = AXIS2_PLACEMENT_3D('',#204,#205,#206);
#204 = CARTESIAN_POINT('',(22.499999974265,-11.79999994939,-1.E-02));
#205 = DIRECTION('',(0.,0.,-1.));
#206 = DIRECTION('',(-1.,0.,0.));
#207 = FACE_BOUND('',#208,.T.);
#208 = EDGE_LOOP('',(#209,#220));
#209 = ORIENTED_EDGE('',*,*,#210,.T.);
#210 = EDGE_CURVE('',#211,#213,#215,.T.);
#211 = VERTEX_POINT('',#212);
#212 = CARTESIAN_POINT('',(-13.1837813,21.3995526,-1.E-02));
#213 = VERTEX_POINT('',#214);
#214 = CARTESIAN_POINT('',(-13.1040006,18.2004473,-1.E-02));
#215 = CIRCLE('',#216,1.600049974265);
#216 = AXIS2_PLACEMENT_3D('',#217,#218,#219);
#217 = CARTESIAN_POINT('',(-13.14389097426,19.799999949395,-1.E-02));
#218 = DIRECTION('',(0.,0.,-1.));
#219 = DIRECTION('',(-1.,0.,0.));
#220 = ORIENTED_EDGE('',*,*,#221,.T.);
#221 = EDGE_CURVE('',#213,#211,#222,.T.);
#222 = CIRCLE('',#223,1.600049974265);
#223 = AXIS2_PLACEMENT_3D('',#224,#225,#226);
#224 = CARTESIAN_POINT('',(-13.14389102573,19.799999948111,-1.E-02));
#225 = DIRECTION('',(0.,0.,-1.));
#226 = DIRECTION('',(-1.,0.,0.));
#227 = FACE_BOUND('',#228,.T.);
#228 = EDGE_LOOP('',(#229,#240));
#229 = ORIENTED_EDGE('',*,*,#230,.T.);
#230 = EDGE_CURVE('',#231,#233,#235,.T.);
#231 = VERTEX_POINT('',#232);
#232 = CARTESIAN_POINT('',(3.3999999,21.687784,-1.E-02));
#233 = VERTEX_POINT('',#234);
#234 = CARTESIAN_POINT('',(3.3999999,20.6878839,-1.E-02));
#235 = CIRCLE('',#236,0.49995005);
#236 = AXIS2_PLACEMENT_3D('',#237,#238,#239);
#237 = CARTESIAN_POINT('',(3.39999995,21.18783395,-1.E-02));
#238 = DIRECTION('',(0.,0.,-1.));
#239 = DIRECTION('',(-1.,0.,0.));
#240 = ORIENTED_EDGE('',*,*,#241,.T.);
#241 = EDGE_CURVE('',#233,#231,#242,.T.);
#242 = CIRCLE('',#243,0.49995005);
#243 = AXIS2_PLACEMENT_3D('',#244,#245,#246);
#244 = CARTESIAN_POINT('',(3.39999995,21.18783395,-1.E-02));
#245 = DIRECTION('',(0.,0.,-1.));
#246 = DIRECTION('',(-1.,0.,0.));
#247 = FACE_BOUND('',#248,.T.);
#248 = EDGE_LOOP('',(#249,#260));
#249 = ORIENTED_EDGE('',*,*,#250,.T.);
#250 = EDGE_CURVE('',#251,#253,#255,.T.);
#251 = VERTEX_POINT('',#252);
#252 = CARTESIAN_POINT('',(5.9999999,21.69995,-1.E-02));
#253 = VERTEX_POINT('',#254);
#254 = CARTESIAN_POINT('',(6.,20.7000499,-1.E-02));
#255 = CIRCLE('',#256,0.49995005);
#256 = AXIS2_PLACEMENT_3D('',#257,#258,#259);
#257 = CARTESIAN_POINT('',(5.99999995,21.19999995,-1.E-02));
#258 = DIRECTION('',(0.,0.,-1.));
#259 = DIRECTION('',(-1.,0.,0.));
#260 = ORIENTED_EDGE('',*,*,#261,.T.);
#261 = EDGE_CURVE('',#253,#251,#262,.T.);
#262 = CIRCLE('',#263,0.49995005);
#263 = AXIS2_PLACEMENT_3D('',#264,#265,#266);
#264 = CARTESIAN_POINT('',(6.00000005,21.19999995,-1.E-02));
#265 = DIRECTION('',(0.,0.,-1.));
#266 = DIRECTION('',(-1.,0.,0.));
#267 = FACE_BOUND('',#268,.T.);
#268 = EDGE_LOOP('',(#269,#280));
#269 = ORIENTED_EDGE('',*,*,#270,.T.);
#270 = EDGE_CURVE('',#271,#273,#275,.T.);
#271 = VERTEX_POINT('',#272);
#272 = CARTESIAN_POINT('',(13.5678339,21.69995,-1.E-02));
#273 = VERTEX_POINT('',#274);
#274 = CARTESIAN_POINT('',(13.567834,20.7000499,-1.E-02));
#275 = CIRCLE('',#276,0.49995005);
#276 = AXIS2_PLACEMENT_3D('',#277,#278,#279);
#277 = CARTESIAN_POINT('',(13.56783395,21.19999995,-1.E-02));
#278 = DIRECTION('',(0.,0.,-1.));
#279 = DIRECTION('',(-1.,0.,0.));
#280 = ORIENTED_EDGE('',*,*,#281,.T.);
#281 = EDGE_CURVE('',#273,#271,#282,.T.);
#282 = CIRCLE('',#283,0.49995005);
#283 = AXIS2_PLACEMENT_3D('',#284,#285,#286);
#284 = CARTESIAN_POINT('',(13.56783405,21.19999995,-1.E-02));
#285 = DIRECTION('',(0.,0.,-1.));
#286 = DIRECTION('',(-1.,0.,0.));
#287 = FACE_BOUND('',#288,.T.);
#288 = EDGE_LOOP('',(#289,#300));
#289 = ORIENTED_EDGE('',*,*,#290,.T.);
#290 = EDGE_CURVE('',#291,#293,#295,.T.);
#291 = VERTEX_POINT('',#292);
#292 = CARTESIAN_POINT('',(16.1078339,21.69995,-1.E-02));
#293 = VERTEX_POINT('',#294);
#294 = CARTESIAN_POINT('',(16.1078339,20.70005,-1.E-02));
#295 = CIRCLE('',#296,0.49995);
#296 = AXIS2_PLACEMENT_3D('',#297,#298,#299);
#297 = CARTESIAN_POINT('',(16.107834,21.2,-1.E-02));
#298 = DIRECTION('',(0.,0.,-1.));
#299 = DIRECTION('',(-1.,0.,0.));
#300 = ORIENTED_EDGE('',*,*,#301,.T.);
#301 = EDGE_CURVE('',#293,#291,#302,.T.);
#302 = CIRCLE('',#303,0.49995);
#303 = AXIS2_PLACEMENT_3D('',#304,#305,#306);
#304 = CARTESIAN_POINT('',(16.107834,21.2,-1.E-02));
#305 = DIRECTION('',(0.,0.,-1.));
#306 = DIRECTION('',(-1.,0.,0.));
#307 = FACE_BOUND('',#308,.T.);
#308 = EDGE_LOOP('',(#309,#320));
#309 = ORIENTED_EDGE('',*,*,#310,.T.);
#310 = EDGE_CURVE('',#311,#313,#315,.T.);
#311 = VERTEX_POINT('',#312);
#312 = CARTESIAN_POINT('',(22.4601096,21.4019816,-1.E-02));
#313 = VERTEX_POINT('',#314);
#314 = CARTESIAN_POINT('',(22.5398903,18.2028763,-1.E-02));
#315 = CIRCLE('',#316,1.600049974265);
#316 = AXIS2_PLACEMENT_3D('',#317,#318,#319);
#317 = CARTESIAN_POINT('',(22.500000025735,19.802428951889,-1.E-02));
#318 = DIRECTION('',(0.,0.,-1.));
#319 = DIRECTION('',(-1.,0.,0.));
#320 = ORIENTED_EDGE('',*,*,#321,.T.);
#321 = EDGE_CURVE('',#313,#311,#322,.T.);
#322 = CIRCLE('',#323,1.600049974265);
#323 = AXIS2_PLACEMENT_3D('',#324,#325,#326);
#324 = CARTESIAN_POINT('',(22.499999974265,19.802428950605,-1.E-02));
#325 = DIRECTION('',(0.,0.,-1.));
#326 = DIRECTION('',(-1.,0.,0.));
#327 = PLANE('',#328);
#328 = AXIS2_PLACEMENT_3D('',#329,#330,#331);
#329 = CARTESIAN_POINT('',(-28.06225725,-24.078857,-1.E-02));
#330 = DIRECTION('',(0.,0.,1.));
#331 = DIRECTION('',(1.,0.,-0.));
#332 = ADVANCED_FACE('',(#333),#351,.T.);
#333 = FACE_BOUND('',#334,.T.);
#334 = EDGE_LOOP('',(#335,#343,#344,#345));
#335 = ORIENTED_EDGE('',*,*,#336,.F.);
#336 = EDGE_CURVE('',#32,#337,#339,.T.);
#337 = VERTEX_POINT('',#338);
#338 = CARTESIAN_POINT('',(42.72405225,32.153287,-1.59));
#339 = LINE('',#340,#341);
#340 = CARTESIAN_POINT('',(-28.06225725,32.153287,-1.59));
#341 = VECTOR('',#342,1.);
#342 = DIRECTION('',(1.,0.,-0.));
#343 = ORIENTED_EDGE('',*,*,#39,.T.);
#344 = ORIENTED_EDGE('',*,*,#102,.T.);
#345 = ORIENTED_EDGE('',*,*,#346,.F.);
#346 = EDGE_CURVE('',#337,#95,#347,.T.);
#347 = LINE('',#348,#349);
#348 = CARTESIAN_POINT('',(42.72405225,32.153287,-1.59));
#349 = VECTOR('',#350,1.);
#350 = DIRECTION('',(0.,0.,1.));
#351 = PLANE('',#352);
#352 = AXIS2_PLACEMENT_3D('',#353,#354,#355);
#353 = CARTESIAN_POINT('',(-28.06225725,32.153287,-1.59));
#354 = DIRECTION('',(-0.,1.,0.));
#355 = DIRECTION('',(0.,0.,1.));
#356 = ADVANCED_FACE('',(#357,#368,#388,#408,#428,#448,#468,#488,#508,
    #528,#548,#568),#588,.F.);
#357 = FACE_BOUND('',#358,.F.);
#358 = EDGE_LOOP('',(#359,#360,#361,#367));
#359 = ORIENTED_EDGE('',*,*,#31,.F.);
#360 = ORIENTED_EDGE('',*,*,#61,.T.);
#361 = ORIENTED_EDGE('',*,*,#362,.T.);
#362 = EDGE_CURVE('',#62,#337,#363,.T.);
#363 = LINE('',#364,#365);
#364 = CARTESIAN_POINT('',(42.72405225,-24.078857,-1.59));
#365 = VECTOR('',#366,1.);
#366 = DIRECTION('',(-0.,1.,0.));
#367 = ORIENTED_EDGE('',*,*,#336,.F.);
#368 = FACE_BOUND('',#369,.F.);
#369 = EDGE_LOOP('',(#370,#381));
#370 = ORIENTED_EDGE('',*,*,#371,.T.);
#371 = EDGE_CURVE('',#372,#374,#376,.T.);
#372 = VERTEX_POINT('',#373);
#373 = CARTESIAN_POINT('',(-13.0997243,-10.2114473,-1.59));
#374 = VERTEX_POINT('',#375);
#375 = CARTESIAN_POINT('',(-13.0199436,-13.4105526,-1.59));
#376 = CIRCLE('',#377,1.600049974265);
#377 = AXIS2_PLACEMENT_3D('',#378,#379,#380);
#378 = CARTESIAN_POINT('',(-13.05983397426,-11.8109999506,-1.59));
#379 = DIRECTION('',(0.,0.,-1.));
#380 = DIRECTION('',(-1.,0.,0.));
#381 = ORIENTED_EDGE('',*,*,#382,.T.);
#382 = EDGE_CURVE('',#374,#372,#383,.T.);
#383 = CIRCLE('',#384,1.600049974265);
#384 = AXIS2_PLACEMENT_3D('',#385,#386,#387);
#385 = CARTESIAN_POINT('',(-13.05983402573,-11.81099995188,-1.59));
#386 = DIRECTION('',(0.,0.,-1.));
#387 = DIRECTION('',(-1.,0.,0.));
#388 = FACE_BOUND('',#389,.F.);
#389 = EDGE_LOOP('',(#390,#401));
#390 = ORIENTED_EDGE('',*,*,#391,.T.);
#391 = EDGE_CURVE('',#392,#394,#396,.T.);
#392 = VERTEX_POINT('',#393);
#393 = CARTESIAN_POINT('',(5.96,-12.60005,-1.59));
#394 = VERTEX_POINT('',#395);
#395 = CARTESIAN_POINT('',(5.9599999,-13.59995,-1.59));
#396 = CIRCLE('',#397,0.49995);
#397 = AXIS2_PLACEMENT_3D('',#398,#399,#400);
#398 = CARTESIAN_POINT('',(5.96,-13.1,-1.59));
#399 = DIRECTION('',(0.,0.,-1.));
#400 = DIRECTION('',(-1.,0.,0.));
#401 = ORIENTED_EDGE('',*,*,#402,.T.);
#402 = EDGE_CURVE('',#394,#392,#403,.T.);
#403 = CIRCLE('',#404,0.49995);
#404 = AXIS2_PLACEMENT_3D('',#405,#406,#407);
#405 = CARTESIAN_POINT('',(5.96,-13.1,-1.59));
#406 = DIRECTION('',(0.,0.,-1.));
#407 = DIRECTION('',(-1.,0.,0.));
#408 = FACE_BOUND('',#409,.F.);
#409 = EDGE_LOOP('',(#410,#421));
#410 = ORIENTED_EDGE('',*,*,#411,.T.);
#411 = EDGE_CURVE('',#412,#414,#416,.T.);
#412 = VERTEX_POINT('',#413);
#413 = CARTESIAN_POINT('',(8.5,-12.60005,-1.59));
#414 = VERTEX_POINT('',#415);
#415 = CARTESIAN_POINT('',(8.4999999,-13.59995,-1.59));
#416 = CIRCLE('',#417,0.49995);
#417 = AXIS2_PLACEMENT_3D('',#418,#419,#420);
#418 = CARTESIAN_POINT('',(8.5,-13.1,-1.59));
#419 = DIRECTION('',(0.,0.,-1.));
#420 = DIRECTION('',(-1.,0.,0.));
#421 = ORIENTED_EDGE('',*,*,#422,.T.);
#422 = EDGE_CURVE('',#414,#412,#423,.T.);
#423 = CIRCLE('',#424,0.49995);
#424 = AXIS2_PLACEMENT_3D('',#425,#426,#427);
#425 = CARTESIAN_POINT('',(8.5,-13.1,-1.59));
#426 = DIRECTION('',(0.,0.,-1.));
#427 = DIRECTION('',(-1.,0.,0.));
#428 = FACE_BOUND('',#429,.F.);
#429 = EDGE_LOOP('',(#430,#441));
#430 = ORIENTED_EDGE('',*,*,#431,.T.);
#431 = EDGE_CURVE('',#432,#434,#436,.T.);
#432 = VERTEX_POINT('',#433);
#433 = CARTESIAN_POINT('',(11.051848,-12.60005,-1.59));
#434 = VERTEX_POINT('',#435);
#435 = CARTESIAN_POINT('',(11.0518479,-13.59995,-1.59));
#436 = CIRCLE('',#437,0.49995);
#437 = AXIS2_PLACEMENT_3D('',#438,#439,#440);
#438 = CARTESIAN_POINT('',(11.051848,-13.1,-1.59));
#439 = DIRECTION('',(0.,0.,-1.));
#440 = DIRECTION('',(-1.,0.,0.));
#441 = ORIENTED_EDGE('',*,*,#442,.T.);
#442 = EDGE_CURVE('',#434,#432,#443,.T.);
#443 = CIRCLE('',#444,0.49995);
#444 = AXIS2_PLACEMENT_3D('',#445,#446,#447);
#445 = CARTESIAN_POINT('',(11.051848,-13.1,-1.59));
#446 = DIRECTION('',(0.,0.,-1.));
#447 = DIRECTION('',(-1.,0.,0.));
#448 = FACE_BOUND('',#449,.F.);
#449 = EDGE_LOOP('',(#450,#461));
#450 = ORIENTED_EDGE('',*,*,#451,.T.);
#451 = EDGE_CURVE('',#452,#454,#456,.T.);
#452 = VERTEX_POINT('',#453);
#453 = CARTESIAN_POINT('',(22.4601096,-10.2004473,-1.59));
#454 = VERTEX_POINT('',#455);
#455 = CARTESIAN_POINT('',(22.5398903,-13.3995526,-1.59));
#456 = CIRCLE('',#457,1.600049974265);
#457 = AXIS2_PLACEMENT_3D('',#458,#459,#460);
#458 = CARTESIAN_POINT('',(22.500000025735,-11.79999994811,-1.59));
#459 = DIRECTION('',(0.,0.,-1.));
#460 = DIRECTION('',(-1.,0.,0.));
#461 = ORIENTED_EDGE('',*,*,#462,.T.);
#462 = EDGE_CURVE('',#454,#452,#463,.T.);
#463 = CIRCLE('',#464,1.600049974265);
#464 = AXIS2_PLACEMENT_3D('',#465,#466,#467);
#465 = CARTESIAN_POINT('',(22.499999974265,-11.79999994939,-1.59));
#466 = DIRECTION('',(0.,0.,-1.));
#467 = DIRECTION('',(-1.,0.,0.));
#468 = FACE_BOUND('',#469,.F.);
#469 = EDGE_LOOP('',(#470,#481));
#470 = ORIENTED_EDGE('',*,*,#471,.T.);
#471 = EDGE_CURVE('',#472,#474,#476,.T.);
#472 = VERTEX_POINT('',#473);
#473 = CARTESIAN_POINT('',(-13.1837813,21.3995526,-1.59));
#474 = VERTEX_POINT('',#475);
#475 = CARTESIAN_POINT('',(-13.1040006,18.2004473,-1.59));
#476 = CIRCLE('',#477,1.600049974265);
#477 = AXIS2_PLACEMENT_3D('',#478,#479,#480);
#478 = CARTESIAN_POINT('',(-13.14389097426,19.799999949395,-1.59));
#479 = DIRECTION('',(0.,0.,-1.));
#480 = DIRECTION('',(-1.,0.,0.));
#481 = ORIENTED_EDGE('',*,*,#482,.T.);
#482 = EDGE_CURVE('',#474,#472,#483,.T.);
#483 = CIRCLE('',#484,1.600049974265);
#484 = AXIS2_PLACEMENT_3D('',#485,#486,#487);
#485 = CARTESIAN_POINT('',(-13.14389102573,19.799999948111,-1.59));
#486 = DIRECTION('',(0.,0.,-1.));
#487 = DIRECTION('',(-1.,0.,0.));
#488 = FACE_BOUND('',#489,.F.);
#489 = EDGE_LOOP('',(#490,#501));
#490 = ORIENTED_EDGE('',*,*,#491,.T.);
#491 = EDGE_CURVE('',#492,#494,#496,.T.);
#492 = VERTEX_POINT('',#493);
#493 = CARTESIAN_POINT('',(3.3999999,21.687784,-1.59));
#494 = VERTEX_POINT('',#495);
#495 = CARTESIAN_POINT('',(3.3999999,20.6878839,-1.59));
#496 = CIRCLE('',#497,0.49995005);
#497 = AXIS2_PLACEMENT_3D('',#498,#499,#500);
#498 = CARTESIAN_POINT('',(3.39999995,21.18783395,-1.59));
#499 = DIRECTION('',(0.,0.,-1.));
#500 = DIRECTION('',(-1.,0.,0.));
#501 = ORIENTED_EDGE('',*,*,#502,.T.);
#502 = EDGE_CURVE('',#494,#492,#503,.T.);
#503 = CIRCLE('',#504,0.49995005);
#504 = AXIS2_PLACEMENT_3D('',#505,#506,#507);
#505 = CARTESIAN_POINT('',(3.39999995,21.18783395,-1.59));
#506 = DIRECTION('',(0.,0.,-1.));
#507 = DIRECTION('',(-1.,0.,0.));
#508 = FACE_BOUND('',#509,.F.);
#509 = EDGE_LOOP('',(#510,#521));
#510 = ORIENTED_EDGE('',*,*,#511,.T.);
#511 = EDGE_CURVE('',#512,#514,#516,.T.);
#512 = VERTEX_POINT('',#513);
#513 = CARTESIAN_POINT('',(5.9999999,21.69995,-1.59));
#514 = VERTEX_POINT('',#515);
#515 = CARTESIAN_POINT('',(6.,20.7000499,-1.59));
#516 = CIRCLE('',#517,0.49995005);
#517 = AXIS2_PLACEMENT_3D('',#518,#519,#520);
#518 = CARTESIAN_POINT('',(5.99999995,21.19999995,-1.59));
#519 = DIRECTION('',(0.,0.,-1.));
#520 = DIRECTION('',(-1.,0.,0.));
#521 = ORIENTED_EDGE('',*,*,#522,.T.);
#522 = EDGE_CURVE('',#514,#512,#523,.T.);
#523 = CIRCLE('',#524,0.49995005);
#524 = AXIS2_PLACEMENT_3D('',#525,#526,#527);
#525 = CARTESIAN_POINT('',(6.00000005,21.19999995,-1.59));
#526 = DIRECTION('',(0.,0.,-1.));
#527 = DIRECTION('',(-1.,0.,0.));
#528 = FACE_BOUND('',#529,.F.);
#529 = EDGE_LOOP('',(#530,#541));
#530 = ORIENTED_EDGE('',*,*,#531,.T.);
#531 = EDGE_CURVE('',#532,#534,#536,.T.);
#532 = VERTEX_POINT('',#533);
#533 = CARTESIAN_POINT('',(13.5678339,21.69995,-1.59));
#534 = VERTEX_POINT('',#535);
#535 = CARTESIAN_POINT('',(13.567834,20.7000499,-1.59));
#536 = CIRCLE('',#537,0.49995005);
#537 = AXIS2_PLACEMENT_3D('',#538,#539,#540);
#538 = CARTESIAN_POINT('',(13.56783395,21.19999995,-1.59));
#539 = DIRECTION('',(0.,0.,-1.));
#540 = DIRECTION('',(-1.,0.,0.));
#541 = ORIENTED_EDGE('',*,*,#542,.T.);
#542 = EDGE_CURVE('',#534,#532,#543,.T.);
#543 = CIRCLE('',#544,0.49995005);
#544 = AXIS2_PLACEMENT_3D('',#545,#546,#547);
#545 = CARTESIAN_POINT('',(13.56783405,21.19999995,-1.59));
#546 = DIRECTION('',(0.,0.,-1.));
#547 = DIRECTION('',(-1.,0.,0.));
#548 = FACE_BOUND('',#549,.F.);
#549 = EDGE_LOOP('',(#550,#561));
#550 = ORIENTED_EDGE('',*,*,#551,.T.);
#551 = EDGE_CURVE('',#552,#554,#556,.T.);
#552 = VERTEX_POINT('',#553);
#553 = CARTESIAN_POINT('',(16.1078339,21.69995,-1.59));
#554 = VERTEX_POINT('',#555);
#555 = CARTESIAN_POINT('',(16.1078339,20.70005,-1.59));
#556 = CIRCLE('',#557,0.49995);
#557 = AXIS2_PLACEMENT_3D('',#558,#559,#560);
#558 = CARTESIAN_POINT('',(16.107834,21.2,-1.59));
#559 = DIRECTION('',(0.,0.,-1.));
#560 = DIRECTION('',(-1.,0.,0.));
#561 = ORIENTED_EDGE('',*,*,#562,.T.);
#562 = EDGE_CURVE('',#554,#552,#563,.T.);
#563 = CIRCLE('',#564,0.49995);
#564 = AXIS2_PLACEMENT_3D('',#565,#566,#567);
#565 = CARTESIAN_POINT('',(16.107834,21.2,-1.59));
#566 = DIRECTION('',(0.,0.,-1.));
#567 = DIRECTION('',(-1.,0.,0.));
#568 = FACE_BOUND('',#569,.F.);
#569 = EDGE_LOOP('',(#570,#581));
#570 = ORIENTED_EDGE('',*,*,#571,.T.);
#571 = EDGE_CURVE('',#572,#574,#576,.T.);
#572 = VERTEX_POINT('',#573);
#573 = CARTESIAN_POINT('',(22.4601096,21.4019816,-1.59));
#574 = VERTEX_POINT('',#575);
#575 = CARTESIAN_POINT('',(22.5398903,18.2028763,-1.59));
#576 = CIRCLE('',#577,1.600049974265);
#577 = AXIS2_PLACEMENT_3D('',#578,#579,#580);
#578 = CARTESIAN_POINT('',(22.500000025735,19.802428951889,-1.59));
#579 = DIRECTION('',(0.,0.,-1.));
#580 = DIRECTION('',(-1.,0.,0.));
#581 = ORIENTED_EDGE('',*,*,#582,.T.);
#582 = EDGE_CURVE('',#574,#572,#583,.T.);
#583 = CIRCLE('',#584,1.600049974265);
#584 = AXIS2_PLACEMENT_3D('',#585,#586,#587);
#585 = CARTESIAN_POINT('',(22.499999974265,19.802428950605,-1.59));
#586 = DIRECTION('',(0.,0.,-1.));
#587 = DIRECTION('',(-1.,0.,0.));
#588 = PLANE('',#589);
#589 = AXIS2_PLACEMENT_3D('',#590,#591,#592);
#590 = CARTESIAN_POINT('',(-28.06225725,-24.078857,-1.59));
#591 = DIRECTION('',(0.,0.,1.));
#592 = DIRECTION('',(1.,0.,-0.));
#593 = ADVANCED_FACE('',(#594),#600,.T.);
#594 = FACE_BOUND('',#595,.T.);
#595 = EDGE_LOOP('',(#596,#597,#598,#599));
#596 = ORIENTED_EDGE('',*,*,#78,.F.);
#597 = ORIENTED_EDGE('',*,*,#362,.T.);
#598 = ORIENTED_EDGE('',*,*,#346,.T.);
#599 = ORIENTED_EDGE('',*,*,#94,.F.);
#600 = PLANE('',#601);
#601 = AXIS2_PLACEMENT_3D('',#602,#603,#604);
#602 = CARTESIAN_POINT('',(42.72405225,-24.078857,-1.59));
#603 = DIRECTION('',(1.,0.,-0.));
#604 = DIRECTION('',(0.,0.,1.));
#605 = ADVANCED_FACE('',(#606),#622,.F.);
#606 = FACE_BOUND('',#607,.F.);
#607 = EDGE_LOOP('',(#608,#609,#615,#616));
#608 = ORIENTED_EDGE('',*,*,#371,.F.);
#609 = ORIENTED_EDGE('',*,*,#610,.T.);
#610 = EDGE_CURVE('',#372,#111,#611,.T.);
#611 = LINE('',#612,#613);
#612 = CARTESIAN_POINT('',(-13.0997243,-10.2114473,-1.6));
#613 = VECTOR('',#614,1.);
#614 = DIRECTION('',(0.,0.,1.));
#615 = ORIENTED_EDGE('',*,*,#110,.T.);
#616 = ORIENTED_EDGE('',*,*,#617,.F.);
#617 = EDGE_CURVE('',#374,#113,#618,.T.);
#618 = LINE('',#619,#620);
#619 = CARTESIAN_POINT('',(-13.0199436,-13.4105526,-1.6));
#620 = VECTOR('',#621,1.);
#621 = DIRECTION('',(0.,0.,1.));
#622 = CYLINDRICAL_SURFACE('',#623,1.600049974265);
#623 = AXIS2_PLACEMENT_3D('',#624,#625,#626);
#624 = CARTESIAN_POINT('',(-13.05983397426,-11.8109999506,-1.6));
#625 = DIRECTION('',(0.,0.,-1.));
#626 = DIRECTION('',(-1.,0.,0.));
#627 = ADVANCED_FACE('',(#628),#634,.F.);
#628 = FACE_BOUND('',#629,.F.);
#629 = EDGE_LOOP('',(#630,#631,#632,#633));
#630 = ORIENTED_EDGE('',*,*,#382,.F.);
#631 = ORIENTED_EDGE('',*,*,#617,.T.);
#632 = ORIENTED_EDGE('',*,*,#121,.T.);
#633 = ORIENTED_EDGE('',*,*,#610,.F.);
#634 = CYLINDRICAL_SURFACE('',#635,1.600049974265);
#635 = AXIS2_PLACEMENT_3D('',#636,#637,#638);
#636 = CARTESIAN_POINT('',(-13.05983402573,-11.81099995188,-1.6));
#637 = DIRECTION('',(0.,0.,-1.));
#638 = DIRECTION('',(-1.,0.,0.));
#639 = ADVANCED_FACE('',(#640),#656,.F.);
#640 = FACE_BOUND('',#641,.F.);
#641 = EDGE_LOOP('',(#642,#643,#649,#650));
#642 = ORIENTED_EDGE('',*,*,#391,.F.);
#643 = ORIENTED_EDGE('',*,*,#644,.T.);
#644 = EDGE_CURVE('',#392,#131,#645,.T.);
#645 = LINE('',#646,#647);
#646 = CARTESIAN_POINT('',(5.96,-12.60005,-1.6));
#647 = VECTOR('',#648,1.);
#648 = DIRECTION('',(0.,0.,1.));
#649 = ORIENTED_EDGE('',*,*,#130,.T.);
#650 = ORIENTED_EDGE('',*,*,#651,.F.);
#651 = EDGE_CURVE('',#394,#133,#652,.T.);
#652 = LINE('',#653,#654);
#653 = CARTESIAN_POINT('',(5.9599999,-13.59995,-1.6));
#654 = VECTOR('',#655,1.);
#655 = DIRECTION('',(0.,0.,1.));
#656 = CYLINDRICAL_SURFACE('',#657,0.49995);
#657 = AXIS2_PLACEMENT_3D('',#658,#659,#660);
#658 = CARTESIAN_POINT('',(5.96,-13.1,-1.6));
#659 = DIRECTION('',(0.,0.,-1.));
#660 = DIRECTION('',(-1.,0.,0.));
#661 = ADVANCED_FACE('',(#662),#668,.F.);
#662 = FACE_BOUND('',#663,.F.);
#663 = EDGE_LOOP('',(#664,#665,#666,#667));
#664 = ORIENTED_EDGE('',*,*,#402,.F.);
#665 = ORIENTED_EDGE('',*,*,#651,.T.);
#666 = ORIENTED_EDGE('',*,*,#141,.T.);
#667 = ORIENTED_EDGE('',*,*,#644,.F.);
#668 = CYLINDRICAL_SURFACE('',#669,0.49995);
#669 = AXIS2_PLACEMENT_3D('',#670,#671,#672);
#670 = CARTESIAN_POINT('',(5.96,-13.1,-1.6));
#671 = DIRECTION('',(0.,0.,-1.));
#672 = DIRECTION('',(-1.,0.,0.));
#673 = ADVANCED_FACE('',(#674),#690,.F.);
#674 = FACE_BOUND('',#675,.F.);
#675 = EDGE_LOOP('',(#676,#677,#683,#684));
#676 = ORIENTED_EDGE('',*,*,#411,.F.);
#677 = ORIENTED_EDGE('',*,*,#678,.T.);
#678 = EDGE_CURVE('',#412,#151,#679,.T.);
#679 = LINE('',#680,#681);
#680 = CARTESIAN_POINT('',(8.5,-12.60005,-1.6));
#681 = VECTOR('',#682,1.);
#682 = DIRECTION('',(0.,0.,1.));
#683 = ORIENTED_EDGE('',*,*,#150,.T.);
#684 = ORIENTED_EDGE('',*,*,#685,.F.);
#685 = EDGE_CURVE('',#414,#153,#686,.T.);
#686 = LINE('',#687,#688);
#687 = CARTESIAN_POINT('',(8.4999999,-13.59995,-1.6));
#688 = VECTOR('',#689,1.);
#689 = DIRECTION('',(0.,0.,1.));
#690 = CYLINDRICAL_SURFACE('',#691,0.49995);
#691 = AXIS2_PLACEMENT_3D('',#692,#693,#694);
#692 = CARTESIAN_POINT('',(8.5,-13.1,-1.6));
#693 = DIRECTION('',(0.,0.,-1.));
#694 = DIRECTION('',(-1.,0.,0.));
#695 = ADVANCED_FACE('',(#696),#702,.F.);
#696 = FACE_BOUND('',#697,.F.);
#697 = EDGE_LOOP('',(#698,#699,#700,#701));
#698 = ORIENTED_EDGE('',*,*,#422,.F.);
#699 = ORIENTED_EDGE('',*,*,#685,.T.);
#700 = ORIENTED_EDGE('',*,*,#161,.T.);
#701 = ORIENTED_EDGE('',*,*,#678,.F.);
#702 = CYLINDRICAL_SURFACE('',#703,0.49995);
#703 = AXIS2_PLACEMENT_3D('',#704,#705,#706);
#704 = CARTESIAN_POINT('',(8.5,-13.1,-1.6));
#705 = DIRECTION('',(0.,0.,-1.));
#706 = DIRECTION('',(-1.,0.,0.));
#707 = ADVANCED_FACE('',(#708),#724,.F.);
#708 = FACE_BOUND('',#709,.F.);
#709 = EDGE_LOOP('',(#710,#711,#717,#718));
#710 = ORIENTED_EDGE('',*,*,#431,.F.);
#711 = ORIENTED_EDGE('',*,*,#712,.T.);
#712 = EDGE_CURVE('',#432,#171,#713,.T.);
#713 = LINE('',#714,#715);
#714 = CARTESIAN_POINT('',(11.051848,-12.60005,-1.6));
#715 = VECTOR('',#716,1.);
#716 = DIRECTION('',(0.,0.,1.));
#717 = ORIENTED_EDGE('',*,*,#170,.T.);
#718 = ORIENTED_EDGE('',*,*,#719,.F.);
#719 = EDGE_CURVE('',#434,#173,#720,.T.);
#720 = LINE('',#721,#722);
#721 = CARTESIAN_POINT('',(11.0518479,-13.59995,-1.6));
#722 = VECTOR('',#723,1.);
#723 = DIRECTION('',(0.,0.,1.));
#724 = CYLINDRICAL_SURFACE('',#725,0.49995);
#725 = AXIS2_PLACEMENT_3D('',#726,#727,#728);
#726 = CARTESIAN_POINT('',(11.051848,-13.1,-1.6));
#727 = DIRECTION('',(0.,0.,-1.));
#728 = DIRECTION('',(-1.,0.,0.));
#729 = ADVANCED_FACE('',(#730),#736,.F.);
#730 = FACE_BOUND('',#731,.F.);
#731 = EDGE_LOOP('',(#732,#733,#734,#735));
#732 = ORIENTED_EDGE('',*,*,#442,.F.);
#733 = ORIENTED_EDGE('',*,*,#719,.T.);
#734 = ORIENTED_EDGE('',*,*,#181,.T.);
#735 = ORIENTED_EDGE('',*,*,#712,.F.);
#736 = CYLINDRICAL_SURFACE('',#737,0.49995);
#737 = AXIS2_PLACEMENT_3D('',#738,#739,#740);
#738 = CARTESIAN_POINT('',(11.051848,-13.1,-1.6));
#739 = DIRECTION('',(0.,0.,-1.));
#740 = DIRECTION('',(-1.,0.,0.));
#741 = ADVANCED_FACE('',(#742),#758,.F.);
#742 = FACE_BOUND('',#743,.F.);
#743 = EDGE_LOOP('',(#744,#745,#751,#752));
#744 = ORIENTED_EDGE('',*,*,#451,.F.);
#745 = ORIENTED_EDGE('',*,*,#746,.T.);
#746 = EDGE_CURVE('',#452,#191,#747,.T.);
#747 = LINE('',#748,#749);
#748 = CARTESIAN_POINT('',(22.4601096,-10.2004473,-1.6));
#749 = VECTOR('',#750,1.);
#750 = DIRECTION('',(0.,0.,1.));
#751 = ORIENTED_EDGE('',*,*,#190,.T.);
#752 = ORIENTED_EDGE('',*,*,#753,.F.);
#753 = EDGE_CURVE('',#454,#193,#754,.T.);
#754 = LINE('',#755,#756);
#755 = CARTESIAN_POINT('',(22.5398903,-13.3995526,-1.6));
#756 = VECTOR('',#757,1.);
#757 = DIRECTION('',(0.,0.,1.));
#758 = CYLINDRICAL_SURFACE('',#759,1.600049974265);
#759 = AXIS2_PLACEMENT_3D('',#760,#761,#762);
#760 = CARTESIAN_POINT('',(22.500000025735,-11.79999994811,-1.6));
#761 = DIRECTION('',(0.,0.,-1.));
#762 = DIRECTION('',(-1.,0.,0.));
#763 = ADVANCED_FACE('',(#764),#770,.F.);
#764 = FACE_BOUND('',#765,.F.);
#765 = EDGE_LOOP('',(#766,#767,#768,#769));
#766 = ORIENTED_EDGE('',*,*,#462,.F.);
#767 = ORIENTED_EDGE('',*,*,#753,.T.);
#768 = ORIENTED_EDGE('',*,*,#201,.T.);
#769 = ORIENTED_EDGE('',*,*,#746,.F.);
#770 = CYLINDRICAL_SURFACE('',#771,1.600049974265);
#771 = AXIS2_PLACEMENT_3D('',#772,#773,#774);
#772 = CARTESIAN_POINT('',(22.499999974265,-11.79999994939,-1.6));
#773 = DIRECTION('',(0.,0.,-1.));
#774 = DIRECTION('',(-1.,0.,0.));
#775 = ADVANCED_FACE('',(#776),#792,.F.);
#776 = FACE_BOUND('',#777,.F.);
#777 = EDGE_LOOP('',(#778,#779,#785,#786));
#778 = ORIENTED_EDGE('',*,*,#471,.F.);
#779 = ORIENTED_EDGE('',*,*,#780,.T.);
#780 = EDGE_CURVE('',#472,#211,#781,.T.);
#781 = LINE('',#782,#783);
#782 = CARTESIAN_POINT('',(-13.1837813,21.3995526,-1.6));
#783 = VECTOR('',#784,1.);
#784 = DIRECTION('',(0.,0.,1.));
#785 = ORIENTED_EDGE('',*,*,#210,.T.);
#786 = ORIENTED_EDGE('',*,*,#787,.F.);
#787 = EDGE_CURVE('',#474,#213,#788,.T.);
#788 = LINE('',#789,#790);
#789 = CARTESIAN_POINT('',(-13.1040006,18.2004473,-1.6));
#790 = VECTOR('',#791,1.);
#791 = DIRECTION('',(0.,0.,1.));
#792 = CYLINDRICAL_SURFACE('',#793,1.600049974265);
#793 = AXIS2_PLACEMENT_3D('',#794,#795,#796);
#794 = CARTESIAN_POINT('',(-13.14389097426,19.799999949395,-1.6));
#795 = DIRECTION('',(0.,0.,-1.));
#796 = DIRECTION('',(-1.,0.,0.));
#797 = ADVANCED_FACE('',(#798),#804,.F.);
#798 = FACE_BOUND('',#799,.F.);
#799 = EDGE_LOOP('',(#800,#801,#802,#803));
#800 = ORIENTED_EDGE('',*,*,#482,.F.);
#801 = ORIENTED_EDGE('',*,*,#787,.T.);
#802 = ORIENTED_EDGE('',*,*,#221,.T.);
#803 = ORIENTED_EDGE('',*,*,#780,.F.);
#804 = CYLINDRICAL_SURFACE('',#805,1.600049974265);
#805 = AXIS2_PLACEMENT_3D('',#806,#807,#808);
#806 = CARTESIAN_POINT('',(-13.14389102573,19.799999948111,-1.6));
#807 = DIRECTION('',(0.,0.,-1.));
#808 = DIRECTION('',(-1.,0.,0.));
#809 = ADVANCED_FACE('',(#810),#826,.F.);
#810 = FACE_BOUND('',#811,.F.);
#811 = EDGE_LOOP('',(#812,#813,#819,#820));
#812 = ORIENTED_EDGE('',*,*,#491,.F.);
#813 = ORIENTED_EDGE('',*,*,#814,.T.);
#814 = EDGE_CURVE('',#492,#231,#815,.T.);
#815 = LINE('',#816,#817);
#816 = CARTESIAN_POINT('',(3.3999999,21.687784,-1.6));
#817 = VECTOR('',#818,1.);
#818 = DIRECTION('',(0.,0.,1.));
#819 = ORIENTED_EDGE('',*,*,#230,.T.);
#820 = ORIENTED_EDGE('',*,*,#821,.F.);
#821 = EDGE_CURVE('',#494,#233,#822,.T.);
#822 = LINE('',#823,#824);
#823 = CARTESIAN_POINT('',(3.3999999,20.6878839,-1.6));
#824 = VECTOR('',#825,1.);
#825 = DIRECTION('',(0.,0.,1.));
#826 = CYLINDRICAL_SURFACE('',#827,0.49995005);
#827 = AXIS2_PLACEMENT_3D('',#828,#829,#830);
#828 = CARTESIAN_POINT('',(3.39999995,21.18783395,-1.6));
#829 = DIRECTION('',(0.,0.,-1.));
#830 = DIRECTION('',(-1.,0.,0.));
#831 = ADVANCED_FACE('',(#832),#838,.F.);
#832 = FACE_BOUND('',#833,.F.);
#833 = EDGE_LOOP('',(#834,#835,#836,#837));
#834 = ORIENTED_EDGE('',*,*,#502,.F.);
#835 = ORIENTED_EDGE('',*,*,#821,.T.);
#836 = ORIENTED_EDGE('',*,*,#241,.T.);
#837 = ORIENTED_EDGE('',*,*,#814,.F.);
#838 = CYLINDRICAL_SURFACE('',#839,0.49995005);
#839 = AXIS2_PLACEMENT_3D('',#840,#841,#842);
#840 = CARTESIAN_POINT('',(3.39999995,21.18783395,-1.6));
#841 = DIRECTION('',(0.,0.,-1.));
#842 = DIRECTION('',(-1.,0.,0.));
#843 = ADVANCED_FACE('',(#844),#860,.F.);
#844 = FACE_BOUND('',#845,.F.);
#845 = EDGE_LOOP('',(#846,#847,#853,#854));
#846 = ORIENTED_EDGE('',*,*,#511,.F.);
#847 = ORIENTED_EDGE('',*,*,#848,.T.);
#848 = EDGE_CURVE('',#512,#251,#849,.T.);
#849 = LINE('',#850,#851);
#850 = CARTESIAN_POINT('',(5.9999999,21.69995,-1.6));
#851 = VECTOR('',#852,1.);
#852 = DIRECTION('',(0.,0.,1.));
#853 = ORIENTED_EDGE('',*,*,#250,.T.);
#854 = ORIENTED_EDGE('',*,*,#855,.F.);
#855 = EDGE_CURVE('',#514,#253,#856,.T.);
#856 = LINE('',#857,#858);
#857 = CARTESIAN_POINT('',(6.,20.7000499,-1.6));
#858 = VECTOR('',#859,1.);
#859 = DIRECTION('',(0.,0.,1.));
#860 = CYLINDRICAL_SURFACE('',#861,0.49995005);
#861 = AXIS2_PLACEMENT_3D('',#862,#863,#864);
#862 = CARTESIAN_POINT('',(5.99999995,21.19999995,-1.6));
#863 = DIRECTION('',(0.,0.,-1.));
#864 = DIRECTION('',(-1.,0.,0.));
#865 = ADVANCED_FACE('',(#866),#872,.F.);
#866 = FACE_BOUND('',#867,.F.);
#867 = EDGE_LOOP('',(#868,#869,#870,#871));
#868 = ORIENTED_EDGE('',*,*,#522,.F.);
#869 = ORIENTED_EDGE('',*,*,#855,.T.);
#870 = ORIENTED_EDGE('',*,*,#261,.T.);
#871 = ORIENTED_EDGE('',*,*,#848,.F.);
#872 = CYLINDRICAL_SURFACE('',#873,0.49995005);
#873 = AXIS2_PLACEMENT_3D('',#874,#875,#876);
#874 = CARTESIAN_POINT('',(6.00000005,21.19999995,-1.6));
#875 = DIRECTION('',(0.,0.,-1.));
#876 = DIRECTION('',(-1.,0.,0.));
#877 = ADVANCED_FACE('',(#878),#894,.F.);
#878 = FACE_BOUND('',#879,.F.);
#879 = EDGE_LOOP('',(#880,#881,#887,#888));
#880 = ORIENTED_EDGE('',*,*,#531,.F.);
#881 = ORIENTED_EDGE('',*,*,#882,.T.);
#882 = EDGE_CURVE('',#532,#271,#883,.T.);
#883 = LINE('',#884,#885);
#884 = CARTESIAN_POINT('',(13.5678339,21.69995,-1.6));
#885 = VECTOR('',#886,1.);
#886 = DIRECTION('',(0.,0.,1.));
#887 = ORIENTED_EDGE('',*,*,#270,.T.);
#888 = ORIENTED_EDGE('',*,*,#889,.F.);
#889 = EDGE_CURVE('',#534,#273,#890,.T.);
#890 = LINE('',#891,#892);
#891 = CARTESIAN_POINT('',(13.567834,20.7000499,-1.6));
#892 = VECTOR('',#893,1.);
#893 = DIRECTION('',(0.,0.,1.));
#894 = CYLINDRICAL_SURFACE('',#895,0.49995005);
#895 = AXIS2_PLACEMENT_3D('',#896,#897,#898);
#896 = CARTESIAN_POINT('',(13.56783395,21.19999995,-1.6));
#897 = DIRECTION('',(0.,0.,-1.));
#898 = DIRECTION('',(-1.,0.,0.));
#899 = ADVANCED_FACE('',(#900),#906,.F.);
#900 = FACE_BOUND('',#901,.F.);
#901 = EDGE_LOOP('',(#902,#903,#904,#905));
#902 = ORIENTED_EDGE('',*,*,#542,.F.);
#903 = ORIENTED_EDGE('',*,*,#889,.T.);
#904 = ORIENTED_EDGE('',*,*,#281,.T.);
#905 = ORIENTED_EDGE('',*,*,#882,.F.);
#906 = CYLINDRICAL_SURFACE('',#907,0.49995005);
#907 = AXIS2_PLACEMENT_3D('',#908,#909,#910);
#908 = CARTESIAN_POINT('',(13.56783405,21.19999995,-1.6));
#909 = DIRECTION('',(0.,0.,-1.));
#910 = DIRECTION('',(-1.,0.,0.));
#911 = ADVANCED_FACE('',(#912),#928,.F.);
#912 = FACE_BOUND('',#913,.F.);
#913 = EDGE_LOOP('',(#914,#915,#921,#922));
#914 = ORIENTED_EDGE('',*,*,#551,.F.);
#915 = ORIENTED_EDGE('',*,*,#916,.T.);
#916 = EDGE_CURVE('',#552,#291,#917,.T.);
#917 = LINE('',#918,#919);
#918 = CARTESIAN_POINT('',(16.1078339,21.69995,-1.6));
#919 = VECTOR('',#920,1.);
#920 = DIRECTION('',(0.,0.,1.));
#921 = ORIENTED_EDGE('',*,*,#290,.T.);
#922 = ORIENTED_EDGE('',*,*,#923,.F.);
#923 = EDGE_CURVE('',#554,#293,#924,.T.);
#924 = LINE('',#925,#926);
#925 = CARTESIAN_POINT('',(16.1078339,20.70005,-1.6));
#926 = VECTOR('',#927,1.);
#927 = DIRECTION('',(0.,0.,1.));
#928 = CYLINDRICAL_SURFACE('',#929,0.49995);
#929 = AXIS2_PLACEMENT_3D('',#930,#931,#932);
#930 = CARTESIAN_POINT('',(16.107834,21.2,-1.6));
#931 = DIRECTION('',(0.,0.,-1.));
#932 = DIRECTION('',(-1.,0.,0.));
#933 = ADVANCED_FACE('',(#934),#940,.F.);
#934 = FACE_BOUND('',#935,.F.);
#935 = EDGE_LOOP('',(#936,#937,#938,#939));
#936 = ORIENTED_EDGE('',*,*,#562,.F.);
#937 = ORIENTED_EDGE('',*,*,#923,.T.);
#938 = ORIENTED_EDGE('',*,*,#301,.T.);
#939 = ORIENTED_EDGE('',*,*,#916,.F.);
#940 = CYLINDRICAL_SURFACE('',#941,0.49995);
#941 = AXIS2_PLACEMENT_3D('',#942,#943,#944);
#942 = CARTESIAN_POINT('',(16.107834,21.2,-1.6));
#943 = DIRECTION('',(0.,0.,-1.));
#944 = DIRECTION('',(-1.,0.,0.));
#945 = ADVANCED_FACE('',(#946),#962,.F.);
#946 = FACE_BOUND('',#947,.F.);
#947 = EDGE_LOOP('',(#948,#949,#955,#956));
#948 = ORIENTED_EDGE('',*,*,#571,.F.);
#949 = ORIENTED_EDGE('',*,*,#950,.T.);
#950 = EDGE_CURVE('',#572,#311,#951,.T.);
#951 = LINE('',#952,#953);
#952 = CARTESIAN_POINT('',(22.4601096,21.4019816,-1.6));
#953 = VECTOR('',#954,1.);
#954 = DIRECTION('',(0.,0.,1.));
#955 = ORIENTED_EDGE('',*,*,#310,.T.);
#956 = ORIENTED_EDGE('',*,*,#957,.F.);
#957 = EDGE_CURVE('',#574,#313,#958,.T.);
#958 = LINE('',#959,#960);
#959 = CARTESIAN_POINT('',(22.5398903,18.2028763,-1.6));
#960 = VECTOR('',#961,1.);
#961 = DIRECTION('',(0.,0.,1.));
#962 = CYLINDRICAL_SURFACE('',#963,1.600049974265);
#963 = AXIS2_PLACEMENT_3D('',#964,#965,#966);
#964 = CARTESIAN_POINT('',(22.500000025735,19.802428951889,-1.6));
#965 = DIRECTION('',(0.,0.,-1.));
#966 = DIRECTION('',(-1.,0.,0.));
#967 = ADVANCED_FACE('',(#968),#974,.F.);
#968 = FACE_BOUND('',#969,.F.);
#969 = EDGE_LOOP('',(#970,#971,#972,#973));
#970 = ORIENTED_EDGE('',*,*,#582,.F.);
#971 = ORIENTED_EDGE('',*,*,#957,.T.);
#972 = ORIENTED_EDGE('',*,*,#321,.T.);
#973 = ORIENTED_EDGE('',*,*,#950,.F.);
#974 = CYLINDRICAL_SURFACE('',#975,1.600049974265);
#975 = AXIS2_PLACEMENT_3D('',#976,#977,#978);
#976 = CARTESIAN_POINT('',(22.499999974265,19.802428950605,-1.6));
#977 = DIRECTION('',(0.,0.,-1.));
#978 = DIRECTION('',(-1.,0.,0.));
#979 = ( GEOMETRIC_REPRESENTATION_CONTEXT(3) 
GLOBAL_UNCERTAINTY_ASSIGNED_CONTEXT((#983)) GLOBAL_UNIT_ASSIGNED_CONTEXT
((#980,#981,#982)) REPRESENTATION_CONTEXT('Context #1',
  '3D Context with UNIT and UNCERTAINTY') );
#980 = ( LENGTH_UNIT() NAMED_UNIT(*) SI_UNIT(.MILLI.,.METRE.) );
#981 = ( NAMED_UNIT(*) PLANE_ANGLE_UNIT() SI_UNIT($,.RADIAN.) );
#982 = ( NAMED_UNIT(*) SI_UNIT($,.STERADIAN.) SOLID_ANGLE_UNIT() );
#983 = UNCERTAINTY_MEASURE_WITH_UNIT(LENGTH_MEASURE(1.E-07),#980,
  'distance_accuracy_value','confusion accuracy');
#984 = PRODUCT_RELATED_PRODUCT_CATEGORY('part',$,(#7));
#985 = MECHANICAL_DESIGN_GEOMETRIC_PRESENTATION_REPRESENTATION('',(#986)
  ,#979);
#986 = STYLED_ITEM('color',(#987),#15);
#987 = PRESENTATION_STYLE_ASSIGNMENT((#988,#996));
#988 = SURFACE_STYLE_USAGE(.BOTH.,#989);
#989 = SURFACE_SIDE_STYLE('',(#990,#994));
#990 = SURFACE_STYLE_FILL_AREA(#991);
#991 = FILL_AREA_STYLE('',(#992));
#992 = FILL_AREA_STYLE_COLOUR('',#993);
#993 = COLOUR_RGB('',0.254901970902,0.764705913506,0.509803943113);
#994 = SURFACE_STYLE_RENDERING_WITH_PROPERTIES(.NORMAL_SHADING.,#993,(
    #995));
#995 = SURFACE_STYLE_TRANSPARENT(0.800000011921);
#996 = CURVE_STYLE('',#997,POSITIVE_LENGTH_MEASURE(0.1),#998);
#997 = DRAUGHTING_PRE_DEFINED_CURVE_FONT('continuous');
#998 = COLOUR_RGB('',9.803921802644E-02,9.803921802644E-02,
  9.803921802644E-02);
ENDSEC;
END-ISO-10303-21;
